<svg xmlns="http://www.w3.org/2000/svg" xmlns:xlink="http://www.w3.org/1999/xlink" width="100" height="100" viewBox="0 0 100 100">
  <defs>
    <clipPath id="clip-path">
      <rect id="Rectangle_10471" data-name="Rectangle 10471" width="52" height="63" fill="#fff"/>
    </clipPath>
  </defs>
  <g id="_1st" data-name="1st" transform="translate(803 -8890)">
    <g id="Rectangle_10478" data-name="Rectangle 10478" transform="translate(-803 8890)" fill="#fff" stroke="#707070" stroke-width="1" opacity="0">
      <rect width="100" height="100" stroke="none"/>
      <rect x="0.5" y="0.5" width="99" height="99" fill="none"/>
    </g>
    <g id="choose-1_2" data-name="choose-1 2" transform="translate(-779 8909)" clip-path="url(#clip-path)">
      <g id="Group">
        <g id="Group_2">
          <g id="Group_3">
            <path id="Vector" d="M39.715,54.2v8.813H4.724V54.2H17.1V19.742c0-.748.011-1.52.046-2.3s.069-1.578.127-2.384L9.112,21.916a4.4,4.4,0,0,1-1.679.83,3.668,3.668,0,0,1-1.552.023A3.517,3.517,0,0,1,4.6,22.243a3.527,3.527,0,0,1-.857-.76L0,16.4,19.174,0h9.761V54.2Z" fill="#ef5da8"/>
          </g>
        </g>
        <g id="Group_4">
          <g id="Group_5">
            <g id="Group_6">
              <g id="Group_7">
                <path id="Vector_2" d="M37.573,2.057a.742.742,0,0,1-.185.222.425.425,0,0,1-.243.07.619.619,0,0,1-.313-.105c-.116-.07-.243-.14-.394-.222a3.7,3.7,0,0,0-.521-.222,2,2,0,0,0-.683-.105,1.474,1.474,0,0,0-1.031.316,1.041,1.041,0,0,0-.347.806.749.749,0,0,0,.185.526,1.672,1.672,0,0,0,.5.362,3.748,3.748,0,0,0,.695.269c.255.082.521.164.8.269a6.081,6.081,0,0,1,.8.339,2.677,2.677,0,0,1,.695.491,2.243,2.243,0,0,1,.5.713,2.509,2.509,0,0,1,.185,1.029,3.366,3.366,0,0,1-.232,1.239,2.8,2.8,0,0,1-.66,1.005,2.658,2.658,0,0,1-1.042.678,3.937,3.937,0,0,1-1.436.245,4.956,4.956,0,0,1-.915-.094,5.323,5.323,0,0,1-.868-.257,5.532,5.532,0,0,1-.787-.4,3.208,3.208,0,0,1-.648-.526l.579-.947a.578.578,0,0,1,.2-.175.492.492,0,0,1,.255-.07.779.779,0,0,1,.382.129c.127.094.29.187.452.292a3.222,3.222,0,0,0,.6.292,2.172,2.172,0,0,0,.822.129,1.647,1.647,0,0,0,1.077-.316,1.166,1.166,0,0,0,.382-.958.894.894,0,0,0-.185-.6,1.541,1.541,0,0,0-.5-.386,4.8,4.8,0,0,0-.695-.269q-.382-.105-.8-.245a8.144,8.144,0,0,1-.8-.316,2.887,2.887,0,0,1-.695-.491,2.332,2.332,0,0,1-.5-.76,2.938,2.938,0,0,1-.185-1.134,2.747,2.747,0,0,1,.208-1.052,2.519,2.519,0,0,1,.625-.9A3.154,3.154,0,0,1,33.856.3,3.565,3.565,0,0,1,35.222.059a4.68,4.68,0,0,1,1.6.269,3.725,3.725,0,0,1,1.25.748Z" fill="#702a85"/>
              </g>
            </g>
            <g id="Group_8">
              <g id="Group_9">
                <path id="Vector_3" d="M46.453,1.812h-2.8V9.877H41.66V1.812h-2.8V.2h7.6Z" fill="#702a85"/>
              </g>
            </g>
          </g>
        </g>
        <g id="Group_10">
          <g id="Group_11">
            <g id="Group_12">
              <g id="Group_13">
                <path id="Vector_4" d="M38.186,19.181c.394.245.382.631.382,1.017-.012.795,0,.795.787.795h2.953a.523.523,0,0,0,.5-.234c.29-.421.51-.468.95-.246A16.86,16.86,0,0,1,47.4,22.664,10.309,10.309,0,0,1,51.108,31.3a4.026,4.026,0,0,1-.845,2.209.534.534,0,0,0-.058.631c.556,1.239,1.1,2.478,1.644,3.717a1.225,1.225,0,0,1-1.193,1.87H49.95c0,.549-.012,1.064,0,1.59a.878.878,0,0,1-.336.807,2.085,2.085,0,0,0-.88,2.127,16.23,16.23,0,0,1,.012,1.987c0,.538-.208.748-.753.748-1.1,0-2.2.035-3.3-.012a2.8,2.8,0,0,1-1.123-.351c-1.031-.538-2.038-1.11-3.091-1.695-.428.713-.868,1.449-1.3,2.186-.046.07-.023.187-.023.28,0,.9-.012,1.8.012,2.688a.805.805,0,0,0,.2.479c1.193,1.227,2.408,2.443,3.613,3.658l.15.152a.6.6,0,0,1,.151.713.61.61,0,0,1-.59.362H23.643a.59.59,0,0,1-.59-.351.6.6,0,0,1,.151-.713l.521-.526c1.471-1.484,2.941-2.981,4.423-4.453a.716.716,0,0,0,.232-.584c-.012-2.723,0-5.458,0-8.182,0-.736.174-.9.88-.9h1.494V36.748c-.081-.012-.151-.023-.22-.035-.452-.047-.614-.2-.683-.654-.116-.678-.22-1.356-.336-2.022a.463.463,0,0,0-.695-.409c-.475.175-.938.362-1.413.526a.3.3,0,0,0-.243.362c.012.842.012,1.671.023,2.513,0,.736-.15.9-.868.9H23.192a.373.373,0,0,0-.405.222,1.771,1.771,0,0,1-2.038.923,1.821,1.821,0,0,1,.012-3.518,1.771,1.771,0,0,1,2.038.935.351.351,0,0,0,.371.222c.926-.012,1.841,0,2.814,0a10.978,10.978,0,0,1,.012-1.239,3.668,3.668,0,0,0-.729-2.712,4.4,4.4,0,0,1-.37-.643.614.614,0,0,1,.151-.877c.22-.2.463-.386.741-.619H23.968c-.868.012-1.725.035-2.594.035a.351.351,0,0,0-.37.222,1.746,1.746,0,0,1-1.992.947,1.81,1.81,0,1,1,2-2.607.442.442,0,0,0,.289.222c1.818-.012,3.624-.047,5.442-.07a1.891,1.891,0,0,0,.2-.047,2.575,2.575,0,0,0-.22-.245c-.5-.421-.984-.83-1.494-1.239-.243-.2-.5-.4-.428-.795H21.466c-.671,0-.845-.187-.845-.865s-.012-1.321,0-1.987a.4.4,0,0,0-.243-.409,1.787,1.787,0,0,1-.891-2.069,1.816,1.816,0,0,1,1.748-1.332A1.787,1.787,0,0,1,22.96,21.74a1.807,1.807,0,0,1-.88,2.045.418.418,0,0,0-.266.432c.012.526,0,1.052,0,1.625H24.13a2.9,2.9,0,0,0,1.239-.047c.313-.164.463-.643.671-.982a.6.6,0,0,1,.787-.269c.648.245,1.285.491,1.934.725.463.175.695.047.776-.456.1-.631.208-1.251.3-1.882.093-.573.255-.713.834-.713h.706c0-.76.012-1.484-.012-2.209a.8.8,0,0,1,.428-.818C33.925,19.181,36.056,19.181,38.186,19.181Zm9.8,22.921a4.74,4.74,0,0,1-2.605-1.3.594.594,0,0,1-.058-.853.585.585,0,0,1,.845-.047c.081.07.151.14.232.21a3.385,3.385,0,0,0,2.35.818c0-.584-.012-1.145,0-1.695.012-.491.232-.7.718-.713h1.343c-.058-.152-.1-.269-.162-.386-.59-1.333-1.17-2.677-1.772-4a.809.809,0,0,1,.162-1.017,3.193,3.193,0,0,0,.88-2.069,8.578,8.578,0,0,0-.371-2.969,9.606,9.606,0,0,0-6.032-6.277c-.822,1.169-1.656,2.338-2.478,3.518a.644.644,0,0,0-.081.362c0,2.116-.012,4.219,0,6.335a.88.88,0,0,0,.162.479c.452.643.95,1.262,1.4,1.905a1.258,1.258,0,0,1,.22.643c.023.7,0,1.414.012,2.127a.715.715,0,0,1-.533.771c-.741.281-1.471.6-2.212.888a.33.33,0,0,0-.255.351c.012,1.2,0,2.408.012,3.612a.463.463,0,0,0,.174.339c1.227.736,2.455,1.449,3.682,2.186a3.211,3.211,0,0,0,2.038.479,8.466,8.466,0,0,1,1.088-.012h.787v-2.49C47.542,42.861,47.5,42.417,47.982,42.1ZM37.19,31.874a14.191,14.191,0,0,0-1.158-.947,1.608,1.608,0,0,1-.811-1.648,1.285,1.285,0,0,1,.486-1.017c.509-.386,1-.818,1.494-1.227-.243-.421-.463-.806-.695-1.2-.51.2-1.019.351-1.494.573a1.331,1.331,0,0,1-1.644-.128.552.552,0,0,0-.185-.094A.779.779,0,0,1,32.7,25.5c-.1-.69-.232-1.379-.347-2.069H30.973c-.081.479-.185.935-.22,1.4-.058.713-.243,1.321-1.007,1.555a.4.4,0,0,0-.093.058.8.8,0,0,1-.915.105c-.625-.257-1.262-.479-1.922-.725-.232.409-.463.806-.695,1.2a12.1,12.1,0,0,0,1.088.888,1.675,1.675,0,0,1,.88,1.753,1.222,1.222,0,0,1-.44.935c-.521.4-1.007.83-1.528,1.262.243.421.463.806.683,1.2.486-.187.949-.316,1.378-.526a1.455,1.455,0,0,1,1.829.129.257.257,0,0,0,.127.058.752.752,0,0,1,.475.643c.1.7.232,1.391.347,2.092h1.378c.081-.468.174-.912.22-1.368.069-.725.232-1.368,1.031-1.613.012,0,.023-.012.035-.023a.867.867,0,0,1,1.007-.117c.614.257,1.239.467,1.864.713C36.739,32.669,36.959,32.295,37.19,31.874Zm-7.607,9.082v.432c0,2.56-.012,5.119.012,7.679a1.342,1.342,0,0,1-.428,1.028c-1.274,1.262-2.536,2.548-3.8,3.822-.081.082-.162.175-.266.292a.466.466,0,0,0,.139.035c1.3,0,2.594.012,3.89-.012a.528.528,0,0,0,.347-.175c.382-.421.753-.842,1.1-1.286a1,1,0,0,0,.2-.561c.023-1.2.012-2.408.012-3.612,0-.129.012-.245.023-.386H32v2.922c.382-.433.695-.771.984-1.146a.893.893,0,0,0,.2-.526Q33.2,45.4,33.2,41.33c0-.129-.012-.245-.023-.374Zm12.042-4.851a4.809,4.809,0,0,0-.2-1.169,5.012,5.012,0,0,0-.787-1.075.465.465,0,0,0-.336-.164c-.8-.012-1.586,0-2.385-.012a.527.527,0,0,0-.556.3c-.232.444-.475.514-.961.339-.648-.245-1.285-.491-1.934-.725a.451.451,0,0,0-.637.374c-.116.69-.232,1.368-.347,2.057-.081.5-.266.666-.776.678H32v2.992h6.554V38.91c0-.748.035-.806.741-1.087.359-.14.718-.292,1.077-.432-.012-.023-.012-.059-.023-.082H39.182V36.129C39.981,36.105,40.745,36.105,41.625,36.105Zm-9.02-15.7v1.765c.764.128.764.128.9.923.1.608.208,1.2.313,1.812a.461.461,0,0,0,.672.4c.614-.234,1.227-.456,1.841-.69.567-.21.764-.152,1.054.374a.4.4,0,0,0,.44.245c.428-.012.868-.023,1.3,0a.767.767,0,0,0,.822-.421c.486-.806,1.065-1.543,1.609-2.314.046-.07.093-.152.162-.269H38.2c-.648,0-.845-.2-.845-.842v-.958C35.766,20.408,34.2,20.408,32.605,20.408Zm1.771,28.4c0,.3-.012.584,0,.865a1.236,1.236,0,0,1-.347.958c-.973,1.1-1.934,2.209-2.895,3.319a1.628,1.628,0,0,0-.185.257h4.6v-5.4Zm2.42,0v5.412h4.469c-.116-.117-.185-.21-.266-.292-.9-.912-1.795-1.823-2.709-2.723a1.025,1.025,0,0,1-.336-.806c.023-.526,0-1.052,0-1.59Zm-1.216-7.854h-1.17v6.627H38.07a2.108,2.108,0,0,0-.29-.526c-.556-.584-1.123-1.169-1.714-1.718a1.407,1.407,0,0,1-.5-1.2C35.6,43.083,35.581,42.031,35.581,40.956Zm1.193-.012v3.273a.3.3,0,0,0,.081.187l1.586,1.6c.347-.6.683-1.157,1.019-1.706-.035-.047-.035-.07-.058-.082a1.009,1.009,0,0,0-.116-.082,1.127,1.127,0,0,1-.729-1.356,3.467,3.467,0,0,0,0-.491V40.944Zm1.494-14.494c.417.912.417.912-.324,1.531-.324.269-.637.538-1.007.841h2.8V26.451Zm.023,6.008h1.436V30.1H36.936c.359.3.648.538.938.783C38.649,31.524,38.649,31.524,38.29,32.459Zm-17.1-9.666a.577.577,0,0,0,.6-.6.6.6,0,0,0-.591-.608.609.609,0,0,0-.59.584A.578.578,0,0,0,21.189,22.792Zm.6,14.517a.591.591,0,0,0-.6-.6.583.583,0,0,0-.579.584.591.591,0,0,0,.59.608A.581.581,0,0,0,21.791,37.309Zm-1.829-7.223a.574.574,0,1,0-1.146-.023.584.584,0,0,0,.567.6A.573.573,0,0,0,19.961,30.086Z" fill="#702a85"/>
              </g>
            </g>
            <g id="Group_14">
              <path id="Vector_5" d="M46.951,33.078V31.933c.012-.409.22-.643.579-.655a.59.59,0,0,1,.614.655c.012.549.012,1.11,0,1.66a.6.6,0,0,1-.66.69c-.556.012-1.123.012-1.679,0a.6.6,0,0,1-.648-.584.609.609,0,0,1,.637-.608C46.164,33.067,46.534,33.078,46.951,33.078Z" fill="#702a85"/>
            </g>
            <g id="Group_15">
              <path id="Vector_6" d="M43.339,27.62H42.192V25.247h1.146Z" fill="#702a85"/>
            </g>
            <g id="Group_16">
              <path id="Vector_7" d="M43.362,30.039H42.192V28.859c.324,0,.648-.012.973.012a.257.257,0,0,1,.185.175C43.373,29.361,43.362,29.688,43.362,30.039Z" fill="#702a85"/>
            </g>
            <g id="Group_17">
              <path id="Vector_8" d="M43.35,31.3v1.157H42.2V31.3Z" fill="#702a85"/>
            </g>
            <g id="Group_18">
              <g id="Group_19">
                <path id="Vector_9" d="M34.053,29.466a2.391,2.391,0,1,1-2.362-2.431A2.393,2.393,0,0,1,34.053,29.466Zm-1.193-.023a1.2,1.2,0,1,0-1.2,1.215A1.194,1.194,0,0,0,32.86,29.443Z" fill="#702a85"/>
              </g>
            </g>
            <g id="Group_20">
              <path id="Vector_10" d="M30.8,46.964V45.807h1.146v1.157Z" fill="#702a85"/>
            </g>
            <g id="Group_21">
              <path id="Vector_11" d="M30.81,43.364h1.158v1.169H30.81Z" fill="#702a85"/>
            </g>
            <g id="Group_22">
              <path id="Vector_12" d="M34.411,36.129h1.158v1.157H34.411Z" fill="#702a85"/>
            </g>
            <g id="Group_23">
              <path id="Vector_13" d="M36.8,36.117h1.146v1.169H36.8Z" fill="#702a85"/>
            </g>
          </g>
        </g>
        <g id="Group_24">
          <g id="Group_25">
            <g id="Group_26">
              <path id="Vector_14" d="M38.186,19.181c.394.245.382.631.382,1.017-.012.795,0,.795.787.795h2.953a.523.523,0,0,0,.5-.234c.29-.421.51-.468.95-.246A16.86,16.86,0,0,1,47.4,22.664,10.309,10.309,0,0,1,51.108,31.3a4.026,4.026,0,0,1-.845,2.209.534.534,0,0,0-.058.631c.556,1.239,1.1,2.478,1.644,3.717a1.225,1.225,0,0,1-1.193,1.87H49.95c0,.549-.012,1.064,0,1.59a.878.878,0,0,1-.336.807,2.085,2.085,0,0,0-.88,2.127,16.23,16.23,0,0,1,.012,1.987c0,.538-.208.748-.753.748-1.1,0-2.2.035-3.3-.012a2.8,2.8,0,0,1-1.123-.351c-1.031-.538-2.038-1.11-3.091-1.695-.428.713-.868,1.449-1.3,2.186-.046.07-.023.187-.023.28,0,.9-.012,1.8.012,2.688a.805.805,0,0,0,.2.479c1.193,1.227,2.408,2.443,3.613,3.658l.15.152a.6.6,0,0,1,.151.713.61.61,0,0,1-.59.362H23.643a.59.59,0,0,1-.59-.351.6.6,0,0,1,.151-.713l.521-.526c1.471-1.484,2.941-2.981,4.423-4.453a.716.716,0,0,0,.232-.584c-.012-2.723,0-5.458,0-8.182,0-.736.174-.9.88-.9h1.494V36.748c-.081-.012-.151-.023-.22-.035-.452-.047-.614-.2-.683-.654-.116-.678-.22-1.356-.336-2.022a.463.463,0,0,0-.695-.409c-.475.175-.938.362-1.413.526a.3.3,0,0,0-.243.362c.012.842.012,1.671.023,2.513,0,.736-.15.9-.868.9H23.192a.373.373,0,0,0-.405.222,1.771,1.771,0,0,1-2.038.923,1.821,1.821,0,0,1,.012-3.518,1.771,1.771,0,0,1,2.038.935.351.351,0,0,0,.371.222c.926-.012,1.841,0,2.814,0a10.978,10.978,0,0,1,.012-1.239,3.668,3.668,0,0,0-.729-2.712,4.4,4.4,0,0,1-.37-.643.614.614,0,0,1,.151-.877c.22-.2.463-.386.741-.619H23.968c-.868.012-1.725.035-2.594.035a.351.351,0,0,0-.37.222,1.746,1.746,0,0,1-1.992.947,1.81,1.81,0,1,1,2-2.607.442.442,0,0,0,.289.222c1.818-.012,3.624-.047,5.442-.07a1.891,1.891,0,0,0,.2-.047,2.575,2.575,0,0,0-.22-.245c-.5-.421-.984-.83-1.494-1.239-.243-.2-.5-.4-.428-.795H21.466c-.671,0-.845-.187-.845-.865s-.012-1.321,0-1.987a.4.4,0,0,0-.243-.409,1.787,1.787,0,0,1-.891-2.069,1.816,1.816,0,0,1,1.748-1.332A1.787,1.787,0,0,1,22.96,21.74a1.807,1.807,0,0,1-.88,2.045.418.418,0,0,0-.266.432c.012.526,0,1.052,0,1.625H24.13a2.9,2.9,0,0,0,1.239-.047c.313-.164.463-.643.671-.982a.6.6,0,0,1,.787-.269c.648.245,1.285.491,1.934.725.463.175.695.047.776-.456.1-.631.208-1.251.3-1.882.093-.573.255-.713.834-.713h.706c0-.76.012-1.484-.012-2.209a.8.8,0,0,1,.428-.818C33.925,19.181,36.056,19.181,38.186,19.181Zm9.8,22.921a4.74,4.74,0,0,1-2.605-1.3.594.594,0,0,1-.058-.853.585.585,0,0,1,.845-.047c.081.07.151.14.232.21a3.385,3.385,0,0,0,2.35.818c0-.584-.012-1.145,0-1.695.012-.491.232-.7.718-.713h1.343c-.058-.152-.1-.269-.162-.386-.59-1.333-1.17-2.677-1.772-4a.809.809,0,0,1,.162-1.017,3.193,3.193,0,0,0,.88-2.069,8.578,8.578,0,0,0-.371-2.969,9.606,9.606,0,0,0-6.032-6.277c-.822,1.169-1.656,2.338-2.478,3.518a.644.644,0,0,0-.081.362c0,2.116-.012,4.219,0,6.335a.88.88,0,0,0,.162.479c.452.643.95,1.262,1.4,1.905a1.258,1.258,0,0,1,.22.643c.023.7,0,1.414.012,2.127a.715.715,0,0,1-.533.771c-.741.281-1.471.6-2.212.888a.33.33,0,0,0-.255.351c.012,1.2,0,2.408.012,3.612a.463.463,0,0,0,.174.339c1.227.736,2.455,1.449,3.682,2.186a3.211,3.211,0,0,0,2.038.479,8.466,8.466,0,0,1,1.088-.012h.787v-2.49C47.542,42.861,47.5,42.417,47.982,42.1ZM37.19,31.874a14.191,14.191,0,0,0-1.158-.947,1.608,1.608,0,0,1-.811-1.648,1.285,1.285,0,0,1,.486-1.017c.509-.386,1-.818,1.494-1.227-.243-.421-.463-.806-.695-1.2-.51.2-1.019.351-1.494.573a1.331,1.331,0,0,1-1.644-.128.552.552,0,0,0-.185-.094A.779.779,0,0,1,32.7,25.5c-.1-.69-.232-1.379-.347-2.069H30.973c-.081.479-.185.935-.22,1.4-.058.713-.243,1.321-1.007,1.555a.4.4,0,0,0-.093.058.8.8,0,0,1-.915.105c-.625-.257-1.262-.479-1.922-.725-.232.409-.463.806-.695,1.2a12.1,12.1,0,0,0,1.088.888,1.675,1.675,0,0,1,.88,1.753,1.222,1.222,0,0,1-.44.935c-.521.4-1.007.83-1.528,1.262.243.421.463.806.683,1.2.486-.187.949-.316,1.378-.526a1.455,1.455,0,0,1,1.829.129.257.257,0,0,0,.127.058.752.752,0,0,1,.475.643c.1.7.232,1.391.347,2.092h1.378c.081-.468.174-.912.22-1.368.069-.725.232-1.368,1.031-1.613.012,0,.023-.012.035-.023a.867.867,0,0,1,1.007-.117c.614.257,1.239.467,1.864.713C36.739,32.669,36.959,32.295,37.19,31.874Zm-7.607,9.082v.432c0,2.56-.012,5.119.012,7.679a1.342,1.342,0,0,1-.428,1.028c-1.274,1.262-2.536,2.548-3.8,3.822-.081.082-.162.175-.266.292a.466.466,0,0,0,.139.035c1.3,0,2.594.012,3.89-.012a.528.528,0,0,0,.347-.175c.382-.421.753-.842,1.1-1.286a1,1,0,0,0,.2-.561c.023-1.2.012-2.408.012-3.612,0-.129.012-.245.023-.386H32v2.922c.382-.433.695-.771.984-1.146a.893.893,0,0,0,.2-.526Q33.2,45.4,33.2,41.33c0-.129-.012-.245-.023-.374Zm12.042-4.851a4.809,4.809,0,0,0-.2-1.169,5.012,5.012,0,0,0-.787-1.075.465.465,0,0,0-.336-.164c-.8-.012-1.586,0-2.385-.012a.527.527,0,0,0-.556.3c-.232.444-.475.514-.961.339-.648-.245-1.285-.491-1.934-.725a.451.451,0,0,0-.637.374c-.116.69-.232,1.368-.347,2.057-.081.5-.266.666-.776.678H32v2.992h6.554V38.91c0-.748.035-.806.741-1.087.359-.14.718-.292,1.077-.432-.012-.023-.012-.059-.023-.082H39.182V36.129C39.981,36.105,40.745,36.105,41.625,36.105Zm-9.02-15.7v1.765c.764.128.764.128.9.923.1.608.208,1.2.313,1.812a.461.461,0,0,0,.672.4c.614-.234,1.227-.456,1.841-.69.567-.21.764-.152,1.054.374a.4.4,0,0,0,.44.245c.428-.012.868-.023,1.3,0a.767.767,0,0,0,.822-.421c.486-.806,1.065-1.543,1.609-2.314.046-.07.093-.152.162-.269H38.2c-.648,0-.845-.2-.845-.842v-.958C35.766,20.408,34.2,20.408,32.605,20.408Zm1.771,28.4c0,.3-.012.584,0,.865a1.236,1.236,0,0,1-.347.958c-.973,1.1-1.934,2.209-2.895,3.319a1.628,1.628,0,0,0-.185.257h4.6v-5.4Zm2.42,0v5.412h4.469c-.116-.117-.185-.21-.266-.292-.9-.912-1.795-1.823-2.709-2.723a1.025,1.025,0,0,1-.336-.806c.023-.526,0-1.052,0-1.59Zm-1.216-7.854h-1.17v6.627H38.07a2.108,2.108,0,0,0-.29-.526c-.556-.584-1.123-1.169-1.714-1.718a1.407,1.407,0,0,1-.5-1.2C35.6,43.083,35.581,42.031,35.581,40.956Zm1.193-.012v3.273a.3.3,0,0,0,.081.187l1.586,1.6c.347-.6.683-1.157,1.019-1.706-.035-.047-.035-.07-.058-.082a1.009,1.009,0,0,0-.116-.082,1.127,1.127,0,0,1-.729-1.356,3.467,3.467,0,0,0,0-.491V40.944Zm1.494-14.494c.417.912.417.912-.324,1.531-.324.269-.637.538-1.007.841h2.8V26.451Zm.023,6.008h1.436V30.1H36.936c.359.3.648.538.938.783C38.649,31.524,38.649,31.524,38.29,32.459Zm-17.1-9.666a.577.577,0,0,0,.6-.6.6.6,0,0,0-.591-.608.609.609,0,0,0-.59.584A.578.578,0,0,0,21.189,22.792Zm.6,14.517a.591.591,0,0,0-.6-.6.583.583,0,0,0-.579.584.591.591,0,0,0,.59.608A.581.581,0,0,0,21.791,37.309Zm-1.829-7.223a.574.574,0,1,0-1.146-.023.584.584,0,0,0,.567.6A.573.573,0,0,0,19.961,30.086Z" fill="#702a85"/>
              <path id="Vector_15" d="M46.951,33.078V31.933c.012-.409.22-.643.579-.655a.59.59,0,0,1,.614.655c.012.549.012,1.11,0,1.66a.6.6,0,0,1-.66.69c-.556.012-1.123.012-1.679,0a.6.6,0,0,1-.648-.584.609.609,0,0,1,.637-.608C46.164,33.067,46.534,33.078,46.951,33.078Z" fill="#702a85"/>
              <path id="Vector_16" d="M43.339,27.62H42.192V25.247h1.146Z" fill="#702a85"/>
              <path id="Vector_17" d="M43.362,30.039H42.192V28.859c.324,0,.648-.012.973.012a.257.257,0,0,1,.185.175C43.373,29.361,43.362,29.688,43.362,30.039Z" fill="#702a85"/>
              <path id="Vector_18" d="M43.35,31.3v1.157H42.2V31.3Z" fill="#702a85"/>
              <path id="Vector_19" d="M34.053,29.466a2.391,2.391,0,1,1-2.362-2.431A2.393,2.393,0,0,1,34.053,29.466Zm-1.193-.023a1.2,1.2,0,1,0-1.2,1.215A1.194,1.194,0,0,0,32.86,29.443Z" fill="#702a85"/>
              <path id="Vector_20" d="M30.8,46.964V45.807h1.146v1.157Z" fill="#702a85"/>
              <path id="Vector_21" d="M30.81,43.364h1.158v1.169H30.81Z" fill="#702a85"/>
              <path id="Vector_22" d="M34.411,36.129h1.158v1.157H34.411Z" fill="#702a85"/>
              <path id="Vector_23" d="M36.8,36.117h1.146v1.169H36.8Z" fill="#702a85"/>
            </g>
          </g>
        </g>
      </g>
    </g>
  </g>
</svg>
