<svg xmlns="http://www.w3.org/2000/svg" xmlns:xlink="http://www.w3.org/1999/xlink" width="100" height="100" viewBox="0 0 100 100">
  <defs>
    <clipPath id="clip-path">
      <rect id="Rectangle_10473" data-name="Rectangle 10473" width="100" height="48" fill="#fff"/>
    </clipPath>
  </defs>
  <g id="_5K_" data-name="5K+" transform="translate(1033 -8890)">
    <g id="Rectangle_10475" data-name="Rectangle 10475" transform="translate(-1033 8890)" fill="#fff" stroke="#707070" stroke-width="1" opacity="0">
      <rect width="100" height="100" stroke="none"/>
      <rect x="0.5" y="0.5" width="99" height="99" fill="none"/>
    </g>
    <g id="choose-2_2" data-name="choose-2 2" transform="translate(-1033 8916)" clip-path="url(#clip-path)">
      <g id="Group">
        <g id="Group_2">
          <path id="Vector" d="M11.338,17.011a25.852,25.852,0,0,1,2.829-.421c.9-.082,1.777-.129,2.63-.129a17.906,17.906,0,0,1,6.581,1.124,13.713,13.713,0,0,1,4.8,3.091A12.77,12.77,0,0,1,31.1,25.288a16.255,16.255,0,0,1,.982,5.69A17.27,17.27,0,0,1,30.742,37.9a15.784,15.784,0,0,1-3.705,5.362,16.708,16.708,0,0,1-5.646,3.489A20.143,20.143,0,0,1,14.214,48,19.1,19.1,0,0,1,9.9,47.52a20.2,20.2,0,0,1-3.834-1.276,21.634,21.634,0,0,1-3.32-1.85A21.286,21.286,0,0,1,0,42.2l2.782-3.793a2.694,2.694,0,0,1,2.291-1.206,3.241,3.241,0,0,1,1.73.527q.842.527,1.929,1.159a15.31,15.31,0,0,0,2.513,1.159,10.22,10.22,0,0,0,3.495.527,9,9,0,0,0,3.694-.7,7.094,7.094,0,0,0,2.595-1.932,8.076,8.076,0,0,0,1.531-2.915,12.469,12.469,0,0,0,.5-3.618,7.535,7.535,0,0,0-2.1-5.713q-2.1-2.02-6.125-2.014a18.794,18.794,0,0,0-6.628,1.241L2.618,23.356,6.6,0H30.392V3.793a5.012,5.012,0,0,1-.281,1.721A3.365,3.365,0,0,1,29.2,6.86a4.132,4.132,0,0,1-1.637.878,8.284,8.284,0,0,1-2.443.3H12.87Z" fill="#ef5da8"/>
          <path id="Vector_2" d="M50.182,19.6h1.929a3.988,3.988,0,0,0,3.5-1.51L67.587,2.025A4.865,4.865,0,0,1,69.446.433,6.5,6.5,0,0,1,71.936,0h8.5l-15.1,19.469a9.614,9.614,0,0,1-3.039,2.716,7.959,7.959,0,0,1,2.057,1.194,9.643,9.643,0,0,1,1.765,1.943L81.6,47.473h-8.72a7.317,7.317,0,0,1-1.449-.129,4.2,4.2,0,0,1-1.064-.363,2.764,2.764,0,0,1-.783-.574,5.509,5.509,0,0,1-.619-.8L56.775,28.531A3.6,3.6,0,0,0,55.3,27.266a6.112,6.112,0,0,0-2.384-.375H50.17V47.473h-9.8V0h9.8V19.6Z" fill="#ef5da8"/>
        </g>
        <g id="Group_3">
          <g id="Group_4">
            <g id="Group_5">
              <g id="Group_6">
                <path id="Vector_3" d="M100,21.811H92.029v8.511h-4.7V21.811H79.4V17.584h7.925V9.108h4.7V17.6H100Z" fill="#702a85"/>
              </g>
            </g>
          </g>
        </g>
      </g>
    </g>
  </g>
</svg>
