<svg version="1.1" id="Layer_1" xmlns="http://www.w3.org/2000/svg" xmlns:xlink="http://www.w3.org/1999/xlink" x="0" y="0" viewBox="0 0 321.06 184.24" style="enable-background:new 0 0 321.06 184.24" xml:space="preserve"><style>.st3{fill:#fff}.st25{opacity:.15}.st26{fill:#e5ddee}.st31{fill:#fdd501}.st33{fill:#2a3173}.st35{fill:#282f6c}.st36{fill:#dcd3e9}.st37{fill:#f1ecf6}.st38{opacity:.2;fill:#fff}.st39{fill:#3e2311}.st40{fill:#f9bab5}.st42{fill:#2b3e99}.st43{fill:#2b357d}.st47{fill:#1b2137}.st48{fill:#eaa422}.st50{fill:#7b6eb2}.st52{fill:#b3a6d1}.st54{fill:#7a6db2}.st58{fill:#693d37}.st68{fill:#683614}.st70{fill:#8479b8}.st72{opacity:.1;fill:#fff}.st74{fill:#c9486a}.st76{fill:#e3a725}.st78{fill:#e5ac23}.st83{fill:#c2b7da}</style><g id="die_2_"><linearGradient id="SVGID_1_" gradientUnits="userSpaceOnUse" x1="18.368" y1="88.888" x2="302.696" y2="88.888"><stop offset="0" style="stop-color:#e8e9f5"/><stop offset="1" style="stop-color:#ded8ec"/></linearGradient><path d="M300.86 124.23c-2.01 13.14-4.43 28.4-14.77 37.72-6.03 5.43-13.75 8.81-22.04 10.98-11.57 3.02-24.27 3.69-35.07 4.28-28.21 1.54-48.09-.57-76.34-.3-17.68.17-38.27.39-57.19-3.33-9.68-1.91-18.92-4.85-27.11-9.37C28.57 142.29 6.81 92.33 24.69 49.92 35.54 24.2 58.88 12.51 86.05 13.67c14.77.63 29.07 4.6 43.94 2.97 14.46-1.59 28.2-6.76 42.24-10.28 28.4-7.13 60.86-10.23 87.56 1.38 26.51 11.53 38.57 46.77 41.71 72.44 1.78 14.61 1.58 29.49-.64 44.05z" style="opacity:.3;fill:url(#SVGID_1_)"/><g><g class="st25"><path class="st26" d="M275.3 101.5c-1.62-12.22-3.98-24.51-9.22-35.67s-13.68-21.2-24.89-26.34c-9.32-4.28-19.82-4.92-29.91-6.74-9.64-1.74-19.19-4.6-28.99-4.53-15.51.12-29.91 7.54-43.66 14.75-6.08 3.19-12.34 6.43-19.15 7.27-8.48 1.05-17.1-1.69-25.57-.59-9.19 1.2-17.28 6.85-23.62 13.62-4.57 4.87-8.5 10.54-10.23 16.99-1.61 6.03-1.22 12.42-.26 18.59 2.94 18.77 11.43 36.98 25.5 49.74 19.1 17.32 45.88 22.89 71.41 26.49l37.28-7.55c11.28-1.76 22.57-3.53 33.65-6.26 10.18-2.51 20.31-5.91 29.01-11.77 8.7-5.85 15.93-14.41 18.5-24.58 1.94-7.63 1.19-15.64.15-23.42z"/></g><path class="st26" d="M241.6 69.55v7.64c0 .29-.12.55-.31.74v48.87c-.3.53-.61 1.06-.93 1.58-.77 1.24-1.62 2.45-2.53 3.62a43.886 43.886 0 0 1-4 4.46c-3.94 3.83-8.79 7.17-14.6 9.94-5.36 2.56-10.93 4.49-16.64 6.06-10.15 2.8-20.7 4.48-31.1 6.6-1.23.25-2.45.51-3.67.77-.06.01-.11.02-.17.04-.53.12-1.06.23-1.59.35l-.93.21c-4.57 1.05-9.08 2.25-13.5 3.74-4.22 1.42-8.62 3.23-13.08 4.92-15.95.55-28.69 1.4-36.07 2.42-2.85-1.07-5.62-2.35-8.25-3.66-16.46-8.22-32.35-19.7-44.17-33.88C28.41 108 17.5 56.33 59.61 43.04c10.64-3.36 21.49.7 32.28-.97 9-1.4 16.83-6.31 24.77-10.45 19.54-10.18 36.84-12.93 58.42-8.49 1.73.36 3.47.69 5.21 1.01 4.38.81 8.75 1.55 13.06 2.42.78.16 1.57.32 2.35.49 2.71.58 5.38 1.24 7.99 2.01 4.01 1.18 7.89 2.64 11.56 4.57.57.3 1.13.61 1.69.93a45.14 45.14 0 0 1 5.7 3.88c.57.45 1.12.92 1.67 1.41a44.138 44.138 0 0 1 5.23 5.51c3.4 4.26 6.12 8.95 8.31 13.89.93 2.1 1.77 4.25 2.53 6.44.13.38.26.75.38 1.13.19.57.37 1.14.55 1.71.08.34.19.68.29 1.02z" style="opacity:.25"/><path class="st26" d="M296.58 73.65c.12 16.79-9.01 28.67-21.22 37.71-7.83 5.8-16.92 10.43-25.65 14.44-2.76 1.27-5.57 2.44-8.42 3.44-.31.11-.62.22-.93.32-.84.28-1.68.56-2.53.81-1.71.52-3.44.96-5.16 1.33l-.55.12c-6.11 1.23-12.27 1.44-18.27.01-.01 0-.03-.01-.04-.01-3.88-.93-7.69-2.53-11.39-4.98-4.63-3.07-8.48-7.09-12.04-11.46-3.03-3.71-5.86-7.66-8.79-11.48-.82-1.07-1.65-2.13-2.5-3.18-2.06-2.54-4.21-4.97-6.55-7.18-.33-.31-.67-.62-1.03-.94-1.21-1.08-2.53-2.18-3.84-3.31-.54-.46-1.07-.93-1.59-1.41-.32-.29-.63-.58-.93-.87V68.19H165c-.57 0-1.03-.46-1.03-1.03v-9.91c.38-.87.77-1.73 1.17-2.59.15-.33.31-.65.47-.98.15-.32.31-.63.47-.95a89.11 89.11 0 0 1 1.59-3.07c.03-.05.06-.11.09-.16 2.29-4.22 4.89-8.28 7.8-12.1a87.14 87.14 0 0 1 6.56-7.66c.89-.92 1.8-1.82 2.73-2.69.31-.3.63-.59.95-.88.75-.68 1.51-1.36 2.29-2.02 9.64-8.29 21.34-15.3 33.62-18.42 11.39-2.9 29.82-2.45 35.88 9.65 3.21 6.42 2.19 12.1 8.2 17.15 4.27 3.6 9.5 6.12 14.13 9.23 11.73 7.91 16.56 17.52 16.66 31.89z" style="opacity:.1"/><g class="st25"><path class="st26" d="M274.25 153.59c-13.98 21.02-39.11 21.11-61.86 17.9-2.08-.29-4.15-.62-6.18-.95-3.11-.51-6.23-1.14-9.28-1.94-.91-.24-1.82-.49-2.72-.76-4.14-1.24-8.12-2.83-11.77-4.92-4.15-2.37-7.88-5.39-10.94-9.26-.48-.6-.94-1.23-1.38-1.87-.73-1.06-1.41-2.18-2.05-3.36l-.42-.81c-.6-1.19-1.13-2.4-1.59-3.64-.34-.91-.65-1.82-.93-2.75V71.57c.31-.25.62-.5.93-.74.52-.4 1.06-.8 1.59-1.18l.09-.06c1.41-1 2.85-1.94 4.26-2.85.39-.25.77-.49 1.16-.74.38-.25.77-.49 1.16-.73 1.79-1.11 3.61-2.16 5.46-3.15.96-.52 1.93-1.02 2.91-1.5 2.75-1.36 5.56-2.6 8.42-3.68 2.05-.78 4.12-1.49 6.22-2.11 4.87-1.45 9.86-2.48 14.94-3.02 4.52-.48 9.15-.7 13.79-.59 3.94.09 7.89.42 11.77 1.04.71.11 1.42.24 2.13.37.13.02.27.05.4.08.31.06.62.12.93.19.1.02.21.04.31.07 2.61.55 5.17 1.24 7.68 2.09 10.61 3.59 25.22 13.18 25.51 25.77.14 6.35-4.39 11.54-3.78 18.04.4 4.27 2.39 8.46 4.36 12.51.88 1.82 1.76 3.61 2.49 5.37 5.6 13.56 4.67 24.39-3.61 36.84z"/></g><g class="st25"><path class="st26" d="M190.7 28.59c-22.55-9.75-49.76-18.6-70.12-.03-11.04 10.07-14.57 20.35-12.42 34.89.9 6.08 3.25 12.86 2.31 19.01-.98 6.46-6.64 10.39-8.04 16.59-2.77 12.29 9.08 25.13 18.51 31.18 10.41 6.69 22.95 10.39 35.12 12.1 13.91 1.96 28.11.13 41.38-4.31 5.48-1.83 11.66-3.89 16-7.87 5.97-5.47 4.59-13.39 4.77-20.81.4-16.37 8.19-33.93 4.12-50.06-3.99-15.86-17.5-24.58-31.63-30.69z"/></g></g></g><path id="shadow_2_" class="st26" d="M264.04 172.93c-11.57 3.02-24.27 3.69-35.07 4.28-28.21 1.54-48.09-.57-76.34-.3-17.68.17-38.27.39-57.19-3.33.01-2.84 37.89-5.13 84.63-5.13 43.15-.01 78.75 1.95 83.97 4.48z"/><g id="flowers_2_"><linearGradient id="SVGID_00000103974535448146320800000013936319038721147265_" gradientUnits="userSpaceOnUse" x1="124.28" y1="149.691" x2="161.367" y2="149.691"><stop offset="0" style="stop-color:#7f8cc5"/><stop offset="1" style="stop-color:#5e6fb4"/></linearGradient><path style="fill:url(#SVGID_00000103974535448146320800000013936319038721147265_)" d="m161.36 167.29-.03.81-.49.29-.78.46-.12.07-2.11 1.24-.37.22-1.16.68-.51.3-.25.15h-1.98c-.68-.23-1.34-.46-2-.72-.22-.08-.44-.17-.66-.26-1.69-.67-3.31-1.41-4.87-2.23l3.56-.95.5-.13 1.95-.52-2.39-.53-.61-.14-10.07-2.24c-.56-.44-1.11-.88-1.64-1.34a41.196 41.196 0 0 1-6.65-7.19l-.25-.36a35.074 35.074 0 0 1-2.69-4.49c2.49-.75 4.55-1.32 4.81-1.28.37.06-3.2-1.62-6.68-3.24-.73-2.21-1.22-4.47-1.44-6.76l-.01-.05-.02-.18c-.01-.05-.01-.11-.01-.16-.29-3.44.01-6.94.96-10.41l.12-.42c.02 0 .04 0 .06.01 5.38.63 10.37 2.2 14.82 4.53.13.07.25.13.38.2l.41.22h.01c2.53 1.39 4.87 3.03 7 4.88l.7 4.3.29 1.77.58 3.58s.42-1.43.99-3.4c.06-.19.11-.38.17-.58.21-.74.44-1.53.67-2.34 1.66 1.84 3.14 3.82 4.41 5.93.02.03.04.07.06.1l.23.39c.93 1.59 1.75 3.25 2.44 4.97-.24.49-.49.99-.73 1.48-.26.54-.52 1.06-.77 1.56-.07.14-.13.28-.2.41-.99 2.02-1.7 3.52-1.59 3.39.12-.14 1.91-.77 4.12-1.51.17-.06.33-.11.5-.17.1-.03.19-.06.29-.1.03.14.07.29.1.43.06.25.11.5.17.75.17.8.31 1.61.43 2.43l.01.05.06.45c0 .02 0 .03.01.05.19 1.45.29 2.93.3 4.42-.02.37-.02.77-.03 1.18z"/><path class="st3" d="M157.46 170.37c-.33-.56-.67-1.11-1-1.67-2.47-4.07-5.07-8.07-7.81-12l-.34-.49a230.97 230.97 0 0 0-10.42-13.75c-.16-.2-.32-.39-.48-.59-3.82-4.64-7.84-9.16-12.05-13.55l.18-.42c5.71 5.95 11.08 12.13 16.07 18.53.2.26.41.52.61.78 3.23 4.18 6.3 8.44 9.22 12.79l.3.45c1.7 2.55 3.34 5.12 4.92 7.72.1.16.2.32.29.48.3.5.6.99.9 1.49l-.39.23z"/><path class="st3" d="M124.39 138.73c4.39.6 8.86 1.67 13.02 3.14.24.08.47.17.7.25l-.17.35c-.02-.01-.03-.01-.05-.02-4.28-1.57-8.91-2.71-13.46-3.34l-.04-.38zM141.14 132.85a54.415 54.415 0 0 0 1.07 14.39l-.44.07a55.447 55.447 0 0 1-1.13-13.33c.02-.46.04-.91.07-1.37l.43.24zM130.44 154.89c2.15-.22 4.34-.3 6.56-.24 3.9.1 7.71.62 11.31 1.55.18.05.37.1.55.14l-.13.36c-.02-.01-.05-.01-.07-.02-5.73-1.54-11.95-2.03-17.96-1.44l-.26-.35zM161.07 161.66c-1.85 2.1-3.27 4.48-4.13 7-.02.05-.03.1-.05.15l-.43-.11c.06-.18.12-.35.18-.52.83-2.29 2.11-4.46 3.79-6.44.18-.21.37-.42.56-.63l.08.55zM155.94 146.99c-.45 1.3-.9 2.6-1.34 3.88-1.03 2.99-2.1 6.07-3.18 9.13l-.15.42.42.11a1387.37 1387.37 0 0 0 3.33-9.56c.4-1.15.8-2.32 1.21-3.49l-.29-.49z"/><g><linearGradient id="SVGID_00000172408231244046588270000007542493109587837070_" gradientUnits="userSpaceOnUse" x1="136.497" y1="135.037" x2="170.377" y2="135.037"><stop offset=".005" style="stop-color:#c3b6d9"/><stop offset="1" style="stop-color:#b2a5d1"/></linearGradient><path style="fill:url(#SVGID_00000172408231244046588270000007542493109587837070_)" d="M164.23 133.3c.79 2.14 1.5 4.24 2.14 6.3.05.16.1.31.14.47.52 1.69.98 3.35 1.4 4.97-.79 4.46-1.61 9.27-1.61 9.27l3.3-1.26c.9 5.55 1.02 10.25.33 13.55l-9.6 2.65c-1.12-.95-2.28-2.14-3.47-3.56l4.44-1.04s-5.03-3.1-9.2-5.65a92.734 92.734 0 0 1-4.12-7.4l-.27-.54c-1.22-2.46-2.39-5.07-3.51-7.81l7.73.88-9.95-6.73c-.96-2.73-1.8-5.4-2.51-7.98-.05-.16-.09-.32-.13-.48-.79-2.92-1.42-5.72-1.88-8.35l6.82.4-7.53-5.48c-.2-1.98-.28-3.81-.23-5.45 0-.17.01-.33.02-.49.17-4.2 1.16-7.14 3.01-8.25.14-.08.28-.15.42-.21.14-.06.28-.11.42-.15 2.87-.79 6.84 2.16 10.99 7.62l.92 5.41 1.01-2.7a81.008 81.008 0 0 1 3.98 6.61c.69 1.27 1.37 2.59 2.04 3.96-.94 5.1-1.97 11.04-1.97 11.04l5.96-1.97c.3.77.61 1.57.91 2.37z"/><path class="st3" d="m159.18 150.14.24.69c2.01 5.68 3.96 11.37 5.84 17.06l-.46.13c-.85-2.58-1.72-5.16-2.59-7.73-.11-.33-.22-.66-.34-.98-2.38-6.95-4.86-13.89-7.44-20.81-.12-.32-.24-.65-.36-.97-2.46-6.58-5.01-13.14-7.65-19.67-.15-.37-.3-.73-.44-1.1-2.1-5.17-4.24-10.32-6.44-15.45.14-.08.28-.15.42-.21 3.86 9 7.57 18.08 11.11 27.22.09.22.17.44.26.66 2.71 7.02 5.33 14.08 7.85 21.16z"/><path class="st3" d="m146.83 117.63-.37.26-.03-.03c-2.78-2.93-6.21-5.62-9.92-7.8 0-.17.01-.33.02-.49 3.49 2.02 6.74 4.49 9.46 7.19.28.28.56.57.84.87zM157.28 117.88c-2.52 3.48-4.53 7.22-5.96 11.09-.01.02-.01.04-.02.06l-.46-.13c.07-.2.15-.4.22-.59 1.44-3.77 3.45-7.42 5.97-10.87.1.15.17.3.25.44zM154.84 138.26l-.36.27-.04-.04c-4.11-4.08-9.25-7.17-14.97-9.08-.05-.16-.09-.32-.13-.48 1.44.47 2.85 1.01 4.23 1.63 3.96 1.79 7.49 4.12 10.51 6.96.25.24.51.49.76.74zM166.37 139.61c.05.16.1.31.14.47-3.2 3.15-5.65 6.83-7.09 10.75-.01.02-.01.04-.02.05l-.46-.13c.08-.21.15-.41.23-.62 1.28-3.22 3.29-6.38 5.85-9.16.44-.46.89-.91 1.35-1.36zM162.62 160.06l-.37.26a.138.138 0 0 1-.03-.04c-3.78-3.97-8.7-6.94-14.23-8.69l-.27-.54c1.1.33 2.18.71 3.24 1.14 4.2 1.7 7.87 4.09 10.92 7.1.25.26.5.51.74.77z"/></g><g><path class="st31" d="M179.49 171.49h-46.51c0-3.4.98-6.59 2.7-9.4.56.12 1.11.23 1.66.35 3.37.7 6.41 1.31 6.41 1.31s-1.87-3.56-3.48-6.87c.63-.51 1.29-1 1.99-1.45.17-.11.33-.21.5-.32 1.1-.68 2.28-1.28 3.51-1.78.13-.06.27-.11.41-.16.59-.23 1.18-.44 1.79-.62.41-.13.83-.24 1.26-.35l.76-.18c1.26-.28 2.57-.47 3.91-.56l.47-.03c.45-.02.91-.03 1.37-.03.22 0 .45 0 .67.01l1.04 2.51 1.25 3.02.26.64.18-.28 1-1.59.32-.51 1.87-2.97c1.26.32 2.47.73 3.63 1.22.33.14.66.29.99.44a23.778 23.778 0 0 1 4.31 2.65l-1.41 3.51-.11.28.12-.02 4.58-.75c2.86 3.33 4.55 7.46 4.55 11.93z"/><path class="st3" d="M151.86 171.49h-.55l-6.23-15.09c-.05-.12.02-.25.16-.29.14-.04.29.02.33.14l6.29 15.24zM166.19 157.04l-6.81 14.46h-.56l6.89-14.63c.05-.11.21-.17.34-.12.13.04.19.17.14.29zM173.97 164a46.819 46.819 0 0 1-7.28 7.49h-.76a46.39 46.39 0 0 0 7.61-7.74c.08-.1.24-.13.36-.06.11.07.15.21.07.31zM156.33 171.49h-.52a81.438 81.438 0 0 0-2.36-15.87c-.03-.12.06-.24.2-.27.14-.03.28.05.31.17a82.571 82.571 0 0 1 2.37 15.97zM146.52 171.49h-.76c-2.54-2.1-5.29-4.02-8.19-5.73-.12-.07-.15-.21-.07-.31.08-.1.24-.13.36-.06 3.08 1.82 5.98 3.86 8.66 6.1z"/></g></g><g id="smartphone_2_"><g id="Smartphone_2_"><path d="M245.64 26.5v142.65c0 1.3-1.05 2.35-2.35 2.35h-70.53c-1.3 0-2.35-1.05-2.35-2.35V26.5c0-1.3 1.05-2.35 2.35-2.35h70.53c1.3 0 2.35 1.05 2.35 2.35z" style="fill:#1e1d50"/><path class="st33" d="M244.71 26.5v142.65c0 1.3-1.05 2.35-2.35 2.35h-70.53c-1.3 0-2.35-1.05-2.35-2.35V26.5c0-1.3 1.05-2.35 2.35-2.35h70.53c1.3 0 2.35 1.05 2.35 2.35z"/><path d="M242.18 29.33v136.99c0 .7-.29 1.33-.76 1.74-.37.33-.85.53-1.37.53h-65.92c-1.18 0-2.13-1.02-2.13-2.28V29.33c0-1.26.95-2.28 2.13-2.28h65.92c1.18.01 2.13 1.03 2.13 2.28z" style="fill:#ece7f3"/></g><path class="st35" d="M244.94 63.46h-.63V46.02h.63c.56 0 1.02.46 1.02 1.02v15.41c-.01.55-.46 1.01-1.02 1.01zM169.95 50.75v17.44h-.61c-.57 0-1.03-.46-1.03-1.03V51.78c0-.57.46-1.03 1.03-1.03h.61zM245.95 67.83v9.36c0 .29-.12.55-.31.74-.19.18-.44.29-.72.29h-.61V66.8h.61c.06 0 .11 0 .17.01.21.03.4.13.55.28.19.19.31.46.31.74z"/><path class="st36" d="M242.18 29.33v37.4h-70.17v-37.4c0-1.26.95-2.28 2.13-2.28h65.92c1.17.01 2.12 1.03 2.12 2.28z" id="Screen_2_"/><path class="st33" d="M216.39 29.06H197.8c-.85 0-1.54-.69-1.54-1.54v-.95h21.68v.95c-.01.85-.7 1.54-1.55 1.54z"/><g><path class="st37" d="M193.88 36.74c0 2.69-1.51 5.02-3.73 6.2-.1.05-.19.1-.29.15-.09.04-.18.08-.28.12-.58.24-1.2.41-1.84.49-.28.04-.57.05-.86.05h-.08c-.25 0-.5-.02-.74-.05-.05-.01-.1-.01-.15-.02-.12-.02-.24-.04-.35-.06-.11-.02-.23-.05-.34-.07-.1-.02-.2-.05-.29-.08a7.022 7.022 0 0 1-4.67-4.46 7.06 7.06 0 0 1-.37-2.27c0-3.87 3.14-7.01 7.01-7.01 3.84.01 6.98 3.14 6.98 7.01zM207.37 36.8h-7.34c-.54 0-.98-.44-.98-.98v-1.21c0-.54.44-.98.98-.98h7.34c.54 0 .98.44.98.98v1.21c0 .54-.44.98-.98.98zM220.3 36.8h-7.34c-.54 0-.98-.44-.98-.98v-1.21c0-.54.44-.98.98-.98h7.34c.54 0 .98.44.98.98v1.21c0 .54-.44.98-.98.98zM233.23 36.8h-7.34c-.54 0-.98-.44-.98-.98v-1.21c0-.54.44-.98.98-.98h7.34c.54 0 .98.44.98.98v1.21c0 .54-.44.98-.98.98zM233.78 39.85h-34.29c-.24 0-.44-.2-.44-.44v-.54c0-.24.2-.44.44-.44h34.29c.24 0 .44.2.44.44v.54c-.01.25-.2.44-.44.44zM233.49 47.25h-52.9c-.4 0-.73.32-.73.73v.89c0 .4.32.73.73.73h52.9c.4 0 .73-.32.73-.73v-.89a.74.74 0 0 0-.73-.73z"/><g><circle class="st37" cx="183.9" cy="58.09" r="4.03"/><circle class="st37" cx="199.33" cy="58.09" r="4.03"/><circle class="st37" cx="214.75" cy="58.09" r="4.03"/><circle class="st37" cx="230.18" cy="58.09" r="4.03"/></g></g><g><path class="st38" d="M242.18 30.04v57.78l-44.04 80.78H174.3c-.52 0-1-.2-1.37-.53a2.35 2.35 0 0 1-.76-1.74v-10.41l70.01-125.88zM172.1 29.33v48.9l25.97-51.18h-23.84c-1.18.01-2.13 1.03-2.13 2.28z"/></g><g><path class="st36" d="M229.58 100.72h-45.09c-4.77 0-8.64-3.87-8.64-8.64V81.44c0-4.77 3.87-8.64 8.64-8.64h45.09c4.77 0 8.64 3.87 8.64 8.64v10.64c0 4.77-3.86 8.64-8.64 8.64zM229.58 131.82h-45.09c-4.77 0-8.64-3.87-8.64-8.64v-10.64c0-4.77 3.87-8.64 8.64-8.64h45.09c4.77 0 8.64 3.87 8.64 8.64v10.64c0 4.77-3.86 8.64-8.64 8.64zM229.58 162.92h-45.09c-4.77 0-8.64-3.87-8.64-8.64v-10.64c0-4.77 3.87-8.64 8.64-8.64h45.09c4.77 0 8.64 3.87 8.64 8.64v10.64c0 4.77-3.86 8.64-8.64 8.64z"/></g></g><g id="person_4_2_"><path class="st39" d="M198.57 30.16c1.75 1.53 3.95 5.83 3.55 13.04-.14 2.55 4.15 7.35 5.54 9.62 3.55 5.78 2.55 13.21.24 19.6l-.62 1.7-8.72-12.04-8.44-19.19s1.49-8.23 1.89-8.83c.41-.59 6.56-3.9 6.56-3.9zM183.22 46.92s2.18 3.44-.34 6.7c-2.53 3.26-1.47 8.24.34 7.94 1.81-.3 6.6.6 7.06-5.12.47-5.72-.87-9.59-1.35-9.89-.48-.3-5.37-2.01-5.71-1.93-.34.07 0 2.3 0 2.3z"/><path class="st40" d="M155.88 53.56s.03-1.13-.71-2.64c-.74-1.51-2.43-5.06-4.4-3.52-1.97 1.55-1.2 4.72 0 5.94 1.2 1.23 3.11 2.74 3.11 2.74l2-2.52z"/><linearGradient id="SVGID_00000139293738133215838310000004315133455216645765_" gradientUnits="userSpaceOnUse" x1="168.998" y1="56.78" x2="168.998" y2="94.634"><stop offset="0" style="stop-color:#fbad1a"/><stop offset="1" style="stop-color:#fdc126"/></linearGradient><path style="fill:url(#SVGID_00000139293738133215838310000004315133455216645765_)" d="M185.88 54.87c-2.71-.38-2.42-2.67-6.02.03-2.19 1.64-2.88 3.57-4.37 7.62-.38 1.03-1.4 3.6-2.06 4.98-.56 1.17-1.01 1.67-2.08.93-2-1.39-3.9-3.46-5.3-4.91-1.92-1.98-9.74-10.99-9.74-10.99l-4.2 2.22c.8 2.65 6.78 8.86 7.94 10.19 3.2 3.68 5.43 6.64 9.59 9.35 2.28 1.48 4.06 1.94 6.31.54 3.28-2.05 4.47-6.58 5.9-9.88.73-1.67 4.99-7.87 2.68-9.45.21-.77 1.14.14 1.35-.63z"/><path class="st40" d="M182.69 159.17c.69 3.68 1.39 7.36 2.08 11.04.15.17.65.69 1.45.8 1.35.19 2.26-.96 2.3-1.01l-.42-12.7c-1.8.62-3.6 1.25-5.41 1.87zM198.31 157.71c.21 4.03.42 8.05.62 12.08 1.18.21 2.36.42 3.54.62.42-4.23.83-8.47 1.25-12.7h-5.41z"/><path class="st39" d="M182.28 41.42c1.41 2.62 3.69 4.02 4.92 4.65 1.53.07 6.14.17 9.62-1.39 1.3-.58 1.97-1.18 2.39-1.67.36-.42.62-.85.82-1.27.39-.85.49-1.65.53-2.13.04-.4.07-5.55.07-5.55-.14-.48-1.73-5.74-7.01-7.36-.84-.26-4.69-1.33-7.9.69-.57.36-1.91 1.31-2.98 3.47-.41.8-3.09 5.68-.46 10.56z"/><path class="st42" d="M176.95 134.42c1.8 8.53 5.57 25.03 7.37 33.56 1.14-.23 1.86-.27 2.5-.3.56-.02 1.06-.04 1.73-.14-.35-6.25-.33-19.45-.38-22.52-.04-2.51-.03-3.91-.42-5.97-.16-.86-.96-5.13-1.3-6.34-.02-.06-.07-.24-.1-.49-.05-.46 0-.94.16-1.38l5.51-15.35.02-.07c1.94 14.58 4.71 37.99 6.65 52.57 1.13.08 1.65.02 2.26-.02.44-.03.94-.04 1.75.02 2.34-14.27 2.94-47.09 3.91-52.98.22-1.36.95-5.46.42-10.83a39.57 39.57 0 0 0-2.5-10.42l-23.75 3.75c-.11.91-.21 1.81-.32 2.72l-3.66 31.16c-.11.99-.06 2.02.15 3.03z"/><path class="st43" d="M184.42 137.09c1.66 2.28 1.89 5.92 2.36 13.19.16 2.41.34 12.95.04 17.39.56-.02 1.06-.04 1.73-.14-.35-6.25-.33-19.45-.38-22.52-.04-2.51-.03-3.91-.42-5.97-.16-.86-.96-5.13-1.3-6.34-.02-.06-.07-.24-.1-.49-.05-.46 0-.94.16-1.38l5.51-15.35c.11-.53.21-1.05.32-1.57-1.93 3.3-3.28 6.08-4.17 8.05-2.66 5.88-2.16 6.59-3.89 8.75-.37.47-1.13 1.35-1.25 2.64-.16 1.75.97 3.15 1.39 3.74z"/><path class="st43" d="M201.44 104.81c1 1.25.66 2.26.62 7.14-.08 9.23 1.22 9.68.56 16.66-.34 3.58-.74 4.46-.83 8.05-.1 4.02.31 6.57.56 9.16.31 3.26-.61 15.44-1.37 22.12.44-.03.94-.04 1.75.02 2.34-14.27 2.94-47.09 3.91-52.98.22-1.36.95-5.46.42-10.83a39.57 39.57 0 0 0-2.5-10.42l-23.75 3.75c-.11.91-.21 1.81-.32 2.72 2.32.95 5.37 1.89 9.3 2.52 7.49 1.21 9.91-.08 11.65 2.09z"/><path class="st3" d="M184.55 53.33c-2.76 1.93-.8 8.6.42 15.83 1.06 6.31-1.55 15.78-2.66 27.4 1.27.73 16.98 4.31 19.56 2.66 1.8-1.15-6.18-5.31-6.07-10.48.44-20.28-1.19-26.92-2.42-30.94-.37-1.22-.7-2.2-.92-2.8-2.58-1.5-5.99-3.01-7.91-1.67z"/><linearGradient id="SVGID_00000039833232605949041580000011345104430836467132_" gradientUnits="userSpaceOnUse" x1="-5887.826" y1="45.679" x2="-5886.438" y2="56.361" gradientTransform="translate(6078.348)"><stop offset="0" style="stop-color:#f48c94"/><stop offset="1" style="stop-color:#f9bab5"/></linearGradient><path style="fill:url(#SVGID_00000039833232605949041580000011345104430836467132_)" d="M187.07 44.84c.32.73.72 1.88.83 3.33.1 1.3.18 2.38-.42 3.33-.96 1.52-4.99 1.38-5.17 2.22-.24 1.12 4.81 3 7.67 3.61 4.48.96 9.57-1.92 10.95-2.94-1.36-.25-3.78-.54-4.9-2.34-.34-.54-1.51-1.46-1.67-4.92-.1-2.17-.06-4.02 0-5.41-2.43 1.03-4.86 2.07-7.29 3.12z"/><defs><path id="SVGID_00000173152672504761250390000012990500513046780080_" d="M187.07 44.84c.32.73.72 1.88.83 3.33.1 1.3.18 2.38-.42 3.33-.96 1.52-2.73 1.24-2.92 2.08-.24 1.12 2.56 3.14 5.41 3.75 4.48.96 8.41-1.68 9.79-2.71-1.36-.25-3.46-.91-4.58-2.71-.34-.54-.68-1.32-.83-4.79-.1-2.17-.06-4.02 0-5.41-2.42 1.04-4.85 2.08-7.28 3.13z"/></defs><clipPath id="SVGID_00000127746861700297056670000017131185923004697783_"><use xlink:href="#SVGID_00000173152672504761250390000012990500513046780080_" style="overflow:visible"/></clipPath><path class="st40" d="M186.5 29.63c-1.82-.12-3.21 1.31-3.55 1.67-2.34 2.41-2.1 6.15-1.97 8.12.16 2.45 1.15 6.04 2.64 7.61 2.03 2.15 4.39 1.19 6.97-.11 2.95-1.49 4.96-5.33 4.6-8.33-.21-1.77-1.92-3.47-5.33-6.87-1.35-1.35-2.2-2.01-3.36-2.09z"/><linearGradient id="SVGID_00000008132647159814105860000015732751314988715701_" gradientUnits="userSpaceOnUse" x1="199.677" y1="56.736" x2="199.677" y2="94.843"><stop offset="0" style="stop-color:#fbad1a"/><stop offset="1" style="stop-color:#fdc126"/></linearGradient><path style="fill:url(#SVGID_00000008132647159814105860000015732751314988715701_)" d="M192.88 84.18c-.12 9.72-.7 15.99-.25 16.26.92.56 2.78.57 7.14.94 4.23.35 6.35.9 7.27.32 0 0-.76-5.13-1.2-12.5l-.03-.49c-.08-1.44-.11-2.81-.11-4.25.01-3.14.2-6.6.52-11.86.39-6.44 1.06-12.21-1.39-15.26-.59-.73-.35-1.85-1.98-2.79-1.31-.76-3.75-1.37-4.75-1.07-.76.23-1.46.24-2.86 1.43-1.05.89-1.43 1.77-1.51 2.01-2.05 6.35-1.28 17.57-1.25 17.83.27 2.62.38 5.07.4 7.33.01.71.01 1.42 0 2.1z"/><linearGradient id="SVGID_00000173138292858371379450000016393669915977283490_" gradientUnits="userSpaceOnUse" x1="182.264" y1="56.741" x2="182.264" y2="94.914"><stop offset="0" style="stop-color:#fbad1a"/><stop offset="1" style="stop-color:#fdc126"/></linearGradient><path style="fill:url(#SVGID_00000173138292858371379450000016393669915977283490_)" d="M184.57 53.17c-.62-.18-1.67-.04-2.5.42-1.54.86-2.27 2.03-2.54 3.26-1.19 5.47-.89 10.59-.89 10.59.17 1.85.15 7.03-.52 18.43-.35 5.93-.4 11.09-.4 11.09 1.21 1.58 6.47 2.21 8.17 2.27.81.03.7-6.59.77-20.24.06-14.86.92-24.96-2.09-25.82z"/><path class="st39" d="M183.6 28.6c-.72.98-.34 3.46.62 4.62 2.78 3.37 2.59 2.88 7.34 5.37.48.25.12.38.97 1.73.17.27.9 1.86.79 2.93-.08.77-.46 1.9-.46 1.9.21.78 1.08 3.13 1.86 4.73.68 1.4 1.28 2.11 1.28 2.11.15-.07-1.09-3.07-1.08-4.04.27-.23 1.81-6.31.95-11.36-.64-3.75-3.56-5.75-4.56-6.44-2.79-1.89-6.81-2.78-7.71-1.55z"/><path class="st39" d="M186.59 27.67c-1.13-.54-2.84-.22-3.37.16-4.36 3.11-2.71 14.07-2.46 14.07.19.01-.89-6.26 2.92-9.93 1.43-1.37 3.09-1.95 4.17-2.22-.04-.22-.24-1.59-1.26-2.08z"/><path class="st47" d="M198.72 169.81c-.6.16-.75.6-1.39 1.3-.48.52-1.18.95-2.56 1.81-2.82 1.75-3.43 1.68-3.54 2.29-.22 1.17 2.05 1.83 3.79 1.68 1.34-.11 3.34-.45 5.02-1.11 2.11-.84 2.15-.7 2.65-1.61.92-1.67.59-4-.26-4.36-.4-.17-.6.24-1.57.28-1.11.04-1.42-.47-2.14-.28zM184.78 169.38c-1.45-.57-2.38 1.21-5.41 2.08-2.5.72-3.56.77-3.96 1.64-.36.77.56 1.67 2.56 2.01 1.92.32 1.46.09 5.98-.11 3.13-.14 4.17.47 5-.42 1.32-1.41.38-4.79-.62-5-.51-.1-.81.67-1.72.69-.84.02-1.1-.61-1.83-.89z"/><path class="st48" d="M182.3 79.01c3.58 4.14 13.35 7.19 15.31 8.1 3.18 1.47 6.12 1.95 8.23 2.09l-.03-.49c-.08-1.44-.11-2.81-.11-4.25-2.1-2.94-7.21-4.15-12.81-2.44 0 .02-.01.04-.01.05.01.72-10.57-3.74-10.58-3.06zM202.8 62.52c-.45.03.07 4.78-1.76 13.05-.39 1.76-1.71 2.78-17.16-.16.89.67 18.26 5.96 19.29 5.53 3.83-1.59.48-18.47-.37-18.42z"/><path class="st40" d="M184.01 75.15s-1.34-.61-3.04-1.37c-1.7-.75-4.08-.75-4.31.42-.23 1.17-.15 2.2 1.13 2.99 1.28.8 6.41 1.41 6.41 1.41l-.19-3.45z"/><linearGradient id="SVGID_00000131327647021657153690000009869989384134684556_" gradientUnits="userSpaceOnUse" x1="195.77" y1="56.741" x2="195.77" y2="94.914"><stop offset="0" style="stop-color:#fbad1a"/><stop offset="1" style="stop-color:#fdc126"/></linearGradient><path style="fill:url(#SVGID_00000131327647021657153690000009869989384134684556_)" d="M201.37 54.46c-1.68.77.84 8.62.9 16.72.03 3.52-.1 6.41-.21 8.33-3.75-.83-14.44-3.26-18.19-4.09-.31.56-1.5 3.28-1.57 3.59 6.09 3.21 14.1 6.14 21.42 8.28 1.58.46 3.56-.81 3.97-2.4.35-1.38.71-2.99 1.02-4.78 1.12-6.47.78-19.9-4.1-24.3-.31-.29-1.96-1.93-3.24-1.35z"/><g><path class="st50" d="m154.58 43.04.01-.1c.83 3.05 1.17 6.11.18 9.3-.13.42-1.01 3.27-1.63 4.15h.44l-.02.01-.09.03-.53.17c-.04.03-.09.05-.13.04-.39-.03-.78-.07-1.17-.11l-.09-.01c-1.48-.15-2.94-.34-4.41-.64.95-.82 1.73-1.61 2.36-2.71 1.68-2.93 3.02-6.84 2.29-10.27.22-.01.45-.01.68-.01h.41l1.7.15z"/><path d="M155.19 42.62c.85 3.08 1.21 6.18.21 9.41-.15.47-1.22 3.96-1.84 4.37l-.01.01c-.03.02-.06.03-.09.03h-.02c-1.91-.16-3.79-.38-5.67-.76.95-.82 1.73-1.61 2.36-2.71 1.65-2.88 2.97-6.69 2.33-10.07h.41l1.71.15.01-.1.03-.38.57.05z" style="fill:#988cc3"/><path class="st52" d="m153.56 34.52-.69 8.38c-8.12-.04-13.98 3.24-15.9 4.47l1.66-20.17c1.73 1.63 7 6 14.93 7.32z"/><ellipse transform="rotate(-84.905 136.327 36.585)" cx="136.32" cy="36.58" rx="12.09" ry="3.27" style="fill:#d6cae4"/><path class="st50" d="M133.75 36.35c-.12 1.39-.18 2.73-.17 3.96 0 .28.01.56.01.83.11 3.52.77 5.99 1.78 6.08.98.09 2.03-2.1 2.76-5.39.03-.15.07-.31.1-.47.04-.19.08-.38.11-.57 0-.02.01-.04.01-.06.23-1.21.41-2.53.53-3.93.11-1.23.17-2.41.17-3.52v-.68c0-.19-.01-.38-.01-.56-.11-3.54-.77-6.03-1.78-6.12-1.04-.09-2.16 2.38-2.89 6.01-.06.3-.12.6-.17.92-.19 1.1-.34 2.28-.45 3.5z"/><path class="st31" d="M135.75 39.69a4.356 4.356 0 0 0 .87.9c.48.38 1.03.64 1.61.79.04-.19.08-.38.11-.57 0-.02.01-.04.01-.06.23-1.21.41-2.53.53-3.93.11-1.23.17-2.41.17-3.52v-.68a4.376 4.376 0 0 0-2.33.85c-.04.03-.08.06-.13.1-1.87 1.47-2.25 4.17-.84 6.12z"/><path transform="scale(-1) rotate(5.095 871.174 -3463.793)" class="st3" d="M153.24 34.53h1.71v8.46h-1.71z"/><path class="st52" d="m154.62 42.57 1.7.15c2.04.18 3.83-1.32 4.02-3.36.01-.15.02-.31.01-.46-.02-.48-.13-.95-.31-1.37a3.719 3.719 0 0 0-3.06-2.19l-1.7-.15-.43 4.81-.23 2.57z"/><path class="st40" d="M151.79 47.02s1.41.74.67 2.85c-.73 2.11-2.44 2.32-2.44 2.32s.38-2.78.41-2.83l1.36-2.34z"/></g><ellipse transform="rotate(-5.674 192.775 40.207)" class="st40" cx="192.77" cy="40.19" rx="1.27" ry="2.1"/></g><g id="person_3_2_"><path class="st54" d="M87.95 126.78c0-9.33-7.22-16.97-16.38-17.65l.17-.05h-1.48c-9.77 0-17.69 7.92-17.69 17.69s7.92 17.69 17.69 17.69c.15 0 .29 0 .44-.01l.97.01-.05-.05c9.13-.68 16.33-8.31 16.33-17.63z"/><linearGradient id="SVGID_00000111178845479716151930000015068128866385846442_" gradientUnits="userSpaceOnUse" x1="54.154" y1="126.784" x2="89.541" y2="126.784"><stop offset=".005" style="stop-color:#c3b6d9"/><stop offset="1" style="stop-color:#b2a5d1"/></linearGradient><path style="fill:url(#SVGID_00000111178845479716151930000015068128866385846442_)" d="M89.54 126.78c0 4.72-1.85 9-4.85 12.18-1.01 1.06-2.15 2-3.39 2.79-1.36.86-2.86 1.55-4.44 2.01-.05.01-.1.03-.16.04-1.01.29-2.06.49-3.13.59l-.74.06c-.33.02-.65.03-.99.03-.76 0-1.51-.05-2.25-.14a3.98 3.98 0 0 1-.34-.05c-1.06-.15-2.08-.4-3.07-.73-1.83-.62-3.53-1.52-5.04-2.67-.18-.13-.35-.27-.52-.41-.48-.4-.95-.82-1.38-1.26-3.16-3.2-5.1-7.59-5.1-12.43 0-9.77 7.92-17.69 17.69-17.69 9.79-.01 17.71 7.91 17.71 17.68z"/><g id="peson6_1_"><path d="M81.29 141.75c-1.36.86-2.86 1.55-4.44 2.01-.05.01-.1.03-.16.04-1.01.29-2.06.49-3.13.59l-.74.06c-.33.02-.65.03-.99.03-.76 0-1.51-.05-2.25-.14a3.98 3.98 0 0 1-.34-.05c-1.06-.15-2.08-.4-3.07-.73-1.83-.62-3.53-1.52-5.04-2.67-.18-.13-.35-.27-.52-.41.45-.8.87-1.47 1.22-1.98h18.96c.04.28.09.56.13.84.08.53.16 1.07.24 1.62.06.25.1.52.13.79z" style="fill:#ede6dc"/><linearGradient id="SVGID_00000003803640387854149980000011843006906656327849_" gradientUnits="userSpaceOnUse" x1="69.864" y1="133.419" x2="71.396" y2="142.607"><stop offset="0" style="stop-color:#3d2820"/><stop offset="1" style="stop-color:#693d37"/></linearGradient><path style="fill:url(#SVGID_00000003803640387854149980000011843006906656327849_)" d="M66 131.73c-.04.88-.2 2.22-.75 3.72-.63 1.7-1.5 2.85-2.07 3.5l7.92 4.59c.86-.37 1.82-.86 2.83-1.53 1.81-1.2 3.42-2.38 4.39-3.53-.52-.64-1.41-1.76-1.94-3.03-.9-2.16-.97-4.16-.94-5.25L66 131.73z"/><path class="st58" d="M67.04 116.63c-1.98 1.18-2.77 3.07-2.9 3.41-.43 1.07-.56 2.22-.17 4.95.69 4.77 1.04 7.15 2.56 8.36 2.25 1.78 6.02 1.67 8.36 0 2.9-2.07 2.9-6.05 2.9-10.23 0-2.36-.02-3.57-.85-4.78-1.92-2.77-6.72-3.61-9.9-1.71z"/><linearGradient id="SVGID_00000160165185296535084200000016985418502534156423_" gradientUnits="userSpaceOnUse" x1="69.266" y1="143.518" x2="73.569" y2="143.518"><stop offset=".005" style="stop-color:#f16c89"/><stop offset=".995" style="stop-color:#f05680"/></linearGradient><path style="fill:url(#SVGID_00000160165185296535084200000016985418502534156423_)" d="m73.57 144.39-.74.06c-.33.02-.65.03-.99.03-.76 0-1.51-.05-2.25-.14a3.98 3.98 0 0 1-.34-.05c.11-.57.34-1.09.71-1.4.1-.09.22-.16.34-.22.29-.12.63-.14.98-.07.05.01.11.02.16.04.27.07.54.19.81.35.55.32 1.04.81 1.32 1.4z"/><path class="st47" d="M78.49 125.55c-.29.7-.59 1.11-.78 1.1-.41-.03-.07-2.08-.56-4.16-.26-1.12-.78-2.25-1.78-3.07-.01-.01-.02-.01-.02-.02-2-1.6-5.28-1.37-7.39-.61-.22.08-.45.17-.69.26-.66.27-1.37.66-1.97 1.35-.99 1.14-1.23 2.59-1.21 3.88.02 1.79.52 3.3.18 3.39-.32.09-1.36-1.15-1.99-3.04-.39-1.15-.63-2.55-.47-4.04.06-.54.46-3.72 3.17-5.93.1-.04.2-.09.28-.17.04-.04.08-.09.11-.14.11-.08.22-.16.34-.23.48-.31.97-.57 1.48-.77.11.02.21.02.32-.01.14-.04.25-.14.38-.22.02-.01.04-.03.06-.04 2.48-.75 5.16-.37 7.21.83.69.41 1.94 1.28 2.87 2.83.59.98.93 2.03 1.1 3.05-.01.09-.02.17-.01.26.01.1.04.2.09.29.2 2.11-.24 4.05-.72 5.21z"/><path class="st3" d="M71.41 142.66c-.24.22-.47.43-.7.65l-1.11 1.02a3.98 3.98 0 0 1-.34-.05c-1.06-.15-2.08-.4-3.07-.73-1.83-.62-3.53-1.52-5.04-2.67l2.38-2.38.01-.01.21-.21.36.21c.06.03.12.07.18.1 2.33 1.33 4.67 2.67 7 4 .05.03.09.05.12.07z"/><path class="st3" d="M81.91 140.48c-.24.16-.49.32-.73.47-1.44.94-2.89 1.87-4.33 2.81-.05.01-.1.03-.16.04-1.01.29-2.06.49-3.13.59l-.74.06c-.34-.41-.7-.81-1.02-1.24-.14-.18-.27-.36-.4-.55.02-.01.03-.02.05-.03 2-1.22 4.12-2.57 6.18-3.85.16-.1.31-.19.47-.29.47-.29.94-.58 1.4-.86.15.18.31.36.46.55.09.11.18.21.27.32.24.28.47.56.71.84.33.37.65.76.97 1.14z"/><linearGradient id="SVGID_00000069378396703002867730000005102435677069866932_" gradientUnits="userSpaceOnUse" x1="59.258" y1="140.789" x2="66.199" y2="140.789"><stop offset=".005" style="stop-color:#1f3b6f"/><stop offset="1" style="stop-color:#1f345a"/></linearGradient><path style="fill:url(#SVGID_00000069378396703002867730000005102435677069866932_)" d="M66.2 143.56c-1.83-.62-3.53-1.52-5.04-2.67-.18-.13-.35-.27-.52-.41-.48-.4-.95-.82-1.38-1.26 1.51-.98 3.09-1.55 4.46-.94.01 0 .03.01.04.02.13.06.26.13.38.21.05.03.11.07.16.1.58.41 1.01.99 1.31 1.76.33.82.51 1.88.59 3.19z"/><linearGradient id="SVGID_00000161606486703036801310000008823821409840525484_" gradientUnits="userSpaceOnUse" x1="76.699" y1="140.913" x2="84.687" y2="140.913"><stop offset=".005" style="stop-color:#1f3b6f"/><stop offset="1" style="stop-color:#1f345a"/></linearGradient><path style="fill:url(#SVGID_00000161606486703036801310000008823821409840525484_)" d="M84.69 138.96c-1.01 1.06-2.15 2-3.39 2.79-1.36.86-2.86 1.55-4.44 2.01-.05.01-.1.03-.16.04.17-2.42.73-4.13 1.91-5 .16-.12.32-.22.5-.31.27-.13.55-.24.86-.32 1.44-.35 3.25-.09 4.72.79z"/><path class="st47" d="M79.67 123.72c.15.38 0 .81-.16 1.19-.1.24-.21.49-.42.64-.18.13-.45.14-.6 0-.02-.02-.04-.05-.06-.08 0 0 .67-.22-1.28-2.98-.26-1.12-.78-2.25-1.78-3.07-.27-.63-.44-.91-1.44-1.33-1.87-.78-.17-1.71-2.83-1.05-2.61.65-2.79-.24-3.84 2.02-.66.27-1.37.66-1.97 1.35-.99 1.14-1.23 2.59-1.21 3.88-.5.45-.95.76-.95.76-.3-.09-.59-.23-.86-.41a2.98 2.98 0 0 1-.91-1.02c-.18-.32-.3-.7-.27-1.07.03-.37.24-.74.57-.88-.13-.42-.27-.86-.27-1.3-.01-.45.13-.92.46-1.2.11-.09.25-.18.29-.32.03-.1.01-.22-.02-.32-.12-.46-.24-.95-.11-1.41.13-.46.62-.83 1.04-.64.25-.78.86-1.43 1.61-1.7.1-.04.21-.07.31-.11.1-.04.2-.09.28-.17.04-.04.08-.09.11-.14.05-.07.1-.16.14-.24.24-.43.6-.88 1.07-.88.2 0 .41.08.6.11.11.02.21.02.32-.01.13-.04.19-.56.67-.78.07-.03.15-.07.22-.11.4-.23.8-.29 1.17-.23.53.08 1.07 0 1.53-.27.28-.16.59-.27.86-.3.42-.05.84.09 1.17.37.16.14.38.18.59.13.66-.17 1.45.17 1.75.82.08.17.13.35.24.49.16.2.41.27.64.37 1.2.51 1.94.95 2.45 2.2.26.64.29 1.74.06 2.14.26.42.36.93.29 1.42l-.03.21c-.01.09-.02.17-.01.26.01.1.04.2.09.29.02.05.04.09.06.13.37.74.83 1.63.45 2.37-.08.15-.18.29-.18.45.02.17.11.29.16.42z"/><ellipse transform="rotate(-11.48 63.891 126.113)" class="st58" cx="63.89" cy="126.12" rx="1.35" ry="2.24"/><ellipse transform="rotate(-87.272 77.978 125.87)" class="st58" cx="77.98" cy="125.87" rx="2.22" ry="1.33"/></g></g><g id="person_2_2_"><path class="st54" d="M129.7 87.42c0-11.17-8.64-20.32-19.61-21.12l.2-.06h-1.77c-11.7 0-21.18 9.48-21.18 21.18s9.48 21.18 21.18 21.18c.17 0 .35 0 .52-.01l1.17.01-.06-.06c10.94-.83 19.55-9.97 19.55-21.12z"/><linearGradient id="SVGID_00000063611334476021639440000014125963418574199477_" gradientUnits="userSpaceOnUse" x1="89.252" y1="87.421" x2="131.613" y2="87.421"><stop offset=".005" style="stop-color:#c3b6d9"/><stop offset="1" style="stop-color:#b2a5d1"/></linearGradient><path style="fill:url(#SVGID_00000063611334476021639440000014125963418574199477_)" d="M131.61 87.42a21.14 21.14 0 0 1-7.65 16.29 21.247 21.247 0 0 1-5.71 3.4c-.7.28-1.42.52-2.15.72-.17.05-.34.09-.51.14a21.384 21.384 0 0 1-11.22-.25c-.3-.09-.59-.18-.88-.29a21.14 21.14 0 0 1-5.69-3.02c-3-2.23-5.38-5.24-6.86-8.72a21.117 21.117 0 0 1-1.68-8.28c0-11.7 9.48-21.18 21.18-21.18 11.69.01 21.17 9.49 21.17 21.19z"/><g id="peson3_1_"><path class="st47" d="M130.68 93.64a21.14 21.14 0 0 1-6.72 10.07 21.247 21.247 0 0 1-5.71 3.4c-.7.28-1.42.52-2.15.72-.17.05-.34.09-.51.14a21.384 21.384 0 0 1-11.22-.25c-.3-.09-.59-.18-.88-.29a21.14 21.14 0 0 1-5.69-3.02c-3-2.23-5.38-5.24-6.86-8.72-.17-.84-.31-1.78-.26-2.94.2-5.65 3.87-4.52 6.76-8.8 1.97-2.91 1.72-6.74 4.11-9.59 4.17-4.97 5.3-1.3 10.25-2.67 10.04-2.78 9.32 2.76 11.2 9.76 1.68 6.29 4.8 9.48 7.68 12.19z"/><path class="st3" d="M118.25 107.11c-.7.28-1.42.52-2.15.72-.17.05-.34.09-.51.14a21.384 21.384 0 0 1-11.22-.25c-.3-.09-.59-.18-.88-.29.35-.57.71-1.14 1.1-1.73.13-.19.25-.39.38-.58.09-.14.19-.28.28-.42.43-.64.88-1.29 1.36-1.95 1.48 1.04 3.3 1.92 4.84 1.33 1.46-.55 1.68-2.04 2.67-2.17a.81.81 0 0 1 .22 0h.04c.36.04.73.26 1.09.6 1.11 1.04 2.16 3.16 2.78 4.6z"/><defs><path id="SVGID_00000072270306565164377520000013806987817903727015_" d="M105.61 93.07c.32 1.39.6 3.28.5 5.51-.12 2.77-.76 5-1.34 6.51 1.59.3 3.71.52 6.18.33 1.82-.14 3.4-.47 4.67-.83a16.893 16.893 0 0 1-1.83-12.19c-2.73.23-5.45.45-8.18.67z"/></defs><linearGradient id="SVGID_00000046307788879392809910000017585241918602252477_" gradientUnits="userSpaceOnUse" x1="109.882" y1="95.421" x2="110.216" y2="105.269"><stop offset="0" style="stop-color:#f48c94"/><stop offset="1" style="stop-color:#f9bab5"/></linearGradient><use xlink:href="#SVGID_00000072270306565164377520000013806987817903727015_" style="overflow:visible;fill:url(#SVGID_00000046307788879392809910000017585241918602252477_)"/><clipPath id="SVGID_00000150803313419608350520000013929095593711086525_"><use xlink:href="#SVGID_00000072270306565164377520000013806987817903727015_" style="overflow:visible"/></clipPath><path class="st40" d="M108.45 74.38c-5.03.43-7.4 6.3-6.66 11.99.72 5.55 4.45 10.92 8.41 10.72 4.69-.24 7.78-7.33 7.46-13.17-.31-5.7-3.9-10-9.21-9.54z"/><path class="st42" d="m104.94 102.25-.36 3.46-.21 2.02c-.3-.09-.59-.18-.88-.29a21.14 21.14 0 0 1-5.69-3.02 16.45 16.45 0 0 1 4.09-1.7c1.03-.28 1.91-.41 2.56-.47h.49zM123.97 103.71a21.247 21.247 0 0 1-5.71 3.4c-.7.28-1.42.52-2.15.72-.22-1.08-.45-2.15-.68-3.19-.05-.24-.11-.48-.16-.71-.1-.45-.2-.9-.31-1.34.14-.03.32-.05.52-.07.76-.06 1.9-.03 3.23.11 1.61.17 3.49.52 5.26 1.08z"/><linearGradient id="SVGID_00000155844936146333486330000013617610852080123527_" gradientUnits="userSpaceOnUse" x1="103.746" y1="103.177" x2="104.239" y2="108.869"><stop offset="0" style="stop-color:#7f8cc5"/><stop offset="1" style="stop-color:#5e6fb4"/></linearGradient><path style="fill:url(#SVGID_00000155844936146333486330000013617610852080123527_)" d="m105.69 101.75-.09.59-.35 2.36c-.02.15-.05.31-.07.46-.13.89-.27 1.79-.4 2.68a21.651 21.651 0 0 1-2.42-.84c-.22-1.17-.43-2.34-.65-3.51-.05-.28.02-.56.17-.77.15-.2.37-.35.63-.4l3.18-.57z"/><linearGradient id="SVGID_00000008114825222183129040000012679912984986138000_" gradientUnits="userSpaceOnUse" x1="117.045" y1="102.024" x2="117.538" y2="107.716"><stop offset="0" style="stop-color:#7f8cc5"/><stop offset="1" style="stop-color:#5e6fb4"/></linearGradient><path style="fill:url(#SVGID_00000008114825222183129040000012679912984986138000_)" d="M120.12 106.26c-.61.31-1.23.6-1.86.85-.7.28-1.42.52-2.15.72-.17.05-.34.09-.51.14l-.66-3.2c-.2-.95-.39-1.91-.59-2.86-.01-.04-.01-.07-.02-.11h.02c1.1-.07 2.2-.15 3.29-.22.6-.04 1.1.45 1.07 1.05v.03l-.24 2.93c.32.06.63.11.95.16.3.06.56.25.7.51z"/><g><path class="st47" d="M104.94 73.57s3.05 6.16 6.53 7.5c3.48 1.34 5.3 2.21 6.36 4.66 1.06 2.45 2.72.87 2.88.39s-1.21-5.53-1.51-6c-.3-.47-1.39-2.37-1.98-3.24a7.78 7.78 0 0 0-1.97-1.97c-.59-.39-3.93-1.58-4.53-1.66-.61-.07-5.78.32-5.78.32z"/><path class="st47" d="M108.02 75.63c-.26.63-2.89 8.65-7 10.09-4.1 1.44-2.5-2.89-2.21-3.67.29-.78 6.14-7.7 6.14-7.7s2.49.39 2.6.55c.1.15.47.73.47.73z"/></g><ellipse transform="rotate(-7.187 102.126 86.886)" class="st40" cx="102.14" cy="86.9" rx="1.73" ry="2.84"/></g></g><g id="person_1_2_"><path class="st54" d="M91.59 44.67c0-11.34-8.78-20.64-19.91-21.45l.2-.06h-1.8c-11.88 0-21.51 9.63-21.51 21.51s9.63 21.51 21.51 21.51c.18 0 .35 0 .53-.01l1.18.01-.06-.06C82.84 65.28 91.59 56 91.59 44.67z"/><linearGradient id="SVGID_00000002363355812523098710000012455233695422175919_" gradientUnits="userSpaceOnUse" x1="50.508" y1="44.674" x2="93.532" y2="44.674"><stop offset=".005" style="stop-color:#c3b6d9"/><stop offset="1" style="stop-color:#b2a5d1"/></linearGradient><path style="fill:url(#SVGID_00000002363355812523098710000012455233695422175919_)" d="M93.53 44.67c0 3.89-1.03 7.55-2.84 10.7-3.71 6.46-10.68 10.82-18.67 10.82-7.1 0-13.4-3.44-17.32-8.75a21.437 21.437 0 0 1-4.19-12.76c0-11.88 9.63-21.51 21.51-21.51 11.88-.01 21.51 9.62 21.51 21.5z"/><g id="peson2_1_"><linearGradient id="SVGID_00000173158806084498034330000005013534929918138788_" gradientUnits="userSpaceOnUse" x1="74.225" y1="69.949" x2="72.571" y2="55.311"><stop offset=".005" style="stop-color:#fec555"/><stop offset="1" style="stop-color:#fdc126"/></linearGradient><path style="fill:url(#SVGID_00000173158806084498034330000005013534929918138788_)" d="M90.69 55.37c-3.71 6.46-10.68 10.82-18.67 10.82-7.1 0-13.4-3.44-17.32-8.75.61-.27 1.49-.63 2.78-1.11 4.37-1.64 6.56-2.46 9.03-3.01 9.71-2.16 17.94.1 20.13.75 1.77.52 3.07.91 4.05 1.3z"/><linearGradient id="SVGID_00000163065773817887618850000012183498163823212690_" gradientUnits="userSpaceOnUse" x1="73.509" y1="48.642" x2="73.509" y2="59.26"><stop offset="0" style="stop-color:#f48c94"/><stop offset="1" style="stop-color:#f9bab5"/></linearGradient><path style="fill:url(#SVGID_00000163065773817887618850000012183498163823212690_)" d="m67.59 47.53.03 2.07c-.03 1.17-.06 2.33-.08 3.5v.02c-.01 1.54.33 3.07 1.01 4.46.09.19.19.39.28.58 1.02 2.11 3.29 3.34 5.61 3 .02 0 .03 0 .05-.01.47-.07.92-.16 1.35-.25 1.94-.44 3.43-2.06 3.62-4.04.01-.08.01-.16.02-.23a5.58 5.58 0 0 0-.14-1.6c-.42-1.94-1.22-5.99-2.28-11.42-3.16 1.31-6.32 2.61-9.47 3.92z"/><defs><path id="SVGID_00000115494178998815091630000010820474537114967941_" d="M67.59 47.53v7.83c-.14 4.52 3.67 7.64 6.85 7.18 2.81-.41 5.36-3.64 4.89-7.51l-2.28-11.42c-3.15 1.31-6.31 2.61-9.46 3.92z"/></defs><clipPath id="SVGID_00000071521042825033928630000015532345359873606275_"><use xlink:href="#SVGID_00000115494178998815091630000010820474537114967941_" style="overflow:visible"/></clipPath><path class="st40" d="M69.87 32.84c-1.29.65-3.26 1.64-4.49 3.92-.94 1.75-1.02 3.43-.99 4.33.11 1.35.43 3.36 1.48 5.54.76 1.59 3.29 6.83 7.26 6.77 3.53-.05 6.07-4.28 6.85-7.18.58-2.13.28-3.81-.16-6.36-.65-3.71-1.27-7.28-3.75-8.32-1.96-.83-4.18.29-6.2 1.3z"/><path class="st68" d="M73.14 33.99c-1.39.39-2.82.77-4.57 1.63-1.64.8-2.46 1.21-2.94 1.79-2.03 2.52.04 6.89-.57 7.1-.44.15-1.67-2.14-2.37-4-.59-1.59-.77-2.79-.98-4.24-.31-2.14-.46-3.22.08-3.83.6-.69 1.34-.34 3.18-.9 1.68-.51 1.63-1.05 3.26-1.63 2.44-.87 5.45-1.09 5.87-.16.23.5-.33 1.3-.33 1.31.01 0 .31-1.6 1.14-1.96.55-.23 1.58-.04 3.75 2.28.19.72.44 1.72.65 2.94.53 3.04.53 5.52.33 5.55-.3.04-.22-5.55-2.77-6.53-.58-.24-1.63.06-3.73.65zM66.05 47c-.24.27.24 1.12.72 2.24.34.79.99 2.3 2.6 3.34 1.23.8 2.42.94 3.09 1 .51.05 3.12.27 5.19-1.17 3.7-2.57 3.4-8.98 2.66-9.19 0 0-2.06 3.44-5.64 4.48-3.73 1.08-8.62-.7-8.62-.7z"/><path d="M61.31 33.82c.39.6 1.15.75 1.55.82 5.52.94 13.31 2.24 16.32-2.12.2-.3 1.28-1.85.82-3.43-.64-2.17-3.73-2.83-4.24-2.94-.75-.16-1.89-.3-6.04.82-6.61 1.78-7.62 3.17-7.99 3.83-.17.27-1.1 1.97-.42 3.02z" style="fill:#8e4d21"/><g><ellipse transform="rotate(-17.899 65.096 44.174)" class="st40" cx="65.09" cy="44.18" rx="1.41" ry="2.23"/><ellipse transform="rotate(-2.688 79.777 40.158)" class="st40" cx="79.71" cy="40.1" rx="1.41" ry="2.23"/></g></g></g><g id="icons_2_"><path class="st70" d="m278.61 71.92-2.21 7.76a2.472 2.472 0 0 1-3.05 1.7l-.38-.11-4.89-1.39-1.97-.56h-.01l-4.7 1.92.12-.42.11-.4.63-2.2-1.44-.41c-.73-.21-1.29-.73-1.58-1.37-.23-.51-.28-1.1-.12-1.68l2.21-7.76c.36-1.25 1.62-2 2.88-1.74.06.01.11.03.17.04l4.48 1.28 8.05 2.29c.47.14.88.4 1.18.75.54.61.76 1.46.52 2.3z"/><path class="st70" d="m261.85 80.53-.13.21-.32.5-.55-.15s.53-.56.74-.65c.02-.01.03-.01.04-.02.18-.06.22.11.22.11z"/><linearGradient id="SVGID_00000104701661630994038670000000593595389324876205_" gradientUnits="userSpaceOnUse" x1="148.839" y1="320.066" x2="166.899" y2="320.066" gradientTransform="rotate(15.219 1131.436 609.275)"><stop offset=".005" style="stop-color:#c3b6d9"/><stop offset="1" style="stop-color:#b2a5d1"/></linearGradient><path style="fill:url(#SVGID_00000104701661630994038670000000593595389324876205_)" d="m278.06 71.77-2.21 7.76c-.36 1.25-1.62 2-2.88 1.74-.06-.01-.11-.03-.17-.04l-4.72-1.35-1.98-.56-.54-.15-3.84 1.57-.2.08-.67.27.86-3.02-1.44-.41c-.55-.16-1.01-.49-1.32-.92-.43-.59-.59-1.37-.38-2.13l2.21-7.76a2.472 2.472 0 0 1 3.05-1.7l.38.11 4.65 1.32 7.51 2.14a2.462 2.462 0 0 1 1.69 3.05z"/><path class="st3" d="M267.91 70.21c.62.18 1.07.65 1.25 1.23a1.835 1.835 0 0 1 2.97 1.89c-.28.97-1.02 1.51-1.93 1.93-.74.35-2.05 1.02-2.38.9-.34-.07-1.1-1.33-1.55-2.02-.56-.85-.9-1.69-.63-2.66.28-.99 1.29-1.55 2.27-1.27z"/><path class="st72" d="M277.84 69.88 270.89 77l-2.8 2.87-.01.01-1.98-.56-.54-.15-3.84 1.57-.2.08-.67.27.86-3.02-1.44-.41c-.55-.16-1.01-.49-1.32-.92l.29-.3 2-2.05 7.61-7.8 7.51 2.14c.66.18 1.17.61 1.48 1.15z"/><g><path class="st70" d="m275.9 88.04-.61 2.91c-.1.49-.58.81-1.08.71l-.14-.03-1.84-.38-.74-.15-1.68.83.03-.16.03-.15.17-.83-.54-.11a.944.944 0 0 1-.62-.46c-.1-.18-.13-.4-.09-.61l.61-2.91c.1-.47.54-.78 1.01-.72.02 0 .04.01.06.01l1.68.35 3.02.63c.18.04.33.12.45.24.24.21.34.52.28.83z"/><path class="st70" d="m269.96 91.65-.04.08-.1.19-.21-.04s.18-.22.26-.26c.01 0 .01-.01.02-.01.05-.02.07.04.07.04z"/><linearGradient id="SVGID_00000075857471389936984230000009116144821006177411_" gradientUnits="userSpaceOnUse" x1="191.363" y1="245.226" x2="198.024" y2="245.226" gradientTransform="rotate(11.098 1035.215 565.202)"><stop offset=".005" style="stop-color:#c3b6d9"/><stop offset="1" style="stop-color:#b2a5d1"/></linearGradient><path style="fill:url(#SVGID_00000075857471389936984230000009116144821006177411_)" d="m275.69 88-.61 2.91c-.1.47-.54.78-1.01.72-.02 0-.04-.01-.06-.01l-1.77-.37-.74-.15-.2-.04-1.37.68-.07.04-.24.12.24-1.13-.54-.11a.887.887 0 0 1-.51-.3.958.958 0 0 1-.2-.77l.61-2.91a.9.9 0 0 1 1.08-.7l.14.03 1.74.36 2.82.59c.24.05.44.2.57.39.12.16.17.4.12.65z"/><path class="st3" d="M271.92 87.7c.23.05.41.21.49.42.16-.16.39-.23.62-.19.37.08.6.43.52.8-.08.37-.33.58-.66.76-.26.15-.73.43-.85.39-.13-.02-.44-.46-.62-.7-.23-.3-.38-.6-.3-.96.07-.37.43-.6.8-.52z"/><path class="st72" d="m275.56 87.31-2.37 2.81-.95 1.13-.74-.15-.2-.04-1.37.68-.07.04-.24.12.24-1.13-.54-.11a.887.887 0 0 1-.51-.3l.1-.12.68-.81 2.59-3.07 2.82.59c.23.03.43.17.56.36z"/></g><g><path class="st74" d="m54.26 80.68 2.18 5.64a1.85 1.85 0 0 0 2.39 1.06l.28-.11 3.55-1.37 1.43-.55h.01l3.64 1.11-.12-.31-.11-.29-.62-1.6 1.05-.4c.53-.21.91-.63 1.08-1.13.13-.4.14-.84-.03-1.26l-2.18-5.64a1.855 1.855 0 0 0-2.27-1.1c-.04.01-.08.03-.12.04l-3.26 1.26-5.85 2.26a1.84 1.84 0 0 0-1.05 2.39z"/><path class="st74" d="m67.35 85.96.11.14.27.35.4-.15s-.43-.38-.6-.44c-.01 0-.02-.01-.03-.01-.13-.02-.15.11-.15.11z"/><linearGradient id="SVGID_00000066480235885284470160000016757282214788859783_" gradientUnits="userSpaceOnUse" x1="-3613.576" y1="743.354" x2="-3600.044" y2="743.354" gradientTransform="scale(-1 1) rotate(20.432 .331 10246.369)"><stop offset=".005" style="stop-color:#f16c89"/><stop offset=".995" style="stop-color:#f05680"/></linearGradient><path style="fill:url(#SVGID_00000066480235885284470160000016757282214788859783_)" d="m54.66 80.53 2.18 5.64c.35.91 1.35 1.38 2.27 1.1.04-.01.08-.03.12-.04l3.43-1.33 1.44-.55.39-.15 2.97.91.15.05.52.16-.85-2.19 1.05-.4c.4-.15.72-.43.92-.78.28-.47.35-1.06.14-1.61l-2.18-5.64a1.85 1.85 0 0 0-2.39-1.06l-.28.11-3.38 1.3-5.46 2.11c-.47.18-.83.54-1.02.97-.18.41-.21.92-.02 1.4z"/><path class="st3" d="M62.13 78.67c-.45.17-.76.56-.85 1a1.39 1.39 0 0 0-1.3-.17c-.71.27-1.06 1.07-.79 1.78s.86 1.05 1.58 1.31c.58.21 1.6.62 1.84.51.25-.08.73-1.07 1.02-1.61.36-.67.56-1.32.29-2.03a1.397 1.397 0 0 0-1.79-.79z"/><path class="st72" d="m54.7 79.11 5.67 4.84 2.28 1.95 1.44-.55.39-.15 2.97.91.15.05.52.16-.85-2.19 1.05-.4c.4-.15.72-.43.92-.78l-.24-.2-1.63-1.39-6.21-5.3-5.46 2.11c-.46.15-.81.51-1 .94z"/></g><g><path class="st76" d="m110.59 122.78-7.93 1.62c-.83.17-1.36.98-1.19 1.81l1 4.91c.17.83.98 1.36 1.81 1.19l4.58-.93 2.82 1.41-.39-1.91.91-.19a1.53 1.53 0 0 0 1.19-1.81l-1-4.91c-.17-.82-.97-1.36-1.8-1.19z"/><path class="st76" d="m111.68 132.78.42-.09s-.18-.35-.22-.38c-.04-.03-.1-.07-.18-.03s-.13.03-.16.12c-.02.1.14.38.14.38z"/><linearGradient id="SVGID_00000132800581769516215610000005624351250310934919_" gradientUnits="userSpaceOnUse" x1="316.54" y1="290.782" x2="327.724" y2="290.782" gradientTransform="rotate(-11.902 -563.489 1236.227)"><stop offset="0" style="stop-color:#ffd15c"/><stop offset="1" style="stop-color:#fec340"/></linearGradient><path style="fill:url(#SVGID_00000132800581769516215610000005624351250310934919_)" d="m112.81 123.89 1 4.91c.08.38.01.76-.18 1.07-.21.36-.57.64-1.02.73l-.91.19.39 1.91-2.82-1.41-1.87.38-2.71.55c-.83.17-1.64-.37-1.81-1.19l-1-4.91c-.05-.26-.04-.52.04-.75.16-.52.59-.94 1.16-1.05l4.86-.99 3.06-.62c.83-.19 1.64.35 1.81 1.18z"/><path class="st3" d="M109.09 126.83c-.01-.01-.02-.01-.03-.01a2.94 2.94 0 0 1-1.34-1.36c-.09-.19-.13-.4-.18-.59-.06-.2-.07-.45-.27-.56-.1-.06-.24-.08-.34-.03-.53.26-.4 1.06-.37 1.18.07.32.19.62.33.91.04.09-.01.2-.12.22-.38.06-1.18.2-1.52.26a.52.52 0 0 0-.37.27c-.08.15-.09.36.2.58.05.04.07.1.06.16-.05.24-.09.82.57.82.02 0-.2.65.46.71.07.01.13.07.14.14.02.18.07.5.39.6.1.03.21.03.31 0 .35-.1 1.92-.38 2.05-.4h.02c.05-.02.75-.28.92-.48.02-.02-.39.12-.39.09.02-.25.29-1.4.38-1.76.01-.06-.01-.13-.06-.16l-.84-.59z"/><path transform="rotate(-11.52 110.125 127.994)" class="st3" d="M109.28 126.59h1.64v2.76h-1.64z"/><path class="st72" d="M113.63 129.87c-.21.36-.57.64-1.02.73l-.91.19.39 1.91-2.82-1.41-1.87.38-1.6-1.84-3.88-4.46c.16-.52.59-.94 1.16-1.05l4.86-.99 4.45 5.12 1.24 1.42z"/></g><g><circle class="st78" cx="263.7" cy="121.07" r="7.75"/><path class="st78" d="m265.62 113.52.77.27s-.12.03-.15.02c-.03 0-.38-.06-.42-.11-.04-.04-.2-.18-.2-.18zM260.56 128.18l.5.18s-.04-.07-.07-.09-.15-.08-.25-.1c-.1-.01-.1-.02-.13-.02-.04.01-.05.03-.05.03z"/><path d="M267.81 127.09a7.766 7.766 0 0 1-8.52.51c-.89-.51-1.68-1.2-2.33-2.07a7.658 7.658 0 0 1-1.54-4.52 7.75 7.75 0 0 1 3.11-6.34 7.733 7.733 0 0 1 5.78-1.46c1.95.29 3.8 1.32 5.07 3.03a7.757 7.757 0 0 1-1.57 10.85z" style="fill:#ffca2a"/><path class="st3" d="m264.74 117.19-.08 2.78c0 .11.06.21.17.24l2.62.94c.23.08.22.41-.01.48l-2.67.78c-.1.03-.18.12-.18.23l-.08 2.78c-.01.24-.32.34-.46.13l-1.57-2.3a.251.251 0 0 0-.28-.1l-2.67.78c-.23.07-.42-.2-.27-.39l1.7-2.2a.24.24 0 0 0 .01-.29l-1.57-2.3c-.14-.2.06-.46.29-.38l2.62.94c.1.04.22 0 .28-.08l1.7-2.2c.14-.19.45-.08.45.16z"/><path class="st72" d="m270.33 117.91-8.7 7.63-2.34 2.05c-.89-.51-1.68-1.2-2.33-2.07a7.658 7.658 0 0 1-1.54-4.52l8.89-7.8a7.709 7.709 0 0 1 6.02 4.71z"/></g><g><path d="M272.71 23.73v11.42c0 .08-.01.14-.05.2a.55.55 0 0 1-.07.09l-.41.42-.02-.04-.08-.18s-.23-.02-.02-.13h-55.17c-.18 0-.32-.15-.32-.35V24.02l-.3-.04-.06-.01.42-.46c.06-.08.15-.13.25-.13h55.5c.18 0 .33.16.33.35z" style="fill:#c84a69"/><linearGradient id="SVGID_00000171683254949688436200000017738697881414393996_" gradientUnits="userSpaceOnUse" x1="216.109" y1="29.932" x2="272.248" y2="29.932"><stop offset=".005" style="stop-color:#f16c89"/><stop offset=".995" style="stop-color:#f05680"/></linearGradient><path style="fill:url(#SVGID_00000171683254949688436200000017738697881414393996_)" d="M272.25 24.31v11.24c0 .1-.03.19-.08.26-.08.11-.21.18-.35.18h-55.27c-.24 0-.44-.2-.44-.44V24.31c0-.14.06-.26.16-.34.08-.06.17-.1.28-.1h55.27c.23.01.43.2.43.44z"/><circle class="st3" cx="223.59" cy="29.77" r="4.4"/><circle class="st36" cx="223.59" cy="28.55" r="1.33"/><path class="st36" d="M225.61 32.34h-4.05a.29.29 0 0 1-.29-.29c0-1.06 1.08-1.92 2.14-1.92h.17c1.06 0 2.31.86 2.31 1.92.01.16-.12.29-.28.29z"/><g><path class="st3" d="m232.89 26.89.64 1.98c.03.08.1.13.18.13h2.08c.18 0 .26.23.11.34l-1.68 1.22c-.07.05-.09.13-.07.21l.64 1.98c.06.17-.14.32-.29.21l-1.68-1.22a.18.18 0 0 0-.22 0l-1.68 1.22c-.15.11-.34-.04-.29-.21l.64-1.98c.03-.08 0-.16-.07-.21l-1.68-1.22a.188.188 0 0 1 .11-.34h2.08c.08 0 .15-.05.18-.13l.64-1.98c.06-.17.3-.17.36 0zM241.57 26.89l.64 1.98c.03.08.1.13.18.13h2.08c.18 0 .26.23.11.34l-1.68 1.22c-.07.05-.09.13-.07.21l.64 1.98c.06.17-.14.32-.29.21l-1.68-1.22a.18.18 0 0 0-.22 0l-1.68 1.22c-.15.11-.34-.04-.29-.21l.64-1.98c.03-.08 0-.16-.07-.21l-1.68-1.22a.188.188 0 0 1 .11-.34h2.08c.08 0 .15-.05.18-.13l.64-1.98c.06-.17.3-.17.36 0zM250.25 26.89l.64 1.98c.03.08.1.13.18.13h2.08c.18 0 .26.23.11.34l-1.68 1.22c-.07.05-.09.13-.07.21l.64 1.98c.06.17-.14.32-.29.21l-1.68-1.22a.18.18 0 0 0-.22 0l-1.68 1.22c-.15.11-.34-.04-.29-.21l.64-1.98c.03-.08 0-.16-.07-.21l-1.68-1.22a.188.188 0 0 1 .11-.34h2.08c.08 0 .15-.05.18-.13l.64-1.98c.06-.17.3-.17.36 0zM258.93 26.89l.64 1.98c.03.08.1.13.18.13h2.08c.18 0 .26.23.11.34l-1.68 1.22c-.07.05-.09.13-.07.21l.64 1.98c.06.17-.14.32-.29.21l-1.68-1.22a.18.18 0 0 0-.22 0l-1.68 1.22c-.15.11-.34-.04-.29-.21l.64-1.98c.03-.08 0-.16-.07-.21l-1.68-1.22a.188.188 0 0 1 .11-.34h2.08c.08 0 .15-.05.18-.13l.64-1.98c.06-.17.3-.17.36 0zM267.61 26.89l.64 1.98c.03.08.1.13.18.13h2.08c.18 0 .26.23.11.34l-1.68 1.22c-.07.05-.09.13-.07.21l.64 1.98c.06.17-.14.32-.29.21l-1.68-1.22a.18.18 0 0 0-.22 0l-1.68 1.22c-.15.11-.34-.04-.29-.21l.64-1.98c.03-.08 0-.16-.07-.21l-1.68-1.22a.188.188 0 0 1 .11-.34h2.08c.08 0 .15-.05.18-.13l.64-1.98c.06-.17.31-.17.36 0z"/></g><path class="st72" d="m259.35 23.88-3.76 6.76-1.3 2.34-1.39 2.51-.28.5h-18.64l.28-.5 1.39-2.51 1.3-2.34 3.76-6.76z"/></g></g><g><path class="st83" d="M142.23 180.17h70.91v.47h-70.91zM105.53 183.77h72.56v.47h-72.56zM192.27 183.77h45.25v.47h-45.25zM231.76 180.23h45.5v.47h-45.5zM218.99 180.23h8.32v.47h-8.32zM43.35 180.17h83.55v.47H43.35zM315.35 176.4h5.71v.47h-5.71zM20.57 176.4h287.46v.47H20.57z"/><path class="st83" d="M14.52 176.4h6.06v.47h-6.06zM0 176.4h9.49v.47H0z"/><path style="fill:#41327a" d="M185.64 176.4h5.96v.47h-5.96z"/></g></svg>