<svg width="52" height="63" viewBox="0 0 52 63" fill="none" xmlns="http://www.w3.org/2000/svg">
<g id="choose-1 2" clip-path="url(#clip0_475_3832)">
<g id="Group">
<g id="Group_2">
<g id="Group_3">
<path id="Vector" d="M39.715 54.1987V63.0117H4.72411V54.1987H17.1018V19.7416C17.1018 18.9935 17.1133 18.2221 17.1481 17.439C17.1712 16.6558 17.2175 15.861 17.2754 15.0545L9.11245 21.9156C8.53351 22.3481 7.97773 22.6286 7.43353 22.7455C6.88933 22.8623 6.36829 22.874 5.88199 22.7688C5.39568 22.6636 4.96727 22.5 4.59675 22.2429C4.22623 21.9974 3.93676 21.7403 3.73992 21.4831L0 16.3987L19.1743 0H28.9352V54.1987H39.715Z" fill="#EF5DA8"/>
</g>
</g>
<g id="Group_4">
<g id="Group_5">
<g id="Group_6">
<g id="Group_7">
<path id="Vector_2" d="M37.5726 2.0573C37.5147 2.16249 37.4452 2.23262 37.3873 2.27937C37.3178 2.32613 37.2368 2.3495 37.1441 2.3495C37.0515 2.3495 36.9473 2.31444 36.8315 2.24431C36.7157 2.17418 36.5884 2.10405 36.4378 2.02223C36.2873 1.94041 36.1136 1.87028 35.9168 1.80015C35.72 1.73002 35.5 1.69496 35.2337 1.69496C34.7705 1.69496 34.4347 1.80015 34.2031 2.01054C33.9716 2.22093 33.8558 2.48976 33.8558 2.81704C33.8558 3.02743 33.9137 3.20275 34.041 3.34301C34.1684 3.48327 34.3305 3.60015 34.5389 3.70535C34.7473 3.81054 34.9789 3.90405 35.2337 3.97418C35.4884 4.056 35.7547 4.13781 36.0326 4.24301C36.3105 4.33652 36.5768 4.4534 36.8315 4.58197C37.0862 4.71054 37.3294 4.87418 37.5262 5.07288C37.7347 5.27158 37.8968 5.50535 38.0241 5.78587C38.1515 6.06639 38.2094 6.41704 38.2094 6.81444C38.2094 7.25859 38.1283 7.66768 37.9778 8.0534C37.8273 8.43911 37.6073 8.77807 37.3178 9.05859C37.0515 9.3508 36.7042 9.57288 36.2757 9.73652C35.8589 9.90015 35.3726 9.98197 34.84 9.98197C34.5389 9.98197 34.2379 9.94691 33.9253 9.88846C33.6242 9.83002 33.3347 9.73652 33.0569 9.63132C32.779 9.51444 32.5127 9.38587 32.2695 9.23392C32.0264 9.08197 31.8064 8.90665 31.6211 8.70794L32.2 7.76119C32.2463 7.69106 32.3158 7.63262 32.3969 7.58587C32.4779 7.53911 32.559 7.51574 32.6516 7.51574C32.7674 7.51574 32.8948 7.56249 33.0337 7.64431C33.1611 7.73781 33.3232 7.83132 33.4853 7.93652C33.6589 8.04171 33.8558 8.14691 34.0874 8.22872C34.3189 8.32223 34.5852 8.3573 34.9094 8.3573C35.3726 8.3573 35.7315 8.2521 35.9863 8.04171C36.241 7.83132 36.3684 7.51574 36.3684 7.08327C36.3684 6.83781 36.3105 6.63911 36.1831 6.48717C36.0557 6.33522 35.8936 6.20665 35.6852 6.10145C35.4768 5.99626 35.2452 5.91444 34.9905 5.83262C34.7358 5.76249 34.4695 5.68067 34.1916 5.58717C33.9137 5.49366 33.6474 5.38846 33.3926 5.27158C33.1379 5.14301 32.9063 4.97937 32.6979 4.78067C32.4895 4.57028 32.3274 4.32483 32.2 4.02093C32.0727 3.71704 32.0148 3.34301 32.0148 2.88717C32.0148 2.52483 32.0842 2.17418 32.2232 1.83522C32.3621 1.49626 32.5705 1.19236 32.8484 0.935217C33.1263 0.678074 33.4621 0.455996 33.8558 0.304048C34.2495 0.140412 34.7126 0.0585938 35.2221 0.0585938C35.801 0.0585938 36.3336 0.1521 36.8199 0.327425C37.3062 0.50275 37.7231 0.759892 38.0704 1.07548L37.5726 2.0573Z" fill="#702A85"/>
</g>
</g>
<g id="Group_8">
<g id="Group_9">
<path id="Vector_3" d="M46.4531 1.81172H43.651V9.87665H41.6595V1.81172H38.8574V0.19873H46.4531V1.81172Z" fill="#702A85"/>
</g>
</g>
</g>
</g>
<g id="Group_10">
<g id="Group_11">
<g id="Group_12">
<g id="Group_13">
<path id="Vector_4" d="M38.1862 19.1807C38.5799 19.4261 38.5683 19.8118 38.5683 20.1975C38.5567 20.9924 38.5683 20.9924 39.3556 20.9924C40.3398 20.9924 41.324 20.9924 42.3082 20.9924C42.5282 20.9924 42.6787 20.9456 42.8061 20.7586C43.0956 20.3378 43.3156 20.2911 43.7556 20.5131C45.0176 21.156 46.326 21.717 47.4028 22.6638C49.9965 24.943 51.2817 27.8066 51.108 31.3014C51.0617 32.1196 50.7491 32.8677 50.2628 33.5105C50.0891 33.7326 50.1007 33.9079 50.2049 34.1417C50.7607 35.3807 51.3049 36.6196 51.8491 37.8586C52.3006 38.8988 51.7796 39.717 50.6565 39.7287C50.4365 39.7287 50.2165 39.7287 49.9502 39.7287C49.9502 40.2781 49.9386 40.7923 49.9502 41.3183C49.9617 41.6456 49.8807 41.9378 49.6144 42.1248C48.8733 42.6508 48.6302 43.3521 48.7344 44.2521C48.8039 44.9066 48.7576 45.5729 48.746 46.2391C48.746 46.7768 48.5376 46.9872 47.9934 46.9872C46.8934 46.9872 45.7934 47.0222 44.6934 46.9755C44.3113 46.9638 43.9177 46.8001 43.5703 46.6248C42.5398 46.0872 41.5324 45.5144 40.4788 44.93C40.0504 45.643 39.6104 46.3794 39.182 47.1157C39.1356 47.1859 39.1588 47.3027 39.1588 47.3962C39.1588 48.2962 39.1472 49.1962 39.1704 50.0846C39.1704 50.2482 39.263 50.4469 39.3672 50.5638C40.5598 51.791 41.7756 53.0066 42.9798 54.2222C43.0261 54.269 43.084 54.3274 43.1303 54.3742C43.3271 54.5729 43.4082 54.8183 43.2808 55.0872C43.165 55.3326 42.9566 55.4495 42.6903 55.4495C42.3082 55.4495 41.9145 55.4495 41.5324 55.4495C35.6736 55.4495 29.8148 55.4495 23.956 55.4495C23.8517 55.4495 23.7475 55.4495 23.6433 55.4495C23.377 55.4495 23.157 55.3443 23.0528 55.0988C22.937 54.8417 22.9949 54.5962 23.2033 54.3859C23.377 54.2105 23.5507 54.0352 23.7244 53.8599C25.1949 52.3755 26.6654 50.8794 28.1474 49.4066C28.3211 49.2313 28.3906 49.056 28.379 48.8222C28.3674 46.0988 28.379 43.3638 28.379 40.6404C28.379 39.904 28.5527 39.7404 29.259 39.7404C29.7453 39.7404 30.2316 39.7404 30.7527 39.7404C30.7527 38.7235 30.7527 37.7417 30.7527 36.7482C30.6716 36.7365 30.6021 36.7248 30.5327 36.7131C30.0811 36.6664 29.919 36.5144 29.8495 36.0586C29.7337 35.3807 29.6295 34.7027 29.5137 34.0365C29.4443 33.6274 29.1895 33.4872 28.819 33.6274C28.3443 33.8027 27.8811 33.9898 27.4064 34.1534C27.2212 34.2118 27.1517 34.3053 27.1633 34.5157C27.1748 35.3573 27.1748 36.1872 27.1864 37.0287C27.1864 37.7651 27.0359 37.9287 26.318 37.9287C25.2759 37.9287 24.2338 37.9287 23.1918 37.9287C23.0065 37.9287 22.8907 37.9521 22.7865 38.1508C22.3812 38.9222 21.5592 39.2846 20.7486 39.0742C19.9729 38.8755 19.4055 38.1391 19.4055 37.3326C19.3939 36.5144 19.9729 35.7547 20.7602 35.556C21.5823 35.3573 22.3928 35.7079 22.7981 36.4911C22.8907 36.6664 22.9833 36.7131 23.1686 36.7131C24.0949 36.7014 25.0096 36.7131 25.9822 36.7131C25.9822 36.2807 25.9475 35.8716 25.9938 35.4742C26.098 34.469 25.878 33.569 25.2643 32.7625C25.1138 32.5638 25.0096 32.3417 24.8938 32.1196C24.697 31.7573 24.7433 31.5001 25.0444 31.243C25.2643 31.0443 25.5075 30.8573 25.7854 30.6235C25.1254 30.6235 24.5465 30.6235 23.9675 30.6235C23.0991 30.6352 22.2423 30.6586 21.3739 30.6586C21.1886 30.6586 21.096 30.7053 21.0034 30.8807C20.6097 31.6521 19.7992 32.0261 19.0118 31.8274C18.1898 31.617 17.634 30.9274 17.634 30.0859C17.6224 29.2326 18.155 28.5313 18.9655 28.3092C19.776 28.0872 20.5865 28.4495 21.015 29.2209C21.0729 29.3261 21.2118 29.443 21.3044 29.443C23.1223 29.4313 24.9286 29.3962 26.7464 29.3729C26.7927 29.3729 26.8275 29.3495 26.9433 29.3261C26.8506 29.2209 26.7927 29.1391 26.7233 29.0807C26.2254 28.6599 25.7391 28.2508 25.2296 27.8417C24.9865 27.643 24.7317 27.4443 24.8012 27.0469C23.6665 27.0469 22.5665 27.0469 21.4665 27.0469C20.795 27.0469 20.6213 26.8599 20.6213 26.182C20.6213 25.5157 20.6097 24.8612 20.6213 24.195C20.6213 23.9962 20.5634 23.8911 20.3781 23.7859C19.6139 23.3768 19.2666 22.5352 19.4866 21.717C19.695 20.9339 20.4244 20.3846 21.235 20.3846C22.0455 20.3846 22.7633 20.9456 22.9602 21.7404C23.1686 22.5469 22.8097 23.3885 22.0802 23.7859C21.8834 23.8911 21.8139 23.9962 21.8139 24.2183C21.8255 24.7443 21.8139 25.2703 21.8139 25.843C22.6128 25.843 23.3654 25.843 24.1296 25.843C24.5465 25.843 25.0328 25.9716 25.3686 25.7962C25.6812 25.6326 25.8317 25.1534 26.0401 24.8144C26.237 24.5105 26.4917 24.4287 26.8275 24.5456C27.4759 24.7911 28.1127 25.0365 28.7611 25.2703C29.2243 25.4456 29.4558 25.317 29.5369 24.8144C29.6411 24.1833 29.7453 23.5638 29.8379 22.9326C29.9306 22.3599 30.0927 22.2196 30.6716 22.2196C30.8916 22.2196 31.1116 22.2196 31.3779 22.2196C31.3779 21.4599 31.3895 20.7352 31.3663 20.0105C31.3548 19.6365 31.4705 19.3677 31.7947 19.1924C33.9252 19.1807 36.0557 19.1807 38.1862 19.1807ZM47.9818 42.1014C46.905 41.9027 46.0713 41.4936 45.3766 40.804C45.1103 40.5469 45.0987 40.1962 45.3187 39.9508C45.5387 39.6936 45.8745 39.682 46.1639 39.904C46.245 39.9742 46.3144 40.0443 46.3955 40.1144C47.0671 40.6638 47.8313 40.9677 48.746 40.9326C48.746 40.3482 48.7344 39.7872 48.746 39.2378C48.7576 38.7469 48.9776 38.5365 49.4639 38.5248C49.8923 38.5248 50.3323 38.5248 50.807 38.5248C50.7491 38.3729 50.7028 38.256 50.6449 38.1391C50.0544 36.8066 49.4754 35.4625 48.8733 34.1417C48.6881 33.7443 48.7344 33.4404 49.0354 33.1248C49.5796 32.5521 49.8691 31.8508 49.9154 31.056C49.9733 30.0391 49.8344 29.0573 49.5449 28.0872C48.5955 24.9664 46.465 23.0027 43.5124 21.8105C42.6903 22.9794 41.8566 24.1482 41.0346 25.3287C40.9651 25.4222 40.9535 25.5742 40.9535 25.6911C40.9535 27.8066 40.9419 29.9105 40.9535 32.0261C40.9535 32.1898 41.023 32.3768 41.1156 32.5053C41.5672 33.1482 42.0651 33.7677 42.5166 34.4105C42.644 34.5859 42.725 34.8313 42.7366 35.0534C42.7598 35.7547 42.7366 36.4677 42.7482 37.1807C42.7598 37.5898 42.5861 37.8118 42.2156 37.9521C41.4745 38.2326 40.7451 38.5482 40.004 38.8404C39.8304 38.9105 39.7493 38.9923 39.7493 39.191C39.7609 40.3949 39.7493 41.5988 39.7609 42.8027C39.7609 42.9196 39.8419 43.0833 39.9346 43.1417C41.1619 43.8781 42.3893 44.591 43.6166 45.3274C44.2534 45.7014 44.9134 45.8885 45.6545 45.8066C46.0134 45.7599 46.3839 45.7949 46.7429 45.7949C46.9976 45.7949 47.2523 45.7949 47.5302 45.7949C47.5302 44.93 47.5302 44.1118 47.5302 43.3053C47.5418 42.8612 47.4955 42.417 47.9818 42.1014ZM37.1904 31.8742C36.7967 31.5469 36.4378 31.1962 36.0326 30.9274C35.442 30.53 35.141 30.0508 35.222 29.2794C35.2684 28.8352 35.361 28.5313 35.7083 28.2625C36.2178 27.8768 36.7041 27.4443 37.202 27.0352C36.9588 26.6144 36.7389 26.2287 36.5073 25.8313C35.9978 26.03 35.4884 26.182 35.0136 26.404C34.4231 26.6846 33.8905 26.7547 33.3694 26.2755C33.3231 26.2287 33.2421 26.2053 33.1842 26.182C32.8831 26.0534 32.7442 25.8313 32.6979 25.504C32.5937 24.8144 32.4663 24.1248 32.3505 23.4352C31.8642 23.4352 31.4242 23.4352 30.9727 23.4352C30.8916 23.9144 30.7874 24.3703 30.7527 24.8378C30.6948 25.5508 30.5095 26.1586 29.7453 26.3924C29.7106 26.404 29.6874 26.4274 29.6527 26.4508C29.3748 26.6962 29.0737 26.6962 28.738 26.556C28.1127 26.2988 27.4759 26.0768 26.8159 25.8313C26.5843 26.2404 26.3527 26.6378 26.1212 27.0352C26.5033 27.3508 26.8275 27.6781 27.2096 27.9235C27.8464 28.3443 28.1938 28.8469 28.0896 29.6768C28.0432 30.0742 27.9622 30.3664 27.6496 30.6118C27.1285 31.0092 26.6422 31.4417 26.1212 31.8742C26.3643 32.2949 26.5843 32.6807 26.8043 33.0781C27.2906 32.8911 27.7538 32.7625 28.1822 32.5521C28.8306 32.2365 29.4327 32.1313 30.0116 32.6807C30.0464 32.7157 30.0927 32.7274 30.139 32.7391C30.4285 32.856 30.5674 33.0781 30.6137 33.382C30.7179 34.0833 30.8453 34.7729 30.9611 35.4742C31.4358 35.4742 31.8758 35.4742 32.3389 35.4742C32.42 35.0066 32.5126 34.5625 32.5589 34.1066C32.6284 33.382 32.7905 32.7391 33.5894 32.4936C33.601 32.4936 33.6126 32.482 33.6242 32.4703C33.9368 32.1898 34.261 32.2014 34.6315 32.3534C35.2452 32.6105 35.8704 32.8209 36.4957 33.0664C36.7389 32.669 36.9588 32.2949 37.1904 31.8742ZM29.5832 40.956C29.5832 41.1079 29.5832 41.2482 29.5832 41.3885C29.5832 43.9482 29.5716 46.5079 29.5948 49.0677C29.5948 49.4885 29.4674 49.7923 29.1664 50.0962C27.8927 51.3586 26.6306 52.6443 25.3686 53.9183C25.2875 54.0001 25.2065 54.0936 25.1022 54.2105C25.1717 54.2339 25.2065 54.2456 25.2412 54.2456C26.538 54.2456 27.8348 54.2573 29.1316 54.2339C29.2474 54.2339 29.3979 54.1521 29.479 54.0586C29.8611 53.6378 30.2316 53.217 30.579 52.7729C30.6948 52.6209 30.7758 52.3988 30.7758 52.2118C30.799 51.0079 30.7874 49.804 30.7874 48.6001C30.7874 48.4716 30.799 48.3547 30.8106 48.2144C31.2158 48.2144 31.5863 48.2144 32.0032 48.2144C32.0032 49.1729 32.0032 50.0962 32.0032 51.1365C32.3853 50.704 32.6979 50.3651 32.9873 49.991C33.1031 49.8508 33.1842 49.6404 33.1842 49.4651C33.1958 46.7534 33.1958 44.0417 33.1958 41.33C33.1958 41.2014 33.1842 41.0846 33.1726 40.956C31.9568 40.956 30.7874 40.956 29.5832 40.956ZM41.6251 36.1053C41.5556 35.6729 41.5788 35.2638 41.4282 34.9365C41.243 34.5391 40.9303 34.2001 40.6409 33.8612C40.5714 33.7677 40.4209 33.6975 40.3051 33.6975C39.5062 33.6859 38.7188 33.6975 37.9199 33.6859C37.6536 33.6859 37.4915 33.7443 37.3641 33.9898C37.1325 34.4339 36.8894 34.504 36.4031 34.3287C35.7547 34.0833 35.1178 33.8378 34.4694 33.604C34.1568 33.4872 33.8905 33.6508 33.8326 33.9781C33.7168 34.6677 33.601 35.3456 33.4852 36.0352C33.4042 36.5378 33.2189 36.7014 32.7095 36.7131C32.4779 36.7131 32.2463 36.7131 32.0032 36.7131C32.0032 37.7417 32.0032 38.7235 32.0032 39.7053C34.2031 39.7053 36.3683 39.7053 38.5567 39.7053C38.5567 39.4248 38.5567 39.1677 38.5567 38.9105C38.5567 38.1625 38.5914 38.104 39.2977 37.8235C39.6567 37.6833 40.0156 37.5313 40.3746 37.3911C40.363 37.3677 40.363 37.3326 40.3514 37.3092C39.9577 37.3092 39.5641 37.3092 39.182 37.3092C39.182 36.9001 39.182 36.5261 39.182 36.1287C39.9809 36.1053 40.7451 36.1053 41.6251 36.1053ZM32.6053 20.4079C32.6053 20.9924 32.6053 21.5885 32.6053 22.1729C33.3694 22.3014 33.3694 22.3014 33.5084 23.0962C33.6126 23.704 33.7168 24.3001 33.821 24.9079C33.8905 25.282 34.1452 25.4339 34.4926 25.3053C35.1063 25.0716 35.7199 24.8495 36.3336 24.6157C36.901 24.4053 37.0978 24.4638 37.3873 24.9898C37.4915 25.1885 37.6188 25.2469 37.8272 25.2352C38.2557 25.2235 38.6957 25.2118 39.1241 25.2352C39.4946 25.2586 39.7262 25.1768 39.9462 24.8144C40.4325 24.0079 41.0114 23.2716 41.5556 22.5001C41.6019 22.43 41.6482 22.3482 41.7177 22.2313C41.544 22.2313 41.4167 22.2313 41.2893 22.2313C40.2588 22.2313 39.2283 22.2313 38.1978 22.2313C37.5494 22.2313 37.3525 22.0326 37.3525 21.3898C37.3525 21.0742 37.3525 20.7586 37.3525 20.4313C35.7662 20.4079 34.2031 20.4079 32.6053 20.4079ZM34.3768 48.8105C34.3768 49.1144 34.3652 49.3949 34.3768 49.6755C34.4 50.0495 34.2842 50.3534 34.0294 50.6339C33.0568 51.7326 32.0958 52.843 31.1348 53.9534C31.0653 54.0235 31.019 54.1053 30.9495 54.2105C32.5126 54.2105 34.0294 54.2105 35.5462 54.2105C35.5462 52.3988 35.5462 50.6105 35.5462 48.8105C35.1526 48.8105 34.7936 48.8105 34.3768 48.8105ZM36.7967 48.8105C36.7967 50.6222 36.7967 52.4222 36.7967 54.2222C38.2904 54.2222 39.7493 54.2222 41.2661 54.2222C41.1503 54.1053 41.0809 54.0118 40.9998 53.93C40.0967 53.0183 39.2051 52.1066 38.2904 51.2066C38.0588 50.9729 37.943 50.7274 37.9546 50.4001C37.9778 49.8742 37.9546 49.3482 37.9546 48.8105C37.5494 48.8105 37.1904 48.8105 36.7967 48.8105ZM35.581 40.956C35.1641 40.956 34.7936 40.956 34.4115 40.956C34.4115 43.1768 34.4115 45.3625 34.4115 47.5833C35.0136 47.5833 35.6041 47.5833 36.1831 47.5833C36.7736 47.5833 37.3641 47.5833 38.0704 47.5833C37.9546 47.3495 37.8967 47.1742 37.7809 47.0573C37.2252 46.4729 36.6578 45.8885 36.0673 45.3391C35.6968 45.0001 35.5462 44.6378 35.5694 44.1352C35.6041 43.0833 35.581 42.0313 35.581 40.956ZM36.7736 40.9443C36.7736 42.0547 36.7736 43.13 36.7736 44.217C36.7736 44.2755 36.8083 44.3573 36.8546 44.404C37.3757 44.93 37.8967 45.456 38.4409 46.0053C38.7883 45.4092 39.1241 44.8482 39.4599 44.2988C39.4251 44.2521 39.4251 44.2287 39.402 44.217C39.3672 44.1936 39.3325 44.1586 39.2862 44.1352C38.6725 43.8897 38.4641 43.4222 38.5567 42.7794C38.5799 42.6157 38.5567 42.4521 38.5567 42.2885C38.5567 41.8443 38.5567 41.4001 38.5567 40.9443C37.9546 40.9443 37.3988 40.9443 36.7736 40.9443ZM38.2672 26.4508C38.6841 27.3625 38.6841 27.3625 37.943 27.982C37.6188 28.2508 37.3062 28.5196 36.9357 28.8235C37.9083 28.8235 38.823 28.8235 39.7377 28.8235C39.7377 28.017 39.7377 27.2456 39.7377 26.4508C39.2514 26.4508 38.7767 26.4508 38.2672 26.4508ZM38.2904 32.4586C38.7883 32.4586 39.263 32.4586 39.7262 32.4586C39.7262 31.6521 39.7262 30.869 39.7262 30.0975C38.7999 30.0975 37.9083 30.0975 36.9357 30.0975C37.2946 30.4014 37.5841 30.6352 37.8736 30.8807C38.6493 31.5235 38.6493 31.5235 38.2904 32.4586ZM21.1886 22.7924C21.5244 22.804 21.7907 22.5469 21.7907 22.1962C21.7907 21.8573 21.5244 21.5885 21.2002 21.5885C20.8876 21.5885 20.6213 21.8573 20.6097 22.1729C20.5865 22.5118 20.8529 22.7924 21.1886 22.7924ZM21.7907 37.3092C21.7907 36.9703 21.5244 36.7131 21.1886 36.7131C20.8644 36.7248 20.6097 36.9703 20.6097 37.2975C20.5981 37.6248 20.8644 37.9053 21.2002 37.9053C21.5244 37.917 21.7907 37.6482 21.7907 37.3092ZM19.9613 30.0859C19.9729 29.7469 19.7066 29.4664 19.3824 29.4664C19.0813 29.4664 18.815 29.7352 18.815 30.0625C18.815 30.3898 19.0582 30.6469 19.3824 30.6586C19.695 30.6703 19.9497 30.4131 19.9613 30.0859Z" fill="#702A85"/>
</g>
</g>
<g id="Group_14">
<path id="Vector_5" d="M46.9509 33.0782C46.9509 32.6574 46.9509 32.2951 46.9509 31.9328C46.9625 31.5237 47.1709 31.2899 47.5299 31.2782C47.8888 31.2665 48.1436 31.5237 48.1436 31.9328C48.1551 32.4821 48.1551 33.0431 48.1436 33.5925C48.1436 34.0483 47.9236 34.2704 47.4836 34.2821C46.9278 34.2938 46.3604 34.2938 45.8047 34.2821C45.411 34.2704 45.1562 34.0367 45.1562 33.6977C45.1562 33.3587 45.411 33.1016 45.7931 33.0899C46.1636 33.0665 46.5341 33.0782 46.9509 33.0782Z" fill="#702A85"/>
</g>
<g id="Group_15">
<path id="Vector_6" d="M43.3387 27.6196C42.9566 27.6196 42.5861 27.6196 42.1924 27.6196C42.1924 26.8364 42.1924 26.0533 42.1924 25.2468C42.5745 25.2468 42.9334 25.2468 43.3387 25.2468C43.3387 26.0299 43.3387 26.8131 43.3387 27.6196Z" fill="#702A85"/>
</g>
<g id="Group_16">
<path id="Vector_7" d="M43.3618 30.0392C42.9566 30.0392 42.5861 30.0392 42.1924 30.0392C42.1924 29.6534 42.1924 29.2794 42.1924 28.8586C42.5166 28.8586 42.8408 28.8469 43.165 28.8703C43.2345 28.8703 43.3503 28.9872 43.3503 29.0456C43.3734 29.3612 43.3618 29.6885 43.3618 30.0392Z" fill="#702A85"/>
</g>
<g id="Group_17">
<path id="Vector_8" d="M43.3504 31.3015C43.3504 31.6989 43.3504 32.0613 43.3504 32.4587C42.9683 32.4587 42.5978 32.4587 42.2041 32.4587C42.2041 32.0846 42.2041 31.6989 42.2041 31.3015C42.5746 31.3015 42.9567 31.3015 43.3504 31.3015Z" fill="#702A85"/>
</g>
<g id="Group_18">
<g id="Group_19">
<path id="Vector_9" d="M34.0526 29.4663C34.041 30.7988 32.9874 31.8624 31.6558 31.8624C30.3243 31.8624 29.259 30.7754 29.2706 29.4196C29.2822 28.0988 30.359 27.0352 31.6906 27.0352C33.0105 27.0468 34.0642 28.1339 34.0526 29.4663ZM32.86 29.443C32.86 28.7767 32.3158 28.2391 31.6442 28.2391C30.9958 28.2507 30.4748 28.7884 30.4632 29.443C30.4632 30.1092 30.9958 30.6585 31.6558 30.6585C32.339 30.6585 32.86 30.1209 32.86 29.443Z" fill="#702A85"/>
</g>
</g>
<g id="Group_20">
<path id="Vector_10" d="M30.7988 46.9638C30.7988 46.5664 30.7988 46.204 30.7988 45.8066C31.1809 45.8066 31.5514 45.8066 31.9451 45.8066C31.9451 46.1807 31.9451 46.5664 31.9451 46.9638C31.5746 46.9638 31.2157 46.9638 30.7988 46.9638Z" fill="#702A85"/>
</g>
<g id="Group_21">
<path id="Vector_11" d="M30.8105 43.3638C31.2042 43.3638 31.5747 43.3638 31.9684 43.3638C31.9684 43.7612 31.9684 44.1352 31.9684 44.5326C31.5747 44.5326 31.2042 44.5326 30.8105 44.5326C30.8105 44.1469 30.8105 43.7729 30.8105 43.3638Z" fill="#702A85"/>
</g>
<g id="Group_22">
<path id="Vector_12" d="M34.4111 36.1287C34.8164 36.1287 35.1753 36.1287 35.569 36.1287C35.569 36.5144 35.569 36.8884 35.569 37.2858C35.1869 37.2858 34.8164 37.2858 34.4111 37.2858C34.4111 36.9118 34.4111 36.5261 34.4111 36.1287Z" fill="#702A85"/>
</g>
<g id="Group_23">
<path id="Vector_13" d="M36.7969 36.1169C37.1906 36.1169 37.5495 36.1169 37.9432 36.1169C37.9432 36.5027 37.9432 36.8884 37.9432 37.2858C37.5726 37.2858 37.2021 37.2858 36.7969 37.2858C36.7969 36.9001 36.7969 36.526 36.7969 36.1169Z" fill="#702A85"/>
</g>
</g>
</g>
<g id="Group_24">
<g id="Group_25">
<g id="Group_26">
<path id="Vector_14" d="M38.1862 19.1807C38.5799 19.4261 38.5683 19.8118 38.5683 20.1975C38.5567 20.9924 38.5683 20.9924 39.3556 20.9924C40.3398 20.9924 41.324 20.9924 42.3082 20.9924C42.5282 20.9924 42.6787 20.9456 42.8061 20.7586C43.0956 20.3378 43.3156 20.2911 43.7556 20.5131C45.0176 21.156 46.326 21.717 47.4028 22.6638C49.9965 24.943 51.2817 27.8066 51.108 31.3014C51.0617 32.1196 50.7491 32.8677 50.2628 33.5105C50.0891 33.7326 50.1007 33.9079 50.2049 34.1417C50.7607 35.3807 51.3049 36.6196 51.8491 37.8586C52.3006 38.8988 51.7796 39.717 50.6565 39.7287C50.4365 39.7287 50.2165 39.7287 49.9502 39.7287C49.9502 40.2781 49.9386 40.7923 49.9502 41.3183C49.9617 41.6456 49.8807 41.9378 49.6144 42.1248C48.8733 42.6508 48.6302 43.3521 48.7344 44.2521C48.8039 44.9066 48.7576 45.5729 48.746 46.2391C48.746 46.7768 48.5376 46.9872 47.9934 46.9872C46.8934 46.9872 45.7934 47.0222 44.6934 46.9755C44.3113 46.9638 43.9177 46.8001 43.5703 46.6248C42.5398 46.0872 41.5324 45.5144 40.4788 44.93C40.0504 45.643 39.6104 46.3794 39.182 47.1157C39.1356 47.1859 39.1588 47.3027 39.1588 47.3962C39.1588 48.2962 39.1472 49.1962 39.1704 50.0846C39.1704 50.2482 39.263 50.4469 39.3672 50.5638C40.5598 51.791 41.7756 53.0066 42.9798 54.2222C43.0261 54.269 43.084 54.3274 43.1303 54.3742C43.3271 54.5729 43.4082 54.8183 43.2808 55.0872C43.165 55.3326 42.9566 55.4495 42.6903 55.4495C42.3082 55.4495 41.9145 55.4495 41.5324 55.4495C35.6736 55.4495 29.8148 55.4495 23.956 55.4495C23.8517 55.4495 23.7475 55.4495 23.6433 55.4495C23.377 55.4495 23.157 55.3443 23.0528 55.0988C22.937 54.8417 22.9949 54.5962 23.2033 54.3859C23.377 54.2105 23.5507 54.0352 23.7244 53.8599C25.1949 52.3755 26.6654 50.8794 28.1474 49.4066C28.3211 49.2313 28.3906 49.056 28.379 48.8222C28.3674 46.0988 28.379 43.3638 28.379 40.6404C28.379 39.904 28.5527 39.7404 29.259 39.7404C29.7453 39.7404 30.2316 39.7404 30.7527 39.7404C30.7527 38.7235 30.7527 37.7417 30.7527 36.7482C30.6716 36.7365 30.6021 36.7248 30.5327 36.7131C30.0811 36.6664 29.919 36.5144 29.8495 36.0586C29.7337 35.3807 29.6295 34.7027 29.5137 34.0365C29.4443 33.6274 29.1895 33.4872 28.819 33.6274C28.3443 33.8027 27.8811 33.9898 27.4064 34.1534C27.2212 34.2118 27.1517 34.3053 27.1633 34.5157C27.1748 35.3573 27.1748 36.1872 27.1864 37.0287C27.1864 37.7651 27.0359 37.9287 26.318 37.9287C25.2759 37.9287 24.2338 37.9287 23.1918 37.9287C23.0065 37.9287 22.8907 37.9521 22.7865 38.1508C22.3812 38.9222 21.5592 39.2846 20.7486 39.0742C19.9729 38.8755 19.4055 38.1391 19.4055 37.3326C19.3939 36.5144 19.9729 35.7547 20.7602 35.556C21.5823 35.3573 22.3928 35.7079 22.7981 36.4911C22.8907 36.6664 22.9833 36.7131 23.1686 36.7131C24.0949 36.7014 25.0096 36.7131 25.9822 36.7131C25.9822 36.2807 25.9475 35.8716 25.9938 35.4742C26.098 34.469 25.878 33.569 25.2643 32.7625C25.1138 32.5638 25.0096 32.3417 24.8938 32.1196C24.697 31.7573 24.7433 31.5001 25.0444 31.243C25.2643 31.0443 25.5075 30.8573 25.7854 30.6235C25.1254 30.6235 24.5465 30.6235 23.9675 30.6235C23.0991 30.6352 22.2423 30.6586 21.3739 30.6586C21.1886 30.6586 21.096 30.7053 21.0034 30.8807C20.6097 31.6521 19.7992 32.0261 19.0118 31.8274C18.1898 31.617 17.634 30.9274 17.634 30.0859C17.6224 29.2326 18.155 28.5313 18.9655 28.3092C19.776 28.0872 20.5865 28.4495 21.015 29.2209C21.0729 29.3261 21.2118 29.443 21.3044 29.443C23.1223 29.4313 24.9286 29.3962 26.7464 29.3729C26.7927 29.3729 26.8275 29.3495 26.9433 29.3261C26.8506 29.2209 26.7927 29.1391 26.7233 29.0807C26.2254 28.6599 25.7391 28.2508 25.2296 27.8417C24.9865 27.643 24.7317 27.4443 24.8012 27.0469C23.6665 27.0469 22.5665 27.0469 21.4665 27.0469C20.795 27.0469 20.6213 26.8599 20.6213 26.182C20.6213 25.5157 20.6097 24.8612 20.6213 24.195C20.6213 23.9962 20.5634 23.8911 20.3781 23.7859C19.6139 23.3768 19.2666 22.5352 19.4866 21.717C19.695 20.9339 20.4244 20.3846 21.235 20.3846C22.0455 20.3846 22.7633 20.9456 22.9602 21.7404C23.1686 22.5469 22.8097 23.3885 22.0802 23.7859C21.8834 23.8911 21.8139 23.9962 21.8139 24.2183C21.8255 24.7443 21.8139 25.2703 21.8139 25.843C22.6128 25.843 23.3654 25.843 24.1296 25.843C24.5465 25.843 25.0328 25.9716 25.3686 25.7962C25.6812 25.6326 25.8317 25.1534 26.0401 24.8144C26.237 24.5105 26.4917 24.4287 26.8275 24.5456C27.4759 24.7911 28.1127 25.0365 28.7611 25.2703C29.2243 25.4456 29.4558 25.317 29.5369 24.8144C29.6411 24.1833 29.7453 23.5638 29.8379 22.9326C29.9306 22.3599 30.0927 22.2196 30.6716 22.2196C30.8916 22.2196 31.1116 22.2196 31.3779 22.2196C31.3779 21.4599 31.3895 20.7352 31.3663 20.0105C31.3548 19.6365 31.4705 19.3677 31.7947 19.1924C33.9252 19.1807 36.0557 19.1807 38.1862 19.1807ZM47.9818 42.1014C46.905 41.9027 46.0713 41.4936 45.3766 40.804C45.1103 40.5469 45.0987 40.1962 45.3187 39.9508C45.5387 39.6936 45.8745 39.682 46.1639 39.904C46.245 39.9742 46.3144 40.0443 46.3955 40.1144C47.0671 40.6638 47.8313 40.9677 48.746 40.9326C48.746 40.3482 48.7344 39.7872 48.746 39.2378C48.7576 38.7469 48.9776 38.5365 49.4639 38.5248C49.8923 38.5248 50.3323 38.5248 50.807 38.5248C50.7491 38.3729 50.7028 38.256 50.6449 38.1391C50.0544 36.8066 49.4754 35.4625 48.8733 34.1417C48.6881 33.7443 48.7344 33.4404 49.0354 33.1248C49.5796 32.5521 49.8691 31.8508 49.9154 31.056C49.9733 30.0391 49.8344 29.0573 49.5449 28.0872C48.5955 24.9664 46.465 23.0027 43.5124 21.8105C42.6903 22.9794 41.8566 24.1482 41.0346 25.3287C40.9651 25.4222 40.9535 25.5742 40.9535 25.6911C40.9535 27.8066 40.9419 29.9105 40.9535 32.0261C40.9535 32.1898 41.023 32.3768 41.1156 32.5053C41.5672 33.1482 42.0651 33.7677 42.5166 34.4105C42.644 34.5859 42.725 34.8313 42.7366 35.0534C42.7598 35.7547 42.7366 36.4677 42.7482 37.1807C42.7598 37.5898 42.5861 37.8118 42.2156 37.9521C41.4745 38.2326 40.7451 38.5482 40.004 38.8404C39.8304 38.9105 39.7493 38.9923 39.7493 39.191C39.7609 40.3949 39.7493 41.5988 39.7609 42.8027C39.7609 42.9196 39.8419 43.0833 39.9346 43.1417C41.1619 43.8781 42.3893 44.591 43.6166 45.3274C44.2534 45.7014 44.9134 45.8885 45.6545 45.8066C46.0134 45.7599 46.3839 45.7949 46.7429 45.7949C46.9976 45.7949 47.2523 45.7949 47.5302 45.7949C47.5302 44.93 47.5302 44.1118 47.5302 43.3053C47.5418 42.8612 47.4955 42.417 47.9818 42.1014ZM37.1904 31.8742C36.7967 31.5469 36.4378 31.1962 36.0326 30.9274C35.442 30.53 35.141 30.0508 35.222 29.2794C35.2684 28.8352 35.361 28.5313 35.7083 28.2625C36.2178 27.8768 36.7041 27.4443 37.202 27.0352C36.9588 26.6144 36.7389 26.2287 36.5073 25.8313C35.9978 26.03 35.4884 26.182 35.0136 26.404C34.4231 26.6846 33.8905 26.7547 33.3694 26.2755C33.3231 26.2287 33.2421 26.2053 33.1842 26.182C32.8831 26.0534 32.7442 25.8313 32.6979 25.504C32.5937 24.8144 32.4663 24.1248 32.3505 23.4352C31.8642 23.4352 31.4242 23.4352 30.9727 23.4352C30.8916 23.9144 30.7874 24.3703 30.7527 24.8378C30.6948 25.5508 30.5095 26.1586 29.7453 26.3924C29.7106 26.404 29.6874 26.4274 29.6527 26.4508C29.3748 26.6962 29.0737 26.6962 28.738 26.556C28.1127 26.2988 27.4759 26.0768 26.8159 25.8313C26.5843 26.2404 26.3527 26.6378 26.1212 27.0352C26.5033 27.3508 26.8275 27.6781 27.2096 27.9235C27.8464 28.3443 28.1938 28.8469 28.0896 29.6768C28.0432 30.0742 27.9622 30.3664 27.6496 30.6118C27.1285 31.0092 26.6422 31.4417 26.1212 31.8742C26.3643 32.2949 26.5843 32.6807 26.8043 33.0781C27.2906 32.8911 27.7538 32.7625 28.1822 32.5521C28.8306 32.2365 29.4327 32.1313 30.0116 32.6807C30.0464 32.7157 30.0927 32.7274 30.139 32.7391C30.4285 32.856 30.5674 33.0781 30.6137 33.382C30.7179 34.0833 30.8453 34.7729 30.9611 35.4742C31.4358 35.4742 31.8758 35.4742 32.3389 35.4742C32.42 35.0066 32.5126 34.5625 32.5589 34.1066C32.6284 33.382 32.7905 32.7391 33.5894 32.4936C33.601 32.4936 33.6126 32.482 33.6242 32.4703C33.9368 32.1898 34.261 32.2014 34.6315 32.3534C35.2452 32.6105 35.8704 32.8209 36.4957 33.0664C36.7389 32.669 36.9588 32.2949 37.1904 31.8742ZM29.5832 40.956C29.5832 41.1079 29.5832 41.2482 29.5832 41.3885C29.5832 43.9482 29.5716 46.5079 29.5948 49.0677C29.5948 49.4885 29.4674 49.7923 29.1664 50.0962C27.8927 51.3586 26.6306 52.6443 25.3686 53.9183C25.2875 54.0001 25.2065 54.0936 25.1022 54.2105C25.1717 54.2339 25.2065 54.2456 25.2412 54.2456C26.538 54.2456 27.8348 54.2573 29.1316 54.2339C29.2474 54.2339 29.3979 54.1521 29.479 54.0586C29.8611 53.6378 30.2316 53.217 30.579 52.7729C30.6948 52.6209 30.7758 52.3988 30.7758 52.2118C30.799 51.0079 30.7874 49.804 30.7874 48.6001C30.7874 48.4716 30.799 48.3547 30.8106 48.2144C31.2158 48.2144 31.5863 48.2144 32.0032 48.2144C32.0032 49.1729 32.0032 50.0962 32.0032 51.1365C32.3853 50.704 32.6979 50.3651 32.9873 49.991C33.1031 49.8508 33.1842 49.6404 33.1842 49.4651C33.1958 46.7534 33.1958 44.0417 33.1958 41.33C33.1958 41.2014 33.1842 41.0846 33.1726 40.956C31.9568 40.956 30.7874 40.956 29.5832 40.956ZM41.6251 36.1053C41.5556 35.6729 41.5788 35.2638 41.4282 34.9365C41.243 34.5391 40.9303 34.2001 40.6409 33.8612C40.5714 33.7677 40.4209 33.6975 40.3051 33.6975C39.5062 33.6859 38.7188 33.6975 37.9199 33.6859C37.6536 33.6859 37.4915 33.7443 37.3641 33.9898C37.1325 34.4339 36.8894 34.504 36.4031 34.3287C35.7547 34.0833 35.1178 33.8378 34.4694 33.604C34.1568 33.4872 33.8905 33.6508 33.8326 33.9781C33.7168 34.6677 33.601 35.3456 33.4852 36.0352C33.4042 36.5378 33.2189 36.7014 32.7095 36.7131C32.4779 36.7131 32.2463 36.7131 32.0032 36.7131C32.0032 37.7417 32.0032 38.7235 32.0032 39.7053C34.2031 39.7053 36.3683 39.7053 38.5567 39.7053C38.5567 39.4248 38.5567 39.1677 38.5567 38.9105C38.5567 38.1625 38.5914 38.104 39.2977 37.8235C39.6567 37.6833 40.0156 37.5313 40.3746 37.3911C40.363 37.3677 40.363 37.3326 40.3514 37.3092C39.9577 37.3092 39.5641 37.3092 39.182 37.3092C39.182 36.9001 39.182 36.5261 39.182 36.1287C39.9809 36.1053 40.7451 36.1053 41.6251 36.1053ZM32.6053 20.4079C32.6053 20.9924 32.6053 21.5885 32.6053 22.1729C33.3694 22.3014 33.3694 22.3014 33.5084 23.0962C33.6126 23.704 33.7168 24.3001 33.821 24.9079C33.8905 25.282 34.1452 25.4339 34.4926 25.3053C35.1063 25.0716 35.7199 24.8495 36.3336 24.6157C36.901 24.4053 37.0978 24.4638 37.3873 24.9898C37.4915 25.1885 37.6188 25.2469 37.8272 25.2352C38.2557 25.2235 38.6957 25.2118 39.1241 25.2352C39.4946 25.2586 39.7262 25.1768 39.9462 24.8144C40.4325 24.0079 41.0114 23.2716 41.5556 22.5001C41.6019 22.43 41.6482 22.3482 41.7177 22.2313C41.544 22.2313 41.4167 22.2313 41.2893 22.2313C40.2588 22.2313 39.2283 22.2313 38.1978 22.2313C37.5494 22.2313 37.3525 22.0326 37.3525 21.3898C37.3525 21.0742 37.3525 20.7586 37.3525 20.4313C35.7662 20.4079 34.2031 20.4079 32.6053 20.4079ZM34.3768 48.8105C34.3768 49.1144 34.3652 49.3949 34.3768 49.6755C34.4 50.0495 34.2842 50.3534 34.0294 50.6339C33.0568 51.7326 32.0958 52.843 31.1348 53.9534C31.0653 54.0235 31.019 54.1053 30.9495 54.2105C32.5126 54.2105 34.0294 54.2105 35.5462 54.2105C35.5462 52.3988 35.5462 50.6105 35.5462 48.8105C35.1526 48.8105 34.7936 48.8105 34.3768 48.8105ZM36.7967 48.8105C36.7967 50.6222 36.7967 52.4222 36.7967 54.2222C38.2904 54.2222 39.7493 54.2222 41.2661 54.2222C41.1503 54.1053 41.0809 54.0118 40.9998 53.93C40.0967 53.0183 39.2051 52.1066 38.2904 51.2066C38.0588 50.9729 37.943 50.7274 37.9546 50.4001C37.9778 49.8742 37.9546 49.3482 37.9546 48.8105C37.5494 48.8105 37.1904 48.8105 36.7967 48.8105ZM35.581 40.956C35.1641 40.956 34.7936 40.956 34.4115 40.956C34.4115 43.1768 34.4115 45.3625 34.4115 47.5833C35.0136 47.5833 35.6041 47.5833 36.1831 47.5833C36.7736 47.5833 37.3641 47.5833 38.0704 47.5833C37.9546 47.3495 37.8967 47.1742 37.7809 47.0573C37.2252 46.4729 36.6578 45.8885 36.0673 45.3391C35.6968 45.0001 35.5462 44.6378 35.5694 44.1352C35.6041 43.0833 35.581 42.0313 35.581 40.956ZM36.7736 40.9443C36.7736 42.0547 36.7736 43.13 36.7736 44.217C36.7736 44.2755 36.8083 44.3573 36.8546 44.404C37.3757 44.93 37.8967 45.456 38.4409 46.0053C38.7883 45.4092 39.1241 44.8482 39.4599 44.2988C39.4251 44.2521 39.4251 44.2287 39.402 44.217C39.3672 44.1936 39.3325 44.1586 39.2862 44.1352C38.6725 43.8897 38.4641 43.4222 38.5567 42.7794C38.5799 42.6157 38.5567 42.4521 38.5567 42.2885C38.5567 41.8443 38.5567 41.4001 38.5567 40.9443C37.9546 40.9443 37.3988 40.9443 36.7736 40.9443ZM38.2672 26.4508C38.6841 27.3625 38.6841 27.3625 37.943 27.982C37.6188 28.2508 37.3062 28.5196 36.9357 28.8235C37.9083 28.8235 38.823 28.8235 39.7377 28.8235C39.7377 28.017 39.7377 27.2456 39.7377 26.4508C39.2514 26.4508 38.7767 26.4508 38.2672 26.4508ZM38.2904 32.4586C38.7883 32.4586 39.263 32.4586 39.7262 32.4586C39.7262 31.6521 39.7262 30.869 39.7262 30.0975C38.7999 30.0975 37.9083 30.0975 36.9357 30.0975C37.2946 30.4014 37.5841 30.6352 37.8736 30.8807C38.6493 31.5235 38.6493 31.5235 38.2904 32.4586ZM21.1886 22.7924C21.5244 22.804 21.7907 22.5469 21.7907 22.1962C21.7907 21.8573 21.5244 21.5885 21.2002 21.5885C20.8876 21.5885 20.6213 21.8573 20.6097 22.1729C20.5865 22.5118 20.8529 22.7924 21.1886 22.7924ZM21.7907 37.3092C21.7907 36.9703 21.5244 36.7131 21.1886 36.7131C20.8644 36.7248 20.6097 36.9703 20.6097 37.2975C20.5981 37.6248 20.8644 37.9053 21.2002 37.9053C21.5244 37.917 21.7907 37.6482 21.7907 37.3092ZM19.9613 30.0859C19.9729 29.7469 19.7066 29.4664 19.3824 29.4664C19.0813 29.4664 18.815 29.7352 18.815 30.0625C18.815 30.3898 19.0582 30.6469 19.3824 30.6586C19.695 30.6703 19.9497 30.4131 19.9613 30.0859Z" fill="#702A85"/>
<path id="Vector_15" d="M46.9509 33.0782C46.9509 32.6574 46.9509 32.2951 46.9509 31.9328C46.9625 31.5237 47.1709 31.2899 47.5299 31.2782C47.8888 31.2665 48.1436 31.5237 48.1436 31.9328C48.1551 32.4821 48.1551 33.0431 48.1436 33.5925C48.1436 34.0483 47.9236 34.2704 47.4836 34.2821C46.9278 34.2938 46.3604 34.2938 45.8047 34.2821C45.411 34.2704 45.1562 34.0367 45.1562 33.6977C45.1562 33.3587 45.411 33.1016 45.7931 33.0899C46.1636 33.0665 46.5341 33.0782 46.9509 33.0782Z" fill="#702A85"/>
<path id="Vector_16" d="M43.3387 27.6196C42.9566 27.6196 42.5861 27.6196 42.1924 27.6196C42.1924 26.8364 42.1924 26.0533 42.1924 25.2468C42.5745 25.2468 42.9334 25.2468 43.3387 25.2468C43.3387 26.0299 43.3387 26.8131 43.3387 27.6196Z" fill="#702A85"/>
<path id="Vector_17" d="M43.3618 30.0392C42.9566 30.0392 42.5861 30.0392 42.1924 30.0392C42.1924 29.6534 42.1924 29.2794 42.1924 28.8586C42.5166 28.8586 42.8408 28.8469 43.165 28.8703C43.2345 28.8703 43.3503 28.9872 43.3503 29.0456C43.3734 29.3612 43.3618 29.6885 43.3618 30.0392Z" fill="#702A85"/>
<path id="Vector_18" d="M43.3504 31.3015C43.3504 31.6989 43.3504 32.0613 43.3504 32.4587C42.9683 32.4587 42.5978 32.4587 42.2041 32.4587C42.2041 32.0846 42.2041 31.6989 42.2041 31.3015C42.5746 31.3015 42.9567 31.3015 43.3504 31.3015Z" fill="#702A85"/>
<path id="Vector_19" d="M34.0526 29.4663C34.041 30.7988 32.9874 31.8624 31.6558 31.8624C30.3243 31.8624 29.259 30.7754 29.2706 29.4196C29.2822 28.0988 30.359 27.0352 31.6906 27.0352C33.0105 27.0468 34.0642 28.1339 34.0526 29.4663ZM32.86 29.443C32.86 28.7767 32.3158 28.2391 31.6442 28.2391C30.9958 28.2507 30.4748 28.7884 30.4632 29.443C30.4632 30.1092 30.9958 30.6585 31.6558 30.6585C32.339 30.6585 32.86 30.1209 32.86 29.443Z" fill="#702A85"/>
<path id="Vector_20" d="M30.7988 46.9638C30.7988 46.5664 30.7988 46.204 30.7988 45.8066C31.1809 45.8066 31.5514 45.8066 31.9451 45.8066C31.9451 46.1807 31.9451 46.5664 31.9451 46.9638C31.5746 46.9638 31.2157 46.9638 30.7988 46.9638Z" fill="#702A85"/>
<path id="Vector_21" d="M30.8105 43.3638C31.2042 43.3638 31.5747 43.3638 31.9684 43.3638C31.9684 43.7612 31.9684 44.1352 31.9684 44.5326C31.5747 44.5326 31.2042 44.5326 30.8105 44.5326C30.8105 44.1469 30.8105 43.7729 30.8105 43.3638Z" fill="#702A85"/>
<path id="Vector_22" d="M34.4111 36.1287C34.8164 36.1287 35.1753 36.1287 35.569 36.1287C35.569 36.5144 35.569 36.8884 35.569 37.2858C35.1869 37.2858 34.8164 37.2858 34.4111 37.2858C34.4111 36.9118 34.4111 36.5261 34.4111 36.1287Z" fill="#702A85"/>
<path id="Vector_23" d="M36.7969 36.1169C37.1906 36.1169 37.5495 36.1169 37.9432 36.1169C37.9432 36.5027 37.9432 36.8884 37.9432 37.2858C37.5726 37.2858 37.2021 37.2858 36.7969 37.2858C36.7969 36.9001 36.7969 36.526 36.7969 36.1169Z" fill="#702A85"/>
</g>
</g>
</g>
</g>
</g>
<defs>
<clipPath id="clip0_475_3832">
<rect width="52" height="63" fill="white"/>
</clipPath>
</defs>
</svg>
