<svg width="37" height="28" viewBox="0 0 37 28" fill="none" xmlns="http://www.w3.org/2000/svg">
<g id="exp-6 1" clip-path="url(#clip0_475_4063)">
<g id="Group">
<path id="Vector" d="M18.9521 20.5778C20.1741 17.5242 22.8774 17.1503 25.5559 16.8698C27.9999 16.6081 29.4935 17.0443 32.2585 18.4403C33.1781 16.7078 34.6099 16.9758 36.1035 17.5055C36.6466 17.6987 36.8379 18.0103 36.5725 18.5711C35.1345 21.5749 33.7212 24.5912 32.2523 27.5825C32.1412 27.8131 31.6783 28.0312 31.4129 27.9938C29.9626 27.7819 29.333 27.0652 29.1047 25.6257C29.0738 25.42 28.8084 25.1209 28.6171 25.0897C28.1974 25.0212 27.7469 25.0336 27.3272 25.1209C24.9696 25.6194 22.6305 26.1928 20.2605 26.6352C19.5693 26.7661 18.7608 26.6976 18.1066 26.4545C15.607 25.5197 13.1568 24.4665 10.6819 23.4819C9.73765 23.108 9.08961 22.491 9.05258 21.4441C9.01555 20.4033 9.55249 19.6929 10.5153 19.3003C10.6696 19.238 10.8054 18.9824 10.8424 18.7955C11.1818 17.0381 12.805 16.3276 14.2862 17.331C15.8477 18.3842 17.3721 19.4748 18.9521 20.5778ZM19.9581 22.0174C20.2729 21.9675 20.5197 21.9364 20.7604 21.8865C22.0627 21.5998 23.3588 21.3132 24.661 21.0203C25.0869 20.9268 25.5312 20.8583 25.63 21.4378C25.7164 21.9488 25.3399 22.0735 24.9264 22.1607C23.3464 22.5035 21.785 22.9023 20.1988 23.2015C19.7051 23.2949 19.1249 23.2575 18.6497 23.0893C16.3044 22.2667 13.9838 21.3817 11.6509 20.5093C11.0522 20.2849 10.5585 20.4033 10.3116 21.0078C10.0648 21.6248 10.3548 22.0548 10.9411 22.2978C11.0584 22.3477 11.1757 22.3975 11.2991 22.4412C13.6506 23.4009 15.9897 24.3918 18.3596 25.2891C18.9213 25.501 19.6187 25.5633 20.2112 25.4574C22.1738 25.0897 24.1117 24.6036 26.0682 24.1799C27.2346 23.9306 28.4011 23.5193 29.5861 24.1425C30.3329 22.572 31.0365 21.0826 31.74 19.6119C28.6788 17.3933 24.3339 17.6924 21.569 19.1195C20.4889 19.6742 20.0137 20.6962 19.9581 22.0174ZM31.3821 26.7536C32.6905 23.9991 33.9804 21.2883 35.2703 18.5649C34.0668 18.0726 33.7274 18.191 33.2274 19.238C32.314 21.1449 31.4006 23.0581 30.4995 24.9776C30.0613 25.9061 30.2773 26.3673 31.3821 26.7536ZM18.267 21.7058C18.2856 21.6684 18.3102 21.6248 18.3288 21.5874C16.755 20.4906 15.1935 19.3875 13.6074 18.3094C13.3913 18.1661 13.0272 18.0227 12.8359 18.1162C12.5273 18.2595 12.2372 18.5587 12.0891 18.864C12.0212 19.0011 12.2742 19.4561 12.4717 19.5309C14.3973 20.2787 16.3353 20.9891 18.267 21.7058Z" fill="white"/>
<path id="Vector_2" d="M28.5988 11.666C28.5248 10.7873 28.4075 9.99585 28.4075 9.20439C28.4075 8.40671 28.5248 7.61526 28.5988 6.73655C27.525 6.73655 26.4325 6.73655 25.3401 6.73655C24.8834 6.73655 24.3897 6.73655 24.4144 6.10713C24.4329 5.5338 24.9205 5.55249 25.334 5.54626C26.6115 5.54003 27.8953 5.53379 29.1728 5.54626C29.9998 5.55872 30.1788 5.808 29.9443 6.60568C29.4382 8.33816 29.4505 10.0706 29.9566 11.8031C30.1726 12.5509 29.9937 12.8002 29.216 12.8064C27.8829 12.8189 26.556 12.8064 25.2229 12.8127C24.8094 12.8127 24.4082 12.7566 24.4082 12.2269C24.4082 11.6972 24.8155 11.6535 25.229 11.6535C26.3461 11.666 27.4632 11.666 28.5988 11.666Z" fill="white"/>
<path id="Vector_3" d="M26.8019 9.80273C26.697 9.80273 26.5983 9.80273 26.4933 9.80273C26.0613 9.80273 25.6169 9.75911 25.6231 9.192C25.6293 8.61866 26.086 8.59997 26.5118 8.6062C26.7649 8.6062 27.055 8.53142 27.271 8.6249C27.5487 8.74954 27.7647 9.00504 28.0116 9.20447C27.7585 9.40389 27.524 9.62824 27.2525 9.79027C27.1414 9.85882 26.9562 9.80273 26.8019 9.80273Z" fill="white"/>
<g id="Group_2">
<path id="Vector_4" d="M18.5076 7.229H21.0071V7.23524C20.859 7.49698 20.7788 7.63408 20.7541 7.65277H20.0875C20.1801 7.77741 20.2418 7.92698 20.2727 8.10147H20.9825C20.9886 8.10147 20.9948 8.1077 20.9948 8.11394C20.8343 8.38814 20.7541 8.52524 20.7479 8.52524H20.285C20.2727 8.66235 20.2172 8.83061 20.1122 9.03626C19.9641 9.23568 19.8283 9.36655 19.6987 9.42887C19.458 9.55974 19.2235 9.62829 19.0075 9.62829V9.63452C19.0075 9.65322 19.063 9.73424 19.168 9.87757L20.4023 11.5851V11.6661C20.4023 11.6724 20.3961 11.6786 20.39 11.6786H19.8469C18.8717 10.3761 18.378 9.72177 18.378 9.71554V9.3167L18.3841 9.30423C18.4705 9.3167 18.5693 9.32293 18.6866 9.32293C19.2297 9.32293 19.5753 9.11727 19.7111 8.7122C19.7296 8.64988 19.7419 8.59379 19.7419 8.53147H18.2545C18.2484 8.53147 18.2422 8.52524 18.2422 8.51901C18.4088 8.24481 18.4891 8.1077 18.4952 8.1077H19.674V8.10147C19.6062 7.94567 19.4765 7.82104 19.279 7.73379C19.1371 7.68393 19.0137 7.65901 18.9026 7.65901H18.2422V7.64654C18.4212 7.36611 18.5014 7.229 18.5076 7.229Z" fill="white"/>
</g>
<g id="Group_3">
<path id="Vector_5" d="M6.10296 10.0832L7.44224 10.8498C7.44224 10.8373 7.44224 10.8248 7.44224 10.8124C8.00387 10.937 8.50996 11.0492 9.02222 11.1614L10.6948 11.1302C10.7195 11.124 10.7441 11.1177 10.7688 11.1177C11.5094 11.099 12.2501 11.0928 12.9968 11.0866H13.04C13.04 11.0866 16.0457 11.2611 16.4777 10.8809C17.8972 9.33541 17.8911 8.45048 16.4716 7.09192C15.7988 6.92989 15.0335 6.95482 14.8854 6.96105C14.2991 6.98598 13.7128 6.97351 13.1265 6.97351C13.1018 6.8738 13.1018 6.88627 13.0771 6.78656C13.9473 6.3067 14.5521 5.38438 15.4841 4.94814C15.8544 4.77365 16.2679 4.71756 16.6691 4.76742C17.2122 4.83597 18.9711 4.76118 19.4834 4.76118C19.6932 4.76118 21.3534 4.98553 22.273 3.57089C22.1311 3.53973 21.9953 3.50234 21.8595 3.45871C20.7609 3.07233 19.8599 2.05653 18.9218 1.25885C17.7244 0.243045 16.3852 -0.137102 14.8484 0.074783C12.5895 0.380147 10.3245 0.666815 8.06559 0.947251C6.88061 1.09059 5.68946 1.20276 4.53533 1.3274C4.09096 0.155798 3.88112 0.00623192 2.78255 0C2.42458 0 2.06045 0 1.70248 0C0.789061 0.0124638 0.696484 0.0934787 0.696484 1.0345C0.690312 3.57712 0.690312 6.11351 0.696484 8.6499C0.696484 10.8809 0.492815 10.6441 2.66528 10.6503C3.88112 10.6566 4.0601 10.5319 4.51064 9.44758C5.41173 9.3541 5.8993 9.5286 6.10296 10.0832ZM3.2084 9.44758C2.78255 9.44758 2.40607 9.44758 1.95553 9.44758C1.95553 6.718 1.95553 3.98219 1.95553 1.20276C2.40607 1.20276 2.78255 1.20276 3.2084 1.20276C3.2084 3.9635 3.2084 6.68685 3.2084 9.44758ZM4.44893 8.25106C4.44893 6.24438 4.44893 4.38727 4.44893 2.53639C6.13382 2.33074 7.78169 2.13131 9.42955 1.92566C11.3119 1.69508 13.2005 1.49566 15.0767 1.22769C16.1938 1.07189 17.1505 1.3274 18.0145 2.04407C18.5638 2.499 19.1316 2.94146 19.6562 3.57712C18.6996 3.5335 17.7368 3.56466 16.7987 3.41509C16.0889 3.30292 15.4841 3.33407 14.9224 3.789C13.8609 4.64901 12.7747 5.47162 11.7625 6.38771C11.4971 6.63076 11.2811 7.20409 11.3798 7.50323C11.4786 7.79613 12.0094 8.08279 12.3673 8.11395C13.3363 8.19497 14.3114 8.14511 15.2866 8.12642C15.8791 8.12019 16.3481 8.32584 16.3481 8.96773C16.3481 9.58469 15.9161 9.85889 15.3174 9.86512C13.2931 9.88382 11.2626 9.9586 9.23823 9.89628C8.59019 9.87759 7.9113 9.55353 7.31263 9.24816C6.41155 8.79946 5.66477 7.98308 4.44893 8.25106Z" fill="white"/>
</g>
<path id="Vector_6" d="M32.7339 4.56185C32.7401 3.82025 32.4809 3.54605 31.7465 3.55851C29.6727 3.58967 27.5928 3.57097 25.5191 3.56474C24.8526 3.56474 24.1552 3.64576 23.4763 3.65199C22.9702 4.11938 22.1802 4.76127 21.168 5.28475C21.7173 5.68983 22.1247 6.28809 22.4271 6.9923C23.1183 8.60636 23.0628 10.2267 22.2357 11.7784C21.6556 12.869 20.7792 13.6168 19.5016 13.6293C18.1871 13.6355 17.323 12.8565 16.7058 11.7535C16.675 11.7036 16.6503 11.6475 16.6256 11.5977C16.2183 11.6787 15.7924 11.7036 15.4283 11.7036C15.7677 12.3268 16.0825 12.9562 16.4219 13.6044C13.4656 13.6044 10.4847 13.6044 7.45433 13.6044C7.45433 13.0061 7.45433 12.4265 7.45433 11.8407L6.23849 11.2425C6.24466 12.1212 6.257 12.9936 6.22614 13.8723C6.20146 14.5703 6.47301 14.8383 7.17043 14.832C15.3727 14.8196 23.5812 14.8196 31.7835 14.832C32.4809 14.832 32.7401 14.5765 32.7339 13.8723C32.7093 10.7751 32.7031 7.66534 32.7339 4.56185ZM31.4996 13.6231C28.4446 13.6231 25.4821 13.6231 22.4271 13.6231C24.6119 10.6691 24.6304 7.75259 22.4394 4.79243C25.4574 4.79243 28.4507 4.79243 31.4996 4.79243C31.4996 7.72766 31.4996 10.638 31.4996 13.6231Z" fill="white"/>
<path id="Vector_7" d="M10.3744 12.8252C11.5039 12.8252 12.6333 12.819 13.7566 12.8252C14.1886 12.8252 14.6083 12.7193 14.5157 12.2145C14.4725 11.9902 14.0343 11.7035 13.7689 11.691C12.6457 11.6349 11.5224 11.6661 10.3991 11.6661C10.3806 11.6349 9.01665 11.7845 9.01665 11.7845C8.80064 12.8252 8.97345 12.8252 10.3744 12.8252Z" fill="white"/>
</g>
</g>
<defs>
<clipPath id="clip0_475_4063">
<rect width="36" height="28" fill="white" transform="translate(0.689453)"/>
</clipPath>
</defs>
</svg>
