<svg version="1.1" id="Layer_1" xmlns="http://www.w3.org/2000/svg" x="0" y="0" viewBox="0 0 48.37 50.92" style="enable-background:new 0 0 48.37 50.92" xml:space="preserve"><style>.st22{fill:#ed228e}.st89{fill:#702a85;stroke:#702a85;stroke-miterlimit:10}</style><path class="st89" d="M47.86 19.99c0 2.41-.02 4.82.01 7.24.01 1.26-.43 2.28-1.32 3.16-3.08 3.05-6.14 6.12-9.19 9.2-.2.2-.34.55-.34.83-.03 2.51-.02 5.02-.02 7.53 0 1.65-.81 2.46-2.44 2.47h-5.62c-1.39 0-2.24-.85-2.25-2.24-.01-3.42 0-6.85 0-10.27 0-1.47.51-2.75 1.54-3.79 3.18-3.19 6.37-6.36 9.55-9.54.76-.76 1.52-1.53 2.28-2.3.18-.18.35-.4.56-.5.58-.25.65-.68.64-1.25-.03-2.68-.03-5.36 0-8.05.02-1.93 1.46-3.37 3.31-3.37 1.8 0 3.26 1.43 3.28 3.23.02 2.55.01 5.1.01 7.65zm-.67.04c0-2.53.01-5.06 0-7.59-.01-1.67-1.38-2.85-3.01-2.63-1.29.17-2.24 1.34-2.24 2.83-.01 2.55 0 5.09 0 7.64 0 .75.07.81.84.86 1.33.09 2.31.74 2.84 1.95.53 1.21.41 2.42-.47 3.41-.99 1.12-2.09 2.15-3.16 3.2-.1.1-.35.05-.53.07.01-.18.01-.36.05-.53.02-.08.13-.14.21-.22.89-.9 1.79-1.79 2.68-2.69 1.11-1.13 1.13-2.73.05-3.8-1.05-1.04-2.66-1.02-3.76.09-3.97 3.95-7.92 7.91-11.88 11.88-.95.95-1.43 2.12-1.43 3.46-.01 3.37-.01 6.75 0 10.12 0 1.08.58 1.65 1.66 1.65h5.57c1.23 0 1.76-.53 1.76-1.75 0-2.53.01-5.06-.01-7.59 0-.53.16-.93.54-1.3 3.11-3.09 6.2-6.2 9.31-9.3.7-.69 1.03-1.5 1.03-2.49-.07-2.41-.05-4.84-.05-7.27zM7.11 16.68c0 1.43.01 2.87-.01 4.3 0 .29.12.42.33.6.68.57 1.34 1.17 1.97 1.8 3.42 3.4 6.8 6.84 10.24 10.21 1.39 1.36 2.08 2.91 2.04 4.86-.06 3.2-.01 6.41-.01 9.61 0 1.5-.84 2.34-2.35 2.34h-5.67c-1.41 0-2.27-.86-2.28-2.26 0-2.56-.01-5.13 0-7.69 0-.36-.1-.63-.36-.89-3.07-3.06-6.13-6.13-9.21-9.18-.87-.88-1.3-1.9-1.3-3.16.02-4.93 0-9.85.01-14.78 0-1.52.94-2.77 2.33-3.2 1.97-.6 4.03.77 4.23 2.83.01.1.02.2.02.3.02 1.44.01 2.88.02 4.31zm13.91 26.33c0-1.62-.01-3.24 0-4.86.01-1.5-.52-2.75-1.59-3.8-1.53-1.5-3.04-3.02-4.55-4.54-2.4-2.4-4.78-4.8-7.19-7.19-1.11-1.1-2.72-1.1-3.76-.06-1.07 1.07-1.03 2.67.08 3.8.58.59 1.17 1.17 1.75 1.75.37.37.76.72 1.1 1.12.1.12.06.35.09.52-.19-.02-.38-.04-.57-.07-.04-.01-.07-.07-.11-.1-.92-.92-1.84-1.83-2.76-2.75-1.04-1.05-1.33-2.3-.78-3.67.54-1.33 1.6-2.01 3.04-2.03.44-.01.66-.18.66-.62 0-2.7.01-5.4-.01-8.1a2.673 2.673 0 0 0-1.76-2.49c-1.75-.61-3.49.66-3.49 2.58-.01 4.98 0 9.95 0 14.93 0 .95.37 1.72 1.04 2.39C5.3 32.9 8.38 36 11.48 39.08c.39.39.57.79.56 1.34-.02 2.56-.01 5.13-.01 7.69 0 1.06.56 1.63 1.62 1.63 1.89.01 3.78 0 5.67 0 1.12 0 1.68-.56 1.69-1.67.02-1.68.01-3.37.01-5.06z"/><path class="st22" d="M24.19 19.03a6.9 6.9 0 0 1-6.93-6.95 6.922 6.922 0 0 1 6.94-6.9c3.82.01 6.9 3.11 6.9 6.94 0 3.83-3.08 6.91-6.91 6.91zm-.03-.67c3.42.02 6.25-2.75 6.29-6.16.04-3.48-2.74-6.32-6.2-6.35-3.44-.03-6.28 2.75-6.31 6.19-.05 3.47 2.74 6.3 6.22 6.32zM30.95 5.65c-.08-.06-.24-.1-.26-.18-.03-.13-.03-.33.04-.41.6-.63 1.22-1.25 1.85-1.85.08-.08.35-.09.43-.02.08.07.11.35.05.42-.62.66-1.27 1.29-1.91 1.93-.03.05-.11.07-.2.11zM17.83 18.92c-.09.13-.14.24-.22.32-.54.55-1.08 1.11-1.65 1.63-.12.11-.37.07-.56.1.03-.19-.01-.44.1-.55.52-.57 1.07-1.11 1.63-1.64.1-.1.3-.15.44-.13.09 0 .17.17.26.27zM33.47 14.2c.95.26 1.83.49 2.69.75.1.03.21.29.18.39-.04.11-.27.24-.37.22a46.5 46.5 0 0 1-2.57-.7c-.11-.03-.22-.26-.21-.38.01-.11.19-.2.28-.28zM36.03 8.55c.09.08.28.17.29.29.01.12-.11.34-.22.37-.84.25-1.68.48-2.53.69-.12.03-.28-.15-.43-.23.08-.13.13-.35.24-.38.85-.27 1.71-.49 2.65-.74zM20.6.15c.03-.01.19-.12.35-.11.13.01.34.12.37.23.25.82.47 1.65.66 2.48.03.11-.1.34-.21.38-.1.04-.36-.07-.39-.17-.26-.84-.48-1.71-.78-2.81zM22.11 21.39c-.25.92-.47 1.77-.72 2.61-.03.1-.29.21-.4.18-.1-.03-.23-.27-.21-.38.2-.84.43-1.67.68-2.49.03-.11.26-.24.38-.22.1.02.19.21.27.3zM27.76 23.91c-.08.08-.18.27-.29.28-.12.01-.34-.12-.37-.23-.25-.82-.47-1.65-.67-2.49-.03-.11.09-.34.2-.39.1-.04.36.07.39.17.25.86.48 1.73.74 2.66zM27.67.31c-.25.93-.47 1.77-.71 2.59-.03.11-.25.17-.38.25-.09-.15-.26-.31-.24-.43.2-.84.42-1.66.67-2.49.03-.11.27-.26.37-.23.13.04.22.23.29.31zM12.46 15.65c-.09-.08-.27-.16-.28-.25-.01-.13.09-.36.19-.39.84-.25 1.68-.48 2.53-.69.1-.02.32.12.33.21.01.13-.08.37-.18.4-.83.25-1.68.47-2.59.72zM12.44 8.65c.92.25 1.76.47 2.6.73.1.03.22.28.18.35-.06.12-.26.27-.36.25-.85-.2-1.69-.44-2.53-.69-.09-.03-.21-.25-.18-.35.03-.12.2-.2.29-.29zM33.23 20.77c-.07.09-.13.23-.22.25a.45.45 0 0 1-.36-.07c-.63-.6-1.25-1.21-1.85-1.85-.08-.09-.01-.32-.01-.48.15 0 .37-.06.45.02.63.6 1.24 1.22 1.86 1.84.06.07.08.18.13.29zM15.57 3.17c.13.09.25.15.34.24.54.53 1.09 1.06 1.6 1.62.11.12.08.37.11.56-.19-.03-.44.01-.56-.1-.57-.52-1.12-1.08-1.65-1.64-.09-.1-.12-.3-.11-.45 0-.08.15-.14.27-.23z"/><path class="st22" d="M22.39 8.61h3.96v.01c-.23.41-.37.63-.4.66H24.9c.15.19.24.43.3.71h1.13c.01 0 .02.01.02.02-.25.43-.38.64-.39.65h-.73c-.02.22-.11.48-.28.8-.23.31-.45.52-.65.61-.38.21-.75.31-1.1.31v.01c0 .03.09.16.26.38l1.95 2.68v.13c0 .01-.01.02-.02.02h-.86c-1.55-2.05-2.32-3.07-2.32-3.08v-.62l.01-.02c.14.02.3.03.48.03.87 0 1.41-.32 1.62-.96a.93.93 0 0 0 .05-.29h-2.35c-.01 0-.02-.01-.02-.02.26-.43.39-.64.4-.64h1.87v-.03c-.11-.25-.32-.44-.62-.57-.22-.08-.42-.12-.59-.12H22v-.03c.25-.43.38-.64.39-.64z"/></svg>