<svg version="1.1" id="Layer_1" xmlns="http://www.w3.org/2000/svg" x="0" y="0" viewBox="0 0 52.97 53.26" style="enable-background:new 0 0 52.97 53.26" xml:space="preserve"><style>.st3{fill:#fff}.st12{fill:#702a85}.st22{fill:#ed228e}</style><path class="st12" d="M5.8 41.77V.02c.15-.01.29-.02.42-.02C17.46 0 28.7 0 39.94-.01c.28 0 .48.08.68.29 2.15 2.21 4.32 4.41 6.48 6.61.59.6 1.19 1.2 1.76 1.81.12.13.21.34.21.51.01 10.07.01 20.13.01 30.2v2.27h-1.61V10.06h-8.28V1.64H7.41v.44c-.02 2.29-.04 4.59-.04 6.88.01 10.69.02 21.38.04 32.07 0 .13-.01.26 0 .39.03.23-.07.35-.29.35-.43.01-.86 0-1.32 0zM40.89 2.89c-.03.02-.06.03-.1.05v5.27c0 .27.19.23.36.23 1.56.01 3.12.02 4.69.02.13 0 .26-.03.47-.05-1.86-1.89-3.64-3.7-5.42-5.52zM52.97 45.81c-1.4.65-2.73 1.21-4.01 1.87-.91.47-1.83.61-2.85.61-14.34-.02-28.67-.01-43.01-.02-.36 0-.73 0-1.09-.06-1.3-.23-2.12-1.35-2-2.7.1-1.18 1.15-2.14 2.39-2.15 1.39-.01 2.79.03 4.18.03 2.97 0 5.94-.03 8.9-.03 6.56-.01 13.13 0 19.69 0h10.16c.48 0 .96.02 1.44 0 .62-.04 1.17.11 1.72.37 1.45.7 2.92 1.36 4.48 2.08zm-3.89 0c-.4-.19-.72-.32-1.02-.49-.49-.27-1.01-.35-1.57-.35-2.76.02-5.52 0-8.28 0H4.81c-.74 0-1.48-.01-2.23.01-.19 0-.4.03-.56.12-.34.17-.48.57-.38.94.11.39.45.6.98.6h44.29c.15 0 .32 0 .46-.06.55-.23 1.08-.48 1.71-.77z"/><path class="st22" d="M29.31 22.43h-1.62c0-.83-.02-1.64.01-2.44.01-.35-.1-.56-.4-.72-1.24-.62-2.48-1.24-3.82-1.92v2.97c-.86-.3-1.65-.53-2.4-.85-.6-.25-1.14-.26-1.75-.01-.76.32-1.56.55-2.41.84v-3.01a4.1 4.1 0 0 0-.37.12c-1.06.44-2.11.89-3.17 1.32-.45.18-.68.49-.67.99.02.88 0 1.77 0 2.69h-1.62v-.62c0-.73-.01-1.46 0-2.19.01-1.12.56-1.9 1.58-2.33 1.27-.54 2.54-1.06 3.81-1.6.48-.2.6-.78.24-1.18-.43-.49-.88-.96-1.3-1.46a.949.949 0 0 1-.2-.51c-.02-1.22-.01-2.45-.01-3.67 0-.81.31-1.46.92-1.98.47-.39.93-.8 1.39-1.2.51-.45 1.1-.68 1.78-.67.61.01 1.22 0 1.84 0 .61 0 1.15.2 1.61.59.52.44 1.03.88 1.54 1.32.59.5.89 1.15.89 1.92.01 1.24.01 2.47 0 3.71 0 .16-.09.35-.2.48-.4.48-.83.94-1.24 1.4-.44.49-.34 1.07.23 1.35 1.16.58 2.33 1.15 3.49 1.74.39.2.76.45 1.11.72.5.39.74.91.72 1.57 0 .87.02 1.73.02 2.63zm-10.78-4.39c.47-.16.86-.27 1.23-.43.31-.13.59-.12.9 0 .38.15.77.27 1.23.43v-.5c.01-1.04.01-2.08.04-3.12.01-.2.1-.43.22-.59.4-.49.85-.95 1.26-1.44.1-.12.18-.29.18-.45.02-1 .01-2 .01-3.01 0-.35-.13-.62-.4-.85-.46-.38-.89-.8-1.37-1.15-.22-.16-.53-.27-.81-.29-.53-.05-1.07-.05-1.6 0-.28.02-.58.13-.81.29-.46.34-.87.74-1.31 1.11-.31.25-.44.55-.43.95.02.96-.01 1.93.01 2.89 0 .2.11.42.24.57.39.47.83.9 1.21 1.38.12.14.2.36.21.55.02 1.04.01 2.08.01 3.12-.02.16-.02.31-.02.54z"/><path class="st12" d="M5.8 53.26v-3.21h1.59v1.6h40.05v-1.53h1.6v3.14H5.8z"/><path class="st22" d="M43.51 41.64H38.6V27.49h4.91v14.15zm-1.62-12.56h-1.18c-.51 0-.52 0-.52.51v10c0 .14.02.28.03.43h1.67V29.08z"/><path class="st12" d="M30.18 30.82v10.81h-4.9V30.82h4.9zm-1.63 9.2v-7.56h-1.66v7.56h1.66z"/><path class="st22" d="M36.85 41.64h-4.92V32.5h4.92v9.14zm-1.63-1.62v-5.94c-.45 0-.88.02-1.3-.01-.3-.01-.41.08-.4.4.01 1.73.01 3.46.01 5.19 0 .11.02.23.03.35.56.01 1.1.01 1.66.01zM18.6 34.99h4.91v6.64H18.6v-6.64zm3.3 5.03c0-1.1 0-2.17-.01-3.25 0-.06-.17-.17-.27-.18-.38-.02-.75 0-1.13-.01-.22-.01-.3.09-.3.3.01.98 0 1.95.01 2.93 0 .07.04.14.05.21h1.65z"/><path class="st3" d="M11.93 36.67h4.91v4.96h-4.91v-4.96zm3.3 1.6c-.53 0-1.02-.01-1.51.01-.07 0-.19.11-.19.18-.02.51-.01 1.03-.01 1.55h1.71v-1.74z"/><path class="st12" d="M44.42 17.43H31.93v-1.56c.15-.01.29-.03.43-.03 3.88 0 7.76 0 11.64-.01.31 0 .45.07.42.41-.02.39 0 .78 0 1.19z"/><path class="st22" d="M42.72 12.55v1.57h-10.8v-1.57h10.8zM31.92 20.75V19.2h9.14v1.55h-9.14z"/><path class="st3" d="M32.72 25.74c-.48 0-.93.01-1.38-.01-.07 0-.2-.13-.2-.2-.02-.45-.01-.9-.01-1.38h1.59v1.59zM34.47 25.74v-1.6c.48 0 .95-.01 1.43.01.06 0 .17.15.17.23.02.38.02.75 0 1.13 0 .08-.11.22-.18.23-.46.01-.92 0-1.42 0zM11.14 24.14h1.56v1.56h-1.56v-1.56zM14.45 24.13c.5 0 .94-.01 1.38.01.09.01.18.15.24.25.03.06.01.15.01.23l-.06 1.08c-.45.01-.91.04-1.36.03-.07 0-.19-.16-.19-.25-.03-.44-.02-.87-.02-1.35zM17.78 24.15h1.62c0 .48.01.95-.01 1.42 0 .06-.16.15-.25.16-.36.02-.73.02-1.09 0-.09-.01-.25-.13-.25-.2-.03-.45-.02-.9-.02-1.38zM21.12 24.15h1.58v1.59c-.47 0-.92.01-1.37-.01-.08 0-.2-.15-.21-.24-.01-.43 0-.86 0-1.34zM42.71 25.72h-1.56v-1.56h1.56v1.56zM37.82 24.13c.46 0 .91-.01 1.36.01.08 0 .2.15.21.24.02.36.03.73 0 1.09-.01.1-.17.18-.27.27-.01.01-.03 0-.04 0-1.34.09-1.45-.03-1.26-1.61zM24.46 24.13c.5 0 .95-.01 1.4.01.08 0 .2.15.21.24.02.39.02.77 0 1.16 0 .07-.16.19-.25.2-.36.02-.73.01-1.09.01-.19 0-.28-.07-.28-.27.02-.44.01-.87.01-1.35zM27.78 24.13c.47 0 .89-.02 1.31.02.11.01.27.2.29.32.04.33.04.68 0 1.01-.01.1-.17.24-.27.25-.37.03-.75.02-1.12 0-.07-.01-.19-.16-.2-.25-.02-.44-.01-.87-.01-1.35z"/></svg>