<svg version="1.1" id="Layer_1" xmlns="http://www.w3.org/2000/svg" x="0" y="0" viewBox="0 0 42.53 53.6" style="enable-background:new 0 0 42.53 53.6" xml:space="preserve"><style>.st22{fill:#ed228e}</style><path d="M22.1 0c.66.35 1.28.81 1.98 1.02.72.22 1.55.39 2.27.27 1.98-.35 3.53.18 4.65 1.85.57.85 1.33 1.27 2.36 1.4 1.84.22 3.13 1.41 3.52 3.22.22 1.01.72 1.73 1.62 2.21 1.74.93 2.46 2.42 2.21 4.35-.14 1.05.12 1.92.81 2.74 1.22 1.46 1.35 3.11.41 4.76-.53.94-.59 1.83-.25 2.84.61 1.81.16 3.4-1.31 4.59-.88.72-1.24 1.57-1.29 2.67-.09 1.81-1.05 3.02-2.75 3.65-1.83.68-1.83.69-1.07 2.53 1.17 2.82 2.33 5.64 3.51 8.45.36.85.53 1.69-.17 2.44-.7.76-1.53.67-2.42.38-1.17-.38-2.38-.64-3.51-1.08-.81-.32-1.14-.05-1.46.63-.51 1.07-1.14 2.09-1.66 3.16-.43.89-.99 1.57-2.06 1.5-1.07-.07-1.5-.85-1.86-1.75-1.28-3.16-2.6-6.3-3.91-9.44-.11-.25-.23-.5-.44-.95-.48 1.12-.89 2.07-1.29 3.03-1.02 2.45-2.05 4.89-3.04 7.36-.36.9-.79 1.68-1.86 1.75-1.07.07-1.63-.61-2.06-1.5-.52-1.07-1.14-2.09-1.66-3.16-.33-.68-.66-.95-1.47-.63-1.18.46-2.42.73-3.63 1.11-.87.29-1.67.32-2.32-.4-.65-.71-.55-1.5-.21-2.33 1.27-3.03 2.48-6.09 3.8-9.1.4-.92.23-1.49-.66-1.74-2.35-.67-3.42-2.19-3.53-4.61-.03-.64-.6-1.37-1.12-1.85C.75 28.01.24 26.44.89 24.55c.34-.98.22-1.83-.29-2.72-.93-1.66-.8-3.29.41-4.76.65-.79.96-1.6.81-2.62-.29-2.03.51-3.48 2.27-4.58.66-.41 1.24-1.24 1.48-2 .63-1.96 1.73-2.96 3.71-3.4.81-.18 1.7-.72 2.21-1.36 1.25-1.57 2.71-2.13 4.69-1.83.82.12 1.73-.22 2.57-.46.59-.17 1.13-.54 1.69-.82h1.66zm7.53 38.46c1.6.16 2.58-.44 3.12-1.72.54-1.29 1.45-2.14 2.79-2.55 1.34-.41 2.01-1.34 2.02-2.74.01-1.31.54-2.39 1.56-3.19 1.13-.89 1.52-1.97 1-3.35-.47-1.26-.35-2.5.34-3.66.72-1.21.61-2.32-.32-3.38-.89-1.01-1.22-2.19-1-3.53.23-1.43-.19-2.31-1.51-3.04-1.19-.66-1.95-1.6-2.21-2.93-.27-1.38-1.13-2.17-2.5-2.33-1.41-.16-2.45-.82-3.21-1.99-.71-1.08-1.69-1.52-2.96-1.2-1.44.37-2.73.14-3.94-.74-.96-.7-2.03-.74-3-.05-1.25.9-2.57 1.17-4.05.79-1.22-.32-2.21.09-2.88 1.12-.79 1.21-1.84 1.91-3.29 2.07-1.21.13-2.13.77-2.38 2-.32 1.61-1.2 2.68-2.63 3.45-.99.53-1.44 1.5-1.23 2.62.29 1.48-.08 2.74-1.05 3.86-.86.99-.94 2.06-.28 3.18.71 1.2.85 2.46.37 3.77-.49 1.33-.16 2.4.94 3.26 1.06.83 1.62 1.92 1.63 3.28.01 1.34.63 2.28 1.93 2.68 1.38.43 2.33 1.27 2.89 2.61.51 1.23 1.46 1.83 2.82 1.72 1.34-.1 2.51.29 3.43 1.29 1 1.08 2.14 1.25 3.45.63 1.18-.56 2.38-.55 3.56.01 1.31.62 2.45.42 3.44-.65.91-.97 2.05-1.33 3.15-1.29zm4.05-.02c-1.21 1.36-2.68 1.7-4.35 1.64-.52-.02-1.19.3-1.56.69-1.19 1.22-2.57 1.77-4.41 1.52 1.39 3.34 2.72 6.55 4.06 9.75.12-.01.23-.01.35-.02.65-1.2 1.3-2.41 1.94-3.61 1.1-2.06 1.46-2.2 3.65-1.52 1.33.41 2.67.79 4.35 1.28-1.43-3.44-2.71-6.52-4.03-9.73zM4.83 48.18c1.7-.5 3.05-.89 4.39-1.3 2.13-.66 2.53-.51 3.58 1.46.66 1.24 1.33 2.47 1.99 3.7.11 0 .23-.01.34-.01 1.33-3.21 2.66-6.41 4.05-9.75-1.84.26-3.19-.26-4.36-1.45-.38-.39-1.03-.75-1.54-.73-1.69.05-3.2-.24-4.42-1.66-1.35 3.24-2.62 6.32-4.03 9.74z" style="fill:#702a85"/><path class="st22" d="M21.28 9.46c.65.7 1.23 1.09 1.46 1.63.64 1.49 1.17 3.02 1.69 4.56.24.71.53 1.08 1.39 1.06 1.62-.03 3.26.04 4.87.23.57.07 1.28.47 1.58.94.41.65.07 1.36-.58 1.86-1.32 1.02-2.61 2.08-3.94 3.07-.55.41-.74.78-.5 1.49.51 1.54.87 3.13 1.34 4.68.25.81.21 1.5-.51 2.01-.73.52-1.4.25-2.07-.22-1.27-.89-2.58-1.7-3.83-2.61-.63-.46-1.1-.53-1.77-.03-1.27.95-2.63 1.77-3.93 2.68-.68.47-1.47.76-2.03.11-.38-.44-.56-1.29-.45-1.88.31-1.59.77-3.15 1.29-4.69.26-.76.05-1.15-.54-1.58-1.25-.91-2.43-1.92-3.66-2.84-.7-.52-1.15-1.13-.85-2.02.28-.86.99-1 1.81-1.01 1.59-.03 3.17-.18 4.75-.18.71 0 1.05-.24 1.27-.89.53-1.57 1.06-3.15 1.72-4.67.23-.59.84-1 1.49-1.7zm5.83 20.13c-.55-1.95-.95-3.63-1.5-5.26-.38-1.14-.09-1.9.86-2.54.65-.44 1.26-.97 1.88-1.46l2.13-1.71c-.04-.12-.08-.23-.12-.35-1.66 0-3.32-.03-4.97.01-1.27.03-1.96-.57-2.34-1.74-.52-1.59-1.13-3.15-1.79-4.97-.65 1.75-1.2 3.23-1.74 4.71-.66 1.82-.76 1.93-2.73 1.99-1.56.05-3.12.01-4.68.01-.02.12-.05.25-.07.37 1.39 1.09 2.77 2.2 4.18 3.27.81.61 1.04 1.29.72 2.27-.54 1.68-.97 3.39-1.53 5.4 1.69-1.14 3.14-2.07 4.54-3.08.9-.65 1.69-.67 2.59-.01 1.42 1.02 2.88 1.95 4.57 3.09z"/><path class="st22" d="M21.29 36.84c-7.8.01-14.38-5.64-15.5-13.38-.05-.37.3-1.07.59-1.15.71-.2.86.43.96 1.02C8.39 29.47 12.85 34 18.88 35.07c7.64 1.36 15.05-3.9 16.3-11.59.1-.61.14-1.33.95-1.21.88.13.71.83.59 1.5-1.43 7.7-7.74 13.06-15.43 13.07zM21.23 5.49c7.79-.01 14.32 5.6 15.5 13.37.06.36-.26 1.06-.55 1.15-.71.23-.88-.38-.99-.98-1.02-5.91-5.26-10.42-10.94-11.64-7.92-1.7-15.6 3.54-16.92 11.56-.01.08.02.19-.02.23-.33.3-.68.58-1.02.87-.18-.37-.56-.77-.52-1.12 1.02-7.64 7.7-13.42 15.46-13.44z"/></svg>