<svg version="1.1" id="Layer_1" xmlns="http://www.w3.org/2000/svg" x="0" y="0" viewBox="0 0 54.81 52.26" style="enable-background:new 0 0 54.81 52.26" xml:space="preserve"><style>.st12{fill:#702a85}.st22{fill:#ed228e}</style><path class="st12" d="M10.38 50.96c-.74-2.49-.61-2.66 1.79-2.67h1.13c.03-.45.08-.84.08-1.23.01-4.31 0-8.62.01-12.93 0-1.91.68-2.62 2.59-2.6.72.01 1.18-.18 1.62-.8 1.55-2.17 3.69-3.52 6.29-4.09.5-.11 1.19.05 1.61.34 2.48 1.72 5.45 1.72 7.88 0 .42-.3 1.11-.46 1.61-.35 2.63.56 4.79 1.94 6.36 4.14.42.59.87.82 1.55.75.28-.03.56-.01.84 0 1.6.04 2.35.76 2.36 2.36.01 4.37 0 8.74 0 13.11v1.29c.85 0 1.56-.01 2.27 0 1.02.01 1.22.22 1.1 1.22-.05.45-.19.9-.31 1.44 1.44 0 2.84-.02 4.24.01.54.01 1.38-.27 1.41.61.03.94-.84.63-1.36.64-16.14.01-32.29.01-48.43.01-1.25 0-2.5.02-3.75-.01-.51.01-1.3.26-1.27-.62.03-.82.8-.61 1.33-.62 2.65-.01 5.31-.01 7.96-.01.34.01.68.01 1.09.01zm19.31-1.98h13.77c1.22 0 1.36-.15 1.37-1.33V34.26c0-1.32-.13-1.45-1.45-1.45H16.12c-1.33 0-1.46.13-1.46 1.44-.01 4.43-.01 8.87 0 13.3 0 1.31.13 1.43 1.46 1.43h13.57zm10.45-17.52c-.92-1.56-2.92-2.95-5.03-3.46-.39-.09-.93-.01-1.27.21-2.82 1.81-6.01 1.83-8.81-.01-.23-.15-.52-.38-.73-.33-2.26.48-4.12 1.61-5.65 3.59h21.49zm8.09 18c-1.08.12-1.97.18-2.84.33-.57.09-1.12.44-1.68.44-9.3.03-18.61.02-27.92.01-.45 0-1-.03-1.35-.27-.99-.68-2-.29-3.1-.38.37 1.22 1.19 1.38 2.16 1.38 10.84-.01 21.67-.01 32.51-.01.22 0 .44.01.66-.01.76-.08 1.23-.49 1.56-1.49z"/><path class="st12" d="M35.47 15.27c-1.08.21-1.96.44-2.86.55-1.88.23-3.65-.18-5.33-1.05-1.17-.61-2.39-.81-3.47.22-.22.21-.41.57-.43.87-.11 1.79-.02 3.56.71 5.24.19.44.42.95-.2 1.2-.68.27-.89-.33-1.01-.79-.2-.77-.65-.89-1.32-.69.27 1.57 1.98 2.92 3.43 2.66.21-.04.4-.37.54-.61.38-.65 1.31-.93 2.25-.65.67.2.96.67.92 1.34-.05.78-.53 1.2-1.28 1.22-1 .03-2 .06-2.99-.04-2.15-.21-3.65-1.58-4.25-3.66-.1-.34-.37-.73-.67-.91-1.98-1.17-1.95-5.52-.18-6.62.64-.4.76-.89.72-1.55-.11-2.07.18-4.06 1.47-5.77 1.59-2.12 3.71-3.32 6.36-3.45 2.34-.11 4.69-.21 6.82 1.1 2.59 1.59 4.04 3.83 4.05 6.92 0 .37.03.75 0 1.12-.06.7.09 1.19.75 1.64 1.48 1 1.57 3.17 1.09 4.9-.41 1.46-1.66 2.27-3.38 2.28-.58 0-.8.23-.99.74-.83 2.1-2.12 3.82-4.21 4.81-1.23.58-2.53.68-3.84.36-.26-.06-.44-.48-.66-.74.28-.17.57-.5.83-.48 3.73.27 6.82-2.3 7.12-6.07.09-1.36.01-2.69.01-4.09zm-5.2-.77c.08-.11.16-.21.24-.32-.41-.32-.88-.59-1.2-.98-.17-.21-.08-.64-.11-.97.33.03.73-.03.99.12.36.21.7.55.93.91.97 1.54 2.29 1.34 3.65.76.27-.12.59-.55.58-.84-.02-2.38-1.91-4.64-4.29-4.99-1.15-.17-2.38-.17-3.53.02-2.46.4-4.28 2.85-4 5.31 2.5-1.47 4.51.52 6.74.98zm6.95-1.69c.09-.06.17-.12.26-.19v-1.76c-.01-3.05-1.79-5.54-4.71-6.49-1.91-.63-3.91-.59-5.83-.22-3.75.74-5.69 3.48-5.61 7.66.01.3.25.59.38.89.19-.25.48-.48.56-.77.6-2.21 1.8-3.9 4-4.72 4.7-1.75 8.71.22 10.25 4.95.1.28.47.44.7.65zm-.46 6.52c1.42.22 2.38-.35 2.69-1.5.44-1.64-.1-3.19-1.27-3.64-.26-.1-.56-.21-.81-.15-.22.05-.57.31-.58.48-.05 1.61-.03 3.22-.03 4.81zm-14.74-5.2c-1.09-.18-1.98.11-2.35.94-.52 1.15-.59 2.37.1 3.48.5.81 1.32 1.05 2.26.81-.01-1.79-.01-3.52-.01-5.23z"/><path class="st22" d="M.12 6.93c.04-2.04 1.13-3.68 2.85-4.94 4.01-2.95 10.35-2.58 13.76.79 2.52 2.48 2.64 6.09.09 8.49-1.05.99-.98 1.88-.57 2.99.06.18.19.34.22.51.06.34.22.83.06.99-.19.2-.73.28-1.01.16-1.08-.45-2.11-1.03-3.18-1.51-.39-.18-.84-.36-1.25-.32-3.13.3-6.05-.18-8.55-2.23C1.06 10.65.14 9.1.12 6.93zm14.51 7.46c.07-.05.14-.1.2-.15-.06-.4-.15-.79-.16-1.19-.03-.73-.13-1.45.57-2.04 3.08-2.59 2.86-6.21-.61-8.27C11.12.66 7.47.69 3.99 2.84.54 4.98.52 8.99 3.88 11.3c2.23 1.53 4.72 1.87 7.34 1.44.7-.11 1.23-.09 1.76.48.45.48 1.09.79 1.65 1.17z"/><path class="st12" d="M9.26 35.78c.08-1.18.03-2.39.26-3.53.52-2.58 2.69-4.45 5.29-4.72.48-.05 1.11-.19 1.21.52.11.75-.51.69-1.01.75-2.57.29-4.37 2.29-4.39 4.87-.01 1.59 0 3.19 0 4.78 0 .48.02 1.02-.66 1.01-.68-.02-.61-.58-.62-1.04V35.8c-.03-.02-.05-.02-.08-.02zM42.82 10.58c-.11.12-.32.61-.62.67-.57.11-.65-.41-.67-.88-.13-2.73-1.14-5.09-3.05-7.05-.33-.34-.63-.75-.14-1.09.21-.14.8-.02 1.01.19 2.18 2.16 3.3 4.8 3.47 8.16zM48.86 42.18c0-1.24-.04-2.49.03-3.73.02-.29.38-.57.59-.85.22.28.62.56.63.84.05 2.52.05 5.04 0 7.56-.01.3-.4.58-.61.87-.21-.29-.59-.57-.6-.87-.08-1.27-.04-2.54-.04-3.82zM27.39 17.49h.28c.48 0 1.07.01 1 .64-.03.25-.65.48-1.03.62-.28.1-.64.1-.92 0-.3-.11-.55-.39-.82-.59.28-.22.54-.48.85-.65.17-.09.42-.01.64-.02zM32.35 17.28c.43.28 1.22.56 1.22.84 0 .85-.81.6-1.36.65-.12.01-.25.01-.37 0-.49-.01-1.06-.05-.94-.69.04-.24.61-.41.95-.58.1-.05.24-.01.37-.01.03-.07.08-.14.13-.21zM43.2 12.71c-.51.34-.8.68-1.04.65-.27-.04-.49-.41-.73-.64.24-.24.45-.63.72-.67.24-.04.54.32 1.05.66zM49.55 35.15c.38.49.76.77.74 1.01-.03.25-.41.6-.68.66-.19.04-.63-.35-.65-.57-.03-.27.28-.57.59-1.1zM11.04 40.87c-.55.35-.82.66-1.09.65-.23-.01-.65-.41-.62-.58.05-.27.36-.65.62-.7.23-.04.54.29 1.09.63zM29.72 38.91c1.31-.01 2.32 1 2.31 2.31-.01 1.3-1.05 2.34-2.32 2.32-1.23-.02-2.24-1.04-2.27-2.28-.02-1.3.98-2.34 2.28-2.35zm1.18 2.56c0-.14.01-.29.01-.43-.37-.28-.71-.71-1.12-.8-.59-.13-1.01.28-1.04.9-.04.67.35 1.14.98 1.07.41-.04.78-.48 1.17-.74z"/><path class="st22" d="M6.04 6.17c.39.54.8.86.79 1.15-.02.29-.47.78-.73.78-.29 0-.77-.43-.8-.73-.04-.29.37-.64.74-1.2zM12.62 8.53c-.4-.55-.82-.89-.78-1.17.04-.31.49-.57.76-.85.27.28.73.53.77.84.05.28-.37.62-.75 1.18zM10.48 7.31c-.53.4-.85.82-1.14.8-.31-.03-.58-.47-.87-.73.27-.29.5-.76.81-.81.28-.05.63.37 1.2.74z"/></svg>