<svg version="1.1" id="Layer_1" xmlns="http://www.w3.org/2000/svg" x="0" y="0" viewBox="0 0 75.97 52.63" style="enable-background:new 0 0 75.97 52.63" xml:space="preserve"><style>.st22{fill:#ed228e}</style><path d="M57.39 22.79c.97 0 1.69.05 2.41-.01 1.27-.1 1.7.46 1.69 1.71-.04 5.57-.02 11.15-.02 16.72 0 3.25-.04 6.49.02 9.74.02 1.26-.42 1.7-1.69 1.69-12.69-.03-25.39-.03-38.08 0-1.25 0-1.73-.4-1.71-1.68.04-2.06-.02-2.06-1.99-2.07-2.08-.01-2.08-.01-2.08-2.12V21.04c0-1.81.09-1.92 1.87-1.92 12.55-.01 25.1-.01 37.65 0 1.8 0 1.93.15 1.95 2.02-.02.48-.02.95-.02 1.65zm-3.17 24.23c-4.2-4.71-8.16-9.15-12.17-13.64-1.41 1.19-2.67 2.24-3.92 3.31-1.54 1.3-1.55 1.3-3.13-.04-1.25-1.06-2.5-2.12-3.86-3.27-4.03 4.52-8 8.96-12.18 13.65 11.9-.01 23.38-.01 35.26-.01zm-.65-25.57c-.11-.13-.22-.27-.34-.4H19.72c.29.35.42.54.58.68 5.17 4.39 10.35 8.76 15.5 13.18.71.61 1.12.39 1.71-.12 4.98-4.24 9.98-8.45 14.99-12.65.32-.27.71-.46 1.07-.69zm1.82 24.07v-23.4c-4.11 3.46-7.96 6.72-11.91 10.05 3.97 4.46 7.82 8.77 11.91 13.35zm-37.54-.07c4.12-4.61 7.95-8.92 11.86-13.29-3.98-3.37-7.8-6.6-11.86-10.04v23.33zm40.22 5.2c-.68-1.14-1.31-1.8-2.66-1.79-9.83.05-19.66.05-29.48.01-1.33-.01-1.99.61-2.48 1.78h34.62zm1.44-1.66v-23c-1.31.84-2.21 1.52-2.17 3.2.12 5.32.12 10.64 0 15.96-.04 1.76.79 2.74 2.17 3.84z" style="fill:#702a85"/><path class="st22" d="M4.02 36.62c1.43 0 2.85.05 4.27.04 1.72-.01 2.11 1.56.03 1.69-1.43.09-2.88.04-4.5.35.44.37.88.77 1.29 1.13.68.61-.42 1.8-1.04 1.41-1.35-.92-2.68-1.9-3.9-3-.26-.23-.22-1.27.05-1.52 1.18-1.07 2.45-2.04 3.79-2.91.81-.52 1.9.66 1.03 1.43-.36.32-.75.66-1.14.98.05.14.08.27.12.4zM9.79 12.7c1.08.93 2.12 1.91 3.2 2.83 1.31 1.12.57 2.56-1.09 1.29-1.14-.87-2.2-1.86-3.62-2.69.09.57.16 1.16.23 1.7.12.91-1.5 1.08-1.71.39-.42-1.59-.77-3.2-.97-4.82-.04-.34.66-1.1 1.04-1.11 1.59-.03 3.19.06 4.76.29.95.14 1 1.75-.16 1.76-.48 0-1 .01-1.5-.01-.07.13-.12.25-.18.37zM38.08 3.95c.1 1.42.15 2.85.26 4.26.13 1.72-1.41 2.22-1.69.14-.19-1.42-.24-2.87-.66-4.46-.34.47-.7.93-1.04 1.37-.56.72-1.82-.29-1.48-.94.83-1.41 1.71-2.81 2.72-4.1.21-.27 1.25-.31 1.52-.05 1.15 1.1 2.21 2.3 3.16 3.57.58.77-.53 1.95-1.35 1.13-.34-.34-.71-.7-1.06-1.07-.13.06-.26.1-.38.15zM71.95 36.62c-1.43 0-2.85.05-4.27.04-1.72-.01-2.11 1.56-.03 1.69 1.43.09 2.88.04 4.5.35-.44.37-.88.77-1.29 1.13-.68.61.42 1.8 1.04 1.41 1.35-.92 2.68-1.9 3.9-3 .26-.23.22-1.27-.05-1.52a29.769 29.769 0 0 0-3.79-2.91c-.81-.52-1.9.66-1.03 1.43.36.32.75.66 1.14.98-.05.14-.09.27-.12.4zM63.24 12.7c-1.08.93-2.12 1.91-3.2 2.83-1.31 1.12-.57 2.56 1.09 1.29 1.14-.87 2.2-1.86 3.62-2.69-.09.57-.16 1.16-.23 1.7-.12.91 1.5 1.08 1.71.39.42-1.59.77-3.2.97-4.82.04-.34-.66-1.1-1.04-1.11-1.59-.03-3.19.06-4.76.29-.95.14-1 1.75.16 1.76.48 0 1 .01 1.5-.01.07.13.12.25.18.37z"/></svg>