<svg version="1.1" id="Layer_1" xmlns="http://www.w3.org/2000/svg" x="0" y="0" viewBox="0 0 58.33 44.93" style="enable-background:new 0 0 58.33 44.93" xml:space="preserve"><style>.st12{fill:#702a85}.st22{fill:#ed228e}</style><path class="st12" d="M29.59 33.02c1.98-4.9 6.36-5.5 10.7-5.95 3.96-.42 6.38.28 10.86 2.52 1.49-2.78 3.81-2.35 6.23-1.5.88.31 1.19.81.76 1.71-2.33 4.82-4.62 9.66-7 14.46-.18.37-.93.72-1.36.66-2.35-.34-3.37-1.49-3.74-3.8-.05-.33-.48-.81-.79-.86-.68-.11-1.41-.09-2.09.05-3.82.8-7.61 1.72-11.45 2.43-1.12.21-2.43.1-3.49-.29-4.05-1.5-8.02-3.19-12.03-4.77-1.53-.6-2.58-1.59-2.64-3.27-.06-1.67.81-2.81 2.37-3.44.25-.1.47-.51.53-.81.55-2.82 3.18-3.96 5.58-2.35 2.53 1.69 5 3.44 7.56 5.21zm1.63 2.31c.51-.08.91-.13 1.3-.21 2.11-.46 4.21-.92 6.32-1.39.69-.15 1.41-.26 1.57.67.14.82-.47 1.02-1.14 1.16-2.56.55-5.09 1.19-7.66 1.67-.8.15-1.74.09-2.51-.18-3.8-1.32-7.56-2.74-11.34-4.14-.97-.36-1.77-.17-2.17.8-.4.99.07 1.68 1.02 2.07.19.08.38.16.58.23 3.81 1.54 7.6 3.13 11.44 4.57.91.34 2.04.44 3 .27 3.18-.59 6.32-1.37 9.49-2.05 1.89-.4 3.78-1.06 5.7-.06 1.21-2.52 2.35-4.91 3.49-7.27-4.96-3.56-12-3.08-16.48-.79-1.75.89-2.52 2.53-2.61 4.65zm18.51 7.6c2.12-4.42 4.21-8.77 6.3-13.14-1.95-.79-2.5-.6-3.31 1.08-1.48 3.06-2.96 6.13-4.42 9.21-.71 1.49-.36 2.23 1.43 2.85zm-21.25-8.1c.03-.06.07-.13.1-.19-2.55-1.76-5.08-3.53-7.65-5.26-.35-.23-.94-.46-1.25-.31-.5.23-.97.71-1.21 1.2-.11.22.3.95.62 1.07 3.12 1.2 6.26 2.34 9.39 3.49z"/><path class="st22" d="M45.22 18.72c-.12-1.41-.31-2.68-.31-3.95 0-1.28.19-2.55.31-3.96h-5.28c-.74 0-1.54 0-1.5-1.01.03-.92.82-.89 1.49-.9 2.07-.01 4.15-.02 6.22 0 1.34.02 1.63.42 1.25 1.7-.82 2.78-.8 5.56.02 8.34.35 1.2.06 1.6-1.2 1.61-2.16.02-4.31 0-6.47.01-.67 0-1.32-.09-1.32-.94s.66-.92 1.33-.92c1.81.02 3.62.02 5.46.02z"/><path class="st22" d="M42.31 15.73h-.5c-.7 0-1.42-.07-1.41-.98.01-.92.75-.95 1.44-.94.41 0 .88-.12 1.23.03.45.2.8.61 1.2.93-.41.32-.79.68-1.23.94-.18.11-.48.02-.73.02zM28.87 11.6h4.05v.01c-.24.42-.37.64-.41.67h-1.08c.15.2.25.44.3.72h1.15c.01 0 .02.01.02.02-.26.44-.39.66-.4.66h-.75c-.02.22-.11.49-.28.82-.24.32-.46.53-.67.63-.39.21-.77.32-1.12.32v.01c0 .03.09.16.26.39l2 2.74v.13c0 .01-.01.02-.02.02h-.88c-1.58-2.09-2.38-3.14-2.38-3.15v-.64l.01-.02c.14.02.3.03.49.03.88 0 1.44-.33 1.66-.98.03-.1.05-.19.05-.29h-2.41c-.01 0-.02-.01-.02-.02.27-.44.4-.66.41-.66h1.91V13c-.11-.25-.32-.45-.64-.59-.23-.08-.43-.12-.61-.12h-1.07v-.02c.29-.45.42-.67.43-.67z"/><path class="st12" d="m8.77 16.18 2.17 1.23v-.06c.91.2 1.73.38 2.56.56l2.71-.05c.04-.01.08-.02.12-.02 1.2-.03 2.4-.04 3.61-.05h.07s4.87.28 5.57-.33c2.3-2.48 2.29-3.9-.01-6.08-1.09-.26-2.33-.22-2.57-.21-.95.04-1.9.02-2.85.02-.04-.16-.04-.14-.08-.3 1.41-.77 2.39-2.25 3.9-2.95.6-.28 1.27-.37 1.92-.29.88.11 3.73-.01 4.56-.01.34 0 3.03.36 4.52-1.91-.23-.05-.45-.11-.67-.18-1.78-.62-3.24-2.25-4.76-3.53C27.6.39 25.43-.22 22.94.12c-3.66.49-7.33.95-10.99 1.4-1.92.23-3.85.41-5.72.61C5.51.25 5.17.01 3.39 0H1.64C.16.02.01.15.01 1.66 0 5.74 0 9.81.01 13.88c0 3.58-.33 3.2 3.19 3.21 1.97.01 2.26-.19 2.99-1.93 1.46-.15 2.25.13 2.58 1.02zm-4.69-1.02H2.05V1.93h2.03v13.23zm2.01-1.92V4.07c2.73-.33 5.4-.65 8.07-.98 3.05-.37 6.11-.69 9.15-1.12 1.81-.25 3.36.16 4.76 1.31.89.73 1.81 1.44 2.66 2.46-1.55-.07-3.11-.02-4.63-.26-1.15-.18-2.13-.13-3.04.6-1.72 1.38-3.48 2.7-5.12 4.17-.43.39-.78 1.31-.62 1.79.16.47 1.02.93 1.6.98 1.57.13 3.15.05 4.73.02.96-.01 1.72.32 1.72 1.35 0 .99-.7 1.43-1.67 1.44-3.28.03-6.57.15-9.85.05-1.05-.03-2.15-.55-3.12-1.04-1.46-.72-2.67-2.03-4.64-1.6z"/><path class="st22" d="M51.92 7.32c.01-1.19-.41-1.63-1.6-1.61-3.36.05-6.73.02-10.09.01-1.08 0-2.21.13-3.31.14-.82.75-2.1 1.78-3.74 2.62.89.65 1.55 1.61 2.04 2.74 1.12 2.59 1.03 5.19-.31 7.68-.94 1.75-2.36 2.95-4.43 2.97-2.13.01-3.53-1.24-4.53-3.01-.05-.08-.09-.17-.13-.25-.66.13-1.35.17-1.94.17.55 1 1.06 2.01 1.61 3.05H10.96V19l-1.97-.96c.01 1.41.03 2.81-.02 4.22-.04 1.12.4 1.55 1.53 1.54 13.29-.02 26.59-.02 39.88 0 1.13 0 1.55-.41 1.54-1.54-.04-4.97-.05-9.96 0-14.94zm-2 14.54h-14.7c3.54-4.74 3.57-9.42.02-14.17h14.68v14.17z"/><path class="st22" d="M15.69 20.58c1.83 0 3.66-.01 5.48 0 .7 0 1.38-.17 1.23-.98-.07-.36-.78-.82-1.21-.84-1.82-.09-3.64-.04-5.46-.04-.03-.05-2.24.19-2.24.19-.35 1.67-.07 1.67 2.2 1.67z"/></svg>