<svg width="17" height="16" viewBox="0 0 17 16" fill="none" xmlns="http://www.w3.org/2000/svg">
<g id="Frame">
<path id="Vector" d="M14.9001 8.00001C14.8999 6.77698 14.5493 5.57961 13.8897 4.54966C13.2302 3.51971 12.2893 2.70031 11.1786 2.18846C10.0678 1.67661 8.83362 1.49375 7.62215 1.66152C6.41068 1.8293 5.27266 2.34068 4.34279 3.13513C3.41293 3.92959 2.73017 4.97384 2.37535 6.14427C2.02053 7.3147 2.00851 8.56229 2.3407 9.73934C2.67289 10.9164 3.33538 11.9736 4.24976 12.7858C5.16413 13.5981 6.29209 14.1313 7.5001 14.3224L7.5001 9.85001H5.8753V8.00001L7.5001 8.00001L7.5001 6.59001C7.5001 4.98601 8.4557 4.10001 9.9173 4.10001C10.3973 4.10667 10.8762 4.14838 11.3501 4.22481V5.80001H10.5429C10.4053 5.78174 10.2654 5.79466 10.1336 5.83781C10.0017 5.88096 9.8812 5.95323 9.78105 6.04927C9.6809 6.14531 9.60364 6.26266 9.55501 6.39262C9.50637 6.52258 9.48761 6.66181 9.5001 6.80001V8.00001H11.2753L10.9913 9.85001H9.5001L9.5001 14.3224C11.0056 14.0842 12.3767 13.3166 13.3666 12.1576C14.3566 10.9985 14.9003 9.52425 14.9001 8.00001Z" fill="#335CA6"/>
</g>
</svg>
