<svg version="1.1" id="Layer_1" xmlns="http://www.w3.org/2000/svg" x="0" y="0" viewBox="0 0 293 125.14" style="enable-background:new 0 0 293 125.14" xml:space="preserve"><style>.st0{fill:#ed228e}.st1{fill:#ccb0d4}.st2{fill:#fecb84}.st3{fill:#ffda71}.st4{fill:#fff}.st5{fill:#f36e56}.st6{fill:#6ecbf3}.st7{fill:#caebf6}.st8{fill:#f8a592}.st9{fill:#e74a60}.st10{fill:#f37559}.st11{fill:#f8a492}.st12{fill:#0b1723}.st13{fill:#702a85}.st14{fill:#5b0b39}.st16{fill:#f58761}.st18{fill:#6572b6}.st19{fill:#184070}.st21{fill:#da238f}</style><path class="st0" d="M56.66 95.3c-1.32 0-2.46-.48-3.43-1.46-.97-.97-1.46-2.11-1.46-3.43V37.6c0-1.31.49-2.46 1.46-3.43.97-.97 2.11-1.46 3.43-1.46h29.41c1.31 0 2.46.49 3.43 1.46.97.97 1.46 2.12 1.46 3.43v1.97c0 1.32-.49 2.46-1.46 3.43-.97.97-2.12 1.46-3.43 1.46H67.12c-.51 0-.77.23-.77.69v12.78c0 .51.26.77.77.77h17.23c1.31 0 2.46.47 3.43 1.41.97.94 1.46 2.07 1.46 3.39v1.37c0 1.32-.49 2.44-1.46 3.39-.97.94-2.12 1.42-3.43 1.42H67.12c-.51 0-.77.26-.77.77v19.98c0 1.32-.47 2.46-1.41 3.43-.94.97-2.07 1.46-3.39 1.46h-4.89zM96.53 95.3c-1.2 0-2.16-.48-2.87-1.46-.71-.97-.87-2.03-.47-3.17l17.32-53.33c.46-1.37 1.27-2.49 2.44-3.34s2.47-1.29 3.9-1.29h5.66c1.49 0 2.83.43 4.03 1.29 1.2.86 2 1.97 2.4 3.34l17.23 53.33c.4 1.14.24 2.2-.47 3.17-.71.97-1.67 1.46-2.87 1.46h-5.75c-1.43 0-2.72-.44-3.86-1.33-1.14-.89-1.89-2.01-2.23-3.39l-2.06-8.15c-.06-.46-.34-.69-.86-.69h-17.15c-.46 0-.74.23-.86.69L108 90.58c-.34 1.37-1.09 2.5-2.23 3.39a6.112 6.112 0 0 1-3.86 1.33h-5.38zm22.89-49.9-6.26 24.61c-.06.17-.01.33.13.47.14.14.3.21.47.21h11.49c.17 0 .33-.07.47-.21.14-.14.19-.3.13-.47l-6.26-24.61c0-.06-.03-.09-.08-.09-.06.01-.09.04-.09.09zM176.87 96.16c-9.03 0-16.16-2.84-21.39-8.53-5.23-5.69-7.85-13.56-7.85-23.62s2.62-17.93 7.85-23.62c5.23-5.69 12.36-8.53 21.39-8.53 9.03 0 16.17 2.84 21.43 8.53 5.26 5.69 7.89 13.56 7.89 23.62 0 5.89-1.06 11.1-3.17 15.65-2.12 4.54-5.09 8.19-8.92 10.93-.06 0-.09.06-.09.17 0 .06.06.09.17.09 6.29 2.86 11.66 7.29 16.12 13.29.63.86.69 1.74.17 2.66-.52.91-1.32 1.37-2.4 1.37h-6c-3.14 0-5.6-1.37-7.37-4.12-2.23-3.32-4.47-5.46-6.73-6.43-2.26-.97-5.96-1.46-11.1-1.46zm0-52.3c-9.55 0-14.32 6.72-14.32 20.15s4.77 20.15 14.32 20.15c9.6 0 14.4-6.72 14.4-20.15s-4.8-20.15-14.4-20.15z"/><g><path class="st1" d="M127.02 97.14H.43c-.22 0-.41.18-.43.42-.02.26.18.48.41.48h126.61c.23 0 .42-.2.42-.45s-.19-.45-.42-.45zM292.73 97.14h-83.4c-.15 0-.27.18-.28.42-.01.26.12.48.27.48h83.41c.15 0 .27-.2.27-.45s-.12-.45-.27-.45zM174.29 97.14h-24.15c-.04 0-.08.18-.08.42 0 .26.03.48.08.48h24.16c.04 0 .08-.2.08-.45-.01-.25-.04-.45-.09-.45zM148.07 97.14h-12.08c-.02 0-.04.18-.04.42 0 .26.02.48.04.48h12.08c.02 0 .04-.2.04-.45s-.02-.45-.04-.45zM134.74 97.14h-4.69c-.01 0-.02.18-.02.42 0 .26.01.48.02.48h4.69c.01 0 .02-.2.02-.45s-.01-.45-.02-.45z"/><path class="st2" d="M77.75 20.97c-3.78 1.59-8.15-.2-9.74-3.99-1.59-3.78.2-8.15 3.99-9.74 3.78-1.59 8.15.2 9.74 3.99 1.58 3.78-.21 8.15-3.99 9.74z"/><path class="st3" d="M77.67 20.79c-3.69 1.54-7.94-.2-9.49-3.88-1.54-3.69.2-7.94 3.88-9.49 3.69-1.54 7.94.2 9.49 3.88 1.55 3.69-.19 7.95-3.88 9.49z"/><path class="st4" d="M80.34 11.85c1.26 3.01-.16 6.48-3.17 7.75-3.01 1.26-6.48-.16-7.75-3.17-1.26-3.01.16-6.48 3.17-7.75 3.02-1.26 6.49.16 7.75 3.17z"/><path class="st4" d="M77.04 19.28a5.605 5.605 0 0 1-7.34-3.01c-1.2-2.85.15-6.15 3.01-7.34 2.85-1.2 6.15.15 7.34 3.01 1.19 2.85-.16 6.15-3.01 7.34z"/><path class="st3" d="m70.28 15.71-.93.39c-.15.06-.22.24-.16.39.06.15.24.22.39.16l.93-.39c.15-.06.22-.24.16-.39a.306.306 0 0 0-.39-.16zM76.63 18.31c-.15.06-.22.24-.16.39l.39.93c.06.15.24.22.39.16.15-.06.22-.24.16-.39l-.39-.93a.302.302 0 0 0-.39-.16zM80.16 11.57l-.93.39c-.15.06-.22.24-.16.39.06.15.24.22.39.16l.93-.39c.15-.06.22-.24.16-.39a.294.294 0 0 0-.39-.16zM72.49 8.43c-.15.06-.22.24-.16.39l.39.93c.06.15.24.22.39.16.15-.06.22-.24.16-.39l-.39-.93a.294.294 0 0 0-.39-.16zM74.57 5.91l.08-1.18c.01-.1.09-.17.19-.16l1.35.09c.1.01.17.09.16.19l-.08 1.18c-.01.1-.09.17-.19.16l-1.35-.09c-.09-.01-.17-.09-.16-.19zM69.31 8.14l-.9-.76c-.07-.06-.18-.05-.25.02l-.88 1.03c-.06.07-.05.18.02.25l.9.77c.07.06.18.05.25-.02l.88-1.03c.07-.08.06-.19-.02-.26zM70.76 6.22c-.09.04-.19 0-.22-.09l-.33-.78c-.04-.09 0-.19.09-.22l1.6-.67c.09-.04.19 0 .22.09l.33.78c.04.09 0 .19-.09.22l-1.6.67z"/><path class="st3" d="M71.18 6.5a1.864 1.864 0 1 1 1.09-.46l.18.42a2.31 2.31 0 0 0 .72-2.72 2.3 2.3 0 0 0-3.02-1.23 2.308 2.308 0 0 0 1.21 4.41l-.18-.42z"/><path class="st3" d="M71.93 7.11c.19-.08.37-.15.56-.21l-.47-1.13-.88.37.47 1.11c.11-.05.21-.1.32-.14zM75.37 13.89c.12.28-.01.6-.29.71-.28.12-.6-.01-.71-.29-.12-.28.01-.6.29-.71.28-.12.6.01.71.29z"/><path class="st3" d="m75.45 9.64-.39 4.49a.21.21 0 0 1-.22.19.21.21 0 0 1-.19-.22c0-.03-.03.17.8-4.46z"/><path class="st3" d="m78.81 16.32-4.02-2.02c-.1-.05-.14-.17-.09-.28.05-.1.17-.14.28-.09.01.01-.16-.1 3.83 2.39z"/><path class="st2" d="M75.07 14.01c.05.11-.01.24-.12.29-.11.05-.24-.01-.29-.12-.05-.11.01-.24.12-.29.12-.04.25.01.29.12z"/><path class="st5" d="M183.24 15.15a.224.224 0 0 0-.22-.07c-.39.11-1.11-.05-1.46-.18l-.38-1.9c.28-.25.87-.67 1.28-.73a.23.23 0 0 0 .18-.15l.49-1.44c.03-.08.01-.17-.05-.22-.29-.29-.51-.98-.58-1.35l1.45-1.28c.35.11 1.02.42 1.27.74.05.07.13.1.22.08l1.49-.3a.23.23 0 0 0 .17-.16c.1-.39.6-.93.88-1.17l1.84.62c.08.36.15 1.09-.01 1.47-.03.08-.02.17.04.23l1.01 1.14c.05.06.14.09.22.07.39-.11 1.11.05 1.46.18l.38 1.9c-.28.25-.87.67-1.28.73a.23.23 0 0 0-.18.15l-.49 1.44c-.03.08-.01.17.05.22.29.29.51.98.58 1.35l-1.45 1.28c-.35-.11-1.02-.42-1.27-.74a.204.204 0 0 0-.22-.08l-1.49.3a.23.23 0 0 0-.17.16c-.1.39-.6.93-.88 1.17l-1.84-.62c-.08-.36-.15-1.09.01-1.47.03-.08.02-.17-.04-.23l-1.01-1.14zm4.17-.46c1.03-.21 1.7-1.21 1.49-2.25a1.907 1.907 0 0 0-2.25-1.49c-1.03.21-1.7 1.21-1.49 2.25.21 1.03 1.22 1.7 2.25 1.49zm.24 1.2a3.135 3.135 0 0 0 2.45-3.69 3.135 3.135 0 0 0-3.69-2.45 3.135 3.135 0 0 0-2.45 3.69c.35 1.69 2 2.79 3.69 2.45z"/><path class="st6" d="m40.33 21.78-1.31-.49-1.15.8a.192.192 0 0 1-.3-.17l.06-1.4-1.12-.85c-.13-.1-.09-.3.07-.34l1.35-.37.46-1.33c.05-.15.26-.18.34-.04l.77 1.17 1.4.03c.16 0 .25.19.15.31l-.88 1.1.41 1.34c.05.16-.1.3-.25.24zM99.29 47.91l-1.31-.49-1.15.8a.192.192 0 0 1-.3-.17l.06-1.4-1.12-.85c-.13-.1-.09-.3.07-.34l1.35-.37.46-1.33c.05-.15.26-.18.34-.04l.77 1.17 1.4.03c.16 0 .25.19.15.31l-.88 1.1.41 1.34c.05.15-.1.29-.25.24zM57.56 18.77l-.72-1.92-1.82.55-.79-1.86-1.81.31-.81-1.3-.66.42 1.09 1.73 1.72-.29.82 1.93 1.79-.54.65 1.74zM152.67 29.01l-1.79-.99-1.03 1.61-1.81-.89-1.16 1.42-1.47-.45-.22.74 1.95.6 1.11-1.34 1.88.92 1.01-1.58 1.63.89z"/><path class="st7" d="m89.46 6.6-.77 1.9 1.72.83-.68 1.9 1.54.99-.27 1.51.76.14.37-2.02-1.46-.94.7-1.98-1.69-.81.69-1.72z"/><path class="st5" d="m186.78 27.06-.37-.74-.85.03-.37-.87-.89.31-.46-.95-.86.18-.58-.85.32-.22.44.63.91-.19.43.92.91-.31.4.95.83-.03.35.69.54-.13.1.38zM144.74 48.74l-.38-.75-.85.03-.37-.86-.89.31-.45-.96-.86.19-.59-.85.32-.23.44.64.91-.19.43.92.91-.32.4.95.83-.03.35.69.54-.13.1.38zM120.53 25.5l-.4-1.18 1.83-.85-.37-1.8 1.27-.85-.44-.65-1.69 1.15.35 1.71-1.9.88.59 1.78z"/><g><path class="st8" d="m13.32 71.38-.08-.42c-.02-.13-.03-.5-.03-.5s0-1.32.1-1.31c.1.01.22.23.25.32.03.08.07.17.1.26.03.08.11.13.22.1.1-.03.06-.38.02-.5-.12-.37-.65-1.28-.7-1.38-.06-.12.36-2.41.44-3.2.17-1.3.42-2.62.43-2.76l2.31-5.11-1.54-1.58s-2.65 5.64-2.75 5.93c-.05.14-.21 3.18-.21 3.18.01 1.5.03 2.83.02 3.08 0 0-.22.76-.39 1.23s-.13.98-.16 1.12c0 .02-.12.5-.04 1.1.07.52.24-.01.24-.01s.04-.98.12-.97c.06.01 0 .55.07 1.12.02.15.04.29.05.43.05.35.28.42.29.04 0-.13 0-.35-.02-.51-.02-.17.01-.33.01-.48 0-.29 0-.5.01-.49.02.01.06-.05.08.11.03.19 0 .6.07.87.04.15.09.48.09.48s.15.52.18.52c.17-.01.17-.41.09-.61.02-.15-.05-.5-.05-.5s.02-.72.12-.72c.08 0 .38 1.74.55 1.72.17-.03.11-.56.11-.56z"/><path class="st9" d="M15.44 59.82s-.96-.17-1.47-.36c-.68-.25-1.13-.47-1.13-.47s.75-3.19 1.68-5.13c.38-.8.77-1.19 1.31-1.28 0 0 1.14.75 1.1 2.56 0 .43-1.49 4.68-1.49 4.68z"/><path class="st8" d="m18.39 70.54 1.24 11.44s-.61 2.42-.53 3.11c.07.69 1.35 9.71 1.35 9.71l-.05.51v1.49h4.75s-1.01-.46-2.42-1.38c-.1-.07-.34-.28-.4-.72-.38-2.78.37-12.05.37-12.05l.59-12.07-4.9-.04z"/><path class="st8" d="M14.58 72.95c-.27.07-.68 9.91-.9 10.35-1.41 2.76-1.74 11.17-1.74 11.17l-.41 1.2-.44 1.47s1.41.38 2.14-.03l-.08-1.45-.07-1.32 3.55-10.47 1.94-10.68-3.99-.24z"/><path class="st5" d="M21.64 53.89c-.57-.81-2.94-3.14-3.2-3.14-.77.01-3.28.01-3.77.27v.55c.01 2.46.33 4.91.95 7.28.43 1.66.84 3.43.79 4.06l.01.01c1.45 1.44 3.75 1.33 5.07-.25 0 0-.01-1.76.2-3.37.33-2.5 1.37-3.41-.05-5.41z"/><path class="st8" d="M17.67 48.25s.07 1.64-.08 2.26c-.14.62-.33.67.89.86.48.07.95.19.95.19s-.13-.91-.15-1.3c-.03-.63.14-2.59.14-2.59l-1.75.58z"/><path class="st10" d="M18.61 49.07c.25.14.49.22.71.26.04-.77.12-1.66.12-1.66l-1.68.56c.19.33.47.62.85.84z"/><path class="st8" d="M18.06 43.66s-.7.25-1.09 1.02c-.39.77-.53 2.95.99 3.79.76.42 1.63.5 2.04.13.42-.38.37-1.22.33-1.91-.08-1.38-.38-3.47-2.27-3.03z"/><path class="st8" d="M16.94 46.39c.09.36-.03.71-.26.78-.23.07-.49-.17-.57-.53-.09-.36.03-.71.26-.78.22-.07.48.16.57.53z"/><path class="st9" d="M13.15 95.64c-.65.3-1.34.11-1.62.02l-.45 1.47s1.42.42 2.15 0l-.08-1.49z"/><path class="st10" d="M13.76 78.79s.01 0 0 0z"/><path class="st9" d="M20.35 97.17h4.93c.18-.02.23-.17.16-.27-.13-.19-.71-.34-1.35-.65-1.13.12-3.52-.68-3.7-.95-.09.55-.14 1.85-.04 1.87z"/><path class="st11" d="M30.26 57.62c.1-.13.42-.78.42-.78s.33-1.11.26-1.1c-.04.01-.18.17-.34.5-.1.21-.21.57-.31.74-.18.31-.38.44-.33.32.04-.09.16-.16.27-.35.26-.46.5-1.2.4-1.19-.09.01-.34.53-.63.93-.12.17-.47.39-.69.53 0-.1.03-.2.04-.24.03-.09.42-.61.27-.67-.15-.07-1.09 1.06-1.09 1.06l-.38.65-.03.02s-4.65 1.82-4.81 1.78c-.37-.12-1.62-3.74-1.62-3.74l-2.6.47c-.04-.02 2.74 5.4 3.25 5.66.45.23 5.29-2.29 6.2-2.83 1.25-.48 1.74-1.05 1.94-1.35.11-.16.53-.84.53-.84s.09-.95.02-.96c-.23-.03-.29.87-.29.87s-.31.42-.36.48c-.14.14-.12.04-.12.04z"/><path class="st9" d="M17.4 52.93c-.36 1.51 1.54 4.86 1.54 4.86s2.7-1.31 3.17-1.88l-1.98-3.27c-.25-.43-1.12-1.33-1.71-1.17-.37.11-1.02 1.46-1.02 1.46z"/><path class="st12" d="M17.83 49.21c.2-1.38 2.49-4.2 1.61-5.37-.72-.95-1.96-.67-2.76-.39-3.61 1.24-3.4 5.78-4.54 6.49-2.06 1.29-3.33 2.09-3.48 4.98-.18 3.44 2.74 5.19 6.25 4.35 1.89-.45 2.39-1.07 3.14-2.85.34-.8 1.03-3.31.84-4.53-.17-1.11-1.22-1.56-1.06-2.68z"/><path class="st8" d="M19.2 46.68c0 .41-.15.74-.33.74s-.33-.33-.33-.74.15-.74.33-.74.33.33.33.74z"/><path class="st2" d="m23.72 77.99.17-6.79c.03-1.92-.35-3.82-1.11-5.57l-1.28-2.94c-.52.17-1.01.31-1.55.38-1.19.14-2.35 0-3.53-.14 0 .05-.01.09-.02.12-.21 1-1.41 3.23-1.91 6.28-.57 3.46-.78 8.63-.71 9.04 5.45.23 6.75.43 9.94-.38z"/></g><g><path class="st3" d="m244.21 44 4.11 4.11s7.82 3.06 8.69 4.94c.87 1.88-.79 1.79-2.62 1.53s-7.03-3.5-7.03-3.5l-4.76-5.5 1.61-1.58z"/><path class="st13" d="m256.23 52.22-1.02-.36-1.97.92s-1.02.69-1.51 2.39c-.49 1.7 0 11.89.82 13.53.83 1.64 3.68-16.48 3.68-16.48z"/><path class="st8" d="M262.68 93.09s.72.47.78.68c.06.21.59 2.53.39 2.8-.2.27-.92.14-.64.33.21.15 1.59.26 2.46.02.26-.07.14-2.23.18-2.56.05-.48.39-1.57.19-1.85-.1-.14-.66-.38-1.17-.58-.53-.21-1.12-.8-1.12-.8l-1.07 1.96z"/><path class="st14" d="M264.82 91.91s-.43 4.11-.93 4.41c-.13.08-.83.14-.9.48 0 .01-.02.34.2.35l2.66-.01s.03-2.02.01-2.81c0 0 .37-2.02.25-2.17-.12-.15-1.29-.25-1.29-.25z"/><path class="st8" d="M273.1 93.09s.72.47.78.68c.06.21.59 2.53.39 2.8-.2.27-.92.14-.64.33.21.15 1.59.26 2.46.02.26-.07.14-2.23.18-2.56.05-.48.39-1.57.19-1.85-.1-.14-.66-.38-1.17-.58-.53-.21-1.13-.8-1.13-.8l-1.06 1.96z"/><path class="st14" d="M260.02 66.39s2.43 4.83 2.93 6.13l3.71 9.41 8.18 9.62s-.6 1.55-1.5 1.96c0 0-9.86-7.97-10.68-9.22-1.24-1.91-6.87-13.63-6.87-13.63l-1.05-2.25 5.28-2.02z"/><path d="m254.14 66.34.04 4.12s-1.76 13.46-1.42 14.26c.83 1.95 9.98 8.56 9.98 8.56l1.25-2.14-6.58-7.34 2.49-7.14c.7-1.66 2.18-4.87 2.14-6.66-.03-1.54-3.09-5.12-3.09-5.12l-4.81 1.46z" style="fill:#9c2064"/><path class="st3" d="M257.87 72.43c2.42-.55 4.39-1.41 4.59-2.08.09-.31-1.26-3.38-2.26-7.49-.32-1.34-.27-2.6-.79-7.3-.11-1-.52-3.08-2.07-3.62-.54-.19-.84-.16-.84-.16-.01 0-1.96.02-2.85.51-.22.3-1.04 1.93-1.26 6.39-.1 1.95-.48 8.19-.4 9.21.01.15.03.3.05.44.35 2.69 3.18 4.7 5.83 4.1z"/><path class="st8" d="M253.59 55.33c1-.11 3.48-3.37 3.48-3.37l-.01-.01-1.53-2.43s-2.26.41-1.82 1.1c.44.69.69 2.34.69 2.34-.01.02-.02.04-.03.07-.15.34-.66 1.34-.78 2.3z"/><path class="st16" d="M253.71 50.63c-.44-.69 1.82-1.1 1.82-1.1l.13.2c0 .17-.02.33-.06.46-.24.69-.83 1.3-1.44 1.59-.12-.43-.27-.87-.45-1.15z"/><path class="st8" d="M254.25 45.69c.05-.05 1.76 2.77 1.35 3.93-.41 1.16-1.8 2.09-2.62 1.67-.91-.46-2.28-3.69-1.46-5.06.84-1.37 2.73-.54 2.73-.54z"/><path class="st12" d="M251.77 44.42c1.01-.22 2.81.08 3.82.79 1.25.88 1.29 2.43.73 3.45s-.22 1.77-.22 1.77-1.75-.11-2.11-1.3c-.15-.5.04-.84-.3-1.12-.26-.22-.48-.85-.73-1.36 0 0-1.13-.6-1.56-.11-.15.17-.92-1.84.37-2.12z"/><path class="st8" d="M253.51 48.23c.15.37.45.59.67.51.21-.09.26-.46.11-.83-.15-.37-.45-.59-.67-.51-.21.09-.26.46-.11.83z"/><path class="st14" d="M275.25 91.92s-.44 4.1-.94 4.41c-.13.08-.83.14-.9.48 0 .01-.02.36.2.35l2.66-.01s.03-2.02.01-2.81c0 0 .37-2.02.25-2.17-.12-.16-1.28-.25-1.28-.25z"/><g><path class="st13" d="M216.44 72.95c-2.11-4.42-2.69-11.02-.39-16.25 3.88-8.83 14.57-12.44 13.78-22.45-.2-2.52-1.32-4.55-2.97-5.86-4.35-3.43-11.35-1.62-16.34.78-3.19 1.53-6.15 3.71-8.89 6.52l-1.39-17.68c6-4.25 13.25-6.48 20.49-7.05 14.84-1.17 26.3 4.4 27.46 19.24 1.06 13.54-8.08 19.53-14.22 26.3-3.41 3.76-4.18 6.65-3.91 10 .14 1.73.79 3.87 1.83 5.24l-15.45 1.21zm10.66 24.19c-14.42 1.13-16.09-18.24-1.52-19.39 14.34-1.13 15.88 18.26 1.52 19.39z"/></g><path class="st11" d="M242.01 44.89c-.03-.12.07-.03-.11-.98-.05-.28-.23-.57-.35-.72-.07-.08-.23-.23-.33-.29-.17-.1-.29.06-.26.15.03.09.2.4.24.5.03.09.05.31-.03.39-.08.07-1.27-1.3-1.34-1.42-.06-.1-.2-.55-.2-.55s-.1-.32-.23-.24c-.08.05-.17.32.06.85.21.46.5.83.47.85-.09.07-.6-.55-.6-.55s-.18-.35-.3-.47c-.08-.23-.22-.52-.37-.4-.03.02.07.51.07.51s.18.32.26.48c.14.28.45.62.55.81.09.15 0 .12 0 .14-.01.01-.14-.16-.34-.41-.1-.13-.24-.25-.34-.41-.09-.15-.24-.34-.34-.46-.27-.32-.41-.1-.21.24.08.13.16.27.25.41.34.55.76.98.72 1.03-.05.07-.77-.76-.77-.76s-.51-.34-.21.16c.35.58.73.95.75.97.12.1.44.6.91.89.47.3 1.23.75 1.23.75.09.11.31.45.62.93l1.14-1.37c-.43-.42-.92-.94-.94-1.03z"/><path d="m241.11 46.82 1.57-1.38 5.4 5.33s8.36.73 8.38.74l.33.1c3.03 1.05 1.78 3.52 1.2 3.91-1.36.89-8.92.36-11.34-1.15-1.98-1.23-5.54-7.55-5.54-7.55z" style="fill:#fab640"/></g><g><path class="st11" d="M32.26 54.47c.06.22.09.3.17.44.49.96 1.64 2.33 1.64 2.33l.89-2.13s-.14-.67-.4-1.63c-.85.24-1.67.38-2.3.99z"/><path class="st18" d="M37.35 52.62s-4.95 2.27-5.11 2.23c-.1-.03-2.03-3.47-2.05-6.7-.01-1.49 1.44-3.29 3.07-2.94.82.18.8.42 2.01 2.3 1.21 1.87 2.08 5.11 2.08 5.11z"/><path class="st8" d="m41.57 93.37-.12 2.08c-.04.26-.21.91-.21 1.15 0 .9 4-.76 3.1-1.16-.08-.04-.51-.31-.53-.61-.04-.47-.15-1.42-.15-1.42l-2.09-.04z"/><path class="st19" d="M44.33 95.43s-.94.28-1.42.34c-.48.07-1.11-.51-1.46-.35-.37.17-.36 1.72-.36 1.72s5.04.44 6.45-.02c.57-.17-1.29-1.05-3.21-1.69z"/><path class="st8" d="m33.39 93.37-.12 2.08c-.04.26-.21.91-.21 1.15 0 .9 4-.76 3.1-1.16-.08-.04-.63-.51-.66-.82-.04-.47-.02-1.22-.02-1.22l-2.09-.03z"/><path class="st19" d="M36.15 95.43s-.94.28-1.42.34c-.48.07-1.11-.51-1.46-.35-.37.17-.39 1.72-.39 1.72s5.06.51 6.48-.02c.56-.2-1.29-1.05-3.21-1.69z"/><path class="st8" d="m34.61 55.61 3.52-5.27c.01-.05.05-.14.1-.28.18-.52.55-1.61.87-2.69v-.01c.1-.38.32-1.04.52-1.68.23-.71.52-1.59.53-1.74-.01-.03-.03-.07-.05-.13-.13-.36-.3-1.21-.37-1.58-.04-.24-.08-.81.18-.81.41 0 .22.57.41.93.07-.24.21-.71.29-1.19l.07-1.12c.01-.08-.07-.7.22-.7h.01c.26.02.25.68.36 1.79.03-.13.07-.28.09-.42 0-.08.05-.41.09-.59-.05-.31-.02-.8.29-.75.15.02.14.7.14.7 0 .09-.01.81-.01.96.03-.24.16-1.27.4-1.27.2 0 .22.28.21.5 0 .13-.13 1.25-.14 1.38.09-.17.21-1.15.3-1.15.39 0 .25 1.4.11 1.76-.01.04-.03.11-.04.2-.05.25-.13.67-.34 1.04-.25.45-.59 1.16-.64 1.27-.04.22-.16 1.03-.3 2.03-.06.43-.13.91-.21 1.4-.01.11-.09.44-.37 1.71-.38 1.73-.42 1.81-.44 1.84-.17.31-3.96 5.82-4.13 6.05l-.1.14-1.57-2.32z"/><path class="st10" d="M41.16 43.33s-.29-.78-.79-.78c0 0 .28-.11.53.1.24.2.26.68.26.68z"/><path class="st8" d="m33.76 41.82-.45 3.06s1.73 1.48 2.73 1.17c.85-.26.27-1.44.27-1.44s-.45-1.63-.31-2.49c.13-.85-2.24-.3-2.24-.3z"/><path class="st16" d="M34.08 42.75c.43.22 1.29.52 1.96.59-.06-.43-.1-.88-.05-1.22.06-.4-.41-.49-.93-.48-.69.06-1.3.18-1.3.18l-.09.59c.13.15.27.27.41.34z"/><path class="st8" d="M31.58 38.29c-.07 0 .68 3.42 1.85 4.01 1.17.59 2.91.28 3.23-.64.36-1.02-.96-4.51-2.6-4.95-1.64-.44-2.48 1.58-2.48 1.58z"/><path class="st12" d="M32.93 35.15c-.93.57-1.36 1.43-1.5 1.77-.44.22-.97.7-1.22 1.99-.31 1.59.8 2.81 1.98 3.18 1.18.37 1.38 1.2 1.38 1.2l.12-.9s-.26-.78-.66-1.17c-.39-.39.19-.96.24-1.42.04-.36-.21-1.05-.15-1.64 0 0 .65-1.06 1.3-1.32 1.08-.43-.29-2.42-1.49-1.69z"/><path class="st8" d="M33.43 40.41c.15.39.09.79-.14.88-.23.09-.54-.16-.69-.55-.15-.39-.09-.79.14-.88.22-.1.53.15.69.55z"/><path class="st11" d="m37.77 55.7 6.79-1.18s-.77-2.08-1.05-2.08-5.14 2.26-5.14 2.26l-.39.83-.21.17z"/><path class="st19" d="M34.29 60.67s-.68 3.5-.4 6.15c.28 2.65.3 12.07.3 12.07l-1.05 15.07 2.5.06s2.97-15.06 2.91-14.68c-.06.39.99-10.61.99-10.61L36 60.33l-1.71.34z"/><path d="M34.96 60.51s-.44 3.15.11 4.53c.55 1.38 4.74 14.93 4.79 16.04.06 1.1 1.45 13.32 1.45 13.32l2.91-.09.63-13.58-1.32-17.06-1.28-4.31-7.29 1.15z" style="fill:#0b4e90"/><path class="st8" d="M33.31 44.89s.72.5 1.39.44c.67-.06 1.61-.72 1.61-.72l-.13-.48s-1.73-.27-1.77-.24c-.05.04-1.1 1-1.1 1z"/><path class="st11" d="M40.95 52.34s2.57 2.59 3.73 2.15c1.16-.44 1.64-1.95-1.19-4.16-2.53-1.99-2.54 2.01-2.54 2.01z"/><path class="st6" d="M42.69 55.53c-.38-2.22-3.15-9.11-3.37-10.39-.11-.62-1.6-.63-3.02-.55-1.5.09-2.99.29-2.99.29s-1.33.23-1.91.82c-.58.58-.74 2.2.1 5.27.66 2.42 1.49 3.75 1.89 5.52.08.59.15 1.18.25 1.86.15 2.64 0 6.13 0 6.13s7.24 1.6 9.94-.83c-.01 0-.5-5.85-.89-8.12z"/><path class="st18" d="M44.54 50.77s-2.84 2.5-3.01 2.5c-.11 0-4.05-3.1-4.96-5.64-.5-1.41.55-2.98 1.76-2.98.84 0 1.21.23 2.87 1.73 1.65 1.49 3.34 4.39 3.34 4.39z"/></g><g><path class="st21" d="m111.91 24.25-6.16 4.17c-.63.42-1.47.26-1.9-.37l-4.17-6.16c-.42-.63-.26-1.47.37-1.9l6.16-4.17c.63-.42 1.47-.26 1.9.37l4.17 6.16c.42.63.26 1.48-.37 1.9z"/><path class="st4" d="M108.82 19.88c1.08 1.59.66 3.76-.93 4.84a3.488 3.488 0 0 1-4.84-.93 3.488 3.488 0 0 1 .93-4.84 3.488 3.488 0 0 1 4.84.93z"/><path class="st21" d="m104.78 20.4 1.43 1.56c.1.11.1.29-.02.4-.11.1-.29.1-.4-.02-.02-.02-.03-.04-.04-.06l-.97-1.88z"/><path class="st21" d="m105.87 21.98 2.16-1.21-1.88 1.6c-.1.09-.25.07-.34-.03-.09-.1-.07-.25.03-.34.01-.01.02-.02.03-.02z"/></g><path class="st7" d="M27.59 34.89h-13.2c-2.05 0-3.71-1.66-3.71-3.71v-3.31c0-2.05 1.66-3.71 3.71-3.71h13.2c2.05 0 3.71 1.66 3.71 3.71v3.31a3.715 3.715 0 0 1-3.71 3.71z"/><path class="st7" d="m28.85 30.85 5.07 2.27-3.4-4.75z"/><g><path class="st4" d="M17.55 29.19c0 .44-.4.79-.89.79s-.89-.35-.89-.79c0-.44.4-.79.89-.79s.89.35.89.79zM21.68 29.19c0 .44-.4.79-.89.79s-.89-.35-.89-.79c0-.44.4-.79.89-.79s.89.35.89.79zM25.82 29.19c0 .44-.4.79-.89.79s-.89-.35-.89-.79c0-.44.4-.79.89-.79s.89.35.89.79z"/></g><g><path class="st7" d="m117.29 11.96-.84-1.78.7-.32.47 1.01 1.16-.7.4.65z"/></g><g><path class="st5" d="m28.86 14.57-1.86.66-.26-.72 1.06-.37-.59-1.22.69-.34z"/></g><g><path class="st3" d="M148.97 6.97c2.02 3.08-.73 7.36-4.32 6.72-.65-.11-1.32.03-1.9.39l-1.99 1.22c-.55.34-1.24.19-1.58-.34l-.76-1.17c-.35-.53-.23-1.26.26-1.68 1.8-1.54 2.56-1.97 2.8-3.26.71-3.77 5.47-4.97 7.49-1.88z"/><path d="M144.23 8.66c-.04-.17-.08-.36-.09-.54-.09-1.08.74-1.45 1.18-1.17.28.18.39.59.23.98-.15.35-.46.61-.78.88.17.6.44 1.15.8 1.64.98-.59 1.68-.27 1.73.27.03.34-.19.7-.52.84-.2.09-.71.21-1.32-.47-1.66 1.17-3.82 2.9-3.83 2.9l-.27-.38c.01-.01 2.16-1.72 3.81-2.89-.34-.47-.61-1-.79-1.56-1.89 1.65-3.56 2.95-3.61 3l-.27-.38c.11-.1 1.72-1.35 3.73-3.12zm.8-1.31c-.15-.06-.54.11-.38.95.44-.39.57-.56.38-.95zm.85 3.47c.24.25.61.48.85.21.31-.35-.14-.61-.85-.21z" style="fill:#eef9fe"/><path class="st6" d="M142.81 14.05c-.02.01-.03.02-.05.03l-1.99 1.22c-.55.34-1.24.19-1.58-.34l-.76-1.17c-.35-.53-.23-1.26.26-1.68.8-.68 1.39-1.15 1.83-1.57l2.29 3.51z"/><path class="st3" d="M142.26.78c.16.5.31 1 .47 1.49.12.39.21 1.02.59 1.24.09.05.25.03.3-.08.19-.42-.08-.95-.21-1.35-.16-.5-.32-.99-.48-1.49-.14-.42-.81-.24-.67.19zM147.53.24c-.81 2.75-.81 2.67-.76 2.95.05.22.35.28.49.13.19-.19.14-.14.92-2.9.13-.42-.53-.6-.65-.18zM150.61 6.37c.48-.23.95-.46 1.43-.68.42-.2.97-.36 1.26-.75.13-.17-.05-.39-.23-.4-.47-.01-.97.35-1.38.55-.47.23-.95.46-1.42.69-.41.19-.06.78.34.59z"/><g><path class="st3" d="M149.05 14.64c.49.63.98 1.27 1.53 1.85.3.31.73-.14.46-.46-.51-.61-1.04-1.21-1.53-1.84-.26-.34-.71.12-.46.45z"/></g><g><path class="st3" d="M150.84 11.43c.44.19.89.37 1.33.55.41.16.89.45 1.34.38.23-.03.26-.35.13-.49-.17-.18-.25-.17-1.23-.54-.44-.17-.87-.35-1.31-.51-.35-.14-.61.46-.26.61z"/></g></g></g></svg>