<svg width="28" height="38" viewBox="0 0 28 38" fill="none" xmlns="http://www.w3.org/2000/svg">
<g id="exp-1 (1) 1" clip-path="url(#clip0_475_3976)">
<g id="Group">
<path id="Vector" d="M14.5298 0C14.9488 0.223321 15.3424 0.516828 15.7868 0.650821C16.2439 0.791194 16.7708 0.899664 17.2279 0.823097C18.4849 0.599776 19.4689 0.937948 20.1799 2.00351C20.5418 2.54586 21.0243 2.81384 21.6782 2.89679C22.8463 3.03716 23.6652 3.79646 23.9128 4.95134C24.0525 5.59578 24.3699 6.05519 24.9413 6.36146C26.0459 6.95485 26.503 7.90556 26.3443 9.13702C26.2554 9.80698 26.4205 10.3621 26.8585 10.8853C27.633 11.8169 27.7155 12.8697 27.1188 13.9225C26.7823 14.5222 26.7442 15.0901 26.9601 15.7346C27.3473 16.8894 27.0616 17.904 26.1284 18.6632C25.5698 19.1227 25.3412 19.665 25.3095 20.3669C25.2523 21.5218 24.6429 22.2938 23.5636 22.6958C22.4019 23.1297 22.4019 23.136 22.8844 24.3101C23.6271 26.1094 24.3636 27.9087 25.1127 29.7017C25.3412 30.244 25.4491 30.78 25.0047 31.2585C24.5604 31.7435 24.0334 31.686 23.4684 31.501C22.7256 31.2585 21.9575 31.0927 21.2401 30.8119C20.7259 30.6077 20.5164 30.78 20.3132 31.2139C19.9895 31.8966 19.5895 32.5474 19.2594 33.2302C18.9864 33.798 18.6309 34.2319 17.9516 34.1872C17.2723 34.1426 16.9993 33.6449 16.7708 33.0706C15.9582 31.0544 15.1202 29.0509 14.2885 27.0474C14.2187 26.8878 14.1425 26.7283 14.0092 26.4412C13.7045 27.1558 13.4442 27.762 13.1903 28.3745C12.5427 29.9378 11.8888 31.4946 11.2603 33.0706C11.0318 33.6449 10.7588 34.1426 10.0795 34.1872C9.40023 34.2319 9.04472 33.798 8.77173 33.2302C8.44161 32.5474 8.04801 31.8966 7.71789 31.2139C7.50839 30.78 7.29889 30.6077 6.78467 30.8119C6.03555 31.1054 5.24834 31.2777 4.48017 31.5202C3.92786 31.7052 3.41998 31.7243 3.00733 31.2649C2.59468 30.8119 2.65817 30.3078 2.87401 29.7782C3.68027 27.8449 4.44843 25.8925 5.28643 23.9719C5.54037 23.3849 5.43244 23.0212 4.86743 22.8617C3.37554 22.4342 2.69626 21.4643 2.62642 19.9202C2.60738 19.5119 2.24552 19.0461 1.9154 18.7398C0.975825 17.8721 0.652053 16.8703 1.0647 15.6644C1.28055 15.0391 1.20437 14.4967 0.880598 13.9288C0.290191 12.8697 0.372721 11.8296 1.14088 10.8917C1.55353 10.3876 1.75034 9.87078 1.65511 9.21996C1.471 7.9247 1.97888 6.99952 3.09621 6.29765C3.51521 6.03605 3.88342 5.50646 4.03578 5.02153C4.43574 3.77093 5.13407 3.13287 6.39106 2.85213C6.90529 2.73728 7.4703 2.39272 7.79407 1.98437C8.58763 0.982612 9.5145 0.625299 10.7715 0.816716C11.2921 0.893284 11.8698 0.676343 12.4031 0.523209C12.7776 0.414739 13.1204 0.178657 13.4759 0C13.8251 0 14.1743 0 14.5298 0ZM19.3102 24.5398C20.3259 24.6419 20.9481 24.259 21.2909 23.4423C21.6337 22.6192 22.2114 22.0769 23.0621 21.8153C23.9128 21.5537 24.3382 20.9603 24.3445 20.067C24.3509 19.2311 24.6873 18.542 25.3349 18.0316C26.0522 17.4637 26.2998 16.7746 25.9697 15.8941C25.6713 15.0901 25.7475 14.2989 26.1856 13.5588C26.6426 12.7867 26.5728 12.0785 25.9824 11.4021C25.4174 10.7577 25.2079 10.0048 25.3476 9.14978C25.4936 8.23735 25.2269 7.67586 24.3889 7.21007C23.6335 6.78896 23.151 6.18918 22.9859 5.34056C22.8145 4.46004 22.2686 3.95597 21.3988 3.85388C20.5037 3.75179 19.8434 3.33067 19.361 2.58414C18.9102 1.89504 18.2881 1.61429 17.4818 1.81847C16.5676 2.05455 15.7487 1.9078 14.9805 1.34631C14.3711 0.899664 13.6918 0.874142 13.076 1.3144C12.2824 1.88866 11.4444 2.06093 10.5049 1.81847C9.73035 1.61429 9.10185 1.8759 8.67651 2.5331C8.17498 3.30515 7.50839 3.75179 6.58786 3.85388C5.8197 3.93683 5.23564 4.34519 5.07693 5.13C4.87378 6.15728 4.31511 6.84 3.40728 7.33131C2.77879 7.66948 2.49311 8.2884 2.62642 9.00302C2.81053 9.94735 2.57564 10.7513 1.95984 11.4659C1.41387 12.0976 1.36308 12.7803 1.78208 13.495C2.23282 14.2606 2.3217 15.0646 2.01697 15.9004C1.7059 16.7491 1.9154 17.4318 2.61373 17.9805C3.28666 18.5101 3.64218 19.2056 3.64853 20.0734C3.65487 20.9284 4.04848 21.5281 4.87378 21.7834C5.74987 22.0577 6.35297 22.5937 6.70848 23.4487C7.03226 24.2335 7.63536 24.6163 8.49875 24.5462C9.34944 24.4824 10.0922 24.7312 10.6763 25.3693C11.3111 26.0584 12.0348 26.1668 12.8665 25.7712C13.6156 25.4139 14.3774 25.4203 15.1265 25.7776C15.9582 26.1732 16.6819 26.0456 17.3104 25.3629C17.8881 24.744 18.6118 24.5143 19.3102 24.5398ZM21.8813 24.527C21.1131 25.3948 20.1799 25.6117 19.1197 25.5734C18.7896 25.5607 18.3643 25.7649 18.1294 26.0137C17.3739 26.7921 16.4978 27.1431 15.3297 26.9835C16.2121 29.1147 17.0565 31.1628 17.9072 33.2046C17.9833 33.1982 18.0532 33.1982 18.1294 33.1919C18.542 32.4262 18.9547 31.6541 19.361 30.8885C20.0593 29.5741 20.2878 29.4847 21.6782 29.9186C22.5225 30.1802 23.3732 30.4227 24.4397 30.7353C23.5319 28.5404 22.7193 26.5752 21.8813 24.527ZM3.566 30.7417C4.64523 30.4227 5.50228 30.1738 6.35297 29.9122C7.70519 29.4911 7.95913 29.5868 8.62572 30.8438C9.04472 31.635 9.47006 32.4198 9.88906 33.2046C9.95889 33.2046 10.0351 33.1982 10.1049 33.1982C10.9493 31.1501 11.7936 29.1083 12.676 26.9772C11.5079 27.1431 10.6509 26.8113 9.90811 26.052C9.66687 25.8031 9.25422 25.5734 8.93044 25.5862C7.85755 25.6181 6.89894 25.4331 6.12442 24.527C5.26738 26.5943 4.46113 28.5596 3.566 30.7417Z" fill="white"/>
<path id="Vector_2" d="M14.0091 6.03613C14.4218 6.48277 14.79 6.73162 14.936 7.07617C15.3423 8.02688 15.6787 9.00311 16.0089 9.98572C16.1612 10.4387 16.3453 10.6748 16.8913 10.6621C17.9198 10.6429 18.9609 10.6876 19.983 10.8088C20.3449 10.8535 20.7956 11.1087 20.9861 11.4086C21.2463 11.8233 21.0305 12.2764 20.6178 12.5954C19.7799 13.2462 18.9609 13.9226 18.1166 14.5542C17.7674 14.8158 17.6468 15.0519 17.7991 15.5049C18.1229 16.4876 18.3514 17.5021 18.6498 18.4911C18.8085 19.0079 18.7831 19.4481 18.3261 19.7736C17.8626 20.1053 17.4373 19.9331 17.0119 19.6332C16.2057 19.0653 15.374 18.5485 14.5805 17.9679C14.1805 17.6743 13.8821 17.6297 13.4568 17.9487C12.6505 18.5549 11.7871 19.0781 10.9618 19.6587C10.5301 19.9586 10.0286 20.1436 9.6731 19.7289C9.43186 19.4481 9.31759 18.9058 9.38742 18.5293C9.58422 17.5148 9.87625 16.5195 10.2064 15.5368C10.3714 15.0519 10.2381 14.8031 9.86356 14.5287C9.07 13.9481 8.32088 13.3036 7.54002 12.7166C7.09563 12.3848 6.80995 11.9956 7.0004 11.4277C7.17816 10.879 7.6289 10.7897 8.14947 10.7833C9.15888 10.7642 10.1619 10.6684 11.165 10.6684C11.6157 10.6684 11.8316 10.5153 11.9712 10.1006C12.3077 9.09882 12.6442 8.09069 13.0632 7.12083C13.2092 6.74438 13.5965 6.48277 14.0091 6.03613ZM17.7103 18.8803C17.3611 17.6361 17.1071 16.5641 16.758 15.5241C16.5167 14.7967 16.7008 14.3118 17.304 13.9034C17.7166 13.6227 18.1039 13.2845 18.4975 12.9718C18.9482 12.6081 19.3989 12.2445 19.8497 11.8808C19.8243 11.8042 19.7989 11.734 19.7735 11.6574C18.7197 11.6574 17.6658 11.6383 16.6183 11.6638C15.8121 11.683 15.374 11.3001 15.1328 10.5536C14.8027 9.53908 14.4154 8.54371 13.9964 7.38244C13.5838 8.49904 13.2346 9.44337 12.8918 10.3877C12.4728 11.549 12.4093 11.6192 11.1586 11.6574C10.1683 11.6893 9.17792 11.6638 8.18756 11.6638C8.17486 11.7404 8.15582 11.8233 8.14312 11.8999C9.02556 12.5954 9.90165 13.3036 10.7968 13.9864C11.311 14.3756 11.457 14.8095 11.2539 15.4348C10.9111 16.5067 10.6381 17.5978 10.2826 18.8803C11.3554 18.1529 12.276 17.5595 13.1648 16.9151C13.7361 16.5003 14.2376 16.4876 14.809 16.9087C15.7105 17.5595 16.6374 18.1529 17.7103 18.8803Z" fill="white"/>
<path id="Vector_3" d="M14.016 23.5061C9.06422 23.5125 4.88693 19.9075 4.1759 14.9689C4.14416 14.7328 4.36636 14.2862 4.55046 14.2351C5.0012 14.1075 5.09643 14.5095 5.15991 14.886C5.8265 18.8036 8.65792 21.6941 12.486 22.3768C17.3363 23.2445 22.0405 19.8883 22.834 14.9817C22.8975 14.5924 22.9229 14.133 23.4371 14.2096C23.9958 14.2926 23.8879 14.7392 23.8117 15.1667C22.9039 20.0798 18.898 23.4998 14.016 23.5061Z" fill="white"/>
<path id="Vector_4" d="M13.9777 3.50294C18.9232 3.49656 23.0687 7.07607 23.8178 12.0338C23.8559 12.2635 23.6528 12.7101 23.4687 12.7676C23.0179 12.9143 22.91 12.5251 22.8402 12.1423C22.1926 8.37134 19.5009 5.49369 15.8949 4.71525C10.867 3.63055 5.99135 6.97398 5.15335 12.0912C5.147 12.1423 5.16605 12.2125 5.14065 12.238C4.93116 12.4294 4.70896 12.6081 4.49311 12.7931C4.37884 12.557 4.1376 12.3018 4.16299 12.0785C4.81053 7.20369 9.0513 3.5157 13.9777 3.50294Z" fill="white"/>
</g>
</g>
<defs>
<clipPath id="clip0_475_3976">
<rect width="27" height="37.8" fill="white" transform="translate(0.5)"/>
</clipPath>
</defs>
</svg>
