<svg xmlns="http://www.w3.org/2000/svg" xmlns:xlink="http://www.w3.org/1999/xlink" width="100" height="100" viewBox="0 0 100 100">
  <defs>
    <clipPath id="clip-path">
      <rect id="Rectangle_10477" data-name="Rectangle 10477" width="71" height="72" fill="#fff"/>
    </clipPath>
  </defs>
  <g id="one_platform" data-name="one platform" transform="translate(913 -8890)">
    <g id="Rectangle_10476" data-name="Rectangle 10476" transform="translate(-913 8890)" fill="#fff" stroke="#707070" stroke-width="1" opacity="0">
      <rect width="100" height="100" stroke="none"/>
      <rect x="0.5" y="0.5" width="99" height="99" fill="none"/>
    </g>
    <g id="choose-3_2" data-name="choose-3 2" transform="translate(-898 8904)" clip-path="url(#clip-path)">
      <g id="Group">
        <g id="Group_2">
          <g id="Group_3">
            <path id="Vector" d="M23.6,41.328a12.847,12.847,0,0,1-.849,4.708,10.838,10.838,0,0,1-6.119,6.233,12.566,12.566,0,0,1-4.828.9,12.6,12.6,0,0,1-4.828-.9,11.127,11.127,0,0,1-3.734-2.482,10.933,10.933,0,0,1-2.4-3.751A13.041,13.041,0,0,1,0,41.328a12.759,12.759,0,0,1,.849-4.7,10.982,10.982,0,0,1,2.4-3.742,11.267,11.267,0,0,1,3.734-2.482,12.563,12.563,0,0,1,4.828-.9,12.6,12.6,0,0,1,4.828.9A10.969,10.969,0,0,1,20.367,32.9a11.143,11.143,0,0,1,2.395,3.751A12.851,12.851,0,0,1,23.6,41.328Zm-4.875,0a10.245,10.245,0,0,0-.481-3.259,6.826,6.826,0,0,0-1.377-2.453,5.8,5.8,0,0,0-2.178-1.544,7.375,7.375,0,0,0-2.895-.53,7.631,7.631,0,0,0-2.9.53,5.9,5.9,0,0,0-2.178,1.544A7.053,7.053,0,0,0,5.337,38.07a11.345,11.345,0,0,0,0,6.536,6.7,6.7,0,0,0,1.377,2.444,5.849,5.849,0,0,0,2.178,1.535,7.455,7.455,0,0,0,2.9.53,7.548,7.548,0,0,0,2.895-.53,6.157,6.157,0,0,0,2.178-1.535,7.008,7.008,0,0,0,1.377-2.444A10.367,10.367,0,0,0,18.726,41.328Z" fill="#ef5da8"/>
            <path id="Vector_2" d="M46.815,29.763V52.894H44.354a2.134,2.134,0,0,1-.933-.18,2.32,2.32,0,0,1-.745-.625L31.2,37.416c.028.369.057.739.076,1.1s.028.7.028,1V52.894H27.1V29.763h2.508a4.053,4.053,0,0,1,.519.028,1.227,1.227,0,0,1,.387.114,1.472,1.472,0,0,1,.33.227,3.571,3.571,0,0,1,.349.379l11.55,14.73c-.038-.407-.076-.8-.094-1.175s-.028-.739-.028-1.08V29.763Z" fill="#ef5da8"/>
            <path id="Vector_3" d="M56.432,33.514v5.949h7.685v3.618H56.432v6.072H66.3V52.9H51.643V29.763H66.3v3.751Z" fill="#ef5da8"/>
          </g>
        </g>
        <path id="Vector_4" d="M69.095,57.535h-9.4V54.429a1.917,1.917,0,0,0-1.16-1.762,1.936,1.936,0,0,0-.745-.152H51.859a.957.957,0,0,0,0,1.913H57.79v3.107H17.49V54.429H47.342a.957.957,0,0,0,0-1.913H44.514l.141-.142-6.11-6.138V24.619h.566a2.049,2.049,0,0,0,2.046-2.056v-5.2a2.049,2.049,0,0,0-2.046-2.056H35.716a2.049,2.049,0,0,0-2.046,2.056v5.2a2.049,2.049,0,0,0,2.046,2.056h.566V46.036l-6.308,6.337.142.142H17.49a1.91,1.91,0,0,0-1.9,1.913v3.107H11.8v1.913H69.1V70.087H5.685V59.449h3.1a.957.957,0,0,0,0-1.913h-3.1a1.916,1.916,0,0,0-.905.227,1.57,1.57,0,0,0-.3.208,1.891,1.891,0,0,0-.368.407,1.864,1.864,0,0,0-.311.871,1.4,1.4,0,0,0-.009.2V70.087A1.91,1.91,0,0,0,5.695,72H69.1a1.91,1.91,0,0,0,1.9-1.913V59.449A1.924,1.924,0,0,0,69.095,57.535Zm-27-5.011H38.536V48.944ZM35.764,21.8V18.6a1.1,1.1,0,0,1,1.094-1.1h1.462a1.1,1.1,0,0,1,1.094,1.1V21.8a1.1,1.1,0,0,1-1.094,1.1H36.857A1.1,1.1,0,0,1,35.764,21.8Zm.519,26.949v3.78H32.529Z" fill="#fff" stroke="#fff" stroke-miterlimit="10" stroke-width="4"/>
        <g id="Group_4">
          <path id="Vector_5" d="M26.241,15.554,17.4,8.534a.737.737,0,0,0-.189-.1l1.32-1.345c.67-.568,0-1.4,0-1.4l-1.5-1.667c-.933-.938-2.329,0-2.329,0L11.645.89A1.972,1.972,0,0,0,9.523.483L7.788,1.724,6.685.331,5.733,1.2,7.015,2.709l-.99,1.1A2.127,2.127,0,0,0,5.733,6L9.4,9.747l-.311.313c-.632.208-.415,1.4-.415,1.4l1.763,1.98c.519.568,1.848,0,1.848,0l1.339-1.364c.009.01.009.019.019.028L20.6,21.019a.747.747,0,1,0,1.179-.919L14.86,11.168a.732.732,0,0,0-.179-.161l1.537-1.563a.777.777,0,0,0,.226.3l8.873,6.991a.746.746,0,0,0,1.047-.123A.764.764,0,0,0,26.241,15.554ZM7.175,5.5a.716.716,0,0,1,.1-1.07L9.391,2.311a1.163,1.163,0,0,1,1.622-.227l2.9,3.022-3.6,3.685Zm4.875,6.318c-.528.682-.82.388-.82.388l-.905-.881c-.387-.559.245-.966.245-.966l5.2-5.229c.321-.322.528-.1.528-.1l.981.985a.5.5,0,0,1-.141.53Z" fill="#ef5da8"/>
          <g id="Group_5">
            <g id="Group_6">
              <path id="Vector_6" d="M67.832,2.273l1.4-1.118L68.351.189l-1.518,1.3-1.1-1a2.122,2.122,0,0,0-2.2-.3L59.761,3.9,59.45,3.58c-.207-.635-1.414-.417-1.414-.417l-1.989,1.79c-.575.53,0,1.876,0,1.876l1.377,1.364c-.009.009-.019.009-.028.019L55.1,10.022l1,1.175,2.244-1.752a.58.58,0,0,0,.16-.18l1.575,1.563a.711.711,0,0,0-.3.227l-7.034,9.008a.764.764,0,0,0,.123,1.061A.756.756,0,0,0,53.924,21l7.062-8.98a.536.536,0,0,0,.1-.189l1.348,1.345c.575.682,1.414,0,1.414,0l1.678-1.525c.943-.947,0-2.368,0-2.368L68.68,6.176a2.033,2.033,0,0,0,.415-2.16ZM64.5,10.922l-.99.995a.516.516,0,0,1-.537-.142l-5.3-5.181c-.679-.54-.4-.834-.4-.834l.886-.919c.556-.4.971.246.971.246L64.4,10.372C64.72,10.7,64.5,10.922,64.5,10.922Zm2.961-5.38L64.419,8.5,60.713,4.831l3.31-3.183a.712.712,0,0,1,1.075.1l2.131,2.141A1.186,1.186,0,0,1,67.464,5.541Z" fill="#ef5da8"/>
            </g>
            <path id="Vector_7" d="M49.342,16.472l4.026-3.192a.767.767,0,0,0-.952-1.2l-4.007,3.2a.758.758,0,0,0,.933,1.194Z" fill="#ef5da8"/>
          </g>
        </g>
        <path id="Vector_8" d="M41.28,4.026s-1.7,4.054-4.328,4.784c0,0,3.536,1.392,4.215,4.746,0,0,.226-4.282,4.469-4.746C45.636,8.819,40.714,8.279,41.28,4.026Zm-.32,6.82A3.122,3.122,0,0,0,39.14,8.8c1.131-.322,1.867-2.065,1.867-2.065C40.761,8.572,42.883,8.8,42.883,8.8A2.179,2.179,0,0,0,40.959,10.846Z" fill="#702a85"/>
        <path id="Vector_9" d="M6.1,20.337s-.971,2.8-2.716,3a4.55,4.55,0,0,1,2.65,2.974,3.173,3.173,0,0,1,2.81-2.974A3.005,3.005,0,0,1,6.1,20.337Zm-.207,4.281A1.984,1.984,0,0,0,4.752,23.33c.717-.2,1.169-1.3,1.169-1.3C5.77,23.188,7.1,23.33,7.1,23.33A1.378,1.378,0,0,0,5.893,24.619Z" fill="#702a85"/>
        <path id="Vector_10" d="M63.051,21.3s-.971,2.8-2.716,3a4.55,4.55,0,0,1,2.65,2.974,3.173,3.173,0,0,1,2.81-2.974A3.005,3.005,0,0,1,63.051,21.3Zm-.207,4.281A1.984,1.984,0,0,0,61.7,24.3c.717-.2,1.169-1.3,1.169-1.3-.151,1.156,1.179,1.3,1.179,1.3A1.384,1.384,0,0,0,62.844,25.585Z" fill="#702a85"/>
        <g id="Group_7">
          <g id="Group_8">
            <g id="Group_9">
              <g id="Group_10">
                <path id="Vector_11" d="M14.247,61.021a4.138,4.138,0,0,1,1.311.18,2.455,2.455,0,0,1,.905.5,1.933,1.933,0,0,1,.528.758,2.843,2.843,0,0,1-.009,1.961,2.163,2.163,0,0,1-.538.786,2.593,2.593,0,0,1-.915.511,4.034,4.034,0,0,1-1.282.18h-.962v2.548H11.758V61.031h2.489Zm0,3.685a1.357,1.357,0,0,0,1.047-.351,1.289,1.289,0,0,0,.33-.947,1.437,1.437,0,0,0-.085-.5.994.994,0,0,0-.255-.388,1.134,1.134,0,0,0-.434-.246,1.956,1.956,0,0,0-.613-.085h-.962v2.52Z" fill="#702a85"/>
              </g>
            </g>
            <g id="Group_11">
              <g id="Group_12">
                <path id="Vector_12" d="M22.517,67.188v1.25H18.142V61.021h1.528v6.167Z" fill="#702a85"/>
              </g>
            </g>
            <g id="Group_13">
              <g id="Group_14">
                <path id="Vector_13" d="M29.909,68.438H28.721a.5.5,0,0,1-.321-.095.615.615,0,0,1-.188-.246l-.5-1.411H24.77l-.5,1.411a.686.686,0,0,1-.179.237.453.453,0,0,1-.321.1h-1.2l2.885-7.417h1.565Zm-2.565-2.823-.8-2.273c-.047-.123-.094-.256-.151-.417s-.1-.332-.151-.521c-.047.189-.094.369-.151.53s-.1.3-.151.417l-.792,2.254h2.2Z" fill="#702a85"/>
              </g>
            </g>
            <g id="Group_15">
              <g id="Group_16">
                <path id="Vector_14" d="M35.085,62.253H32.926v6.176H31.4V62.253H29.239V61.012h5.846Z" fill="#702a85"/>
              </g>
            </g>
            <g id="Group_17">
              <g id="Group_18">
                <path id="Vector_15" d="M37.546,62.224V64.27H40.2v1.2H37.546v2.955H36.009V61.012h4.7v1.2H37.546Z" fill="#702a85"/>
              </g>
            </g>
            <g id="Group_19">
              <g id="Group_20">
                <path id="Vector_16" d="M48.833,64.725a4.15,4.15,0,0,1-.273,1.506,3.535,3.535,0,0,1-.764,1.2,3.454,3.454,0,0,1-1.188.8,4.349,4.349,0,0,1-3.093,0,3.494,3.494,0,0,1-1.2-.8,3.708,3.708,0,0,1-.773-1.2,4.285,4.285,0,0,1,0-3.012,3.5,3.5,0,0,1,1.971-2,4.349,4.349,0,0,1,3.093,0,3.456,3.456,0,0,1,1.188.8,3.535,3.535,0,0,1,.764,1.2A4.15,4.15,0,0,1,48.833,64.725Zm-1.565,0a3.232,3.232,0,0,0-.151-1.042,2.135,2.135,0,0,0-.443-.786,1.839,1.839,0,0,0-.7-.493,2.615,2.615,0,0,0-1.858,0,1.838,1.838,0,0,0-.7.493,2.366,2.366,0,0,0-.443.786,3.271,3.271,0,0,0-.151,1.042,3.332,3.332,0,0,0,.151,1.051,2.135,2.135,0,0,0,.443.786,1.838,1.838,0,0,0,.7.493,2.412,2.412,0,0,0,.933.171,2.332,2.332,0,0,0,.924-.171,1.839,1.839,0,0,0,.7-.493,2.277,2.277,0,0,0,.443-.786A3.332,3.332,0,0,0,47.267,64.725Z" fill="#702a85"/>
              </g>
            </g>
            <g id="Group_21">
              <g id="Group_22">
                <path id="Vector_17" d="M55.838,68.438H54.461a.59.59,0,0,1-.556-.294l-1.4-2.273a.6.6,0,0,0-.189-.189A.649.649,0,0,0,52,65.625h-.519v2.823H49.954V61.031h2.319a4.838,4.838,0,0,1,1.32.161,2.534,2.534,0,0,1,.905.445,1.626,1.626,0,0,1,.509.682,2.387,2.387,0,0,1,.16.871,2.471,2.471,0,0,1-.1.7,1.976,1.976,0,0,1-.3.6,2.167,2.167,0,0,1-.49.483,2.42,2.42,0,0,1-.66.341,1.828,1.828,0,0,1,.274.2,1.3,1.3,0,0,1,.226.275Zm-3.583-3.912a1.867,1.867,0,0,0,.641-.095,1.2,1.2,0,0,0,.443-.265,1.069,1.069,0,0,0,.255-.388,1.385,1.385,0,0,0,.085-.493.985.985,0,0,0-.349-.815,1.6,1.6,0,0,0-1.056-.294h-.792v2.349Z" fill="#702a85"/>
              </g>
            </g>
            <g id="Group_23">
              <g id="Group_24">
                <path id="Vector_18" d="M64.692,61.021v7.417H63.343V63.882c0-.095,0-.2.01-.3s.019-.218.028-.332l-2.112,4.026a.57.57,0,0,1-.537.332h-.217a.546.546,0,0,1-.311-.085.613.613,0,0,1-.217-.246l-2.122-4.035q.014.185.028.341c.009.114.009.218.009.313v4.556H56.555V61.031h1.16a.911.911,0,0,1,.17.009.3.3,0,0,1,.132.028.268.268,0,0,1,.1.076.533.533,0,0,1,.094.133l2.065,3.96c.066.123.123.246.179.369s.113.256.16.388c.047-.133.1-.265.16-.4a3.346,3.346,0,0,1,.179-.369L63,61.286a.531.531,0,0,1,.094-.133.47.47,0,0,1,.113-.076.3.3,0,0,1,.132-.028c.047,0,.1-.01.179-.01h1.169Z" fill="#702a85"/>
              </g>
            </g>
          </g>
        </g>
        <path id="Vector_19" d="M69.095,57.535h-9.4V54.429a1.917,1.917,0,0,0-1.16-1.762,1.936,1.936,0,0,0-.745-.152H51.859a.957.957,0,0,0,0,1.913H57.79v3.107H17.49V54.429H47.342a.957.957,0,0,0,0-1.913H44.514l.141-.142-6.11-6.138V24.619h.566a2.049,2.049,0,0,0,2.046-2.056v-5.2a2.049,2.049,0,0,0-2.046-2.056H35.716a2.049,2.049,0,0,0-2.046,2.056v5.2a2.049,2.049,0,0,0,2.046,2.056h.566V46.036l-6.308,6.337.142.142H17.49a1.91,1.91,0,0,0-1.9,1.913v3.107H11.8v1.913H69.1V70.087H5.685V59.449h3.1a.957.957,0,0,0,0-1.913h-3.1a1.916,1.916,0,0,0-.905.227,1.57,1.57,0,0,0-.3.208,1.891,1.891,0,0,0-.368.407,1.864,1.864,0,0,0-.311.871,1.4,1.4,0,0,0-.009.2V70.087A1.91,1.91,0,0,0,5.695,72H69.1a1.91,1.91,0,0,0,1.9-1.913V59.449A1.924,1.924,0,0,0,69.095,57.535Zm-27-5.011H38.536V48.944ZM35.764,21.8V18.6a1.1,1.1,0,0,1,1.094-1.1h1.462a1.1,1.1,0,0,1,1.094,1.1V21.8a1.1,1.1,0,0,1-1.094,1.1H36.857A1.1,1.1,0,0,1,35.764,21.8Zm.519,26.949v3.78H32.529Z" fill="#702a85"/>
      </g>
    </g>
  </g>
</svg>
