<svg width="34" height="31" viewBox="0 0 34 31" fill="none" xmlns="http://www.w3.org/2000/svg">
<g id="exp-4 2" clip-path="url(#clip0_475_4012)">
<g id="Group">
<path id="Vector" d="M6.74911 30.2288C6.30357 28.7517 6.38184 28.6509 7.82684 28.645C8.03154 28.645 8.23625 28.645 8.50719 28.645C8.52525 28.378 8.55535 28.1467 8.55535 27.9153C8.56137 25.3587 8.55535 22.8021 8.56137 20.2454C8.56137 19.1124 8.97079 18.6913 10.1208 18.7031C10.5543 18.7091 10.8312 18.5964 11.0961 18.2286C12.0294 16.9414 13.3178 16.1406 14.8832 15.8025C15.1843 15.7372 15.5997 15.8321 15.8526 16.0041C17.3457 17.0244 19.1339 17.0244 20.597 16.0041C20.8498 15.8262 21.2653 15.7313 21.5663 15.7965C23.1498 16.1287 24.4503 16.9473 25.3955 18.2523C25.6484 18.6023 25.9193 18.7387 26.3288 18.6972C26.4973 18.6794 26.6659 18.6913 26.8345 18.6972C27.7978 18.7209 28.2494 19.148 28.2554 20.0971C28.2614 22.6894 28.2554 25.2816 28.2554 27.8738C28.2554 28.1111 28.2554 28.3424 28.2554 28.639C28.7672 28.639 29.1947 28.6331 29.6221 28.639C30.2363 28.645 30.3567 28.7695 30.2844 29.3627C30.2543 29.6297 30.17 29.8966 30.0978 30.2169C30.9648 30.2169 31.8077 30.2051 32.6506 30.2228C32.9757 30.2288 33.4815 30.0627 33.4995 30.5847C33.5176 31.1423 32.9938 30.9584 32.6807 30.9643C22.9631 30.9703 13.2395 30.9703 3.52196 30.9703C2.76936 30.9703 2.01676 30.9821 1.26416 30.9643C0.957104 30.9703 0.481461 31.1186 0.499523 30.5966C0.517586 30.1101 0.981187 30.2347 1.30029 30.2288C2.8958 30.2228 4.49733 30.2228 6.09285 30.2228C6.29755 30.2288 6.50226 30.2288 6.74911 30.2288ZM18.3753 29.0543C21.1388 29.0543 23.9024 29.0543 26.6659 29.0543C27.4005 29.0543 27.4848 28.9653 27.4908 28.2653C27.4908 25.6197 27.4908 22.9682 27.4908 20.3225C27.4908 19.5395 27.4125 19.4624 26.6178 19.4624C21.1448 19.4624 15.678 19.4624 10.2051 19.4624C9.40429 19.4624 9.32602 19.5395 9.32602 20.3166C9.31999 22.9444 9.31999 25.5782 9.32602 28.206C9.32602 28.9831 9.40429 29.0543 10.2051 29.0543C12.9204 29.0543 15.6479 29.0543 18.3753 29.0543ZM24.667 18.6616C24.1131 17.7362 22.9089 16.9117 21.6386 16.6092C21.4037 16.5558 21.0786 16.6033 20.8739 16.7338C19.176 17.8074 17.2554 17.8193 15.5696 16.7278C15.4311 16.6388 15.2565 16.5024 15.1301 16.5321C13.7694 16.8168 12.6495 17.4871 11.7283 18.6616C16.0934 18.6616 20.3501 18.6616 24.667 18.6616ZM29.5378 29.339C28.8876 29.4102 28.3517 29.4458 27.8279 29.5348C27.4847 29.5881 27.1536 29.7958 26.8164 29.7958C21.2171 29.8135 15.6117 29.8076 10.0064 29.8017C9.73543 29.8017 9.40429 29.7839 9.19356 29.6415C8.5975 29.2382 7.9894 29.4695 7.32711 29.4161C7.54988 30.1398 8.04359 30.2347 8.6276 30.2347C15.1542 30.2288 21.6747 30.2288 28.2012 30.2288C28.3337 30.2288 28.4661 30.2347 28.5986 30.2228C29.0562 30.1754 29.3392 29.9322 29.5378 29.339Z" fill="white"/>
<path id="Vector_2" d="M21.8551 9.05791C21.2049 9.18248 20.675 9.31891 20.1332 9.38416C19.0013 9.52059 17.9356 9.27739 16.9241 8.76131C16.2197 8.39947 15.4851 8.28083 14.8349 8.89181C14.7024 9.01638 14.588 9.22993 14.576 9.40789C14.5097 10.4697 14.5639 11.5196 15.0035 12.5162C15.1178 12.7772 15.2563 13.0797 14.883 13.228C14.4736 13.3882 14.3472 13.0323 14.2749 12.7594C14.1545 12.3026 13.8836 12.2315 13.4802 12.3501C13.6428 13.2814 14.6723 14.0822 15.5453 13.928C15.6718 13.9043 15.7862 13.7085 15.8704 13.5661C16.0992 13.1806 16.6592 13.0145 17.2251 13.1806C17.6285 13.2992 17.8031 13.578 17.779 13.9754C17.7489 14.4381 17.4599 14.6873 17.0084 14.6991C16.4063 14.7169 15.8042 14.7347 15.2082 14.6754C13.9137 14.5508 13.0106 13.7382 12.6493 12.5043C12.5891 12.3026 12.4266 12.0713 12.2459 11.9645C11.0538 11.2705 11.0719 8.69013 12.1376 8.03762C12.5229 7.80035 12.5951 7.50968 12.5711 7.11818C12.5048 5.89028 12.6794 4.70984 13.4561 3.69549C14.4134 2.43793 15.6898 1.7261 17.2853 1.64899C18.6942 1.58374 20.1091 1.52442 21.3915 2.30149C22.9509 3.24466 23.8239 4.5734 23.8299 6.40635C23.8299 6.62583 23.848 6.85125 23.8299 7.07073C23.7938 7.48596 23.8841 7.77662 24.2815 8.04355C25.1726 8.63674 25.2268 9.92396 24.9378 10.9502C24.6909 11.8162 23.9383 12.2967 22.9027 12.3026C22.5535 12.3026 22.4211 12.4391 22.3067 12.7416C21.807 13.9873 21.0303 15.0076 19.7719 15.5948C19.0314 15.9389 18.2487 15.9982 17.4599 15.8084C17.3034 15.7728 17.195 15.5237 17.0626 15.3694C17.2311 15.2686 17.4058 15.0728 17.5623 15.0847C19.8081 15.2449 21.6685 13.7204 21.8491 11.484C21.9033 10.6773 21.8551 9.88837 21.8551 9.05791ZM18.7243 8.60115C18.7725 8.5359 18.8206 8.47658 18.8688 8.41133C18.622 8.22151 18.339 8.06135 18.1463 7.83001C18.044 7.70544 18.0981 7.45037 18.0801 7.25461C18.2788 7.27241 18.5196 7.23682 18.6761 7.3258C18.8929 7.45037 19.0976 7.65205 19.2361 7.8656C19.8201 8.77911 20.6148 8.66047 21.4337 8.31642C21.5962 8.24524 21.7889 7.99017 21.7829 7.81814C21.7708 6.40635 20.6329 5.06575 19.2 4.85813C18.5076 4.75729 17.767 4.75729 17.0746 4.87C15.5935 5.10727 14.4977 6.56058 14.6663 8.01983C16.1715 7.14784 17.3817 8.32828 18.7243 8.60115ZM22.9088 7.59866C22.963 7.56307 23.0111 7.52748 23.0653 7.48596C23.0653 7.13598 23.0653 6.79193 23.0653 6.44195C23.0593 4.63272 21.9876 3.15568 20.2295 2.59216C19.0795 2.21845 17.8754 2.24217 16.7194 2.46165C14.4616 2.90061 13.2935 4.52595 13.3417 7.00548C13.3477 7.18343 13.4922 7.35546 13.5705 7.53341C13.6849 7.38512 13.8595 7.24868 13.9077 7.07666C14.2689 5.76571 14.9914 4.76322 16.316 4.27681C19.1458 3.23873 21.5601 4.40731 22.4873 7.21309C22.5475 7.37918 22.7703 7.47409 22.9088 7.59866ZM22.6318 11.4662C23.4868 11.5968 24.0648 11.2586 24.2514 10.5765C24.5163 9.60364 24.1912 8.6842 23.4868 8.41726C23.3302 8.35794 23.1496 8.29269 22.9991 8.32828C22.8666 8.35794 22.6559 8.51217 22.6499 8.61301C22.6198 9.56805 22.6318 10.5231 22.6318 11.4662ZM13.7571 8.38167C13.1009 8.2749 12.565 8.44692 12.3423 8.93927C12.0292 9.62143 11.987 10.3451 12.4025 11.0036C12.7035 11.484 13.1972 11.6264 13.7632 11.484C13.7571 10.4222 13.7571 9.39602 13.7571 8.38167Z" fill="white"/>
<path id="Vector_3" d="M0.571289 4.11079C0.595372 2.90068 1.25164 1.92785 2.28722 1.18044C4.70156 -0.569466 8.51874 -0.349986 10.5718 1.64906C12.0891 3.12016 12.1613 5.26157 10.626 6.68522C9.99384 7.27248 10.036 7.80041 10.2828 8.45885C10.319 8.56563 10.3972 8.66054 10.4153 8.76138C10.4514 8.96306 10.5478 9.25372 10.4514 9.34863C10.337 9.46727 10.0119 9.51473 9.84332 9.44354C9.19307 9.17661 8.57293 8.83256 7.92871 8.54783C7.69389 8.44106 7.42296 8.33428 7.17611 8.35801C5.2916 8.53597 3.53352 8.25124 2.02832 7.0352C1.13724 6.31744 0.583331 5.398 0.571289 4.11079ZM9.30747 8.53597C9.34961 8.50631 9.39176 8.47665 9.42788 8.44699C9.39176 8.20971 9.33757 7.97837 9.33155 7.7411C9.31349 7.30807 9.25328 6.88097 9.67474 6.53099C11.5291 4.99464 11.3967 2.8473 9.30747 1.62533C7.19417 0.391498 4.99658 0.409294 2.90134 1.68465C0.824163 2.95407 0.812121 5.33275 2.83511 6.70302C4.17775 7.61059 5.67693 7.81228 7.25438 7.55721C7.67583 7.49196 7.99493 7.50382 8.31404 7.84194C8.58497 8.12667 8.9703 8.31056 9.30747 8.53597Z" fill="white"/>
<path id="Vector_4" d="M6.07422 21.2244C6.12239 20.5244 6.09228 19.8067 6.23076 19.1304C6.54384 17.6 7.85035 16.4907 9.41576 16.3306C9.70476 16.3009 10.0841 16.2179 10.1443 16.639C10.2105 17.0839 9.83722 17.0483 9.53618 17.0839C7.98883 17.2559 6.90509 18.4423 6.89305 19.9727C6.88703 20.9159 6.89305 21.865 6.89305 22.8082C6.89305 23.0929 6.90509 23.4132 6.49567 23.4073C6.08626 23.3954 6.12841 23.0633 6.12239 22.7904C6.12239 22.2743 6.12239 21.7523 6.12239 21.2362C6.10432 21.2244 6.09228 21.2244 6.07422 21.2244Z" fill="white"/>
<path id="Vector_5" d="M26.2804 6.27605C26.2142 6.34723 26.0878 6.6379 25.9071 6.67349C25.564 6.73874 25.5158 6.43028 25.5038 6.15148C25.4255 4.53208 24.8174 3.13216 23.6674 1.96951C23.4687 1.76782 23.2881 1.52462 23.5831 1.32293C23.7096 1.23989 24.0648 1.31107 24.1912 1.43564C25.5038 2.71692 26.1781 4.28294 26.2804 6.27605Z" fill="white"/>
<path id="Vector_6" d="M29.917 25.0208C29.917 24.2852 29.8929 23.5437 29.9351 22.8082C29.9471 22.6361 30.1639 22.47 30.2903 22.304C30.4228 22.47 30.6636 22.6361 30.6696 22.8022C30.6997 24.2971 30.6997 25.7919 30.6696 27.2867C30.6636 27.4647 30.4288 27.6308 30.3023 27.8028C30.1759 27.6308 29.9471 27.4647 29.9411 27.2867C29.8929 26.5334 29.917 25.78 29.917 25.0208Z" fill="white"/>
<path id="Vector_7" d="M16.9908 10.3749C17.045 10.3749 17.1052 10.3749 17.1594 10.3749C17.4484 10.3749 17.8037 10.3808 17.7615 10.7545C17.7434 10.9028 17.3702 11.0392 17.1414 11.1223C16.9728 11.1816 16.756 11.1816 16.5875 11.1223C16.4068 11.057 16.2563 10.891 16.0938 10.7723C16.2623 10.6418 16.4189 10.4876 16.6055 10.3867C16.7079 10.3334 16.8584 10.3808 16.9908 10.3749Z" fill="white"/>
<path id="Vector_8" d="M19.9765 10.2502C20.2354 10.4163 20.7111 10.5824 20.7111 10.7485C20.7111 11.2527 20.2234 11.1044 19.8922 11.1341C19.82 11.14 19.7417 11.14 19.6695 11.1341C19.3744 11.1282 19.0313 11.1044 19.1035 10.7248C19.1276 10.5824 19.4708 10.4816 19.6755 10.3807C19.7357 10.3511 19.82 10.3748 19.8983 10.3748C19.9163 10.3333 19.9464 10.2918 19.9765 10.2502Z" fill="white"/>
<path id="Vector_9" d="M26.509 7.53931C26.202 7.741 26.0274 7.94268 25.8829 7.92489C25.7203 7.90116 25.5879 7.68168 25.4434 7.54524C25.5879 7.40288 25.7143 7.17154 25.8769 7.14781C26.0214 7.12408 26.202 7.33763 26.509 7.53931Z" fill="white"/>
<path id="Vector_10" d="M30.333 20.8506C30.5618 21.1412 30.7906 21.3073 30.7785 21.4497C30.7605 21.598 30.5317 21.8056 30.3691 21.8412C30.2547 21.8649 29.9898 21.6336 29.9778 21.5031C29.9597 21.3429 30.1464 21.165 30.333 20.8506Z" fill="white"/>
<path id="Vector_11" d="M7.14669 24.2436C6.81554 24.4512 6.65298 24.6351 6.49042 24.6292C6.35194 24.6232 6.09907 24.3859 6.11713 24.2851C6.14723 24.1249 6.33388 23.8995 6.49042 23.8699C6.6289 23.8462 6.81554 24.0419 7.14669 24.2436Z" fill="white"/>
<path id="Vector_12" d="M18.3934 23.0809C19.1821 23.0749 19.7902 23.674 19.7842 24.4511C19.7782 25.2223 19.152 25.8392 18.3874 25.8273C17.6468 25.8155 17.0387 25.2104 17.0207 24.4748C17.0086 23.7037 17.6107 23.0868 18.3934 23.0809ZM19.1039 24.5994C19.1039 24.5164 19.1099 24.4274 19.1099 24.3443C18.8871 24.1783 18.6824 23.9232 18.4356 23.8698C18.0803 23.7927 17.8275 24.0359 17.8094 24.4037C17.7853 24.8011 18.0201 25.0799 18.3994 25.0384C18.6463 25.0146 18.8691 24.7536 19.1039 24.5994Z" fill="white"/>
<path id="Vector_13" d="M4.13662 3.65991C4.37144 3.98023 4.61829 4.17005 4.61227 4.34208C4.60023 4.5141 4.32929 4.80476 4.17275 4.80476C3.99815 4.80476 3.70915 4.54969 3.69109 4.37174C3.667 4.19971 3.91385 3.9921 4.13662 3.65991Z" fill="white"/>
<path id="Vector_14" d="M8.09719 5.05981C7.85636 4.73356 7.60349 4.53187 7.62757 4.36578C7.65166 4.18189 7.92259 4.02766 8.08515 3.86157C8.24771 4.02766 8.52467 4.17596 8.54875 4.35985C8.57886 4.52594 8.32598 4.72763 8.09719 5.05981Z" fill="white"/>
<path id="Vector_15" d="M6.80881 4.33615C6.48971 4.57342 6.29705 4.82256 6.12244 4.8107C5.9358 4.7929 5.77324 4.5319 5.59863 4.37767C5.76119 4.20565 5.89967 3.92685 6.08632 3.89719C6.2549 3.86753 6.46563 4.11667 6.80881 4.33615Z" fill="white"/>
</g>
</g>
<defs>
<clipPath id="clip0_475_4012">
<rect width="33" height="31" fill="white" transform="translate(0.5)"/>
</clipPath>
</defs>
</svg>
