<svg width="71" height="72" viewBox="0 0 71 72" fill="none" xmlns="http://www.w3.org/2000/svg">
<g id="choose-3 2" clip-path="url(#clip0_475_3899)">
<g id="Group">
<g id="Group_2">
<g id="Group_3">
<path id="Vector" d="M23.6007 41.3282C23.6007 43.0143 23.3178 44.5867 22.7521 46.036C22.1863 47.4853 21.3849 48.7262 20.3571 49.7871C19.3293 50.8385 18.0847 51.6626 16.6327 52.2689C15.1806 52.8656 13.5777 53.1687 11.805 53.1687C10.0418 53.1687 8.42948 52.8656 6.97742 52.2689C5.52537 51.6721 4.28074 50.8385 3.24356 49.7871C2.20637 48.7356 1.40491 47.4853 0.839177 46.036C0.282869 44.5867 0 43.0143 0 41.3282C0 39.6421 0.282868 38.0697 0.848606 36.6299C1.41434 35.1901 2.2158 33.9397 3.25299 32.8883C4.29017 31.8368 5.53479 31.0127 6.98685 30.4065C8.43891 29.8097 10.0418 29.5066 11.8145 29.5066C13.5777 29.5066 15.19 29.8097 16.6421 30.4065C18.0942 31.0032 19.3293 31.8368 20.3665 32.8977C21.3943 33.9586 22.1957 35.1995 22.7615 36.6488C23.3178 38.0886 23.6007 39.6421 23.6007 41.3282ZM18.7259 41.3282C18.7259 40.1157 18.5656 39.0264 18.245 38.0697C17.9244 37.1035 17.4718 36.2889 16.8684 35.6163C16.2744 34.9438 15.5483 34.4228 14.6903 34.0723C13.8417 33.7124 12.8705 33.5419 11.7956 33.5419C10.7207 33.5419 9.74954 33.7218 8.8915 34.0723C8.03347 34.4323 7.30744 34.9438 6.71341 35.6163C6.11939 36.2889 5.65737 37.113 5.33679 38.0697C5.0162 39.0359 4.85591 40.1157 4.85591 41.3282C4.85591 42.5501 5.0162 43.6395 5.33679 44.6057C5.65737 45.5718 6.10996 46.3865 6.71341 47.0495C7.30744 47.7221 8.0429 48.2336 8.8915 48.5841C9.74954 48.944 10.7207 49.1145 11.7956 49.1145C12.8705 49.1145 13.8417 48.9346 14.6903 48.5841C15.5389 48.2241 16.2649 47.7126 16.8684 47.0495C17.4624 46.377 17.9244 45.5624 18.245 44.6057C18.5656 43.6395 18.7259 42.5501 18.7259 41.3282Z" fill="#EF5DA8"/>
<path id="Vector_2" d="M46.8146 29.7625V52.8941H44.3536C43.9859 52.8941 43.6747 52.8373 43.4201 52.7142C43.1656 52.591 42.9204 52.3826 42.6753 52.089L31.2002 37.4162C31.2285 37.7856 31.2568 38.155 31.2757 38.515C31.2945 38.8749 31.3039 39.2159 31.3039 39.5191V52.8941H27.0986V29.7625H29.6067C29.8047 29.7625 29.9839 29.7719 30.1253 29.7909C30.2668 29.8098 30.3988 29.8477 30.5119 29.9045C30.6251 29.9614 30.7382 30.0372 30.8419 30.1319C30.9456 30.2266 31.0682 30.3592 31.1908 30.5108L42.7413 45.2404C42.7036 44.8331 42.6658 44.4447 42.647 44.0658C42.6281 43.6869 42.6187 43.327 42.6187 42.986V29.7625H46.8146Z" fill="#EF5DA8"/>
<path id="Vector_3" d="M56.4325 33.5135V39.4622H64.1171V43.0807H56.4325V49.1525H66.3046V52.9036H51.6426V29.7625H66.3046V33.5135H56.4325Z" fill="#EF5DA8"/>
</g>
</g>
<path id="Vector_4" d="M69.0949 57.5355H59.6943V54.4285C59.6943 53.6329 59.2134 52.9603 58.5345 52.6667C58.3082 52.5719 58.0536 52.5151 57.7896 52.5151H51.8588C51.3308 52.5151 50.9065 52.9414 50.9065 53.4718C50.9065 54.0023 51.3308 54.4285 51.8588 54.4285H57.7896V57.5355H17.4903V54.4285H47.3424C47.8704 54.4285 48.2947 54.0023 48.2947 53.4718C48.2947 52.9414 47.8704 52.5151 47.3424 52.5151H44.5137L44.6551 52.373L38.5452 46.2349V24.6188H39.1109C40.2424 24.6188 41.157 23.7 41.157 22.5633V17.3629C41.157 16.2262 40.2424 15.3074 39.1109 15.3074H35.7165C34.585 15.3074 33.6704 16.2262 33.6704 17.3629V22.5633C33.6704 23.7 34.585 24.6188 35.7165 24.6188H36.2822V46.036L29.9742 52.373L30.1157 52.5151H17.4903C16.4437 52.5151 15.5857 53.3676 15.5857 54.4285V57.5355H11.8046V59.4489H15.5857H17.4903H57.7991H59.7037H69.1044V70.0865H5.68526V59.4489H8.78738C9.3154 59.4489 9.73971 59.0227 9.73971 58.4922C9.73971 57.9618 9.3154 57.5355 8.78738 57.5355H5.68526C5.35524 57.5355 5.04409 57.6208 4.78008 57.7628C4.67636 57.8197 4.57264 57.886 4.47835 57.9712C4.33692 58.0849 4.21434 58.227 4.11062 58.3786C3.9409 58.6343 3.82776 58.9279 3.79947 59.25C3.79004 59.3163 3.79004 59.3826 3.79004 59.4489V70.0865C3.79004 71.1379 4.63864 71.9999 5.69469 71.9999H69.1044C70.151 71.9999 71.009 71.1474 71.009 70.0865V59.4489C70.9996 58.3975 70.151 57.5355 69.0949 57.5355ZM42.0999 52.5246H38.5357V48.944L42.0999 52.5246ZM35.7636 21.796V18.6038C35.7636 17.9975 36.2539 17.505 36.8574 17.505H38.3189C38.9223 17.505 39.4126 17.9975 39.4126 18.6038V21.796C39.4126 22.4022 38.9223 22.8948 38.3189 22.8948H36.8574C36.2539 22.8948 35.7636 22.4022 35.7636 21.796ZM36.2822 48.7451V52.5246H32.5295L36.2822 48.7451Z" fill="white" stroke="white" stroke-width="4" stroke-miterlimit="10"/>
<g id="Group_4">
<path id="Vector_5" d="M26.2407 15.5535L17.3964 8.53443C17.3398 8.48707 17.2738 8.45865 17.2078 8.43023L18.5278 7.08515C19.1973 6.5168 18.5278 5.68323 18.5278 5.68323L17.0286 4.01608C16.0952 3.07831 14.6997 4.01608 14.6997 4.01608L11.6447 0.890173C10.8715 -0.0475986 9.52319 0.482858 9.52319 0.482858L7.78826 1.72375L6.68508 0.331299L5.73275 1.20276L7.01509 2.70888L6.02505 3.80768C5.17644 4.89701 5.73275 5.99582 5.73275 5.99582L9.40061 9.7469L9.08946 10.0595C8.45772 10.2679 8.67458 11.4614 8.67458 11.4614L10.4378 13.4412C10.9564 14.0095 12.2859 13.4412 12.2859 13.4412L13.6248 12.0771C13.6342 12.0866 13.6342 12.0961 13.6436 12.1055L20.6022 21.0191C20.8568 21.3412 21.3188 21.398 21.6488 21.1517C21.9694 20.896 22.0354 20.4318 21.7808 20.1003L14.86 11.1678C14.8128 11.1015 14.7468 11.0541 14.6808 11.0067L16.2177 9.44378C16.2649 9.55745 16.3403 9.66165 16.444 9.7469L25.3167 16.7376C25.6373 16.9933 26.1087 16.9365 26.3633 16.6144C26.6179 16.2829 26.5613 15.8093 26.2407 15.5535ZM7.17538 5.50325C7.17538 5.50325 6.68508 5.02963 7.2791 4.43286L9.39119 2.31104C9.39119 2.31104 10.1266 1.40168 11.013 2.0837L13.9171 5.10541L10.3152 8.79018L7.17538 5.50325ZM12.0501 11.8214C11.5221 12.5034 11.2298 12.2097 11.2298 12.2097L10.3247 11.3288C9.93806 10.7699 10.5698 10.3626 10.5698 10.3626L15.7746 5.13382C16.0952 4.81176 16.3026 5.02963 16.3026 5.02963L17.2832 6.01476C17.3869 6.3463 17.1418 6.54522 17.1418 6.54522L12.0501 11.8214Z" fill="#EF5DA8"/>
<g id="Group_5">
<g id="Group_6">
<path id="Vector_6" d="M67.8319 2.27327L69.2274 1.15552L68.3505 0.189331L66.8324 1.48706L65.7292 0.482977C64.626 -0.379015 63.5323 0.179859 63.5323 0.179859L59.7607 3.90253L59.4495 3.58046C59.2421 2.94581 58.0352 3.16368 58.0352 3.16368L56.0457 4.95397C55.4705 5.48442 56.0457 6.82951 56.0457 6.82951L57.4223 8.19354C57.4129 8.20301 57.4034 8.20301 57.394 8.21249L55.1028 10.0217L56.1023 11.1963L58.3463 9.4439C58.4123 9.39654 58.4689 9.33023 58.5066 9.26393L60.0813 10.8269C59.9681 10.8742 59.855 10.95 59.7795 11.0542L52.7455 20.0625C52.491 20.394 52.5475 20.8677 52.8681 21.1234C53.1981 21.3792 53.6696 21.3223 53.9242 21.0003L60.9865 12.0204C61.0336 11.9636 61.0713 11.8973 61.0902 11.831L62.4385 13.176C63.0137 13.8581 63.8529 13.176 63.8529 13.176L65.5312 11.651C66.4741 10.7037 65.5312 9.28287 65.5312 9.28287L68.6805 6.17591C69.6234 5.3897 69.0954 4.0162 69.0954 4.0162L67.8319 2.27327ZM64.5035 10.9216L63.5134 11.9162C63.1834 12.0204 62.976 11.7741 62.976 11.7741L57.6769 6.5927C56.998 6.05277 57.2809 5.75912 57.2809 5.75912L58.1672 4.8403C58.7235 4.44246 59.1384 5.08658 59.1384 5.08658L64.3997 10.3722C64.7203 10.7037 64.5035 10.9216 64.5035 10.9216ZM67.4641 5.54126L64.4186 8.49666L60.713 4.83083L64.0226 1.64809C64.0226 1.64809 64.5035 1.14605 65.0975 1.75228L67.2284 3.89305C67.2379 3.89305 68.143 4.64138 67.4641 5.54126Z" fill="#EF5DA8"/>
</g>
<path id="Vector_7" d="M49.3416 16.4724L53.3677 13.2802C53.7072 13.0149 53.7543 12.5129 53.4714 12.1814C53.2074 11.8688 52.736 11.8214 52.4154 12.0772L48.4081 15.2788C48.0781 15.5346 48.0215 16.0082 48.2761 16.3398C48.5401 16.6713 49.0116 16.7281 49.3416 16.4724Z" fill="#EF5DA8"/>
</g>
</g>
<path id="Vector_8" d="M41.28 4.02563C41.28 4.02563 39.5828 8.07984 36.9521 8.80922C36.9521 8.80922 40.488 10.2017 41.1669 13.5549C41.1669 13.5549 41.3932 9.27337 45.6362 8.80922C45.6362 8.81869 40.7143 8.27876 41.28 4.02563ZM40.9595 10.8458C40.6672 9.39651 39.1397 8.79974 39.1397 8.79974C40.2711 8.47768 41.0066 6.73475 41.0066 6.73475C40.7614 8.5724 42.883 8.79974 42.883 8.79974C41.0537 8.99866 40.9595 10.8458 40.9595 10.8458Z" fill="#702A85"/>
<path id="Vector_9" d="M6.1003 20.3372C6.1003 20.3372 5.12912 23.141 3.38477 23.3399C3.38477 23.3399 5.61 24.2114 6.0343 26.3143C6.0343 26.3143 6.17574 23.6241 8.84413 23.3399C8.8347 23.3399 6.10973 23.0842 6.1003 20.3372ZM5.89287 24.6187C5.70429 23.7093 4.75196 23.3304 4.75196 23.3304C5.46856 23.1315 5.92115 22.0327 5.92115 22.0327C5.77029 23.1884 7.09977 23.3304 7.09977 23.3304C5.95887 23.4536 5.89287 24.6187 5.89287 24.6187Z" fill="#702A85"/>
<path id="Vector_10" d="M63.0515 21.3035C63.0515 21.3035 62.0803 24.1073 60.3359 24.3062C60.3359 24.3062 62.5612 25.1777 62.9855 27.2806C62.9855 27.2806 63.1269 24.5904 65.7953 24.3062C65.7859 24.3062 63.0609 24.0505 63.0515 21.3035ZM62.844 25.585C62.6555 24.6757 61.7031 24.2968 61.7031 24.2968C62.4197 24.0978 62.8723 22.999 62.8723 22.999C62.7215 24.1547 64.0509 24.2968 64.0509 24.2968C62.91 24.4294 62.844 25.585 62.844 25.585Z" fill="#702A85"/>
<g id="Group_7">
<g id="Group_8">
<g id="Group_9">
<g id="Group_10">
<path id="Vector_11" d="M14.2471 61.0212C14.7562 61.0212 15.19 61.0781 15.5577 61.2012C15.9254 61.3244 16.2271 61.4854 16.4629 61.7033C16.6986 61.9117 16.8777 62.1674 16.9909 62.4611C17.104 62.7547 17.1606 63.0768 17.1606 63.4178C17.1606 63.7777 17.104 64.1187 16.9815 64.4218C16.8589 64.725 16.6797 64.9902 16.444 65.2081C16.1988 65.4259 15.8971 65.5964 15.5294 65.7196C15.1617 65.8427 14.7374 65.8995 14.2471 65.8995H13.2853V68.4476H11.7578V61.0307H14.2471V61.0212ZM14.2471 64.706C14.7279 64.706 15.0768 64.5924 15.2937 64.3555C15.52 64.1282 15.6237 63.8061 15.6237 63.4083C15.6237 63.2283 15.5954 63.0578 15.5388 62.9063C15.4822 62.7547 15.3974 62.6221 15.2842 62.5179C15.1711 62.4137 15.0297 62.3284 14.8505 62.2716C14.6808 62.2148 14.4734 62.1864 14.2376 62.1864H13.2759V64.706H14.2471Z" fill="#702A85"/>
</g>
</g>
<g id="Group_11">
<g id="Group_12">
<path id="Vector_12" d="M22.5166 67.1878V68.4382H18.1416V61.0212H19.6691V67.1878H22.5166Z" fill="#702A85"/>
</g>
</g>
<g id="Group_13">
<g id="Group_14">
<path id="Vector_13" d="M29.909 68.4382H28.7209C28.5889 68.4382 28.4852 68.4098 28.4003 68.3434C28.3155 68.2771 28.2589 68.2014 28.2118 68.0972L27.712 66.6858H24.7702L24.2705 68.0972C24.2327 68.1824 24.1762 68.2582 24.0913 68.334C24.0064 68.4097 23.9027 68.4382 23.7707 68.4382H22.5732L25.4585 61.0212H27.0237L29.909 68.4382ZM27.3443 65.6154L26.5428 63.342C26.4957 63.2189 26.4485 63.0862 26.392 62.9252C26.3354 62.7642 26.2882 62.5937 26.2411 62.4042C26.194 62.5937 26.1468 62.7736 26.0902 62.9347C26.0337 63.0957 25.9865 63.2378 25.9394 63.3515L25.1473 65.6059H27.3443V65.6154Z" fill="#702A85"/>
</g>
</g>
<g id="Group_15">
<g id="Group_16">
<path id="Vector_14" d="M35.0852 62.2526H32.926V68.4286H31.3985V62.2526H29.2393V61.0117H35.0852V62.2526Z" fill="#702A85"/>
</g>
</g>
<g id="Group_17">
<g id="Group_18">
<path id="Vector_15" d="M37.5457 62.2242V64.2702H40.2047V65.4732H37.5457V68.4286H36.0088V61.0117H40.7044V62.2147H37.5457V62.2242Z" fill="#702A85"/>
</g>
</g>
<g id="Group_19">
<g id="Group_20">
<path id="Vector_16" d="M48.8325 64.725C48.8325 65.2649 48.7382 65.767 48.5591 66.2311C48.3799 66.6953 48.1254 67.0931 47.7953 67.4341C47.4653 67.7751 47.0693 68.0404 46.6073 68.2298C46.1453 68.4193 45.6267 68.514 45.0609 68.514C44.4952 68.514 43.9766 68.4193 43.5146 68.2298C43.0526 68.0404 42.6471 67.7751 42.3171 67.4341C41.9871 67.0931 41.7325 66.6953 41.5439 66.2311C41.3648 65.767 41.2705 65.2649 41.2705 64.725C41.2705 64.1851 41.3648 63.683 41.5439 63.2189C41.7231 62.7547 41.9777 62.3569 42.3171 62.0159C42.6471 61.6749 43.0432 61.4097 43.5146 61.2202C43.9766 61.0308 44.4952 60.936 45.0609 60.936C45.6267 60.936 46.1453 61.0308 46.6073 61.2202C47.0693 61.4097 47.4653 61.6749 47.7953 62.0159C48.1254 62.3569 48.3799 62.7547 48.5591 63.2189C48.7382 63.683 48.8325 64.1851 48.8325 64.725ZM47.2673 64.725C47.2673 64.3366 47.2202 63.9862 47.1165 63.683C47.0127 63.3705 46.8713 63.1147 46.6733 62.8968C46.4847 62.679 46.249 62.5179 45.9756 62.4043C45.7021 62.2906 45.391 62.2338 45.0515 62.2338C44.7026 62.2338 44.3915 62.2906 44.1181 62.4043C43.8446 62.5179 43.6089 62.679 43.4203 62.8968C43.2317 63.1147 43.0809 63.3799 42.9771 63.683C42.8734 63.9956 42.8263 64.3366 42.8263 64.725C42.8263 65.1134 42.8734 65.4639 42.9771 65.7765C43.0809 66.089 43.2223 66.3448 43.4203 66.5627C43.6089 66.7805 43.8446 66.9416 44.1181 67.0552C44.3915 67.1689 44.7026 67.2257 45.0515 67.2257C45.4004 67.2257 45.7115 67.1689 45.9756 67.0552C46.249 66.9416 46.4847 66.7805 46.6733 66.5627C46.8619 66.3448 47.0127 66.089 47.1165 65.7765C47.2202 65.4639 47.2673 65.1134 47.2673 64.725Z" fill="#702A85"/>
</g>
</g>
<g id="Group_21">
<g id="Group_22">
<path id="Vector_17" d="M55.8378 68.4382H54.4611C54.2066 68.4382 54.018 68.3435 53.9048 68.1446L52.4999 65.8712C52.4433 65.7859 52.3773 65.7196 52.3113 65.6817C52.2453 65.6438 52.1416 65.6249 52.0002 65.6249H51.4816V68.4477H49.9541V61.0308H52.2736C52.7922 61.0308 53.226 61.0876 53.5937 61.1918C53.9614 61.296 54.2631 61.4475 54.4989 61.637C54.7346 61.8264 54.9043 62.0538 55.008 62.319C55.1117 62.5842 55.1683 62.8779 55.1683 63.1905C55.1683 63.4368 55.1306 63.6641 55.0646 63.8914C54.9986 64.1093 54.8949 64.3082 54.7629 64.4882C54.6309 64.6682 54.4706 64.8292 54.2726 64.9713C54.084 65.1134 53.8577 65.227 53.6125 65.3123C53.7068 65.3691 53.8011 65.4354 53.886 65.5112C53.9708 65.587 54.0463 65.6817 54.1123 65.7859L55.8378 68.4382ZM52.2548 64.5261C52.4999 64.5261 52.7168 64.4977 52.8959 64.4314C53.0751 64.3651 53.2259 64.2798 53.3391 64.1661C53.4522 64.0525 53.5371 63.9293 53.5937 63.7778C53.6503 63.6262 53.6785 63.4652 53.6785 63.2852C53.6785 62.9347 53.5654 62.66 53.3297 62.4706C53.0939 62.2716 52.7451 62.1769 52.2736 62.1769H51.4816V64.5261H52.2548Z" fill="#702A85"/>
</g>
</g>
<g id="Group_23">
<g id="Group_24">
<path id="Vector_18" d="M64.6919 61.0212V68.4382H63.3435V63.8819C63.3435 63.7872 63.3435 63.683 63.353 63.5788C63.3624 63.4651 63.3718 63.3609 63.3813 63.2473L61.2692 67.273C61.156 67.4909 60.9769 67.6046 60.7317 67.6046H60.5148C60.3923 67.6046 60.2886 67.5762 60.2037 67.5193C60.1094 67.4625 60.0434 67.3772 59.9868 67.273L57.8653 63.2378C57.8747 63.3609 57.8842 63.4746 57.8936 63.5788C57.903 63.6925 57.903 63.7967 57.903 63.8914V68.4476H56.5547V61.0307H57.7144C57.7805 61.0307 57.837 61.0307 57.8842 61.0402C57.9313 61.0402 57.9785 61.0497 58.0162 61.0686C58.0539 61.0876 58.0916 61.1065 58.1199 61.1444C58.1482 61.1728 58.1859 61.2202 58.2142 61.277L60.2791 65.2365C60.3451 65.3596 60.4017 65.4828 60.4583 65.6059C60.5149 65.729 60.5714 65.8617 60.6186 65.9943C60.6657 65.8617 60.7223 65.729 60.7789 65.5964C60.8354 65.4638 60.892 65.3407 60.958 65.227L63.0041 61.2865C63.0324 61.2296 63.0701 61.1823 63.0984 61.1539C63.1361 61.1254 63.1644 61.097 63.2115 61.0781C63.2492 61.0591 63.2964 61.0497 63.3435 61.0497C63.3907 61.0497 63.4473 61.0402 63.5227 61.0402H64.6919V61.0212Z" fill="#702A85"/>
</g>
</g>
</g>
</g>
<path id="Vector_19" d="M69.0949 57.5355H59.6943V54.4285C59.6943 53.6329 59.2134 52.9603 58.5345 52.6667C58.3082 52.5719 58.0536 52.5151 57.7896 52.5151H51.8588C51.3308 52.5151 50.9065 52.9414 50.9065 53.4718C50.9065 54.0023 51.3308 54.4285 51.8588 54.4285H57.7896V57.5355H17.4903V54.4285H47.3424C47.8704 54.4285 48.2947 54.0023 48.2947 53.4718C48.2947 52.9414 47.8704 52.5151 47.3424 52.5151H44.5137L44.6551 52.373L38.5452 46.2349V24.6188H39.1109C40.2424 24.6188 41.157 23.7 41.157 22.5633V17.3629C41.157 16.2262 40.2424 15.3074 39.1109 15.3074H35.7165C34.585 15.3074 33.6704 16.2262 33.6704 17.3629V22.5633C33.6704 23.7 34.585 24.6188 35.7165 24.6188H36.2822V46.036L29.9742 52.373L30.1157 52.5151H17.4903C16.4437 52.5151 15.5857 53.3676 15.5857 54.4285V57.5355H11.8046V59.4489H15.5857H17.4903H57.7991H59.7037H69.1044V70.0865H5.68526V59.4489H8.78738C9.3154 59.4489 9.73971 59.0227 9.73971 58.4922C9.73971 57.9618 9.3154 57.5355 8.78738 57.5355H5.68526C5.35524 57.5355 5.04409 57.6208 4.78008 57.7628C4.67636 57.8197 4.57264 57.886 4.47835 57.9712C4.33692 58.0849 4.21434 58.227 4.11062 58.3786C3.9409 58.6343 3.82776 58.9279 3.79947 59.25C3.79004 59.3163 3.79004 59.3826 3.79004 59.4489V70.0865C3.79004 71.1379 4.63864 71.9999 5.69469 71.9999H69.1044C70.151 71.9999 71.009 71.1474 71.009 70.0865V59.4489C70.9996 58.3975 70.151 57.5355 69.0949 57.5355ZM42.0999 52.5246H38.5357V48.944L42.0999 52.5246ZM35.7636 21.796V18.6038C35.7636 17.9975 36.2539 17.505 36.8574 17.505H38.3189C38.9223 17.505 39.4126 17.9975 39.4126 18.6038V21.796C39.4126 22.4022 38.9223 22.8948 38.3189 22.8948H36.8574C36.2539 22.8948 35.7636 22.4022 35.7636 21.796ZM36.2822 48.7451V52.5246H32.5295L36.2822 48.7451Z" fill="#702A85"/>
</g>
</g>
<defs>
<clipPath id="clip0_475_3899">
<rect width="71" height="72" fill="white"/>
</clipPath>
</defs>
</svg>
