<svg width="34" height="36" viewBox="0 0 34 36" fill="none" xmlns="http://www.w3.org/2000/svg">
<g id="exp-5 1">
<g id="Group">
<path id="Vector" d="M5.31836 25.8433C5.31836 18.1797 5.31836 10.5491 5.31836 2.891C5.40097 2.88551 5.47808 2.88001 5.54968 2.88001C11.7403 2.88001 17.9308 2.88001 24.1214 2.87451C24.2756 2.87451 24.3858 2.91849 24.4959 3.03394C25.6801 4.2489 26.8752 5.45837 28.0649 6.66783C28.3898 6.99768 28.7203 7.32754 29.0342 7.66289C29.1003 7.73436 29.1499 7.8498 29.1499 7.94326C29.1554 13.4793 29.1554 19.0099 29.1554 24.5459C29.1554 24.9582 29.1554 25.3705 29.1554 25.7938C28.8525 25.7938 28.5771 25.7938 28.2687 25.7938C28.2687 20.0049 28.2687 14.2215 28.2687 8.41056C26.7375 8.41056 25.2339 8.41056 23.7083 8.41056C23.7083 6.86024 23.7083 5.33192 23.7083 3.78161C17.8702 3.78161 12.0487 3.78161 6.20509 3.78161C6.20509 3.86957 6.20509 3.94654 6.20509 4.0235C6.19407 5.28244 6.18306 6.54688 6.18306 7.80582C6.18856 13.6827 6.19407 19.5596 6.20509 25.4365C6.20509 25.508 6.19958 25.5794 6.20509 25.6509C6.22161 25.7773 6.16653 25.8433 6.04537 25.8433C5.80854 25.8488 5.57171 25.8433 5.31836 25.8433ZM24.6446 4.4688C24.6281 4.4798 24.6116 4.4853 24.5896 4.49629C24.5896 5.46386 24.5896 6.42594 24.5896 7.39351C24.5896 7.54194 24.6942 7.51995 24.7878 7.51995C25.647 7.52545 26.5062 7.53095 27.3709 7.53095C27.4425 7.53095 27.5141 7.51445 27.6298 7.50346C26.6053 6.46442 25.625 5.46936 24.6446 4.4688Z" fill="white"/>
<path id="Vector_2" d="M31.2978 28.0643C30.5268 28.4216 29.7943 28.7295 29.0893 29.0923C28.5881 29.3507 28.0814 29.4277 27.5196 29.4277C19.6217 29.4167 11.7292 29.4222 3.8313 29.4167C3.63302 29.4167 3.42924 29.4167 3.23097 29.3837C2.51498 29.2573 2.06335 28.6415 2.12944 27.8994C2.18452 27.2507 2.76282 26.7229 3.44577 26.7174C4.21133 26.7119 4.98239 26.7339 5.74795 26.7339C7.38372 26.7339 9.01949 26.7174 10.6497 26.7174C14.2627 26.7119 17.8813 26.7174 21.4943 26.7174C23.3614 26.7174 25.2229 26.7174 27.09 26.7174C27.3544 26.7174 27.6187 26.7284 27.8831 26.7174C28.2246 26.6954 28.5275 26.7779 28.8304 26.9208C29.629 27.3056 30.4387 27.6685 31.2978 28.0643ZM29.1554 28.0643C28.9351 27.9598 28.7588 27.8884 28.5936 27.7949C28.3237 27.6465 28.0373 27.6025 27.7289 27.6025C26.2088 27.6135 24.6887 27.6025 23.1686 27.6025C17.0386 27.6025 10.9086 27.6025 4.7731 27.6025C4.36554 27.6025 3.95798 27.597 3.5449 27.608C3.44026 27.608 3.3246 27.6245 3.23648 27.674C3.04922 27.7674 2.97211 27.9873 3.02719 28.1907C3.08777 28.4051 3.27503 28.5206 3.56693 28.5206C11.6962 28.5206 19.831 28.5206 27.9602 28.5206C28.0428 28.5206 28.1365 28.5206 28.2136 28.4876C28.5165 28.3612 28.8084 28.2237 29.1554 28.0643Z" fill="white"/>
<path id="Vector_3" d="M18.2668 15.2111C17.9639 15.2111 17.6775 15.2111 17.3746 15.2111C17.3746 14.7548 17.3636 14.3095 17.3801 13.8697C17.3856 13.6773 17.325 13.5618 17.1598 13.4739C16.4769 13.133 15.7939 12.7922 15.0559 12.4183C15.0559 12.9846 15.0559 13.5013 15.0559 14.0511C14.5822 13.8862 14.1471 13.7597 13.7341 13.5838C13.4036 13.4464 13.1062 13.4409 12.7702 13.5783C12.3516 13.7542 11.911 13.8807 11.4429 14.0401C11.4429 13.4793 11.4429 12.9461 11.4429 12.3853C11.3493 12.4128 11.2942 12.4293 11.2391 12.4513C10.6553 12.6932 10.077 12.9406 9.49319 13.177C9.24534 13.2759 9.11867 13.4464 9.12418 13.7212C9.13519 14.205 9.12418 14.6943 9.12418 15.2001C8.83227 15.2001 8.54587 15.2001 8.23194 15.2001C8.23194 15.0956 8.23194 14.9802 8.23194 14.8592C8.23194 14.4579 8.22643 14.0566 8.23194 13.6553C8.23745 13.0395 8.54037 12.6107 9.10215 12.3743C9.80161 12.0775 10.5011 11.7916 11.2006 11.4947C11.4649 11.3848 11.531 11.0659 11.3327 10.846C11.0959 10.5766 10.8481 10.3183 10.6167 10.0434C10.5562 9.97191 10.5121 9.85646 10.5066 9.763C10.4956 9.0923 10.5011 8.4161 10.5011 7.74539C10.5011 7.30009 10.6718 6.94275 11.0078 6.65688C11.2666 6.44247 11.52 6.21707 11.7733 5.99717C12.0542 5.74978 12.3792 5.62334 12.7537 5.62883C13.0897 5.63433 13.4256 5.62883 13.7671 5.62883C14.1031 5.62883 14.4005 5.73879 14.6538 5.95319C14.9402 6.19508 15.2211 6.43698 15.502 6.67887C15.827 6.95375 15.9922 7.31109 15.9922 7.7344C15.9977 8.4161 15.9977 9.0923 15.9922 9.77399C15.9922 9.86195 15.9426 9.96641 15.882 10.0379C15.6617 10.3018 15.4249 10.5546 15.1991 10.8075C14.9568 11.0769 15.0118 11.3958 15.3258 11.5497C15.9647 11.8686 16.609 12.1819 17.2479 12.5063C17.4627 12.6162 17.6665 12.7537 17.8593 12.9021C18.1347 13.1165 18.2668 13.4024 18.2558 13.7652C18.2558 14.2435 18.2668 14.7163 18.2668 15.2111ZM12.3296 12.7977C12.5885 12.7097 12.8033 12.6492 13.0071 12.5613C13.1778 12.4898 13.332 12.4953 13.5027 12.5613C13.712 12.6437 13.9268 12.7097 14.1802 12.7977C14.1802 12.6767 14.1802 12.5997 14.1802 12.5228C14.1857 11.951 14.1857 11.3793 14.2022 10.8075C14.2077 10.6976 14.2573 10.5711 14.3234 10.4832C14.5437 10.2138 14.7915 9.96091 15.0173 9.69153C15.0724 9.62556 15.1165 9.5321 15.1165 9.44414C15.1275 8.89438 15.122 8.34463 15.122 7.78937C15.122 7.59696 15.0504 7.44853 14.9017 7.32208C14.6483 7.11317 14.4115 6.88228 14.1471 6.68986C14.026 6.6019 13.8552 6.54143 13.701 6.53043C13.4091 6.50295 13.1117 6.50295 12.8198 6.53043C12.6656 6.54143 12.5004 6.6019 12.3737 6.68986C12.1203 6.87678 11.8945 7.09668 11.6522 7.30009C11.4814 7.43753 11.4098 7.60246 11.4154 7.82236C11.4264 8.35013 11.4098 8.88339 11.4209 9.41115C11.4209 9.52111 11.4814 9.64205 11.553 9.72452C11.7678 9.9829 12.0102 10.2193 12.2195 10.4832C12.2856 10.5601 12.3296 10.6811 12.3351 10.7855C12.3461 11.3573 12.3406 11.929 12.3406 12.5008C12.3296 12.5887 12.3296 12.6712 12.3296 12.7977Z" fill="white"/>
<path id="Vector_4" d="M5.31836 32.16C5.31836 31.5717 5.31836 30.989 5.31836 30.3953C5.60476 30.3953 5.88565 30.3953 6.19407 30.3953C6.19407 30.6811 6.19407 30.9725 6.19407 31.2749C13.5578 31.2749 20.8939 31.2749 28.2521 31.2749C28.2521 30.9945 28.2521 30.7251 28.2521 30.4337C28.555 30.4337 28.8359 30.4337 29.1334 30.4337C29.1334 31 29.1334 31.5662 29.1334 32.16C21.2079 32.16 13.2769 32.16 5.31836 32.16Z" fill="white"/>
<path id="Vector_5" d="M26.0871 25.7717C25.1728 25.7717 24.2861 25.7717 23.3828 25.7717C23.3828 23.1769 23.3828 20.593 23.3828 17.9927C24.2861 17.9927 25.1838 17.9927 26.0871 17.9927C26.0871 20.5875 26.0871 23.1714 26.0871 25.7717ZM25.1948 18.8668C24.958 18.8668 24.7542 18.8668 24.5449 18.8668C24.264 18.8668 24.2585 18.8668 24.2585 19.1472C24.2585 20.9779 24.2585 22.8085 24.2585 24.6447C24.2585 24.7217 24.2695 24.7987 24.275 24.8811C24.589 24.8811 24.8864 24.8811 25.1948 24.8811C25.1948 22.8745 25.1948 20.8899 25.1948 18.8668Z" fill="white"/>
<path id="Vector_6" d="M18.7456 19.8235C18.7456 21.8081 18.7456 23.7817 18.7456 25.7663C17.8479 25.7663 16.9556 25.7663 16.0469 25.7663C16.0469 23.7872 16.0469 21.8081 16.0469 19.8235C16.9501 19.8235 17.8424 19.8235 18.7456 19.8235ZM17.8479 24.8812C17.8479 23.4904 17.8479 22.105 17.8479 20.7251C17.5339 20.7251 17.2365 20.7251 16.9336 20.7251C16.9336 22.116 16.9336 23.4959 16.9336 24.8812C17.242 24.8812 17.5394 24.8812 17.8479 24.8812Z" fill="white"/>
<path id="Vector_7" d="M22.4197 25.7718C21.5165 25.7718 20.6187 25.7718 19.71 25.7718C19.71 24.1006 19.71 22.4293 19.71 20.7471C20.6132 20.7471 21.511 20.7471 22.4197 20.7471C22.4197 22.4238 22.4197 24.0896 22.4197 25.7718ZM21.522 24.8812C21.522 23.7817 21.522 22.7152 21.522 21.6157C21.2741 21.6157 21.0373 21.6267 20.806 21.6102C20.6407 21.6047 20.5802 21.6542 20.5857 21.8301C20.5912 22.7812 20.5912 23.7322 20.5912 24.6833C20.5912 24.7438 20.6022 24.8098 20.6077 24.8757C20.9161 24.8812 21.2135 24.8812 21.522 24.8812Z" fill="white"/>
<path id="Vector_8" d="M12.3682 22.116C13.2824 22.116 14.1747 22.116 15.0724 22.116C15.0724 23.3364 15.0724 24.5459 15.0724 25.7663C14.1692 25.7663 13.2769 25.7663 12.3682 25.7663C12.3682 24.5569 12.3682 23.3474 12.3682 22.116ZM14.1857 24.8812C14.1857 24.2765 14.1857 23.6883 14.1802 23.0945C14.1802 23.0615 14.0865 23.0011 14.0315 22.9956C13.8222 22.9846 13.6184 22.9956 13.4091 22.9901C13.2879 22.9846 13.2439 23.0396 13.2439 23.155C13.2494 23.6938 13.2439 24.227 13.2494 24.7658C13.2494 24.8043 13.2714 24.8428 13.2769 24.8812C13.5798 24.8812 13.8717 24.8812 14.1857 24.8812Z" fill="white"/>
<path id="Vector_9" d="M8.69434 23.0396C9.60309 23.0396 10.4953 23.0396 11.3986 23.0396C11.3986 23.9576 11.3986 24.8537 11.3986 25.7663C10.4953 25.7663 9.60309 25.7663 8.69434 25.7663C8.69434 24.8647 8.69434 23.9631 8.69434 23.0396ZM10.5119 23.9192C10.2199 23.9192 9.95008 23.9137 9.6802 23.9247C9.64165 23.9247 9.57556 23.9851 9.57556 24.0236C9.56454 24.304 9.57005 24.5899 9.57005 24.8757C9.90051 24.8757 10.2034 24.8757 10.5119 24.8757C10.5119 24.5514 10.5119 24.2545 10.5119 23.9192Z" fill="white"/>
<path id="Vector_10" d="M26.589 12.4621C24.2868 12.4621 22.0066 12.4621 19.71 12.4621C19.71 12.1708 19.71 11.8959 19.71 11.6045C19.7926 11.599 19.8697 11.588 19.9468 11.588C22.0837 11.588 24.2207 11.588 26.3577 11.5825C26.5284 11.5825 26.6055 11.621 26.589 11.8079C26.578 12.0223 26.589 12.2367 26.589 12.4621Z" fill="white"/>
<path id="Vector_11" d="M25.6523 9.77954C25.6523 10.0819 25.6523 10.3568 25.6523 10.6427C23.6696 10.6427 21.6924 10.6427 19.7041 10.6427C19.7041 10.3513 19.7041 10.0709 19.7041 9.77954C21.6924 9.77954 23.6696 9.77954 25.6523 9.77954Z" fill="white"/>
<path id="Vector_12" d="M19.7041 14.2874C19.7041 13.9961 19.7041 13.7267 19.7041 13.4353C21.3784 13.4353 23.0472 13.4353 24.7381 13.4353C24.7381 13.7157 24.7381 13.9961 24.7381 14.2874C23.0582 14.2874 21.3894 14.2874 19.7041 14.2874Z" fill="white"/>
<path id="Vector_13" d="M20.1447 17.0309C19.8803 17.0309 19.6325 17.0363 19.3846 17.0254C19.3461 17.0254 19.2745 16.9539 19.2745 16.9154C19.2634 16.668 19.269 16.4206 19.269 16.1567C19.5719 16.1567 19.8528 16.1567 20.1447 16.1567C20.1447 16.4371 20.1447 16.712 20.1447 17.0309Z" fill="white"/>
<path id="Vector_14" d="M21.1084 17.0306C21.1084 16.7228 21.1084 16.4534 21.1084 16.151C21.3728 16.151 21.6316 16.1455 21.896 16.1565C21.929 16.1565 21.9896 16.239 21.9896 16.283C22.0006 16.4919 22.0006 16.6953 21.9896 16.9042C21.9896 16.9482 21.929 17.0251 21.8905 17.0306C21.6371 17.0361 21.3838 17.0306 21.1084 17.0306Z" fill="white"/>
<path id="Vector_15" d="M8.25977 16.1511C8.55167 16.1511 8.83256 16.1511 9.11895 16.1511C9.11895 16.437 9.11895 16.7174 9.11895 17.0087C8.83256 17.0087 8.55167 17.0087 8.25977 17.0087C8.25977 16.7284 8.25977 16.4535 8.25977 16.1511Z" fill="white"/>
<path id="Vector_16" d="M10.0829 16.1457C10.3583 16.1457 10.6006 16.1402 10.843 16.1512C10.8925 16.1567 10.9421 16.2336 10.9751 16.2886C10.9917 16.3216 10.9807 16.3711 10.9807 16.415C10.9696 16.613 10.9586 16.8109 10.9476 17.0088C10.6998 17.0143 10.4464 17.0308 10.1986 17.0253C10.16 17.0253 10.0939 16.9373 10.0939 16.8878C10.0774 16.6459 10.0829 16.4095 10.0829 16.1457Z" fill="white"/>
<path id="Vector_17" d="M11.9169 16.1567C12.2198 16.1567 12.4952 16.1567 12.8091 16.1567C12.8091 16.4206 12.8146 16.679 12.8036 16.9374C12.8036 16.9704 12.7155 17.0199 12.6659 17.0254C12.4677 17.0363 12.2639 17.0363 12.0656 17.0254C12.016 17.0199 11.9279 16.9539 11.9279 16.9154C11.9114 16.668 11.9169 16.4206 11.9169 16.1567Z" fill="white"/>
<path id="Vector_18" d="M13.7564 16.1567C14.0593 16.1567 14.3347 16.1567 14.6266 16.1567C14.6266 16.4426 14.6266 16.723 14.6266 17.0309C14.3677 17.0309 14.1199 17.0363 13.872 17.0254C13.828 17.0254 13.7619 16.9429 13.7564 16.8934C13.7508 16.657 13.7564 16.4206 13.7564 16.1567Z" fill="white"/>
<path id="Vector_19" d="M25.6473 17.0197C25.3609 17.0197 25.0855 17.0197 24.7881 17.0197C24.7881 16.7339 24.7881 16.459 24.7881 16.1621C25.0635 16.1621 25.3444 16.1621 25.6473 16.1621C25.6473 16.437 25.6473 16.7119 25.6473 17.0197Z" fill="white"/>
<path id="Vector_20" d="M22.9538 16.1457C23.2072 16.1457 23.455 16.1402 23.7029 16.1512C23.7469 16.1512 23.813 16.2336 23.8185 16.2831C23.8295 16.481 23.835 16.6844 23.8185 16.8823C23.813 16.9373 23.7249 16.9813 23.6698 17.0308C23.6643 17.0363 23.6533 17.0308 23.6478 17.0308C22.9098 17.0802 22.8492 17.0143 22.9538 16.1457Z" fill="white"/>
<path id="Vector_21" d="M15.5954 16.1457C15.8707 16.1457 16.1186 16.1402 16.3664 16.1512C16.4105 16.1512 16.4766 16.2336 16.4821 16.2831C16.4931 16.4975 16.4931 16.7064 16.4821 16.9208C16.4821 16.9593 16.394 17.0253 16.3444 17.0308C16.1461 17.0418 15.9423 17.0363 15.7441 17.0363C15.6394 17.0363 15.5898 16.9978 15.5898 16.8878C15.6009 16.6459 15.5954 16.4095 15.5954 16.1457Z" fill="white"/>
<path id="Vector_22" d="M17.4242 16.1456C17.6831 16.1456 17.9144 16.1346 18.1457 16.1566C18.2063 16.1621 18.2944 16.2665 18.3054 16.3325C18.3275 16.5139 18.3275 16.7063 18.3054 16.8877C18.2999 16.9427 18.2118 17.0197 18.1567 17.0252C17.953 17.0417 17.7437 17.0362 17.5399 17.0252C17.5013 17.0197 17.4352 16.9372 17.4297 16.8877C17.4187 16.6458 17.4242 16.4095 17.4242 16.1456Z" fill="white"/>
</g>
</g>
</svg>
