<svg width="100" height="48" viewBox="0 0 100 48" fill="none" xmlns="http://www.w3.org/2000/svg">
<g id="choose-2 2" clip-path="url(#clip0_475_3885)">
<g id="Group">
<g id="Group_2">
<path id="Vector" d="M11.3384 17.0107C12.3203 16.8117 13.2554 16.6712 14.1672 16.5893C15.0672 16.5073 15.9439 16.4605 16.7972 16.4605C19.2753 16.4605 21.4728 16.8351 23.3781 17.5844C25.2835 18.3337 26.8849 19.3639 28.1824 20.6751C29.4798 21.9863 30.45 23.52 31.1046 25.2878C31.7592 27.0556 32.0865 28.9522 32.0865 30.9776C32.0865 33.5063 31.6423 35.8127 30.7423 37.8966C29.8539 39.9805 28.6148 41.7717 27.0368 43.2585C25.4588 44.7571 23.5769 45.9161 21.391 46.7473C19.1935 47.5785 16.7972 48 14.2139 48C12.706 48 11.2683 47.8361 9.90064 47.52C8.53302 47.2039 7.24722 46.7824 6.06663 46.2439C4.87434 45.7054 3.77557 45.0966 2.74693 44.3941C1.71829 43.7034 0.806546 42.9659 0 42.2049L2.782 38.4117C3.36645 37.6039 4.12624 37.2059 5.07306 37.2059C5.65751 37.2059 6.24196 37.3815 6.80304 37.7327C7.36412 38.0839 8.00701 38.4702 8.73174 38.8917C9.44477 39.3132 10.2864 39.6995 11.2449 40.0507C12.2034 40.4019 13.3723 40.5776 14.7399 40.5776C16.1543 40.5776 17.3817 40.3434 18.4337 39.8751C19.474 39.4068 20.3507 38.7629 21.0286 37.9434C21.7183 37.1239 22.2209 36.1522 22.5599 35.0283C22.8989 33.9044 23.0625 32.6985 23.0625 31.4107C23.0625 28.9405 22.3612 27.0439 20.9585 25.6976C19.5558 24.3512 17.5102 23.6839 14.8334 23.6839C12.6359 23.6839 10.4267 24.0937 8.20573 24.9249L2.61835 23.3561L6.60433 0H30.3916V3.79317C30.3916 4.42537 30.2981 4.99902 30.111 5.51415C29.924 6.02927 29.6201 6.47415 29.1993 6.86049C28.7785 7.24683 28.2291 7.53951 27.5628 7.73854C26.8849 7.94927 26.0783 8.04293 25.1198 8.04293H12.8697L11.3384 17.0107Z" fill="#EF5DA8"/>
<path id="Vector_2" d="M50.1821 19.598H52.1108C53.7239 19.598 54.8928 19.0946 55.6059 18.0878L67.5872 2.02537C68.1482 1.26439 68.7794 0.737561 69.4457 0.433171C70.1237 0.152195 70.9536 0 71.9355 0H80.4334L65.3312 19.4693C64.3493 20.7337 63.344 21.6351 62.292 22.1854C63.0518 22.4898 63.7415 22.8878 64.3493 23.3795C64.9571 23.8712 65.5416 24.5151 66.1143 25.3229L81.6024 47.4732H72.8823C72.3212 47.4732 71.8303 47.4263 71.4329 47.3444C71.0237 47.2624 70.6731 47.1337 70.3692 46.9815C70.0652 46.8293 69.8081 46.642 69.586 46.4078C69.3639 46.1737 69.1652 45.9161 68.9665 45.6117L56.7748 28.5307C56.3656 27.9454 55.8747 27.5239 55.3019 27.2663C54.7409 27.0205 53.946 26.8917 52.9174 26.8917H50.1704V47.4732H40.375V0H50.1704V19.598H50.1821Z" fill="#EF5DA8"/>
</g>
<g id="Group_3">
<g id="Group_4">
<g id="Group_5">
<g id="Group_6">
<path id="Vector_3" d="M100 21.8108H92.0285V30.3221H87.3295V21.8108H79.4043V17.5845H87.3295V9.1084H92.0285V17.5962H100V21.8108Z" fill="#702A85"/>
</g>
</g>
</g>
</g>
</g>
</g>
<defs>
<clipPath id="clip0_475_3885">
<rect width="100" height="48" fill="white"/>
</clipPath>
</defs>
</svg>
