<svg width="40" height="24" viewBox="0 0 40 24" fill="none" xmlns="http://www.w3.org/2000/svg">
<g id="exp-2 2" clip-path="url(#clip0_475_3962)">
<g id="Group">
<path id="Vector" d="M28.999 10.6195C29.4433 10.6195 29.7731 10.6419 30.1029 10.615C30.6847 10.5702 30.8816 10.8213 30.8771 11.3818C30.8587 13.8795 30.8679 16.3816 30.8679 18.8793C30.8679 20.3366 30.8496 21.7895 30.8771 23.2468C30.8862 23.8118 30.6847 24.0091 30.1029 24.0046C24.2899 23.9912 18.4724 23.9912 12.6594 24.0046C12.0868 24.0046 11.8669 23.8253 11.8761 23.2513C11.8944 22.3276 11.8669 22.3276 10.9645 22.3231C10.0117 22.3186 10.0117 22.3186 10.0117 21.3725C10.0117 17.5251 10.0117 13.6822 10.0117 9.83478C10.0117 9.02315 10.0529 8.97382 10.8683 8.97382C16.6172 8.96934 22.366 8.96934 28.1149 8.97382C28.9394 8.97382 28.999 9.04108 29.0081 9.87962C28.999 10.0949 28.999 10.3056 28.999 10.6195ZM27.5469 21.4846C25.6229 19.3725 23.809 17.3816 21.9721 15.3682C21.3262 15.9018 20.749 16.3726 20.1764 16.8524C19.471 17.4354 19.4664 17.4354 18.7426 16.8345C18.17 16.3592 17.5975 15.8839 16.9745 15.3682C15.1284 17.395 13.3099 19.386 11.3951 21.489C16.8462 21.4846 22.1049 21.4846 27.5469 21.4846ZM27.2491 10.0186C27.1987 9.96033 27.1483 9.89755 27.0934 9.83926C22.0087 9.83926 16.9241 9.83926 11.7432 9.83926C11.8761 9.9962 11.9356 10.0814 12.0089 10.1442C14.3772 12.1127 16.75 14.0723 19.1091 16.0543C19.4343 16.3278 19.6221 16.2292 19.8924 16.0005C22.1736 14.0992 24.464 12.2114 26.759 10.328C26.9055 10.207 27.0842 10.1218 27.2491 10.0186ZM28.0828 20.8119C28.0828 17.247 28.0828 13.8615 28.0828 10.3191C26.2001 11.8706 24.4365 13.3324 22.6271 14.8256C24.4457 16.8255 26.2093 18.7582 28.0828 20.8119ZM10.8866 20.7805C12.7739 18.7134 14.5283 16.7807 16.3194 14.8211C14.4963 13.31 12.7464 11.8616 10.8866 10.3191C10.8866 13.8436 10.8866 17.2157 10.8866 20.7805ZM29.3104 23.1123C28.999 22.6011 28.7104 22.3052 28.092 22.3096C23.5891 22.3321 19.0862 22.3321 14.5879 22.3141C13.9787 22.3096 13.6763 22.5877 13.4519 23.1123C18.7426 23.1123 23.983 23.1123 29.3104 23.1123ZM29.9701 22.3679C29.9701 18.8793 29.9701 15.5117 29.9701 12.0544C29.37 12.4311 28.9577 12.736 28.976 13.4893C29.031 15.8749 29.031 18.2605 28.976 20.646C28.9577 21.4352 29.3379 21.8747 29.9701 22.3679Z" fill="white"/>
<path id="Vector_2" d="M4.55184 16.8209C5.20689 16.8209 5.85736 16.8434 6.50783 16.8389C7.29572 16.8344 7.47436 17.5384 6.52157 17.5967C5.86652 17.637 5.20231 17.6146 4.46023 17.7536C4.66178 17.9196 4.86333 18.0989 5.05115 18.2603C5.36264 18.5339 4.85875 19.0675 4.57475 18.8926C3.95634 18.4801 3.3471 18.0406 2.78825 17.5474C2.66915 17.4442 2.68748 16.9779 2.81116 16.8658C3.35169 16.386 3.93344 15.951 4.54726 15.5609C4.9183 15.3277 5.41761 15.8568 5.01908 16.2021C4.85417 16.3456 4.67552 16.4981 4.49687 16.6416C4.51978 16.7044 4.53352 16.7626 4.55184 16.8209Z" fill="white"/>
<path id="Vector_3" d="M7.19461 6.0949C7.68934 6.51192 8.16574 6.95137 8.66046 7.36391C9.26054 7.86613 8.92156 8.51185 8.16115 7.94236C7.63895 7.55224 7.15339 7.10831 6.50292 6.73613C6.54415 6.99173 6.57621 7.25629 6.60828 7.49843C6.66325 7.90649 5.92116 7.98272 5.82497 7.67331C5.63258 6.96034 5.47225 6.23839 5.38064 5.51196C5.36231 5.3595 5.68297 5.01871 5.85703 5.01422C6.58537 5.00077 7.3183 5.04113 8.03747 5.14426C8.47265 5.20704 8.49555 5.92899 7.96418 5.93347C7.74431 5.93347 7.50611 5.93796 7.27707 5.92899C7.245 5.98728 7.2221 6.04109 7.19461 6.0949Z" fill="white"/>
<path id="Vector_4" d="M20.1938 2.21461C20.1728 2.85266 20.1286 3.49277 20.1126 4.12684C20.0912 4.90011 19.3662 5.04935 19.3361 4.10835C19.3161 3.466 19.3613 2.81697 19.2445 2.08778C19.0676 2.2811 18.882 2.46901 18.7065 2.64895C18.4176 2.94322 17.891 2.43247 18.0763 2.15888C18.5205 1.56983 18.987 0.987622 19.5076 0.460698C19.616 0.350345 20.0916 0.382304 20.2024 0.51118C20.6748 1.0568 21.1014 1.6427 21.4747 2.25455C21.7028 2.62571 21.1418 3.09879 20.8067 2.69384C20.6678 2.52594 20.5161 2.34768 20.374 2.16592C20.3119 2.18645 20.2508 2.19806 20.1938 2.21461Z" fill="white"/>
<path id="Vector_5" d="M35.6693 16.8209C35.0143 16.8209 34.3638 16.8434 33.7134 16.8389C32.9255 16.8344 32.7468 17.5384 33.6996 17.5967C34.3547 17.637 35.0189 17.6146 35.761 17.7536C35.5594 17.9196 35.3579 18.0989 35.17 18.2603C34.8586 18.5339 35.3624 19.0675 35.6464 18.8926C36.2648 18.4801 36.8741 18.0406 37.4329 17.5474C37.552 17.4442 37.5337 16.9779 37.41 16.8658C36.8695 16.386 36.2878 15.951 35.6739 15.5609C35.3029 15.3277 34.8036 15.8568 35.2021 16.2021C35.367 16.3456 35.5457 16.4981 35.7243 16.6416C35.7014 16.7044 35.6831 16.7626 35.6693 16.8209Z" fill="white"/>
<path id="Vector_6" d="M31.6793 6.0949C31.1846 6.51192 30.7082 6.95137 30.2135 7.36391C29.6134 7.86613 29.9524 8.51185 30.7128 7.94236C31.235 7.55224 31.7205 7.10831 32.371 6.73613C32.3298 6.99173 32.2977 7.25629 32.2656 7.49843C32.2107 7.90649 32.9528 7.98272 33.0489 7.67331C33.2413 6.96034 33.4017 6.23839 33.4933 5.51196C33.5116 5.3595 33.191 5.01871 33.0169 5.01422C32.2885 5.00077 31.5556 5.04113 30.8364 5.14426C30.4013 5.20704 30.3784 5.92899 30.9097 5.93347C31.1296 5.93347 31.3678 5.93796 31.5968 5.92899C31.6289 5.98728 31.6518 6.04109 31.6793 6.0949Z" fill="white"/>
</g>
</g>
<defs>
<clipPath id="clip0_475_3962">
<rect width="38.8" height="24" fill="white" transform="translate(0.310547)"/>
</clipPath>
</defs>
</svg>
