<svg xmlns="http://www.w3.org/2000/svg" width="100" height="100" viewBox="0 0 100 100">
  <g id="_100_" data-name="100%" transform="translate(1166 -8890)">
    <g id="Rectangle_10474" data-name="Rectangle 10474" transform="translate(-1166 8890)" fill="#fff" stroke="#707070" stroke-width="1" opacity="0">
      <rect width="100" height="100" stroke="none"/>
      <rect x="0.5" y="0.5" width="99" height="99" fill="none"/>
    </g>
    <g id="Frame_36" data-name="Frame 36" transform="translate(-1166 8890)">
      <g id="Group">
        <path id="Vector" d="M28.526,65.011v5.779H6.034V65.011h7.959V42.395c0-.49.01-1,.03-1.513s.05-1.033.081-1.565l-5.249,4.5a2.708,2.708,0,0,1-1.082.542,2.275,2.275,0,0,1-.991.01,2.2,2.2,0,0,1-.829-.344,2.082,2.082,0,0,1-.556-.5L3,40.194,15.318,29.428h6.27V65.022h6.938Z" fill="#ef5da8"/>
        <path id="Vector_2" d="M62.587,50.114a34.482,34.482,0,0,1-1.133,9.4,19.609,19.609,0,0,1-3.125,6.593,12.483,12.483,0,0,1-4.713,3.87,14.13,14.13,0,0,1-11.721,0,12.542,12.542,0,0,1-4.672-3.87,19.875,19.875,0,0,1-3.084-6.593,34.908,34.908,0,0,1-1.123-9.4,34.773,34.773,0,0,1,1.123-9.389,19.717,19.717,0,0,1,3.084-6.583,12.291,12.291,0,0,1,4.672-3.87,14.13,14.13,0,0,1,11.721,0,12.66,12.66,0,0,1,4.713,3.87,19.746,19.746,0,0,1,3.125,6.583A34.745,34.745,0,0,1,62.587,50.114Zm-7.878,0a36.583,36.583,0,0,0-.6-7.24,15.44,15.44,0,0,0-1.557-4.507,5.762,5.762,0,0,0-2.225-2.306,5.511,5.511,0,0,0-2.579-.657,5.374,5.374,0,0,0-2.559.657,5.827,5.827,0,0,0-2.185,2.306,15.48,15.48,0,0,0-1.537,4.507,37.494,37.494,0,0,0-.576,7.24,37.846,37.846,0,0,0,.576,7.271,15.187,15.187,0,0,0,1.537,4.507A5.758,5.758,0,0,0,45.192,64.2a5.346,5.346,0,0,0,2.559.657,5.482,5.482,0,0,0,2.579-.657,5.832,5.832,0,0,0,2.225-2.306,15.043,15.043,0,0,0,1.557-4.507A36.852,36.852,0,0,0,54.709,50.114Z" fill="#ef5da8"/>
        <path id="Vector_3" d="M90.168,62.382a11.457,11.457,0,0,1-5.188-1.241c-.121.261-.253.511-.384.741a5.762,5.762,0,0,1-2.225,2.305,5.512,5.512,0,0,1-2.579.657,5.374,5.374,0,0,1-2.559-.657,5.827,5.827,0,0,1-2.185-2.305,15.373,15.373,0,0,1-1.537-4.507,37.7,37.7,0,0,1-.576-7.271,37.568,37.568,0,0,1,.576-7.24,15.187,15.187,0,0,1,1.537-4.507,5.757,5.757,0,0,1,2.185-2.305,5.345,5.345,0,0,1,2.559-.657,5.482,5.482,0,0,1,2.579.657A5.831,5.831,0,0,1,84.6,38.357a8.114,8.114,0,0,1,.455.9,11.39,11.39,0,0,1,5.107-1.2,11.1,11.1,0,0,1,2.518.282,17.373,17.373,0,0,0-2.316-4.215,12.483,12.483,0,0,0-4.713-3.87A13.908,13.908,0,0,0,79.792,29a13.61,13.61,0,0,0-5.856,1.273,12.541,12.541,0,0,0-4.672,3.87,19.913,19.913,0,0,0-3.085,6.583,34.773,34.773,0,0,0-1.123,9.389,34.908,34.908,0,0,0,1.123,9.4,19.58,19.58,0,0,0,3.085,6.593,12.29,12.29,0,0,0,4.672,3.87,14.13,14.13,0,0,0,11.721,0,12.66,12.66,0,0,0,4.713-3.87A17.408,17.408,0,0,0,92.6,62.122,10.966,10.966,0,0,1,90.168,62.382Z" fill="#ef5da8"/>
        <g id="Group_2">
          <g id="Group_3">
            <g id="Group_4">
              <g id="Group_5">
                <path id="Vector_4" d="M89.508,46.714a3.58,3.58,0,0,1-.253,1.377,3.405,3.405,0,0,1-.688,1.064,3.167,3.167,0,0,1-.991.689,3.03,3.03,0,0,1-1.173.24,3.182,3.182,0,0,1-1.234-.24,2.692,2.692,0,0,1-.971-.689,3.256,3.256,0,0,1-.647-1.064,3.919,3.919,0,0,1-.233-1.377,4.161,4.161,0,0,1,.233-1.419,2.933,2.933,0,0,1,2.852-2,3.269,3.269,0,0,1,1.244.24,2.908,2.908,0,0,1,.981.688,3.307,3.307,0,0,1,.647,1.075A3.891,3.891,0,0,1,89.508,46.714Zm4.268-2.9a1.306,1.306,0,0,1,.3-.271.855.855,0,0,1,.5-.125h1.82l-9.84,13.207a1.151,1.151,0,0,1-.314.271.856.856,0,0,1-.445.1H83.935Zm-6.189,2.9a3.354,3.354,0,0,0-.091-.845,1.4,1.4,0,0,0-.253-.542.845.845,0,0,0-.374-.292,1.161,1.161,0,0,0-.465-.094,1.113,1.113,0,0,0-.455.094.9.9,0,0,0-.364.292,1.472,1.472,0,0,0-.233.542,3.355,3.355,0,0,0-.091.845,3.127,3.127,0,0,0,.091.824,1.6,1.6,0,0,0,.233.532.8.8,0,0,0,.364.282,1.31,1.31,0,0,0,.455.083,1.413,1.413,0,0,0,.465-.083.82.82,0,0,0,.374-.282,1.6,1.6,0,0,0,.253-.532A3.181,3.181,0,0,0,87.586,46.714ZM97,53.818a3.58,3.58,0,0,1-.253,1.377,3.4,3.4,0,0,1-.688,1.064,2.973,2.973,0,0,1-.991.678,3.028,3.028,0,0,1-1.173.24,3.181,3.181,0,0,1-1.234-.24,2.8,2.8,0,0,1-.971-.678,3.258,3.258,0,0,1-.647-1.064,3.919,3.919,0,0,1-.233-1.377,4.161,4.161,0,0,1,.233-1.419,2.992,2.992,0,0,1,.647-1.074,2.8,2.8,0,0,1,.971-.678,3.181,3.181,0,0,1,1.234-.24,3.269,3.269,0,0,1,1.244.24,2.745,2.745,0,0,1,.981.678,3.308,3.308,0,0,1,.647,1.074A3.891,3.891,0,0,1,97,53.818Zm-1.922,0a3.355,3.355,0,0,0-.091-.845,1.4,1.4,0,0,0-.253-.542.845.845,0,0,0-.374-.292,1.161,1.161,0,0,0-.465-.094,1.113,1.113,0,0,0-.455.094.9.9,0,0,0-.364.292,1.468,1.468,0,0,0-.233.542,3.354,3.354,0,0,0-.091.845,3.126,3.126,0,0,0,.091.824,1.594,1.594,0,0,0,.233.532.8.8,0,0,0,.364.282,1.308,1.308,0,0,0,.455.083,1.411,1.411,0,0,0,.465-.083.82.82,0,0,0,.374-.282,1.6,1.6,0,0,0,.253-.532A3.181,3.181,0,0,0,95.08,53.818Z" fill="#702a85"/>
              </g>
            </g>
          </g>
        </g>
      </g>
    </g>
  </g>
</svg>
