<svg width="100" height="100" viewBox="0 0 100 100" fill="none" xmlns="http://www.w3.org/2000/svg">
<g id="Frame 36">
<g id="Group">
<path id="Vector" d="M28.5259 65.0114V70.7907H6.03398V65.0114H13.9931V42.3947C13.9931 41.9044 14.0032 41.3933 14.0235 40.8821C14.0437 40.3709 14.074 39.8493 14.1044 39.3173L8.85558 43.8135C8.49151 44.0952 8.12743 44.2829 7.77346 44.356C7.4195 44.429 7.09587 44.4394 6.78236 44.3664C6.46885 44.3038 6.19579 44.1891 5.95308 44.0221C5.71036 43.8657 5.52832 43.6987 5.39685 43.5214L3 40.1936L15.318 29.4277H21.5882V65.0218H28.5259V65.0114Z" fill="#EF5DA8"/>
<path id="Vector_2" d="M62.5868 50.1144C62.5868 53.7239 62.2126 56.8535 61.4541 59.5137C60.6956 62.1738 59.654 64.375 58.3291 66.1067C57.0043 67.8489 55.4367 69.132 53.6164 69.977C51.8061 70.822 49.8441 71.2497 47.7507 71.2497C45.6471 71.2497 43.6952 70.822 41.8951 69.977C40.0949 69.132 38.5375 67.8384 37.2227 66.1067C35.9181 64.3646 34.8866 62.1738 34.1382 59.5137C33.3898 56.8535 33.0156 53.7239 33.0156 50.1144C33.0156 46.5049 33.3898 43.3753 34.1382 40.7256C34.8866 38.0759 35.908 35.8851 37.2227 34.143C38.5274 32.4008 40.0848 31.1177 41.8951 30.2727C43.6952 29.4277 45.6471 29 47.7507 29C49.8542 29 51.8061 29.4277 53.6164 30.2727C55.4266 31.1177 57.0043 32.4113 58.3291 34.143C59.654 35.8851 60.6956 38.0759 61.4541 40.7256C62.2025 43.3753 62.5868 46.5049 62.5868 50.1144ZM54.7086 50.1144C54.7086 47.1935 54.5063 44.7732 54.1119 42.8746C53.7175 40.976 53.1916 39.4738 52.5545 38.368C51.9072 37.2622 51.1689 36.5006 50.3295 36.0625C49.4901 35.6243 48.6305 35.4053 47.7507 35.4053C46.8708 35.4053 46.0112 35.6243 45.192 36.0625C44.3728 36.5006 43.6447 37.2726 43.0075 38.368C42.3704 39.4738 41.8647 40.976 41.4703 42.8746C41.086 44.7732 40.8939 47.183 40.8939 50.1144C40.8939 53.0563 41.086 55.4765 41.4703 57.3855C41.8546 59.2842 42.3704 60.7864 43.0075 61.8922C43.6447 62.998 44.3728 63.7595 45.192 64.1977C46.0112 64.6358 46.8607 64.8549 47.7507 64.8549C48.6305 64.8549 49.5003 64.6358 50.3295 64.1977C51.1689 63.7595 51.9072 62.9875 52.5545 61.8922C53.2017 60.7864 53.7175 59.2946 54.1119 57.3855C54.5063 55.4765 54.7086 53.0563 54.7086 50.1144Z" fill="#EF5DA8"/>
<path id="Vector_3" d="M90.1679 62.3825C88.3071 62.3825 86.5473 61.9339 84.9798 61.1411C84.8584 61.4019 84.727 61.6522 84.5955 61.8818C83.9482 62.9875 83.21 63.7491 82.3706 64.1872C81.5312 64.6254 80.6715 64.8444 79.7917 64.8444C78.9118 64.8444 78.0522 64.6254 77.233 64.1872C76.4138 63.7491 75.6857 62.9771 75.0485 61.8818C74.4114 60.776 73.9058 59.2842 73.5113 57.3751C73.127 55.4765 72.9349 53.0563 72.9349 50.104C72.9349 47.183 73.127 44.7628 73.5113 42.8642C73.8956 40.9655 74.4114 39.4633 75.0485 38.3575C75.6857 37.2517 76.4138 36.4902 77.233 36.0521C78.0522 35.6139 78.9017 35.3948 79.7917 35.3948C80.6715 35.3948 81.5413 35.6139 82.3706 36.0521C83.21 36.4902 83.9482 37.2622 84.5955 38.3575C84.7573 38.6288 84.909 38.9313 85.0506 39.2547C86.5979 38.4827 88.3273 38.055 90.1578 38.055C91.0275 38.055 91.8669 38.1489 92.676 38.3367C92.0388 36.7197 91.2702 35.3114 90.36 34.1221C89.0352 32.38 87.4677 31.0968 85.6473 30.2518C83.8471 29.4277 81.8952 29 79.7917 29C77.6881 29 75.7363 29.4277 73.9361 30.2727C72.1359 31.1177 70.5785 32.4113 69.2638 34.143C67.9591 35.8851 66.9276 38.0759 66.1792 40.7256C65.4308 43.3753 65.0566 46.5049 65.0566 50.1144C65.0566 53.7239 65.4308 56.8535 66.1792 59.5137C66.9276 62.1738 67.949 64.375 69.2638 66.1067C70.5684 67.8489 72.1258 69.132 73.9361 69.977C75.7363 70.822 77.6881 71.2497 79.7917 71.2497C81.8952 71.2497 83.8471 70.822 85.6574 69.977C87.4677 69.132 89.0453 67.8384 90.3702 66.1067C91.2298 64.9696 91.9782 63.6448 92.5951 62.1217C91.8164 62.299 90.9972 62.3825 90.1679 62.3825Z" fill="#EF5DA8"/>
<g id="Group_2">
<g id="Group_3">
<g id="Group_4">
<g id="Group_5">
<path id="Vector_4" d="M89.5077 46.7135C89.5077 47.2142 89.4268 47.6732 89.2549 48.0905C89.0829 48.4973 88.8604 48.852 88.5671 49.1545C88.284 49.4466 87.9502 49.6761 87.576 49.8431C87.2019 49.9995 86.8074 50.083 86.4029 50.083C85.9579 50.083 85.5433 49.9995 85.1691 49.8431C84.7949 49.6866 84.4713 49.4571 84.1982 49.1545C83.9252 48.8625 83.7128 48.5078 83.551 48.0905C83.3993 47.6836 83.3184 47.2246 83.3184 46.7135C83.3184 46.1919 83.3993 45.712 83.551 45.2947C83.7027 44.8774 83.915 44.5123 84.1982 44.2202C84.4713 43.9281 84.7949 43.6986 85.1691 43.5317C85.5433 43.3648 85.9579 43.2917 86.4029 43.2917C86.8479 43.2917 87.2625 43.3752 87.6468 43.5317C88.0311 43.6986 88.3548 43.9281 88.6278 44.2202C88.9009 44.5123 89.1133 44.8774 89.2751 45.2947C89.4369 45.712 89.5077 46.1814 89.5077 46.7135ZM93.7755 43.8133C93.8564 43.709 93.9575 43.6256 94.0789 43.5421C94.2002 43.4587 94.3621 43.4169 94.5744 43.4169H96.3948L86.5546 56.6239C86.4737 56.7282 86.3625 56.8221 86.2411 56.8951C86.1197 56.9681 85.968 56.9994 85.7961 56.9994H83.9353L93.7755 43.8133ZM87.5862 46.7135C87.5862 46.3796 87.5558 46.098 87.4951 45.8685C87.4345 45.639 87.3536 45.4616 87.2423 45.326C87.1412 45.1904 87.0097 45.0861 86.8681 45.0339C86.7265 44.9713 86.5647 44.94 86.4029 44.94C86.2411 44.94 86.0894 44.9713 85.9478 45.0339C85.8062 45.0965 85.6849 45.1904 85.5837 45.326C85.4826 45.4616 85.4017 45.6494 85.3511 45.8685C85.2904 46.098 85.2601 46.3796 85.2601 46.7135C85.2601 47.0473 85.2904 47.3185 85.3511 47.5376C85.4118 47.7567 85.4826 47.934 85.5837 48.0696C85.6849 48.2052 85.8062 48.2991 85.9478 48.3513C86.0894 48.4034 86.2411 48.4347 86.4029 48.4347C86.5647 48.4347 86.7164 48.4034 86.8681 48.3513C87.0097 48.2991 87.1412 48.2052 87.2423 48.0696C87.3434 47.934 87.4345 47.7567 87.4951 47.5376C87.5558 47.3185 87.5862 47.0368 87.5862 46.7135ZM97.0016 53.8177C97.0016 54.3184 96.9207 54.7774 96.7488 55.1947C96.5769 55.6015 96.3544 55.9562 96.0611 56.2588C95.7779 56.5509 95.4442 56.7804 95.07 56.9368C94.6958 57.0933 94.3014 57.1768 93.8968 57.1768C93.4519 57.1768 93.0372 57.0933 92.663 56.9368C92.2888 56.7804 91.9652 56.5509 91.6921 56.2588C91.4191 55.9667 91.2067 55.612 91.0449 55.1947C90.8932 54.7878 90.8123 54.3288 90.8123 53.8177C90.8123 53.2961 90.8932 52.8162 91.0449 52.3989C91.1966 51.9816 91.409 51.6165 91.6921 51.3244C91.9652 51.0323 92.2888 50.8028 92.663 50.6463C93.0372 50.4898 93.4519 50.4064 93.8968 50.4064C94.3418 50.4064 94.7565 50.4898 95.1408 50.6463C95.5251 50.8028 95.8487 51.0323 96.1218 51.3244C96.3948 51.6165 96.6072 51.9816 96.769 52.3989C96.9308 52.8162 97.0016 53.2856 97.0016 53.8177ZM95.0801 53.8177C95.0801 53.4838 95.0498 53.2022 94.9891 52.9727C94.9284 52.7432 94.8475 52.5658 94.7362 52.4302C94.6351 52.2946 94.5036 52.1903 94.3621 52.1381C94.2205 52.0755 94.0587 52.0442 93.8968 52.0442C93.735 52.0442 93.5833 52.0755 93.4417 52.1381C93.3002 52.2007 93.1788 52.2946 93.0777 52.4302C92.9765 52.5658 92.8956 52.7536 92.8451 52.9727C92.7844 53.2022 92.754 53.4838 92.754 53.8177C92.754 54.1515 92.7844 54.4227 92.8451 54.6418C92.9057 54.8609 92.9765 55.0382 93.0777 55.1738C93.1788 55.3094 93.3002 55.4033 93.4417 55.4555C93.5833 55.5077 93.735 55.5389 93.8968 55.5389C94.0587 55.5389 94.2104 55.5077 94.3621 55.4555C94.5036 55.4033 94.6351 55.3094 94.7362 55.1738C94.8374 55.0382 94.9284 54.8609 94.9891 54.6418C95.0498 54.4227 95.0801 54.1411 95.0801 53.8177Z" fill="#702A85"/>
</g>
</g>
</g>
</g>
</g>
</g>
</svg>
