<svg width="42" height="46" viewBox="0 0 42 46" fill="none" xmlns="http://www.w3.org/2000/svg">
<g id="exp-3 1">
<g id="Group">
<path id="Vector" d="M38.8067 18.8186C38.8067 20.6608 38.7916 22.503 38.8142 24.3528C38.8217 25.316 38.4908 26.0956 37.8214 26.7683C35.5049 29.0997 33.2034 31.4464 30.9094 33.8008C30.759 33.9536 30.6537 34.2212 30.6537 34.4352C30.6311 36.3538 30.6386 38.2725 30.6386 40.1911C30.6386 41.4524 30.0294 42.0715 28.8034 42.0792C27.397 42.0792 25.9905 42.0792 24.5765 42.0792C23.531 42.0792 22.8917 41.4294 22.8842 40.3669C22.8767 37.7527 22.8842 35.1308 22.8842 32.5166C22.8842 31.3929 23.2678 30.4145 24.0425 29.6195C26.4342 27.1811 28.8335 24.758 31.2253 22.3272C31.7969 21.7462 32.3685 21.1576 32.9401 20.5691C33.0755 20.4315 33.2034 20.2633 33.3613 20.1869C33.7975 19.9958 33.8502 19.6671 33.8427 19.2314C33.8201 17.1828 33.8201 15.1342 33.8427 13.078C33.8577 11.6027 34.9408 10.502 36.3322 10.502C37.686 10.502 38.7841 11.595 38.7992 12.971C38.8142 14.9202 38.8067 16.8694 38.8067 18.8186ZM38.3028 18.8492C38.3028 16.9152 38.3103 14.9813 38.3028 13.0474C38.2952 11.7709 37.2648 10.8689 36.0389 11.037C35.0686 11.167 34.3541 12.0613 34.3541 13.2003C34.3466 15.1495 34.3541 17.0911 34.3541 19.0403C34.3541 19.6136 34.4068 19.6594 34.9859 19.6976C35.9862 19.7664 36.7233 20.2633 37.1219 21.1882C37.5206 22.1131 37.4303 23.0381 36.7684 23.7948C36.0238 24.6509 35.1965 25.4383 34.3917 26.2409C34.3165 26.3173 34.1285 26.2791 33.9931 26.2944C34.0006 26.1568 34.0006 26.0192 34.0307 25.8893C34.0457 25.8281 34.1285 25.7822 34.1886 25.7211C34.858 25.0331 35.5349 24.3528 36.2043 23.6649C37.0392 22.8011 37.0542 21.5781 36.2419 20.7602C35.4522 19.9652 34.2413 19.9805 33.414 20.829C30.428 23.8483 27.4571 26.8753 24.4787 29.91C23.7642 30.6362 23.4032 31.5305 23.4032 32.5548C23.3956 35.1308 23.3956 37.7145 23.4032 40.2905C23.4032 41.116 23.8394 41.5517 24.6517 41.5517C26.0506 41.5517 27.4421 41.5517 28.841 41.5517C29.7661 41.5517 30.1648 41.1466 30.1648 40.2141C30.1648 38.2801 30.1723 36.3462 30.1573 34.4123C30.1573 34.0072 30.2776 33.7014 30.5634 33.4186C32.9025 31.0566 35.2266 28.6793 37.5657 26.3097C38.0922 25.7822 38.3404 25.1631 38.3404 24.4063C38.2877 22.5641 38.3028 20.7067 38.3028 18.8492Z" fill="white" stroke="white" stroke-miterlimit="10"/>
<path id="Vector_2" d="M8.15709 16.2885C8.15709 17.3816 8.16461 18.4824 8.14957 19.5754C8.14957 19.7971 8.23983 19.8965 8.39777 20.0341C8.90922 20.4698 9.40562 20.9284 9.87946 21.41C12.4517 24.0089 14.9939 26.6385 17.5812 29.2145C18.6267 30.2541 19.1456 31.4389 19.1156 32.9295C19.0704 35.3755 19.108 37.8292 19.108 40.2753C19.108 41.4219 18.4762 42.064 17.3405 42.064C15.919 42.064 14.4975 42.064 13.076 42.064C12.0155 42.064 11.3687 41.4066 11.3611 40.3365C11.3611 38.3796 11.3536 36.4151 11.3611 34.4583C11.3611 34.1831 11.2859 33.9767 11.0904 33.7779C8.78136 31.4389 6.47985 29.0922 4.16331 26.7608C3.50896 26.0881 3.18555 25.3084 3.18555 24.3453C3.20059 20.5768 3.18555 16.816 3.19307 13.0475C3.19307 11.8856 3.90007 10.9301 4.94552 10.6014C6.4272 10.1428 7.97658 11.19 8.12701 12.7647C8.13453 12.8411 8.14205 12.9175 8.14205 12.994C8.15709 14.0947 8.14957 15.1955 8.15709 16.2885ZM18.6191 36.4151C18.6191 35.1768 18.6116 33.9385 18.6191 32.7001C18.6267 31.5535 18.228 30.598 17.4233 29.7954C16.2725 28.6488 15.1368 27.4869 14.0011 26.3251C12.196 24.4905 10.4059 22.656 8.59332 20.8291C7.75847 19.9882 6.54754 19.9882 5.76534 20.7832C4.96056 21.6011 4.99065 22.8241 5.82551 23.6879C6.26174 24.1389 6.70549 24.5822 7.14172 25.0256C7.42001 25.3084 7.71334 25.576 7.96906 25.8817C8.04427 25.9734 8.01419 26.1493 8.03675 26.2792C7.89385 26.2639 7.75094 26.2486 7.60804 26.2257C7.57796 26.2181 7.55539 26.1722 7.52531 26.1493C6.83335 25.446 6.1414 24.7504 5.44944 24.0472C4.66723 23.2445 4.44912 22.2891 4.86279 21.2418C5.26893 20.2252 6.06618 19.7054 7.14924 19.6901C7.48018 19.6825 7.64565 19.5525 7.64565 19.2162C7.64565 17.1523 7.65317 15.0884 7.63813 13.0246C7.6306 12.1455 7.07403 11.3964 6.31439 11.1212C4.99817 10.6549 3.68947 11.6257 3.68947 13.0934C3.68195 16.9001 3.68947 20.6991 3.68947 24.5058C3.68947 25.232 3.96776 25.8206 4.47168 26.3327C6.79575 28.6871 9.11229 31.0567 11.4439 33.411C11.7372 33.7091 11.8726 34.0149 11.8651 34.4353C11.85 36.3922 11.8575 38.3567 11.8575 40.3135C11.8575 41.1238 12.2787 41.5595 13.076 41.5595C14.4975 41.5671 15.919 41.5595 17.3405 41.5595C18.1829 41.5595 18.6041 41.1314 18.6116 40.283C18.6267 38.9988 18.6191 37.7069 18.6191 36.4151Z" fill="white" stroke="white" stroke-miterlimit="10"/>
<path id="Vector_3" d="M21.0033 18.085C18.1001 18.085 15.7835 15.723 15.791 12.7724C15.7986 9.85241 18.1377 7.49042 21.0108 7.49807C23.8839 7.50571 26.2004 9.87534 26.2004 12.803C26.2004 15.7306 23.8839 18.085 21.0033 18.085ZM20.9807 17.5728C23.553 17.5881 25.6815 15.4707 25.7116 12.8641C25.7416 10.204 23.6507 8.03314 21.0484 8.01021C18.4611 7.98728 16.325 10.1123 16.3025 12.7418C16.2649 15.3943 18.3633 17.5575 20.9807 17.5728Z" fill="white"/>
<path id="Vector_4" d="M26.0888 7.85712C26.0286 7.81125 25.9083 7.78068 25.8932 7.71952C25.8707 7.62015 25.8707 7.46727 25.9233 7.40612C26.3746 6.92455 26.8409 6.45063 27.3147 5.99199C27.3749 5.93084 27.578 5.92319 27.6382 5.9767C27.6983 6.03021 27.7209 6.24424 27.6758 6.29775C27.2094 6.80225 26.7206 7.28382 26.2392 7.77303C26.2166 7.81125 26.1565 7.82654 26.0888 7.85712Z" fill="white"/>
<path id="Vector_5" d="M16.2202 18.0007C16.1526 18.1001 16.1149 18.1842 16.0548 18.2453C15.6486 18.6657 15.2425 19.0938 14.8138 19.4913C14.7235 19.5754 14.5355 19.5448 14.3926 19.5677C14.4151 19.4225 14.3851 19.2314 14.4678 19.1473C14.8589 18.7116 15.2726 18.2988 15.6938 17.8937C15.769 17.8173 15.9194 17.779 16.0247 17.7943C16.0924 17.7943 16.1526 17.9243 16.2202 18.0007Z" fill="white"/>
<path id="Vector_6" d="M27.9826 14.3928C28.6971 14.5916 29.3589 14.7674 30.0058 14.9661C30.081 14.9891 30.1637 15.1878 30.1412 15.2642C30.1111 15.3483 29.9381 15.4477 29.8629 15.4324C29.216 15.2719 28.5692 15.0961 27.9299 14.8973C27.8472 14.8744 27.7644 14.6986 27.772 14.6069C27.7795 14.5228 27.9149 14.454 27.9826 14.3928Z" fill="white"/>
<path id="Vector_7" d="M29.908 10.074C29.9757 10.1351 30.1186 10.2039 30.1261 10.2956C30.1337 10.3874 30.0434 10.5555 29.9607 10.5785C29.3289 10.7696 28.6971 10.9454 28.0578 11.1059C27.9675 11.1288 27.8472 10.9913 27.7344 10.9301C27.7945 10.8307 27.8322 10.6626 27.9149 10.6396C28.5542 10.4332 29.201 10.2651 29.908 10.074Z" fill="white"/>
<path id="Vector_8" d="M18.3027 3.65293C18.3253 3.64529 18.4456 3.56121 18.566 3.56885C18.6638 3.57649 18.8217 3.66058 18.8443 3.74466C19.0323 4.37147 19.1978 5.00592 19.3407 5.64036C19.3632 5.72445 19.2655 5.90026 19.1827 5.93084C19.1075 5.96141 18.912 5.87733 18.8894 5.80089C18.6938 5.1588 18.5284 4.49377 18.3027 3.65293Z" fill="white"/>
<path id="Vector_9" d="M19.4394 19.8888C19.2513 20.5921 19.0859 21.2418 18.8978 21.8839C18.8753 21.9604 18.6797 22.0444 18.597 22.0215C18.5218 21.9986 18.424 21.8151 18.439 21.731C18.5895 21.089 18.7625 20.4545 18.9505 19.8277C18.9731 19.7436 19.146 19.6442 19.2363 19.6595C19.3115 19.6748 19.3792 19.8201 19.4394 19.8888Z" fill="white"/>
<path id="Vector_10" d="M23.6894 21.8149C23.6292 21.8761 23.554 22.0213 23.4713 22.029C23.381 22.0366 23.2156 21.9373 23.193 21.8532C23.005 21.2264 22.8395 20.5919 22.6891 19.9498C22.6665 19.8657 22.7568 19.6899 22.8395 19.6517C22.9147 19.6211 23.1103 19.7052 23.1328 19.7817C23.3208 20.439 23.4938 21.1041 23.6894 21.8149Z" fill="white"/>
<path id="Vector_11" d="M23.6207 3.77534C23.4327 4.48622 23.2672 5.12832 23.0867 5.75512C23.0641 5.83921 22.8986 5.88507 22.8009 5.94622C22.7332 5.83156 22.6053 5.70926 22.6204 5.61753C22.7708 4.97544 22.9363 4.34863 23.1243 3.71418C23.1468 3.6301 23.3274 3.51544 23.4026 3.53837C23.5003 3.56895 23.568 3.71418 23.6207 3.77534Z" fill="white"/>
<path id="Vector_12" d="M12.1799 15.5013C12.1122 15.4401 11.9768 15.379 11.9693 15.3102C11.9617 15.2108 12.037 15.035 12.1122 15.0121C12.744 14.821 13.3757 14.6452 14.015 14.4846C14.0903 14.4693 14.2557 14.5764 14.2633 14.6452C14.2708 14.7445 14.2031 14.928 14.1279 14.9509C13.5036 15.142 12.8643 15.3102 12.1799 15.5013Z" fill="white"/>
<path id="Vector_13" d="M12.167 10.1504C12.8589 10.3415 13.4907 10.5097 14.1225 10.7084C14.1977 10.7313 14.288 10.9224 14.2579 10.9759C14.2127 11.0677 14.0623 11.1823 13.9871 11.167C13.3478 11.0142 12.716 10.8307 12.0842 10.6396C12.0165 10.6167 11.9263 10.4485 11.9488 10.3721C11.9714 10.2803 12.0993 10.2192 12.167 10.1504Z" fill="white"/>
<path id="Vector_14" d="M27.8018 19.4148C27.7492 19.4836 27.704 19.5907 27.6363 19.6059C27.5536 19.6289 27.4258 19.6059 27.3656 19.5524C26.8917 19.0938 26.4254 18.6275 25.9742 18.1383C25.914 18.0695 25.9666 17.8937 25.9666 17.7714C26.0795 17.7714 26.2449 17.7255 26.3051 17.7867C26.7789 18.2453 27.2377 18.7192 27.704 19.1932C27.7492 19.2467 27.7642 19.3308 27.8018 19.4148Z" fill="white"/>
<path id="Vector_15" d="M14.5189 5.96143C14.6167 6.03022 14.7069 6.07609 14.7746 6.14488C15.1808 6.55001 15.5944 6.95514 15.978 7.3832C16.0608 7.47493 16.0382 7.66603 16.0608 7.81127C15.9179 7.78833 15.7298 7.81891 15.6396 7.73483C15.2109 7.33734 14.7972 6.90928 14.3986 6.48122C14.3309 6.40478 14.3083 6.2519 14.3158 6.13724C14.3158 6.07609 14.4287 6.03022 14.5189 5.96143Z" fill="white"/>
<g id="Group_2">
<path id="Vector_16" d="M19.6488 10.1199H22.6272V10.1275C22.4542 10.4409 22.3489 10.6091 22.3264 10.632H21.5366C21.6494 10.7773 21.7171 10.9607 21.7623 11.1747H22.6122C22.6197 11.1747 22.6272 11.1824 22.6272 11.19C22.4392 11.5187 22.3414 11.6792 22.3339 11.6869H21.7848C21.7698 11.8551 21.7021 12.0538 21.5742 12.2984C21.4012 12.5354 21.2358 12.6959 21.0854 12.7647C20.7995 12.9252 20.5213 13.0016 20.258 13.0016V13.0093C20.258 13.0322 20.3257 13.1316 20.4536 13.2998L21.9202 15.3483V15.4477C21.9202 15.4554 21.9127 15.463 21.9052 15.463H21.2583C20.0926 13.896 19.5134 13.1163 19.5134 13.1087V12.6347L19.5209 12.6195C19.6262 12.6347 19.7466 12.6424 19.882 12.6424C20.5363 12.6424 20.9425 12.3978 21.1004 11.9086C21.123 11.8398 21.138 11.7633 21.138 11.6869H19.3705C19.363 11.6869 19.3555 11.6792 19.3555 11.6716C19.551 11.3429 19.6488 11.1824 19.6563 11.1824H21.0628V11.1595C20.9801 10.9684 20.8221 10.8231 20.5965 10.7237C20.431 10.6626 20.2806 10.632 20.1527 10.632H19.3555V10.6091C19.5435 10.2804 19.6413 10.1199 19.6488 10.1199Z" fill="white"/>
</g>
</g>
</g>
</svg>
