<svg width="24" height="24" viewBox="0 0 24 24" fill="none" xmlns="http://www.w3.org/2000/svg">
<mask id="mask0_413_2586" style="mask-type:alpha" maskUnits="userSpaceOnUse" x="2" y="1" width="21" height="22">
<path d="M8.25 12.75C8.87132 12.75 9.375 12.2463 9.375 11.625C9.375 11.0037 8.87132 10.5 8.25 10.5C7.62868 10.5 7.125 11.0037 7.125 11.625C7.125 12.2463 7.62868 12.75 8.25 12.75Z" fill="black"/>
<path d="M9 9H7.5V6H9C9.39782 6 9.77936 5.84196 10.0607 5.56066C10.342 5.27936 10.5 4.89782 10.5 4.5C10.5 4.10218 10.342 3.72064 10.0607 3.43934C9.77936 3.15804 9.39782 3 9 3H7.5C7.1023 3.0004 6.721 3.15856 6.43978 3.43978C6.15856 3.721 6.0004 4.1023 6 4.5V4.875H4.5V4.5C4.50099 3.70466 4.81738 2.94217 5.37978 2.37978C5.94217 1.81738 6.70466 1.50099 7.5 1.5H9C9.79565 1.5 10.5587 1.81607 11.1213 2.37868C11.6839 2.94129 12 3.70435 12 4.5C12 5.29565 11.6839 6.05871 11.1213 6.62132C10.5587 7.18393 9.79565 7.5 9 7.5V9Z" fill="black"/>
<path d="M16.836 15.7751C17.5863 14.8772 18.1365 13.8297 18.4499 12.7023C18.7632 11.5749 18.8325 10.3937 18.6532 9.23748C18.4738 8.08122 18.0499 6.9765 17.4097 5.99706C16.7695 5.01761 15.9278 4.18597 14.9408 3.55762L14.1915 4.85512C15.1695 5.49486 15.9646 6.37763 16.4989 7.417C17.0333 8.45636 17.2885 9.61668 17.2396 10.7843C17.1907 11.9519 16.8394 13.0869 16.2201 14.0779C15.6008 15.069 14.7347 15.8822 13.7066 16.438C12.6786 16.9937 11.5238 17.273 10.3554 17.2483C9.18696 17.2236 8.04499 16.896 7.04129 16.2973C6.03759 15.6987 5.20658 14.8496 4.62963 13.8333C4.05268 12.817 3.74957 11.6682 3.75 10.4996H2.25C2.24887 12.0674 2.69483 13.6031 3.53559 14.9264C4.37635 16.2498 5.57703 17.3059 6.99681 17.971C8.41659 18.6361 9.99659 18.8826 11.5515 18.6815C13.1064 18.4803 14.5717 17.84 15.7755 16.8356L21.4395 22.4996L22.5 21.4391L16.836 15.7751Z" fill="black"/>
</mask>
<g mask="url(#mask0_413_2586)">
<rect width="24" height="24" fill="url(#paint0_linear_413_2586)"/>
</g>
<defs>
<linearGradient id="paint0_linear_413_2586" x1="24" y1="12" x2="0" y2="12" gradientUnits="userSpaceOnUse">
<stop stop-color="#DF0EB1"/>
<stop offset="0.776042" stop-color="#6705A3"/>
</linearGradient>
</defs>
</svg>
