<svg width="24" height="24" viewBox="0 0 24 24" fill="none" xmlns="http://www.w3.org/2000/svg">
<mask id="mask0_413_2695" style="mask-type:alpha" maskUnits="userSpaceOnUse" x="0" y="3" width="22" height="18">
<path d="M13.0002 3C10.6133 3 8.32412 3.94821 6.63629 5.63604C4.94846 7.32387 4.00025 9.61305 4.00025 12C4.00025 12.06 4.01025 12.12 4.01025 12.19L2.17025 10.35L0.760254 11.76L5.00025 16L9.24025 11.76L7.83025 10.35L6.01025 12.17C6.01025 12.11 6.00025 12.06 6.00025 12C6.00025 8.14 9.14025 5 13.0002 5C16.8602 5 20.0002 8.14 20.0002 12C20.0002 15.86 16.8602 19 13.0002 19C11.1002 19 9.38025 18.24 8.12025 17.01L6.70025 18.42C8.38035 20.0734 10.643 21 13.0002 21C15.3872 21 17.6763 20.0518 19.3642 18.364C21.052 16.6761 22.0002 14.3869 22.0002 12C22.0002 9.61305 21.052 7.32387 19.3642 5.63604C17.6763 3.94821 15.3872 3 13.0002 3ZM15.0002 11V10C15.0002 8.9 14.1002 8 13.0002 8C11.9002 8 11.0002 8.9 11.0002 10V11C10.4502 11 10.0002 11.45 10.0002 12V15C10.0002 15.55 10.4502 16 11.0002 16H15.0002C15.5502 16 16.0002 15.55 16.0002 15V12C16.0002 11.45 15.5502 11 15.0002 11ZM14.0002 11H12.0002V10C12.0002 9.45 12.4502 9 13.0002 9C13.5502 9 14.0002 9.45 14.0002 10V11Z" fill="#303030"/>
</mask>
<g mask="url(#mask0_413_2695)">
<rect width="24" height="24" fill="url(#paint0_linear_413_2695)"/>
</g>
<defs>
<linearGradient id="paint0_linear_413_2695" x1="24" y1="12" x2="0" y2="12" gradientUnits="userSpaceOnUse">
<stop stop-color="#DF0EB1"/>
<stop offset="0.776042" stop-color="#6705A3"/>
</linearGradient>
</defs>
</svg>
