<svg width="24" height="24" viewBox="0 0 24 24" fill="none" xmlns="http://www.w3.org/2000/svg">
<mask id="mask0_413_2580" style="mask-type:alpha" maskUnits="userSpaceOnUse" x="2" y="4" width="20" height="18">
<path d="M22 8V13.81C21.39 13.46 20.72 13.22 20 13.09V8H4V18H13.09C13.04 18.33 13 18.66 13 19C13 19.34 13.04 19.67 13.09 20H4C3.46957 20 2.96086 19.7893 2.58579 19.4142C2.21071 19.0391 2 18.5304 2 18V6C2 4.89 2.89 4 4 4H10L12 6H20C20.5304 6 21.0391 6.21071 21.4142 6.58579C21.7893 6.96086 22 7.46957 22 8ZM17 22L22 19L17 16V22Z" fill="#303030"/>
</mask>
<g mask="url(#mask0_413_2580)">
<rect width="24" height="24" fill="url(#paint0_linear_413_2580)"/>
</g>
<defs>
<linearGradient id="paint0_linear_413_2580" x1="24" y1="12" x2="0" y2="12" gradientUnits="userSpaceOnUse">
<stop stop-color="#DF0EB1"/>
<stop offset="0.776042" stop-color="#6705A3"/>
</linearGradient>
</defs>
</svg>
