<svg id="Capa_1" enable-background="new 0 0 512 512" height="512" viewBox="0 0 512 512" width="512" xmlns="http://www.w3.org/2000/svg"><g><g><g><g><g><g><g><g><g><g><g><g><g><g><g><g><g><g><g><g><g><g><circle cx="256" cy="256" fill="#adcfff" r="256"/></g></g></g></g></g></g></g></g></g></g></g></g></g></g></g></g></g></g></g></g></g><path d="m73.954 357.486 31.471 31.471-11.411 11.411 105.329 105.329c18.226 4.118 37.186 6.303 56.657 6.303 141.385 0 256-114.615 256-256 0-.18-.006-.358-.007-.537l-140.138-140.139z" fill="#8bbbff"/><g><g><path d="m255.849 245.152 23.782-65.912-23.782-72.18h-96.144c-10.975 0-20.978 6.292-25.731 16.184l-26.966 82.478-19.879 15.404c-8.366 7.215-13.176 17.715-13.176 28.763v58.378l181.781 16.152 23.696-39.633-23.696-39.633h.115z" fill="#cf3b00"/><path d="m404.461 205.722-26.966-82.478c-4.753-9.892-14.756-16.184-25.731-16.184h-96.144v138.092h.114v79.266l181.781-16.152.529-58.011c.097-11.258-4.806-21.98-13.385-29.271z" fill="#ad3200"/></g><g><path d="m127.981 404.94h-21.348c-10.884 0-19.707-8.823-19.707-19.707v-48.472h60.763v48.472c0 10.884-8.824 19.707-19.708 19.707z" fill="#655e67"/><path d="m404.836 404.94h-21.348c-10.884 0-19.707-8.823-19.707-19.707v-48.472h60.763v48.472c0 10.884-8.824 19.707-19.708 19.707z" fill="#403b41"/></g><g><g><g><g><g><g><g><path d="m255.735 357.486h-181.781v-49.22h181.781l22.041 24.61z" fill="#dfdce0"/></g></g></g></g></g></g><g><g><g><g><g><g><path d="m255.735 308.266h182.046v49.219h-182.046z" fill="#c8c3ca"/></g></g></g></g></g></g></g><g><g><g><g><g><g><g><path d="m255.735 347.665h-44.179v-29.578h44.179l7.494 14.789z" fill="#fff"/></g></g></g></g></g></g><g><g><g><g><g><g><path d="m255.735 318.087h44.179v29.578h-44.179z" fill="#f3f1f4"/></g></g></g></g></g></g></g><g><g><g><g><g><g><g><path d="m255.735 278.001h-51.24l-32.469-39.354h83.709l11.502 19.677z" fill="#ff6426"/></g></g></g></g></g></g><g><g><g><g><g><g><path d="m255.735 278.001h47.273l32.469-39.354h-79.742z" fill="#cf3b00"/></g></g></g></g></g></g></g><g><path d="m255.735 127.098h-107.3l-24.352 77.04h131.652l23.782-38.52z" fill="#8bbbff"/><path d="m255.735 127.098v77.04h131.652l-24.353-77.04z" fill="#4894ff"/></g><path d="m166.508 278.001h-69.099c-4.025 0-7.289-3.263-7.289-7.289v-24.777c0-4.025 3.263-7.289 7.289-7.289h36.63z" fill="#ffd944"/><path d="m340.995 278.001h69.099c4.025 0 7.289-3.263 7.289-7.289v-24.777c0-4.025-3.263-7.289-7.289-7.289h-36.63z" fill="#edbe00"/><g><path d="m265.335 258.857-9.601 12.7c-7.014 0-12.7-5.686-12.7-12.7s5.686-12.7 12.7-12.7z" fill="#655e67"/><path d="m268.434 258.857c0 7.014-5.686 12.7-12.7 12.7v-25.399c7.014-.001 12.7 5.685 12.7 12.699z" fill="#403b41"/></g></g></g></svg>