<svg height="512" viewBox="0 0 64 64" width="512" xmlns="http://www.w3.org/2000/svg"><g id="_28_Link" data-name="28 Link"><path d="m31.832 32.168a10.0036 10.0036 0 0 0 -14.1284 0l-9.5356 9.5361c-8.995 9.74 4.4 23.1177 14.1284 14.1279l9.5356-9.5361a10 10 0 0 0 0-14.1279zm-3.0151 11.2177-9.4307 9.4307c-5.54 5.3019-13.4635-2.6973-8.2031-8.2021l9.4307-9.4307a5.8 5.8 0 0 1 8.2031 8.2021z" fill="#ffc107"/><path d="m56.332 7.668a10.0022 10.0022 0 0 0 -14.1279 0l-9.5361 9.5361c-9.0054 9.6289 4.476 23.1909 14.1279 14.1279l9.5361-9.5361a10 10 0 0 0 0-14.1279zm-3.0156 11.2177-9.4307 9.4307c-5.5788 5.2581-13.4626-2.6171-8.2021-8.2021l9.4307-9.4307a5.8 5.8 0 1 1 8.2021 8.2021z" fill="#ffc107"/><path d="m41.8994 22.1006a3.5842 3.5842 0 0 0 -4.9492 0l-14.85 14.85c-3.263 3.1577 1.7933 8.2118 4.95 4.9492l14.8492-14.8498a3.5153 3.5153 0 0 0 0-4.9494z" fill="#ffa000"/></g></svg>