<svg width="27" height="28" viewBox="0 0 27 28" fill="none" xmlns="http://www.w3.org/2000/svg">
<path fill-rule="evenodd" clip-rule="evenodd" d="M15.8749 24.5391C14.8014 24.8394 13.6694 25 12.5 25C5.59644 25 0 19.4036 0 12.5C0 5.59644 5.59644 0 12.5 0C19.4036 0 25 5.59644 25 12.5C25 16.4441 23.1733 19.9615 20.3199 22.2525C21.1059 23.2448 22.0179 24.0132 23.0149 24.0132C24.6591 24.0132 25.1539 22.6898 25.1957 22.0281H27C27 25.5309 24.9054 27.8792 21.462 27.9909C20.2483 28.0303 18.2146 28.0962 15.8749 24.5391ZM14.7747 22.6258C14.1152 22.8697 13.3609 23 12.5 23C7.32902 23 6 18.299 6 12.5C6 6.70101 7.33023 2 12.5 2C17.6698 2 19 6.70101 19 12.5C19 14.8536 18.7811 17.0263 18.1752 18.7773C17.1957 17.0543 15.6501 15 12.801 15C10.4287 15 8.61189 15.9712 8 16.4568L8.7531 17.9617C8.96229 17.8923 9.4905 17.7536 9.92981 17.7536C10.4789 17.7536 12.4244 17.5775 14.3072 21.6599C14.4639 21.9996 14.6198 22.3212 14.7747 22.6258Z" fill="#B72D2C"/>
</svg>
