<svg width="22" height="22" viewBox="0 0 22 22" fill="none" xmlns="http://www.w3.org/2000/svg">
<g id="Group 197">
<path id="Vector" d="M4 16.5556H3C2.46957 16.5556 1.96086 16.3214 1.58579 15.9047C1.21071 15.4879 1 14.9227 1 14.3333V3.22222C1 2.63285 1.21071 2.06762 1.58579 1.65087C1.96086 1.23413 2.46957 1 3 1H19C19.5304 1 20.0391 1.23413 20.4142 1.65087C20.7893 2.06762 21 2.63285 21 3.22222V14.3333C21 14.9227 20.7893 15.4879 20.4142 15.9047C20.0391 16.3214 19.5304 16.5556 19 16.5556H18" stroke="#343434" stroke-width="2" stroke-linecap="round" stroke-linejoin="round"/>
<path id="Vector_2" d="M11 14.334L16 21.0007H6L11 14.334Z" stroke="#343434" stroke-width="2" stroke-linecap="round" stroke-linejoin="round"/>
</g>
</svg>
