<svg width="20" height="20" viewBox="0 0 20 20" fill="none" xmlns="http://www.w3.org/2000/svg">
<g id="Group">
<path id="Vector" d="M9.11 1.99407C9.37362 1.9649 9.61486 1.83219 9.78065 1.62515C9.94643 1.41811 10.0232 1.1537 9.994 0.890071C9.96483 0.626446 9.83212 0.385208 9.62508 0.219426C9.41804 0.0536434 9.15363 -0.0231024 8.89 0.00607143C3.888 0.559071 0 4.79707 0 9.94507C0 15.4681 4.477 19.9451 10 19.9451C15.146 19.9451 19.383 16.0581 19.939 11.0591C19.9682 10.7954 19.8914 10.531 19.7256 10.324C19.5599 10.1169 19.3186 9.98425 19.055 9.95507C18.7914 9.9259 18.527 10.0026 18.3199 10.1684C18.1129 10.3342 17.9802 10.5754 17.951 10.8391C17.7207 12.8692 16.7225 14.7343 15.161 16.0519C13.5996 17.3696 11.5932 18.04 9.55327 17.9256C7.51335 17.8113 5.59445 16.9209 4.19001 15.437C2.78558 13.9531 2.00202 11.9882 2 9.94507C2.00006 7.97739 2.72519 6.07873 4.03681 4.61197C5.34844 3.1452 7.15456 2.21319 9.11 1.99407ZM12.767 0.336071C12.5143 0.272305 12.2466 0.309739 12.0211 0.440401C11.7955 0.571063 11.6299 0.784624 11.5595 1.03559C11.4891 1.28656 11.5195 1.5551 11.6442 1.784C11.7688 2.01291 11.978 2.18408 12.227 2.26107C12.514 2.34207 12.796 2.43907 13.069 2.55107C13.3146 2.65146 13.59 2.65017 13.8346 2.54749C14.0793 2.44482 14.2731 2.24916 14.3735 2.00357C14.4739 1.75798 14.4726 1.48257 14.3699 1.23793C14.2672 0.993289 14.0716 0.799456 13.826 0.699071C13.4802 0.558028 13.1266 0.436831 12.767 0.336071ZM15.349 2.63607C15.4378 2.53935 15.5449 2.46107 15.6639 2.40571C15.783 2.35035 15.9119 2.31898 16.0431 2.31341C16.1743 2.30784 16.3053 2.32817 16.4287 2.37324C16.552 2.4183 16.6653 2.48723 16.762 2.57607C16.974 2.77007 17.177 2.97307 17.371 3.18407C17.5503 3.37954 17.6446 3.63822 17.6331 3.9032C17.6217 4.16819 17.5055 4.41778 17.31 4.59707C17.1145 4.77636 16.8559 4.87065 16.5909 4.85921C16.3259 4.84777 16.0763 4.73154 15.897 4.53607C15.7421 4.36713 15.5799 4.20498 15.411 4.05007C15.3141 3.96137 15.2357 3.85446 15.1802 3.73544C15.1246 3.61642 15.0931 3.48763 15.0873 3.35641C15.0816 3.2252 15.1017 3.09414 15.1466 2.97071C15.1915 2.84729 15.2603 2.73391 15.349 2.63707V2.63607ZM9 3.94507C9.26522 3.94507 9.51957 4.05043 9.70711 4.23796C9.89464 4.4255 10 4.67985 10 4.94507V9.94507H13C13.2652 9.94507 13.5196 10.0504 13.7071 10.238C13.8946 10.4255 14 10.6799 14 10.9451C14 11.2103 13.8946 11.4646 13.7071 11.6522C13.5196 11.8397 13.2652 11.9451 13 11.9451H9C8.73478 11.9451 8.48043 11.8397 8.29289 11.6522C8.10536 11.4646 8 11.2103 8 10.9451V4.94507C8 4.67985 8.10536 4.4255 8.29289 4.23796C8.48043 4.05043 8.73478 3.94507 9 3.94507ZM17.94 5.56807C18.1855 5.46771 18.4607 5.46896 18.7053 5.57154C18.9498 5.67412 19.1436 5.86963 19.244 6.11507C19.3858 6.46217 19.5077 6.81708 19.609 7.17807C19.6484 7.30565 19.6619 7.43984 19.6487 7.57272C19.6354 7.7056 19.5957 7.83448 19.5318 7.95175C19.4679 8.06902 19.3812 8.17231 19.2768 8.25553C19.1723 8.33874 19.0523 8.4002 18.9237 8.43627C18.7951 8.47233 18.6606 8.48228 18.5282 8.46553C18.3957 8.44878 18.2679 8.40566 18.1523 8.33872C18.0368 8.27178 17.9358 8.18237 17.8554 8.07577C17.7749 7.96918 17.7167 7.84755 17.684 7.71807C17.6031 7.4308 17.5059 7.14834 17.393 6.87207C17.2926 6.62674 17.2937 6.35157 17.3961 6.10705C17.4985 5.86253 17.6937 5.66867 17.939 5.56807H17.94Z" fill="black"/>
</g>
</svg>
