<svg width="24" height="24" viewBox="0 0 24 24" fill="none" xmlns="http://www.w3.org/2000/svg">
<g id="conversions" clip-path="url(#clip0_123_8268)">
<path id="Vector" d="M19.8571 24.2381L22 26.3452C22.5952 26.9405 23.4286 26.4643 23.4286 25.7619V20.6667L26.7619 16.619C26.8946 16.4422 26.9753 16.2319 26.9952 16.0117C27.015 15.7915 26.9732 15.5701 26.8743 15.3724C26.7754 15.1746 26.6235 15.0083 26.4354 14.8921C26.2473 14.7758 26.0306 14.7143 25.8095 14.7143H17.4762C16.5238 14.7143 15.9286 15.9048 16.5238 16.619L19.8571 20.6667V24.2381ZM17.4762 23.0476H2V19.4762C2 16.2619 8.30952 14.7143 11.5238 14.7143C12.2381 14.7143 13.0714 14.8333 14.0238 14.9524C13.7857 15.6667 13.9048 16.5 14.1429 17.2143C13.3095 17.0952 12.3571 16.9762 11.5238 16.9762C7.95238 16.9762 4.2619 18.7619 4.2619 19.4762V20.7857H16.881L17.4762 21.5V23.0476ZM11.5238 4C8.90476 4 6.7619 6.14286 6.7619 8.7619C6.7619 11.381 8.90476 13.5238 11.5238 13.5238C14.1429 13.5238 16.2857 11.381 16.2857 8.7619C16.2857 6.14286 14.1429 4 11.5238 4ZM11.5238 11.1429C10.2143 11.1429 9.14286 10.0714 9.14286 8.7619C9.14286 7.45238 10.2143 6.38095 11.5238 6.38095C12.8333 6.38095 13.9048 7.45238 13.9048 8.7619C13.9048 10.0714 12.8333 11.1429 11.5238 11.1429Z" fill="white"/>
</g>
<defs>
<clipPath id="clip0_123_8268">
<rect width="24" height="24" fill="white"/>
</clipPath>
</defs>
</svg>
