<svg width="14" height="14" viewBox="0 0 14 14" fill="none" xmlns="http://www.w3.org/2000/svg">
<g id="bxs:down-arrow">
<path id="Vector" d="M6.52056 11.4166C6.57407 11.4943 6.64568 11.5578 6.72921 11.6017C6.81274 11.6456 6.90569 11.6686 7.00005 11.6686C7.09442 11.6686 7.18737 11.6456 7.2709 11.6017C7.35443 11.5578 7.42604 11.4943 7.47955 11.4166L12.7296 3.83322C12.7903 3.74575 12.826 3.6433 12.8326 3.53701C12.8392 3.43071 12.8166 3.32462 12.7672 3.23028C12.7177 3.13594 12.6434 3.05695 12.5522 3.00189C12.4611 2.94683 12.3566 2.9178 12.2501 2.91797H1.75005C1.6438 2.91841 1.53967 2.94781 1.44887 3.003C1.35807 3.05819 1.28403 3.13709 1.23472 3.23122C1.18541 3.32534 1.16269 3.43113 1.169 3.5372C1.17532 3.64327 1.21043 3.74561 1.27055 3.83322L6.52056 11.4166Z" fill="#1A1919"/>
</g>
</svg>
