<svg width="24" height="24" viewBox="0 0 24 24" fill="none" xmlns="http://www.w3.org/2000/svg">
<g id="income">
<path id="Vector" d="M14.5083 22C14.3528 22 14.2023 21.9708 14.0568 21.9125C13.9106 21.8542 13.7792 21.7667 13.6625 21.65L6.63333 14.3292C6.49722 14.1931 6.38561 14.0083 6.2985 13.775C6.21061 13.5417 6.16667 13.3278 6.16667 13.1333C6.16667 12.6861 6.32689 12.3019 6.64733 11.9807C6.96856 11.6602 7.35278 11.5 7.8 11.5H10.25C11.2806 11.5 12.1703 11.1644 12.9193 10.4932C13.6676 9.82272 14.1194 8.99167 14.275 8H6.16667C5.83611 8 5.55883 7.888 5.33483 7.664C5.11161 7.44078 5 7.16389 5 6.83333C5 6.50278 5.11161 6.2255 5.33483 6.0015C5.55883 5.77828 5.83611 5.66667 6.16667 5.66667H13.925C13.5944 4.98611 13.1037 4.42689 12.4527 3.989C11.8009 3.55189 11.0667 3.33333 10.25 3.33333H6.16667C5.83611 3.33333 5.55883 3.22133 5.33483 2.99733C5.11161 2.77411 5 2.49722 5 2.16667C5 1.83611 5.11161 1.55883 5.33483 1.33483C5.55883 1.11161 5.83611 1 6.16667 1H17.8333C18.1639 1 18.4408 1.11161 18.664 1.33483C18.888 1.55883 19 1.83611 19 2.16667C19 2.49722 18.888 2.77411 18.664 2.99733C18.4408 3.22133 18.1639 3.33333 17.8333 3.33333H15.2083C15.4806 3.66389 15.7236 4.02361 15.9375 4.4125C16.1514 4.80139 16.3167 5.21944 16.4333 5.66667H17.8333C18.1639 5.66667 18.4408 5.77828 18.664 6.0015C18.888 6.2255 19 6.50278 19 6.83333C19 7.16389 18.888 7.44078 18.664 7.664C18.4408 7.888 18.1639 8 17.8333 8H16.6375C16.4819 9.65278 15.8014 11.038 14.5958 12.1557C13.3903 13.2741 11.9417 13.8333 10.25 13.8333H9.40417L15.3542 20.0167C15.7042 20.3861 15.7769 20.8088 15.5723 21.2848C15.3686 21.7616 15.0139 22 14.5083 22Z" fill="white"/>
</g>
</svg>
