<svg width="51" height="50" viewBox="0 0 51 50" fill="none" xmlns="http://www.w3.org/2000/svg">
<g id="Frame 1109">
<rect x="0.244141" width="50" height="50" rx="25" fill="#7277EF"/>
<g id="Group 145">
<path id="Vector" d="M18.125 30.5833H17.0833C16.5308 30.5833 16.0009 30.3638 15.6102 29.9731C15.2195 29.5824 15 29.0525 15 28.5V18.0833C15 17.5308 15.2195 17.0009 15.6102 16.6102C16.0009 16.2195 16.5308 16 17.0833 16H33.75C34.3025 16 34.8324 16.2195 35.2231 16.6102C35.6138 17.0009 35.8333 17.5308 35.8333 18.0833V28.5C35.8333 29.0525 35.6138 29.5824 35.2231 29.9731C34.8324 30.3638 34.3025 30.5833 33.75 30.5833H32.7083" stroke="white" stroke-width="2" stroke-linecap="round" stroke-linejoin="round"/>
<path id="Vector_2" d="M25.4172 28.5L30.6255 34.75H20.2088L25.4172 28.5Z" stroke="white" stroke-width="2" stroke-linecap="round" stroke-linejoin="round"/>
</g>
</g>
</svg>
