<svg width="58" height="58" viewBox="0 0 58 58" fill="none" xmlns="http://www.w3.org/2000/svg">
<g id="Frame 1551">
<g id="Ellipse 16" filter="url(#filter0_d_90_7100)">
<circle cx="27" cy="27" r="25" fill="white"/>
<circle cx="27" cy="27" r="24.5" stroke="#F9F9F9"/>
</g>
<path id="Vector" d="M31.4264 14.5723C31.7937 14.9389 32 15.4359 32 15.9542C32 16.4726 31.7937 16.9696 31.4264 17.3362L21.7289 27.0118L31.4264 36.6874C31.7833 37.0561 31.9807 37.5498 31.9763 38.0623C31.9718 38.5748 31.7658 39.0651 31.4025 39.4275C31.0393 39.7899 30.5479 39.9955 30.0343 39.9999C29.5206 40.0044 29.0257 39.8074 28.6562 39.4513L17.5736 28.3938C17.2063 28.0272 17 27.5301 17 27.0118C17 26.4935 17.2063 25.9964 17.5736 25.6299L28.6562 14.5723C29.0236 14.2059 29.5218 14 30.0413 14C30.5608 14 31.059 14.2059 31.4264 14.5723Z" fill="url(#paint0_linear_90_7100)"/>
</g>
<defs>
<filter id="filter0_d_90_7100" x="0" y="0" width="58" height="58" filterUnits="userSpaceOnUse" color-interpolation-filters="sRGB">
<feFlood flood-opacity="0" result="BackgroundImageFix"/>
<feColorMatrix in="SourceAlpha" type="matrix" values="0 0 0 0 0 0 0 0 0 0 0 0 0 0 0 0 0 0 127 0" result="hardAlpha"/>
<feOffset dx="2" dy="2"/>
<feGaussianBlur stdDeviation="2"/>
<feComposite in2="hardAlpha" operator="out"/>
<feColorMatrix type="matrix" values="0 0 0 0 0 0 0 0 0 0 0 0 0 0 0 0 0 0 0.1 0"/>
<feBlend mode="normal" in2="BackgroundImageFix" result="effect1_dropShadow_90_7100"/>
<feBlend mode="normal" in="SourceGraphic" in2="effect1_dropShadow_90_7100" result="shape"/>
</filter>
<linearGradient id="paint0_linear_90_7100" x1="24.5" y1="14" x2="24.5" y2="40" gradientUnits="userSpaceOnUse">
<stop stop-color="#721988"/>
<stop offset="1" stop-color="#DF0EB1"/>
</linearGradient>
</defs>
</svg>
