<svg width="19" height="19" viewBox="0 0 19 19" fill="none" xmlns="http://www.w3.org/2000/svg">
<g id="icon / icofont / web / notification / notification">
<path id="Vector" d="M15.4643 14.393C15.4074 14.2677 15.3946 14.0852 15.4423 13.9564C15.8112 12.9364 16.1893 11.9217 16.582 10.9089C17.0005 9.83342 17.3253 8.75079 17.162 7.57511C16.9766 6.24016 16.415 5.08416 15.4037 4.17153C14.91 3.72774 14.3319 3.37879 13.7593 2.96363C13.8033 2.84553 13.8749 2.66121 13.9447 2.4769C14.0585 2.17269 13.9704 1.93469 13.7079 1.83984C13.4381 1.74321 13.2124 1.85237 13.0857 2.14763C13.0031 2.33732 12.9297 2.52879 12.849 2.72563C12.0855 2.54311 11.3312 2.46974 10.5658 2.57711C8.28453 2.89563 6.63825 4.06237 5.74812 6.14353C5.20303 7.423 4.75337 8.74184 4.26885 10.0446C4.21012 10.2056 4.11652 10.3005 3.95684 10.3703C3.14563 10.7246 2.33993 11.0896 1.52871 11.4493C1.31214 11.5442 1.15064 11.6784 1.15614 11.9289C1.16165 12.1884 1.34885 12.2922 1.56909 12.3691C3.08323 12.8988 4.5937 13.4338 6.11151 13.9528C6.33909 14.0315 6.41801 14.1192 6.40516 14.3644C6.32808 16.0071 7.90829 17.2311 9.54356 16.8142C10.2061 16.6459 10.7108 16.2684 11.0907 15.7065C11.1697 15.7333 11.2412 15.7584 11.3128 15.7816C12.8508 16.3185 14.3888 16.8553 15.9268 17.3957C16.1581 17.4763 16.371 17.5103 16.5618 17.3188C16.7601 17.1184 16.6775 16.9126 16.5747 16.7014C16.1966 15.9373 15.8204 15.1696 15.4643 14.393ZM8.50294 15.9427C7.77064 15.7369 7.28612 15.0963 7.33751 14.3662C8.29555 14.699 9.2334 15.0265 10.1749 15.3539C9.90696 15.855 9.13796 16.1216 8.50294 15.9427Z" fill="#9B9B9B"/>
</g>
</svg>
