<svg width="21" height="21" viewBox="0 0 21 21" fill="none" xmlns="http://www.w3.org/2000/svg">
<g id="fluent:add-28-filled">
<path id="Vector" d="M18 9.75H11.25V3C11.25 2.80109 11.171 2.61032 11.0303 2.46967C10.8897 2.32902 10.6989 2.25 10.5 2.25C10.3011 2.25 10.1103 2.32902 9.96967 2.46967C9.82902 2.61032 9.75 2.80109 9.75 3V9.75H3C2.80109 9.75 2.61032 9.82902 2.46967 9.96967C2.32902 10.1103 2.25 10.3011 2.25 10.5C2.25 10.6989 2.32902 10.8897 2.46967 11.0303C2.61032 11.171 2.80109 11.25 3 11.25H9.75V18C9.75 18.1989 9.82902 18.3897 9.96967 18.5303C10.1103 18.671 10.3011 18.75 10.5 18.75C10.6989 18.75 10.8897 18.671 11.0303 18.5303C11.171 18.3897 11.25 18.1989 11.25 18V11.25H18C18.1989 11.25 18.3897 11.171 18.5303 11.0303C18.671 10.8897 18.75 10.6989 18.75 10.5C18.75 10.3011 18.671 10.1103 18.5303 9.96967C18.3897 9.82902 18.1989 9.75 18 9.75Z" fill="#646464"/>
</g>
</svg>
