<svg width="21" height="24" viewBox="0 0 21 24" fill="none" xmlns="http://www.w3.org/2000/svg">
<g id="ant-design:download-outlined">
<path id="Vector" d="M9.12031 8.50781C9.10277 8.4854 9.08036 8.46728 9.05478 8.45481C9.0292 8.44235 9.00111 8.43587 8.97266 8.43587C8.9442 8.43587 8.91611 8.44235 8.89053 8.45481C8.86495 8.46728 8.84254 8.4854 8.825 8.50781L6.2 11.8289C6.10391 11.9508 6.19063 12.1313 6.34766 12.1313H8.08437L8.08437 20.0625C8.08437 20.1656 8.16875 20.25 8.27187 20.25H9.67813C9.78125 20.25 9.86563 20.1656 9.86563 20.0625V12.1336L11.5977 12.1336C11.7547 12.1336 11.8414 11.9531 11.7453 11.8312L9.12031 8.50781ZM0.394531 9.32812H1.80078C1.90391 9.32812 1.98828 9.24375 1.98828 9.14062V5.53125L15.957 5.53125V9.14062C15.957 9.24375 16.0414 9.32812 16.1445 9.32812H17.5508C17.6539 9.32812 17.7383 9.24375 17.7383 9.14062L17.7383 4.5C17.7383 4.08516 17.4031 3.75 16.9883 3.75L0.957031 3.75C0.542187 3.75 0.207031 4.08516 0.207031 4.5L0.207031 9.14062C0.207031 9.24375 0.291407 9.32812 0.394531 9.32812Z" fill="white"/>
</g>
</svg>
