<svg width="24" height="24" viewBox="0 0 24 24" fill="none" xmlns="http://www.w3.org/2000/svg">
<g id="download-cloud">
<path id="Vector" d="M4.00039 7.8012C3.21593 8.34404 2.62428 9.12213 2.31086 10.0231C1.99743 10.9241 1.97845 11.9014 2.25665 12.8139C2.53485 13.7264 3.09584 14.5269 3.85862 15.0998C4.6214 15.6727 5.54651 15.9883 6.50039 16.0012H8.30039C8.60267 17.0209 9.13335 17.9584 9.85212 18.7423C10.5709 19.5263 11.4588 20.1361 12.4486 20.5256C13.4383 20.915 14.5037 21.0738 15.564 20.9899C16.6243 20.906 17.6515 20.5816 18.5676 20.0413C19.4837 19.501 20.2647 18.759 20.8512 17.8718C21.4377 16.9845 21.8143 15.9753 21.9524 14.9207C22.0906 13.8661 21.9865 12.794 21.6483 11.7856C21.3101 10.7772 20.7465 9.85918 20.0004 9.1012" stroke="#676767" stroke-width="2" stroke-linecap="round" stroke-linejoin="round"/>
<path id="Vector_2" d="M12 12L12 3" stroke="#676767" stroke-width="2" stroke-linecap="round" stroke-linejoin="round"/>
<path id="Vector_3" d="M16 7L12 3L8 7" stroke="#676767" stroke-width="2" stroke-linecap="round" stroke-linejoin="round"/>
</g>
</svg>
