<svg width="30" height="30" viewBox="0 0 30 30" fill="none" xmlns="http://www.w3.org/2000/svg">
<g id="Frame 1124">
<path id="&#60;Path&#62;" d="M17.0588 8.4C17.0588 8.93333 17.0588 10 17.0588 11.6C18.7058 11.6 19.9412 11.6 20.7647 11.6C21.0392 11.6 21.3137 11.6 21.5882 11.6C21.3137 13.2 21.1764 14.8 21.1764 16.4H17.0588V28H12.1176V16.4H8V11.6H12.1176V11.2C12.1176 10.4 12.1176 9.46667 12.1176 8.4C12.1176 7.86667 12.1176 7.33334 12.1176 6.8C12.3921 5.2 13.0784 4 14.1765 3.2C15.2745 2.4 16.5098 2 17.8824 2C18.7059 2 19.5294 2 20.3529 2C20.9019 2.26667 21.451 2.4 22 2.4V6.4C21.7255 6.4 21.5882 6.4 21.5882 6.4C20.7647 6.4 19.9411 6.4 19.1176 6.4C17.8823 6.4 17.0588 6.8 17.0588 8.4Z" fill="url(#paint0_linear_52_12998)"/>
</g>
<defs>
<linearGradient id="paint0_linear_52_12998" x1="8" y1="-6" x2="22" y2="-6" gradientUnits="userSpaceOnUse">
<stop stop-color="#1E4FAD"/>
<stop offset="1" stop-color="#002F8A"/>
</linearGradient>
</defs>
</svg>
