<svg width="30" height="30" viewBox="0 0 30 30" fill="none" xmlns="http://www.w3.org/2000/svg">
<g id="Frame 1127">
<path id="&#60;Compound Path&#62;" fill-rule="evenodd" clip-rule="evenodd" d="M26.5161 21.9566C26 24.7681 24.3226 26.3017 21.4839 26.5573C19.1613 26.9407 9.87101 27.3241 7.93553 26.5573C5.35488 25.7905 3.80645 24.1291 3.29032 21.5732C2.90323 19.2728 2.90323 10.0714 3.29032 8.15449C4.06452 5.34295 5.87094 3.68159 8.70965 3.1704C11.0322 2.787 17.6129 3.1704 20.3225 3.1704C22.258 3.1704 23.8065 3.93718 24.9678 5.08736C26 6.10973 26.6452 7.38771 26.9032 8.92127C26.9032 10.8382 27.2903 20.0396 26.5161 21.9566ZM24.5806 9.30467C24.5806 7.00432 23.0323 5.85414 21.0968 5.47075C19.1613 5.08736 11.4194 5.08736 9.09677 5.47075C7.16129 5.85414 5.6129 7.00431 5.22581 8.92127C4.83871 11.2216 5.22581 19.2729 5.22581 21.1898C5.48387 22.979 6.5162 24.1291 8.32265 24.6403C10.2581 25.0237 18.7742 25.0237 20.7097 24.6403C23.0322 24.2569 24.1935 23.1068 24.5806 21.1898C24.9677 18.8895 24.9677 11.2216 24.5806 9.30467ZM21.0968 15.0555C21.0968 18.5061 18.3871 21.1898 14.9032 21.1898C11.4194 21.1898 8.70965 18.5061 8.70965 15.0555C8.70965 11.605 11.4194 8.92127 14.9032 8.92127C18.3871 8.92127 21.0968 11.605 21.0968 15.0555ZM19.1613 15.0555C19.1613 12.7552 17.2258 11.2216 14.9032 11.2216C12.9677 11.2216 11.0323 12.7552 11.0323 15.0555C11.0323 17.3559 12.5806 18.8895 14.9032 18.8895C17.2258 18.8895 19.1613 17.3559 19.1613 15.0555ZM23.0323 8.53788C23.0323 9.30466 22.2581 10.0714 21.4839 10.0714C20.7097 10.0714 19.9355 9.30466 19.9355 8.53788C19.9355 7.7711 20.7097 7.38771 21.4839 7.38771C22.2581 7.38771 23.0323 7.7711 23.0323 8.53788Z" fill="url(#paint0_linear_52_12995)"/>
</g>
<defs>
<linearGradient id="paint0_linear_52_12995" x1="2.90323" y1="-4.49744" x2="26.9032" y2="-4.49744" gradientUnits="userSpaceOnUse">
<stop stop-color="#3542E0"/>
<stop offset="0.6" stop-color="#C82091"/>
<stop offset="0.8" stop-color="#F62B37"/>
<stop offset="1" stop-color="#FFC658"/>
</linearGradient>
</defs>
</svg>
