<svg width="30" height="30" viewBox="0 0 30 30" fill="none" xmlns="http://www.w3.org/2000/svg">
<g id="Frame 1125">
<path id="&#60;Compound Path&#62;" fill-rule="evenodd" clip-rule="evenodd" d="M5.4179 22.4534C4.46268 22.2105 3.86566 21.6032 3.62685 20.6315C2.91044 18.4453 2.55225 9.3358 3.98509 7.5139C4.4627 6.78514 5.17908 6.42075 6.13431 6.42075C10.0746 5.69199 22.9701 6.05637 24.403 6.42075C25.3582 6.66367 25.9552 7.27097 26.194 8.24265C27.2687 10.4289 27.2687 18.8097 26.194 20.9959C25.9552 21.7247 25.4776 22.2105 24.7612 22.4534C23.3284 23.1822 7.56715 23.1822 5.4179 22.4534ZM11.8657 18.0809C14.4925 16.8663 17 15.6517 19.3881 14.4371C17 12.9796 14.4925 11.6435 11.8657 10.4289C11.8657 13.1011 11.8657 15.6517 11.8657 18.0809Z" fill="url(#paint0_linear_52_13001)"/>
</g>
<defs>
<linearGradient id="paint0_linear_52_13001" x1="3.26866" y1="-1.23121" x2="26.5522" y2="-1.23121" gradientUnits="userSpaceOnUse">
<stop stop-color="#FD3832"/>
<stop offset="1" stop-color="#B01711"/>
</linearGradient>
</defs>
</svg>
