<svg width="24" height="24" viewBox="0 0 24 24" fill="none" xmlns="http://www.w3.org/2000/svg">
<g id="carbon:query">
<path id="Vector" d="M8.25 12.75C8.87132 12.75 9.375 12.2463 9.375 11.625C9.375 11.0037 8.87132 10.5 8.25 10.5C7.62868 10.5 7.125 11.0037 7.125 11.625C7.125 12.2463 7.62868 12.75 8.25 12.75Z" fill="black"/>
<path id="Vector_2" d="M9 9H7.5V6H9C9.39782 6 9.77936 5.84196 10.0607 5.56066C10.342 5.27936 10.5 4.89782 10.5 4.5C10.5 4.10218 10.342 3.72064 10.0607 3.43934C9.77936 3.15804 9.39782 3 9 3H7.5C7.1023 3.0004 6.721 3.15856 6.43978 3.43978C6.15856 3.721 6.0004 4.1023 6 4.5V4.875H4.5V4.5C4.50099 3.70466 4.81738 2.94217 5.37978 2.37978C5.94217 1.81738 6.70466 1.50099 7.5 1.5H9C9.79565 1.5 10.5587 1.81607 11.1213 2.37868C11.6839 2.94129 12 3.70435 12 4.5C12 5.29565 11.6839 6.05871 11.1213 6.62132C10.5587 7.18393 9.79565 7.5 9 7.5V9Z" fill="black"/>
<path id="Vector_3" d="M16.836 15.7755C17.5863 14.8776 18.1365 13.8301 18.4499 12.7027C18.7632 11.5753 18.8325 10.3941 18.6532 9.23784C18.4738 8.08158 18.0499 6.97686 17.4097 5.99742C16.7695 5.01797 15.9278 4.18633 14.9408 3.55798L14.1915 4.85548C15.1695 5.49522 15.9646 6.37799 16.4989 7.41736C17.0333 8.45672 17.2885 9.61704 17.2396 10.7847C17.1907 11.9523 16.8394 13.0873 16.2201 14.0783C15.6008 15.0694 14.7347 15.8826 13.7066 16.4384C12.6786 16.9941 11.5238 17.2734 10.3554 17.2487C9.18696 17.224 8.04499 16.8964 7.04129 16.2977C6.03759 15.6991 5.20658 14.85 4.62963 13.8337C4.05268 12.8174 3.74957 11.6686 3.75 10.5H2.25C2.24887 12.0678 2.69483 13.6035 3.53559 14.9268C4.37635 16.2502 5.57703 17.3063 6.99681 17.9714C8.41659 18.6365 9.99659 18.883 11.5515 18.6819C13.1064 18.4807 14.5717 17.8404 15.7755 16.836L21.4395 22.5L22.5 21.4395L16.836 15.7755Z" fill="black"/>
</g>
</svg>
