<svg width="51" height="51" viewBox="0 0 51 51" fill="none" xmlns="http://www.w3.org/2000/svg">
<g id="Group 217">
<circle id="Ellipse 16" cx="25.5" cy="25.5" r="25.5" fill="#F9F9F9"/>
<path id="&#60;Path&#62;" d="M28.3529 18.3846C28.3529 19 28.3529 20.2308 28.3529 22.0769C30.2352 22.0769 31.6471 22.0769 32.5882 22.0769C32.9019 22.0769 33.2157 22.0769 33.5294 22.0769C33.2157 23.9231 33.0588 25.7692 33.0588 27.6154H28.3529V41H22.7059V27.6154H18V22.0769H22.7059V21.6154C22.7059 20.6923 22.7059 19.6154 22.7059 18.3846C22.7059 17.7692 22.7059 17.1538 22.7059 16.5385C23.0196 14.6923 23.8039 13.3077 25.0588 12.3846C26.3137 11.4615 27.7255 11 29.2941 11C30.2353 11 31.1764 11 32.1176 11C32.7451 11.3077 33.3726 11.4615 34 11.4615V16.0769C33.6863 16.0769 33.5294 16.0769 33.5294 16.0769C32.5882 16.0769 31.647 16.0769 30.7058 16.0769C29.2941 16.0769 28.3529 16.5385 28.3529 18.3846Z" fill="url(#paint0_linear_52_12013)"/>
</g>
<defs>
<linearGradient id="paint0_linear_52_12013" x1="18" y1="1.76923" x2="34" y2="1.76923" gradientUnits="userSpaceOnUse">
<stop stop-color="#1E4FAD"/>
<stop offset="1" stop-color="#002F8A"/>
</linearGradient>
</defs>
</svg>
