<svg width="51" height="51" viewBox="0 0 51 51" fill="none" xmlns="http://www.w3.org/2000/svg">
<g id="Group 220">
<circle id="Ellipse 16" cx="25.5" cy="25.5" r="25" fill="#F9F9F9" stroke="#EBEBEB"/>
<path id="&#60;Compound Path&#62;" fill-rule="evenodd" clip-rule="evenodd" d="M39.4153 33.9059C38.7917 37.3032 36.7648 39.1562 33.3347 39.4651C30.5283 39.9283 19.3025 40.3916 16.9638 39.4651C13.8455 38.5385 11.9745 36.5311 11.3508 33.4426C10.8831 30.663 10.8831 19.5447 11.3508 17.2283C12.2863 13.8311 14.4691 11.8236 17.8992 11.2059C20.7056 10.7426 28.6572 11.2059 31.9314 11.2059C34.2701 11.2059 36.1411 12.1324 37.5444 13.5222C38.7917 14.7576 39.5712 16.3018 39.8831 18.1549C39.8831 20.4712 40.3508 31.5896 39.4153 33.9059ZM37.0766 18.6181C37.0766 15.8385 35.2057 14.4488 32.867 13.9855C30.5282 13.5222 21.1734 13.5222 18.3669 13.9855C16.0282 14.4488 14.1573 15.8385 13.6895 18.1549C13.2218 20.9345 13.6895 30.663 13.6895 32.9794C14.0013 35.1413 15.2487 36.5311 17.4315 37.1487C19.7702 37.612 30.0605 37.612 32.3992 37.1487C35.2056 36.6855 36.6089 35.2957 37.0766 32.9794C37.5443 30.1998 37.5443 20.9345 37.0766 18.6181ZM32.867 25.5671C32.867 29.7365 29.5927 32.9794 25.3831 32.9794C21.1734 32.9794 17.8992 29.7365 17.8992 25.5671C17.8992 21.3977 21.1734 18.1549 25.3831 18.1549C29.5927 18.1549 32.867 21.3977 32.867 25.5671ZM30.5282 25.5671C30.5282 22.7875 28.1895 20.9345 25.3831 20.9345C23.0443 20.9345 20.7056 22.7875 20.7056 25.5671C20.7056 28.3467 22.5766 30.1998 25.3831 30.1998C28.1895 30.1998 30.5282 28.3467 30.5282 25.5671ZM35.2057 17.6916C35.2057 18.6181 34.2702 19.5447 33.3347 19.5447C32.3992 19.5447 31.4638 18.6181 31.4638 17.6916C31.4638 16.7651 32.3992 16.3018 33.3347 16.3018C34.2702 16.3018 35.2057 16.7651 35.2057 17.6916Z" fill="url(#paint0_linear_52_12019)"/>
</g>
<defs>
<linearGradient id="paint0_linear_52_12019" x1="10.8831" y1="1.94059" x2="39.8831" y2="1.94059" gradientUnits="userSpaceOnUse">
<stop stop-color="#3542E0"/>
<stop offset="0.6" stop-color="#C82091"/>
<stop offset="0.8" stop-color="#F62B37"/>
<stop offset="1" stop-color="#FFC658"/>
</linearGradient>
</defs>
</svg>
