<svg width="51" height="51" viewBox="0 0 51 51" fill="none" xmlns="http://www.w3.org/2000/svg">
<g id="Group 226">
<circle id="Ellipse 16" cx="25.5" cy="25.5" r="25" fill="#F9F9F9" stroke="#EBEBEB"/>
<path id="Vector" d="M40.9863 34.5525H38.9581C38.8543 35.487 38.2313 36.6845 36.6739 36.6845C35.2548 36.6845 34.2304 35.7016 33.2475 34.2064C36.307 31.8391 38.4182 28.1496 38.4182 23.6157C38.4251 15.4823 31.7315 10 24.6849 10C17.7836 10 11 15.5169 11 23.6157C11 32.8981 20.0886 38.9549 28.2359 36.6983C29.5995 39.0241 31.3993 41.0108 34.8257 41.0108C40.4879 41.0108 41.1109 35.7985 40.9863 34.5525ZM31.0532 30.5723C29.7034 28.5511 28.0282 26.959 24.7195 26.959C22.6083 26.959 20.9608 27.6512 19.9433 28.5372L20.7878 30.2193C21.2169 30.0116 21.6876 29.9424 22.1583 29.9424C24.6157 29.9424 25.8755 32.0744 26.9484 34.1856C26.2562 34.3933 25.5155 34.4764 24.6849 34.4764C19.4933 34.4764 17.2437 30.8077 17.2437 23.6295C17.2437 16.4029 19.4933 12.6996 24.6849 12.6996C29.9595 12.6996 32.2091 16.4029 32.2091 23.6157C32.2161 26.5091 31.8354 28.8487 31.0532 30.5723Z" fill="#EB2A2A"/>
</g>
</svg>
