<svg width="51" height="51" viewBox="0 0 51 51" fill="none" xmlns="http://www.w3.org/2000/svg">
<g id="Group 219">
<circle id="Ellipse 16" cx="25.5" cy="25.5" r="25" fill="#F9F9F9" stroke="#EBEBEB"/>
<path id="&#60;Path&#62;" d="M19.3 32.7547C15.6833 32.7547 13.6167 30.169 13.1 28.1005C14.1334 28.4452 15.1667 28.4452 16.2001 28.1005C14.4778 27.7557 13.1 26.7214 12.0667 24.9976C11.3778 23.9634 11.0334 22.9291 11.0334 21.8948C12.0667 22.2396 12.9278 22.4119 13.6167 22.4119C12.239 21.3777 11.3778 20.171 11.0334 18.792C10.689 17.0682 11.0334 15.5168 12.0667 14.1377C15.5112 18.2748 19.8167 20.5158 24.9834 20.8605C24.9834 20.5158 24.9834 20.171 24.9834 19.8262C24.6389 18.4472 24.9834 17.0682 26.0167 15.6891C27.05 14.3101 28.4278 13.4482 30.15 13.1034C32.2167 12.7587 34.1111 13.2758 35.8333 14.6548C35.8333 14.6548 36.0056 14.6548 36.35 14.6548C37.3834 14.3101 38.589 13.9653 39.9668 13.6206C39.9668 13.2758 39.9668 13.1034 39.9668 13.1034C39.6223 14.8272 38.7612 16.0339 37.3834 16.7234C38.4168 16.7234 39.6222 16.3786 41 15.6891C40.6556 16.0339 40.3112 16.3786 39.9668 16.7234C39.2779 17.7577 38.5889 18.4472 37.9 18.792C37.9 19.1367 37.9 19.3091 37.9 19.3091C37.9 20.3434 37.7279 21.2053 37.3834 21.8948C37.3834 23.9634 36.8667 25.8595 35.8333 27.5833C35.1444 29.6519 33.9389 31.3757 32.2167 32.7547C29.8056 35.168 26.8778 36.8918 23.4334 37.9261C22.4 37.9261 21.3667 37.9261 20.3333 37.9261C16.5444 38.2709 13.1 37.409 10 35.3404C12.0667 35.6852 14.1334 35.3404 16.2001 34.3061C17.2334 33.9614 18.2667 33.4442 19.3 32.7547Z" fill="url(#paint0_linear_52_12016)"/>
</g>
<defs>
<linearGradient id="paint0_linear_52_12016" x1="10" y1="2.76064" x2="41" y2="2.76064" gradientUnits="userSpaceOnUse">
<stop stop-color="#1BA5D4"/>
<stop offset="1" stop-color="#0079A3"/>
</linearGradient>
</defs>
</svg>
