<svg width="51" height="51" viewBox="0 0 51 51" fill="none" xmlns="http://www.w3.org/2000/svg">
<g clip-path="url(#clip0_237_414)">
<path d="M25.5 50.5C39.3071 50.5 50.5 39.3071 50.5 25.5C50.5 11.6929 39.3071 0.5 25.5 0.5C11.6929 0.5 0.5 11.6929 0.5 25.5C0.5 39.3071 11.6929 50.5 25.5 50.5Z" fill="#F9F9F9" stroke="#EBEBEB"/>
<path fill-rule="evenodd" clip-rule="evenodd" d="M14.9216 35.357C13.7674 35.0712 13.046 34.3567 12.7574 33.2136C11.8918 30.6415 11.459 19.9245 13.1903 17.7811C13.7674 16.9237 14.6331 16.495 15.7873 16.495C20.5485 15.6376 36.1306 16.0663 37.8619 16.495C39.0162 16.7808 39.7376 17.4953 40.0261 18.6384C41.3246 21.2105 41.3246 31.0702 40.0261 33.6423C39.7376 34.4996 39.1605 35.0712 38.2948 35.357C36.5635 36.2143 17.5186 36.2143 14.9216 35.357ZM22.7127 30.2128C25.8868 28.7839 28.9167 27.3549 31.8023 25.926C28.9167 24.2113 25.8868 22.6395 22.7127 21.2105C22.7127 24.3542 22.7127 27.3549 22.7127 30.2128Z" fill="url(#paint0_linear_237_414)"/>
</g>
<defs>
<linearGradient id="paint0_linear_237_414" x1="12.3246" y1="7.49271" x2="40.459" y2="7.49271" gradientUnits="userSpaceOnUse">
<stop stop-color="#FD3832"/>
<stop offset="1" stop-color="#B01711"/>
</linearGradient>
<clipPath id="clip0_237_414">
<rect width="51" height="51" fill="white"/>
</clipPath>
</defs>
</svg>
